<svg width="892" height="576" viewBox="0 0 892 576" fill="none" xmlns="http://www.w3.org/2000/svg">
<path d="M93.9462 52.3192L23.9759 576H822.03L892 56.7199C892 56.7199 892 47.9185 882.703 46.4516C873.406 44.9847 399.272 46.4516 399.272 46.4516H102.754C95.4142 46.4516 93.9462 52.3192 93.9462 52.3192Z" fill="#C685FE"/>
<path d="M23.9759 576L93.9462 52.3192C93.9462 52.3192 95.4142 46.4516 102.754 46.4516H399.272L380.189 2.93379C380.189 2.93379 377.742 0 373.828 0H6.85025C1.46791 0 0 6.8455 0 6.8455L23.9759 576Z" fill="#BA69FF"/>
<path d="M111.31 411.63C108.23 411.63 105.337 411 102.63 409.74C99.97 408.48 97.6133 406.777 95.56 404.63C93.5533 402.437 91.9667 399.893 90.8 397C89.6333 394.107 89.05 391.003 89.05 387.69C89.05 384.423 89.6333 381.343 90.8 378.45C91.9667 375.51 93.5533 372.967 95.56 370.82C97.6133 368.673 99.97 366.97 102.63 365.71C105.337 364.45 108.23 363.82 111.31 363.82C114.39 363.82 117.283 364.45 119.99 365.71C122.697 366.97 125.053 368.673 127.06 370.82C129.067 372.967 130.653 375.51 131.82 378.45C132.987 381.343 133.57 384.423 133.57 387.69C133.57 391.003 132.987 394.107 131.82 397C130.653 399.893 129.067 402.437 127.06 404.63C125.053 406.777 122.697 408.48 119.99 409.74C117.283 411 114.39 411.63 111.31 411.63ZM111.45 407.92C114.017 407.92 116.443 407.407 118.73 406.38C121.017 405.307 123 403.86 124.68 402.04C126.407 400.22 127.76 398.097 128.74 395.67C129.767 393.197 130.28 390.56 130.28 387.76C130.28 385.007 129.767 382.417 128.74 379.99C127.76 377.517 126.407 375.37 124.68 373.55C123 371.683 121.017 370.213 118.73 369.14C116.443 368.067 114.017 367.53 111.45 367.53C108.837 367.53 106.387 368.067 104.1 369.14C101.813 370.213 99.83 371.683 98.15 373.55C96.47 375.37 95.14 377.517 94.16 379.99C93.18 382.417 92.69 385.007 92.69 387.76C92.69 390.56 93.18 393.197 94.16 395.67C95.14 398.097 96.47 400.22 98.15 402.04C99.83 403.86 101.813 405.307 104.1 406.38C106.387 407.407 108.837 407.92 111.45 407.92ZM115.3 385.17C115.113 384.283 114.693 383.607 114.04 383.14C113.433 382.627 112.733 382.37 111.94 382.37C110.773 382.37 109.84 382.86 109.14 383.84C108.44 384.773 108.09 385.987 108.09 387.48C108.09 391.307 109.327 393.22 111.8 393.22C112.64 393.22 113.387 392.963 114.04 392.45C114.693 391.89 115.067 391.12 115.16 390.14H120.2C119.967 392.24 119.033 393.943 117.4 395.25C115.813 396.557 113.877 397.21 111.59 397.21C108.79 397.21 106.643 396.393 105.15 394.76C103.703 393.08 102.98 390.84 102.98 388.04C102.98 384.96 103.727 382.58 105.22 380.9C106.713 379.173 108.907 378.31 111.8 378.31C114.227 378.31 116.21 378.94 117.75 380.2C119.29 381.413 120.13 383.07 120.27 385.17H115.3Z" fill="#222222"/>
<path d="M103.416 439.04H103.352L97.912 455.936H108.728L103.416 439.04ZM113.976 472L111.288 463.232H95.608L92.6 472H83.192L98.36 429.504H108.664L123.64 472H113.976Z" fill="#222222"/>
<path d="M142.941 449.344C145.501 449.344 147.336 448.768 148.445 447.616C149.597 446.421 150.173 444.885 150.173 443.008C150.173 441.216 149.597 439.744 148.445 438.592C147.336 437.44 145.501 436.864 142.941 436.864H134.493V449.344H142.941ZM125.597 472V429.504H144.349C146.44 429.504 148.317 429.867 149.981 430.592C151.645 431.275 153.074 432.256 154.269 433.536C155.464 434.773 156.381 436.224 157.021 437.888C157.661 439.552 157.981 441.344 157.981 443.264C157.981 445.184 157.661 446.976 157.021 448.64C156.381 450.261 155.464 451.669 154.269 452.864C153.074 454.016 151.645 454.933 149.981 455.616C148.317 456.256 146.44 456.576 144.349 456.576H134.493V472H125.597Z" fill="#222222"/>
<path d="M181.453 472L173.325 457.408L164.749 472H154.381L168.141 450.304L155.149 429.504H165.645L173.325 443.264L181.069 429.504H191.373L178.445 449.92L192.269 472H181.453Z" fill="#222222"/>
<path d="M194.539 472V429.504H202.987V457.216L219.627 429.504H228.907V472H220.523V443.072L202.859 472H194.539Z" fill="#222222"/>
<path d="M251.75 464.768C253.798 464.768 255.398 464.192 256.55 463.04C257.702 461.888 258.278 460.437 258.278 458.688C258.278 456.811 257.702 455.445 256.55 454.592C255.44 453.739 253.883 453.312 251.878 453.312H240.486V464.768H251.75ZM240.486 436.864V446.08H251.686C255.27 446.08 257.062 444.544 257.062 441.472C257.062 439.851 256.592 438.677 255.654 437.952C254.758 437.227 253.264 436.864 251.174 436.864H240.486ZM231.91 472V429.504H252.838C257.019 429.504 260.198 430.549 262.374 432.64C264.55 434.688 265.638 437.504 265.638 441.088C265.638 442.923 265.147 444.565 264.166 446.016C263.184 447.424 261.947 448.427 260.454 449.024C261.35 449.365 262.182 449.813 262.95 450.368C263.76 450.88 264.443 451.563 264.998 452.416C265.595 453.227 266.064 454.208 266.406 455.36C266.747 456.469 266.918 457.792 266.918 459.328C266.918 463.211 265.616 466.304 263.014 468.608C260.411 470.869 256.422 472 251.046 472H231.91Z" fill="#222222"/>
<path d="M110.264 530V494.736H93.368V530H84.664V487.504H119.032V530H110.264Z" fill="#222222"/>
<path d="M140.979 497.04H140.915L135.475 513.936H146.291L140.979 497.04ZM151.539 530L148.851 521.232H133.171L130.163 530H120.755L135.923 487.504H146.227L161.203 530H151.539Z" fill="#222222"/>
<path d="M189.272 530L176.664 510.864L171.928 515.536V530H163.16V487.504H171.928V504.784L188.184 487.504H199.704L182.936 504.272L200.088 530H189.272Z" fill="#222222"/>
<path d="M216.314 523.856C217.892 523.856 219.386 523.579 220.794 523.024C222.202 522.427 223.418 521.552 224.442 520.4C225.508 519.205 226.34 517.691 226.938 515.856C227.535 514.021 227.834 511.845 227.834 509.328C227.834 504.293 226.852 500.475 224.89 497.872C222.927 495.269 220.068 493.968 216.314 493.968C212.559 493.968 209.679 495.269 207.674 497.872C205.668 500.475 204.666 504.293 204.666 509.328C204.666 514.363 205.668 518.053 207.674 520.4C209.722 522.704 212.602 523.856 216.314 523.856ZM216.314 531.472C209.743 531.472 204.687 529.552 201.146 525.712C197.647 521.872 195.898 516.347 195.898 509.136C195.898 505.552 196.346 502.331 197.242 499.472C198.138 496.613 199.46 494.203 201.21 492.24C202.959 490.235 205.092 488.72 207.61 487.696C210.127 486.629 213.028 486.096 216.314 486.096C219.556 486.096 222.436 486.629 224.954 487.696C227.514 488.72 229.647 490.235 231.354 492.24C233.06 494.245 234.362 496.699 235.258 499.6C236.154 502.459 236.602 505.701 236.602 509.328C236.602 516.667 234.852 522.192 231.354 525.904C227.898 529.616 222.884 531.472 216.314 531.472Z" fill="#222222"/>
<path d="M276.725 515.408C276.255 517.84 275.509 520.037 274.485 522C273.461 523.963 272.159 525.648 270.581 527.056C269.045 528.464 267.253 529.552 265.205 530.32C263.157 531.088 260.895 531.472 258.421 531.472C255.647 531.472 253.045 531.003 250.613 530.064C248.223 529.125 246.154 527.717 244.405 525.84C242.655 523.963 241.269 521.659 240.245 518.928C239.263 516.155 238.773 512.933 238.773 509.264C238.773 505.68 239.221 502.459 240.117 499.6C241.055 496.699 242.378 494.267 244.085 492.304C245.791 490.299 247.861 488.763 250.293 487.696C252.767 486.629 255.519 486.096 258.549 486.096C261.194 486.096 263.583 486.501 265.717 487.312C267.893 488.08 269.749 489.168 271.285 490.576C272.863 491.941 274.101 493.563 274.997 495.44C275.935 497.317 276.511 499.323 276.725 501.456H267.829C267.231 499.024 266.079 497.147 264.373 495.824C262.666 494.459 260.746 493.776 258.613 493.776C254.901 493.776 252.17 495.12 250.421 497.808C248.671 500.453 247.797 504.101 247.797 508.752C247.797 513.488 248.65 517.179 250.357 519.824C252.106 522.427 254.709 523.728 258.165 523.728C260.81 523.728 262.922 523.024 264.501 521.616C266.122 520.165 267.231 518.096 267.829 515.408H276.725Z" fill="#222222"/>
<path d="M288.556 530V494.928H275.756V487.504H310.316V494.928H297.452V530H288.556Z" fill="#222222"/>
<path d="M312.41 530V487.504H343.642V494.928H321.05V504.016H341.85V511.504H321.05V522.448H344.666V530H312.41Z" fill="#222222"/>
<path d="M374.184 471.248C374.184 473.04 373.885 474.597 373.288 475.92C372.733 477.243 371.965 478.352 370.984 479.248C370.045 480.101 368.936 480.763 367.656 481.232C366.419 481.659 365.139 481.872 363.816 481.872C362.493 481.872 361.192 481.659 359.912 481.232C358.675 480.763 357.565 480.101 356.584 479.248C355.645 478.352 354.877 477.243 354.28 475.92C353.725 474.597 353.448 473.04 353.448 471.248H358.696C358.781 473.04 359.251 474.427 360.104 475.408C361 476.347 362.237 476.816 363.816 476.816C365.395 476.816 366.611 476.347 367.464 475.408C368.36 474.427 368.851 473.04 368.936 471.248H374.184ZM346.664 530V487.504H355.112V515.216L371.752 487.504H381.032V530H372.648V501.072L354.984 530H346.664Z" fill="#222222"/>
</svg>
