<svg width="262" height="395" viewBox="0 0 262 395" fill="none" xmlns="http://www.w3.org/2000/svg">
<rect width="262" height="395" rx="20.1398" fill="#EA8CFF"/>
<path d="M131.57 278.999C86.9303 278.803 73.3442 247.574 67.7157 244.824C62.0872 242.074 40.9318 244.235 39.7673 222.433C38.6027 200.632 54.5178 203.185 53.3533 200.632C52.1888 198.079 54.7693 195.569 55.4883 193.169C56.2072 190.768 19 162.332 19 162.332C19 162.332 52.7703 162.922 55.4883 156.244C58.2062 149.566 48.6952 114.802 48.6952 114.802C48.6952 114.802 73.4825 137.717 84.6012 134.246C101.065 129.107 101.487 93.0003 101.487 93.0003C101.487 93.0003 119.057 116.772 127.392 125.659C129.183 127.569 130.644 128.791 131.57 128.943C132.596 129.111 134.407 127.829 136.661 125.659C145.911 116.756 162.624 92.9076 163.206 93.0003C163.844 93.1018 170.294 122.934 176.865 131.889C177.749 133.093 178.635 133.92 179.51 134.246C186.71 136.931 216.569 115.591 217.532 114.821C217.539 114.811 217.546 114.804 217.551 114.802C217.562 114.795 217.556 114.802 217.532 114.821C216.866 115.752 207.412 147.805 213.281 156.244C212.305 160.025 241.55 162.373 242.189 162.335C242.195 162.333 242.199 162.332 242.2 162.332C242.201 162.334 242.198 162.335 242.189 162.335C241.517 162.648 209.135 186.926 213.281 190.615C217.461 194.336 217.162 198.275 217.551 200.632C217.939 202.989 227.255 202.007 226.285 222.433C225.314 242.86 201.83 242.467 197.948 244.824C194.066 247.181 176.21 279.196 131.57 278.999Z" fill="#E15DFF"/>
<path d="M131.57 278.999L131.581 276.499L131.57 278.999ZM197.948 244.824L199.245 246.961V246.961L197.948 244.824ZM242.2 162.332L240.607 164.26L240.614 164.265L242.2 162.332ZM213.281 156.244L215.701 156.868L215.988 155.758L215.333 154.817L213.281 156.244ZM217.551 114.802L218.74 117.001L218.74 117.001L217.551 114.802ZM179.51 134.246L178.636 136.589V136.589L179.51 134.246ZM101.487 93.0003L103.497 91.5143C102.859 90.6507 101.74 90.2912 100.718 90.6213C99.6965 90.9513 98.9995 91.8972 98.987 92.971L101.487 93.0003ZM84.6012 134.246L83.8563 131.86V131.86L84.6012 134.246ZM48.6952 114.802L50.3923 112.966C49.5731 112.208 48.351 112.086 47.3974 112.665C46.4438 113.244 45.9894 114.385 46.2839 115.461L48.6952 114.802ZM55.4883 156.244L53.1727 155.301V155.301L55.4883 156.244ZM19 162.332L19.0436 159.833C17.9638 159.814 16.994 160.491 16.639 161.511C16.2839 162.53 16.6239 163.663 17.4819 164.319L19 162.332ZM53.3533 200.632L55.6279 199.595V199.595L53.3533 200.632ZM39.7673 222.433L42.2637 222.3V222.3L39.7673 222.433ZM92.8842 130.14C91.918 129.153 90.3352 129.137 89.3488 130.103C88.3625 131.069 88.3461 132.652 89.3122 133.638L91.0982 131.889L92.8842 130.14ZM110.701 142.299L110.754 144.798V144.798L110.701 142.299ZM131.57 128.943L131.975 126.476V126.476L131.57 128.943ZM127.392 125.659L129.216 123.949V123.949L127.392 125.659ZM163.206 93.0003L162.813 95.4692L162.813 95.4692L163.206 93.0003ZM136.661 125.659L134.928 123.858L134.928 123.858L136.661 125.659ZM67.7157 244.824L66.6184 247.07C66.8236 247.171 67.3564 247.592 68.3794 248.739C69.3388 249.813 70.4473 251.189 71.869 252.896C74.6617 256.25 78.3928 260.549 83.4006 264.779C93.4699 273.283 108.58 281.398 131.559 281.499L131.57 278.999L131.581 276.499C109.921 276.404 95.9176 268.806 86.6268 260.959C81.9546 257.013 78.4438 252.978 75.7111 249.696C74.3701 248.086 73.145 246.569 72.1097 245.409C71.138 244.32 70.015 243.165 68.8131 242.578L67.7157 244.824ZM131.57 278.999L131.559 281.499C154.54 281.6 170.698 273.392 181.588 264.835C187.018 260.568 191.122 256.228 194.097 252.833C195.55 251.174 196.819 249.64 197.707 248.608C198.174 248.066 198.545 247.65 198.843 247.344C199.173 247.005 199.288 246.935 199.245 246.961L197.948 244.824L196.65 242.687C196.123 243.008 195.643 243.464 195.263 243.853C194.852 244.275 194.398 244.788 193.917 245.347C192.911 246.515 191.8 247.868 190.336 249.538C187.475 252.803 183.598 256.896 178.499 260.903C168.33 268.894 153.24 276.594 131.581 276.499L131.57 278.999ZM197.948 244.824L199.245 246.961C199.245 246.961 199.255 246.955 199.276 246.945C199.297 246.934 199.327 246.92 199.367 246.902C199.448 246.867 199.558 246.824 199.703 246.775C199.995 246.675 200.373 246.567 200.848 246.448C201.82 246.204 202.985 245.963 204.419 245.644C207.206 245.025 210.724 244.175 214.185 242.706C217.65 241.235 221.178 239.095 223.912 235.82C226.677 232.509 228.514 228.176 228.782 222.552L226.285 222.433L223.787 222.315C223.569 226.904 222.107 230.182 220.074 232.616C218.011 235.086 215.243 236.825 212.231 238.104C209.215 239.384 206.073 240.155 203.334 240.763C202.005 241.059 200.691 241.333 199.632 241.598C198.64 241.847 197.499 242.172 196.65 242.687L197.948 244.824ZM226.285 222.433L228.782 222.552C229.283 211.993 227.154 206.392 224.316 203.119C222.923 201.513 221.475 200.612 220.52 200.028C219.99 199.703 219.787 199.577 219.666 199.477C219.569 199.398 219.922 199.647 220.017 200.226L217.551 200.632L215.084 201.038C215.276 202.207 216.005 202.94 216.489 203.338C216.948 203.716 217.528 204.059 217.911 204.293C218.782 204.826 219.675 205.398 220.538 206.394C222.213 208.326 224.256 212.447 223.787 222.315L226.285 222.433ZM217.551 200.632L220.017 200.226C219.706 198.337 219.953 193.207 214.943 188.748L213.281 190.615L211.619 192.483C214.969 195.465 214.619 198.213 215.084 201.038L217.551 200.632ZM213.281 190.615L214.943 188.748C215.329 189.092 215.419 189.54 215.414 189.756C215.411 189.877 215.386 189.795 215.558 189.438C215.896 188.736 216.639 187.691 217.831 186.335C220.174 183.672 223.745 180.375 227.556 177.107C231.346 173.857 235.293 170.704 238.338 168.343C239.859 167.163 241.15 166.184 242.077 165.494C242.541 165.149 242.909 164.879 243.166 164.695C243.295 164.602 243.387 164.537 243.446 164.498C243.597 164.394 243.453 164.505 243.244 164.602L242.189 162.335L241.135 160.069C240.884 160.185 240.636 160.362 240.626 160.369C240.522 160.44 240.395 160.53 240.251 160.632C239.962 160.84 239.569 161.128 239.091 161.483C238.135 162.195 236.818 163.194 235.274 164.392C232.187 166.786 228.172 169.992 224.301 173.311C220.451 176.613 216.661 180.096 214.077 183.033C212.807 184.477 211.695 185.936 211.053 187.269C210.734 187.93 210.438 188.748 210.416 189.63C210.391 190.607 210.714 191.678 211.619 192.483L213.281 190.615ZM242.189 162.335L243.245 164.602C243.202 164.622 243.049 164.693 242.84 164.748C242.741 164.775 242.516 164.829 242.223 164.832C241.986 164.834 241.274 164.811 240.607 164.26L242.2 162.332L243.792 160.405C243.124 159.854 242.412 159.83 242.174 159.832C241.88 159.835 241.653 159.89 241.553 159.917C241.34 159.973 241.183 160.046 241.134 160.069L242.189 162.335ZM242.2 162.332L240.614 164.265C240.451 164.131 240 163.732 239.796 163.02C239.537 162.114 239.83 161.281 240.266 160.749C240.612 160.327 241.003 160.133 241.145 160.067C241.325 159.983 241.478 159.939 241.558 159.917C241.722 159.874 241.853 159.858 241.9 159.852C241.962 159.845 242.012 159.841 242.04 159.84L242.189 162.335L242.339 164.831C242.343 164.83 242.57 164.822 242.838 164.751C242.92 164.729 243.073 164.685 243.254 164.601C243.396 164.534 243.787 164.34 244.133 163.918C244.57 163.385 244.863 162.553 244.604 161.645C244.4 160.933 243.949 160.534 243.786 160.4L242.2 162.332ZM242.189 162.335L242.041 159.84C242.198 159.83 242.254 159.842 241.909 159.82C241.676 159.805 241.343 159.781 240.921 159.747C240.078 159.681 238.902 159.579 237.507 159.443C234.716 159.171 231.072 158.768 227.488 158.247C223.879 157.724 220.432 157.096 217.986 156.393C216.735 156.034 215.926 155.703 215.506 155.451C215.29 155.321 215.35 155.312 215.471 155.482C215.642 155.721 215.863 156.24 215.701 156.868L213.281 156.244L210.86 155.619C210.576 156.72 210.911 157.7 211.404 158.39C211.846 159.009 212.436 159.439 212.927 159.734C213.922 160.334 215.243 160.807 216.606 161.199C219.389 161.999 223.111 162.665 226.77 163.196C230.456 163.731 234.182 164.143 237.023 164.419C238.445 164.558 239.651 164.662 240.526 164.732C240.963 164.766 241.323 164.792 241.588 164.809C241.741 164.819 242.1 164.845 242.338 164.831L242.189 162.335ZM213.281 156.244L215.333 154.817C214.884 154.17 214.48 153.137 214.212 151.639C213.948 150.163 213.841 148.388 213.875 146.385C213.943 142.376 214.569 137.703 215.414 133.175C216.255 128.662 217.3 124.372 218.174 121.155C218.611 119.547 219.003 118.219 219.301 117.276C219.451 116.802 219.572 116.442 219.661 116.199C219.705 116.075 219.734 116.003 219.748 115.97C219.795 115.859 219.729 116.047 219.565 116.276L217.532 114.821L215.499 113.366C215.294 113.652 215.169 113.96 215.142 114.025C215.081 114.169 215.02 114.33 214.96 114.494C214.839 114.827 214.695 115.259 214.534 115.767C214.211 116.789 213.8 118.184 213.349 119.843C212.447 123.162 211.37 127.586 210.498 132.258C209.63 136.915 208.951 141.896 208.876 146.3C208.839 148.503 208.951 150.623 209.29 152.52C209.626 154.394 210.21 156.208 211.228 157.671L213.281 156.244ZM217.532 114.821L219.566 116.275C219.524 116.333 219.451 116.43 219.346 116.539C219.255 116.635 219.053 116.832 218.74 117.001L217.551 114.802L216.361 112.603C215.817 112.897 215.532 113.32 215.499 113.366L217.532 114.821ZM217.551 114.802L218.74 117.001C218.714 117.015 218.639 117.055 218.538 117.098C218.489 117.119 218.39 117.16 218.259 117.198C218.189 117.219 217.837 117.326 217.377 117.293C217.132 117.275 216.657 117.205 216.168 116.879C215.603 116.502 215.234 115.925 215.106 115.297C214.996 114.756 215.092 114.319 215.156 114.102C215.224 113.867 215.313 113.691 215.367 113.593C215.541 113.277 215.75 113.071 215.752 113.07C215.844 112.974 215.923 112.908 215.927 112.904C215.95 112.885 215.966 112.872 215.971 112.868L217.532 114.821L219.094 116.773C219.11 116.76 219.136 116.739 219.166 116.714C219.177 116.704 219.262 116.633 219.357 116.534C219.36 116.531 219.571 116.324 219.745 116.007C219.799 115.909 219.888 115.733 219.957 115.498C220.02 115.28 220.116 114.843 220.006 114.302C219.879 113.674 219.509 113.097 218.944 112.72C218.455 112.394 217.98 112.323 217.735 112.306C217.274 112.273 216.922 112.38 216.851 112.401C216.72 112.439 216.62 112.48 216.57 112.502C216.468 112.546 216.39 112.587 216.361 112.603L217.551 114.802ZM217.532 114.821L215.971 112.868C215.982 112.86 215.958 112.878 215.872 112.942C215.796 112.999 215.692 113.075 215.559 113.171C215.295 113.362 214.93 113.623 214.475 113.945C213.565 114.588 212.304 115.465 210.794 116.49C207.771 118.54 203.764 121.169 199.573 123.686C195.367 126.212 191.043 128.584 187.371 130.153C185.531 130.939 183.932 131.49 182.64 131.771C181.266 132.07 180.595 131.983 180.383 131.904L179.51 134.246L178.636 136.589C180.224 137.18 182.061 137.014 183.703 136.657C185.426 136.282 187.348 135.6 189.335 134.751C193.317 133.049 197.868 130.542 202.147 127.972C210.691 122.841 218.497 117.25 219.094 116.773L217.532 114.821ZM101.487 93.0003C98.987 92.971 98.987 92.9706 98.987 92.9703C98.987 92.9704 98.987 92.9703 98.987 92.9705C98.987 92.9708 98.9869 92.9717 98.9869 92.9732C98.9869 92.976 98.9868 92.9811 98.9867 92.9882C98.9865 93.0026 98.9861 93.0254 98.9855 93.0565C98.9843 93.1187 98.9823 93.2139 98.9789 93.3401C98.9722 93.5926 98.9601 93.9687 98.9389 94.4523C98.8965 95.4199 98.8178 96.8154 98.6727 98.5088C98.382 101.903 97.8278 106.459 96.7781 111.15C95.7237 115.862 94.1963 120.587 92.0162 124.39C89.8314 128.201 87.1421 130.834 83.8563 131.86L84.6012 134.246L85.3462 136.632C90.2921 135.089 93.8293 131.281 96.354 126.877C98.8835 122.464 100.548 117.199 101.657 112.242C102.771 107.264 103.352 102.472 103.654 98.9356C103.806 97.1637 103.889 95.6982 103.934 94.6712C103.957 94.1575 103.97 93.7529 103.977 93.4739C103.981 93.3344 103.983 93.2262 103.985 93.1515C103.985 93.1141 103.986 93.0851 103.986 93.0647C103.986 93.0545 103.986 93.0464 103.986 93.0405C103.987 93.0376 103.987 93.0352 103.987 93.0334C103.987 93.0324 103.987 93.0315 103.987 93.031C103.987 93.0302 103.987 93.0295 101.487 93.0003ZM84.6012 134.246L83.8563 131.86C81.977 132.446 79.0642 131.988 75.2821 130.373C71.6204 128.809 67.6394 126.379 63.9095 123.775C60.1954 121.183 56.8101 118.476 54.3482 116.412C53.1192 115.382 52.1249 114.515 51.44 113.908C51.0977 113.605 50.8329 113.367 50.6551 113.206C50.5663 113.125 50.4991 113.064 50.4549 113.023C50.4328 113.003 50.4165 112.988 50.406 112.978C50.4007 112.974 50.397 112.97 50.3947 112.968C50.3936 112.967 50.3928 112.966 50.3924 112.966C50.3922 112.966 50.3922 112.966 50.3921 112.966C50.3922 112.966 50.3923 112.966 48.6952 114.802C46.9982 116.637 46.9985 116.638 46.999 116.638C46.9993 116.638 46.9998 116.639 47.0004 116.639C47.0015 116.64 47.003 116.642 47.0048 116.644C47.0086 116.647 47.0138 116.652 47.0205 116.658C47.034 116.67 47.0533 116.688 47.0785 116.711C47.1287 116.757 47.2021 116.824 47.2975 116.911C47.4883 117.083 47.7669 117.334 48.1241 117.651C48.8382 118.283 49.8672 119.18 51.1357 120.244C53.6689 122.368 57.1753 125.173 61.0479 127.875C64.9047 130.567 69.2053 133.215 73.3183 134.971C77.311 136.676 81.6661 137.781 85.3462 136.632L84.6012 134.246ZM48.6952 114.802C46.2839 115.461 46.2839 115.461 46.2839 115.461C46.284 115.462 46.284 115.462 46.2841 115.462C46.2844 115.463 46.2848 115.465 46.2853 115.467C46.2863 115.47 46.2879 115.476 46.2901 115.484C46.2945 115.5 46.301 115.524 46.3098 115.557C46.3273 115.621 46.3533 115.717 46.3874 115.844C46.4554 116.096 46.5553 116.469 46.6817 116.947C46.9344 117.903 47.2929 119.278 47.7149 120.95C48.5595 124.295 49.6557 128.818 50.6663 133.542C51.6791 138.275 52.5955 143.163 53.0917 147.252C53.3401 149.3 53.4768 151.096 53.4767 152.546C53.4767 154.073 53.3206 154.938 53.1727 155.301L55.4883 156.244L57.8038 157.186C58.3354 155.88 58.4767 154.198 58.4767 152.546C58.4768 150.817 58.3163 148.801 58.0553 146.65C57.5326 142.343 56.5809 137.287 55.5557 132.495C54.5283 127.693 53.4166 123.108 52.5628 119.726C52.1356 118.034 51.7724 116.641 51.5156 115.669C51.3872 115.184 51.2853 114.803 51.2154 114.544C51.1805 114.414 51.1535 114.314 51.1351 114.247C51.1259 114.213 51.1189 114.187 51.1142 114.169C51.1118 114.161 51.1099 114.154 51.1087 114.149C51.1081 114.147 51.1076 114.145 51.1072 114.144C51.1071 114.143 51.1069 114.143 51.1068 114.143C51.1067 114.142 51.1066 114.142 48.6952 114.802ZM55.4883 156.244L53.1727 155.301C53.1755 155.294 53.1387 155.389 52.944 155.567C52.7474 155.747 52.4369 155.968 51.9756 156.21C51.0424 156.702 49.716 157.168 48.0361 157.587C44.6887 158.42 40.3742 158.96 36.0298 159.3C31.7085 159.638 27.4582 159.772 24.2808 159.82C22.6943 159.845 21.3802 159.848 20.4646 159.845C20.007 159.843 19.6491 159.84 19.407 159.838C19.2859 159.836 19.1938 159.835 19.1326 159.834C19.1019 159.834 19.0791 159.833 19.0642 159.833C19.0567 159.833 19.0512 159.833 19.0478 159.833C19.0461 159.833 19.0449 159.833 19.0442 159.833C19.0438 159.833 19.0437 159.833 19.0435 159.833C19.0435 159.833 19.0436 159.833 19 162.332C18.9564 164.832 18.9568 164.832 18.9573 164.832C18.9576 164.832 18.9582 164.832 18.9589 164.832C18.9603 164.832 18.9621 164.832 18.9645 164.832C18.9692 164.832 18.976 164.832 18.9848 164.833C19.0024 164.833 19.028 164.833 19.0614 164.834C19.1281 164.835 19.2259 164.836 19.3528 164.837C19.6067 164.84 19.9771 164.843 20.4481 164.845C21.39 164.848 22.7354 164.845 24.3573 164.82C27.5968 164.77 31.959 164.634 36.42 164.285C40.858 163.937 45.4957 163.372 49.2446 162.438C51.1129 161.973 52.8708 161.39 54.3046 160.635C55.677 159.913 57.1327 158.835 57.8038 157.186L55.4883 156.244ZM19 162.332C17.4819 164.319 17.482 164.319 17.4823 164.319C17.4825 164.319 17.4829 164.32 17.4834 164.32C17.4845 164.321 17.4861 164.322 17.4883 164.324C17.4927 164.327 17.4993 164.332 17.5081 164.339C17.5257 164.352 17.5521 164.372 17.5871 164.399C17.6569 164.453 17.7607 164.532 17.8963 164.636C18.1675 164.844 18.5656 165.15 19.0722 165.54C20.0856 166.32 21.533 167.438 23.2679 168.787C26.7387 171.485 31.3555 175.106 35.9469 178.798C40.5452 182.497 45.0909 186.246 48.4317 189.208C50.1097 190.696 51.4368 191.944 52.3069 192.868C52.7506 193.34 53.0103 193.658 53.1346 193.84C53.2002 193.935 53.1706 193.911 53.1233 193.792C53.1063 193.749 52.8711 193.194 53.0934 192.451L55.4883 193.169L57.8832 193.886C58.1504 192.994 57.8861 192.238 57.7704 191.946C57.6245 191.579 57.4268 191.258 57.2594 191.014C56.9177 190.515 56.4517 189.977 55.9468 189.44C54.9197 188.35 53.458 186.983 51.749 185.467C48.3156 182.423 43.6942 178.613 39.0806 174.902C34.4601 171.186 29.82 167.548 26.3369 164.839C24.5949 163.485 23.1411 162.362 22.1225 161.578C21.6131 161.186 21.2126 160.878 20.939 160.669C20.8023 160.564 20.6973 160.483 20.6264 160.429C20.5909 160.402 20.564 160.381 20.5458 160.367C20.5367 160.36 20.5299 160.355 20.5252 160.352C20.5229 160.35 20.5211 160.348 20.5199 160.348C20.5194 160.347 20.5189 160.347 20.5186 160.347C20.5182 160.346 20.5181 160.346 19 162.332ZM55.4883 193.169L53.0934 192.451C52.9885 192.802 52.792 193.227 52.4788 193.817C52.2059 194.332 51.781 195.084 51.4544 195.774C50.7898 197.18 50.017 199.342 51.0787 201.67L53.3533 200.632L55.6279 199.595C55.5252 199.369 55.4603 198.999 55.9746 197.912C56.2374 197.356 56.5197 196.87 56.8965 196.159C57.2329 195.525 57.6286 194.736 57.8832 193.886L55.4883 193.169ZM53.3533 200.632L51.0787 201.67C50.926 201.335 50.8053 200.744 51.0686 200.105C51.2846 199.581 51.6316 199.353 51.6568 199.336C51.6582 199.335 51.4799 199.428 50.7293 199.691C49.4732 200.133 47.3343 200.825 45.1942 202.221C43.0054 203.649 40.8195 205.8 39.2888 209.149C37.7707 212.471 36.964 216.822 37.2708 222.567L39.7673 222.433L42.2637 222.3C41.9883 217.144 42.7342 213.639 43.8363 211.228C44.9257 208.844 46.4276 207.386 47.9264 206.409C49.4739 205.399 51.0226 204.888 52.3868 204.409C52.9462 204.212 53.8112 203.915 54.4554 203.479C54.8021 203.245 55.3705 202.789 55.6911 202.011C56.059 201.119 55.9263 200.249 55.6279 199.595L53.3533 200.632ZM39.7673 222.433L37.2708 222.567C37.5846 228.441 39.2629 232.9 41.8522 236.267C44.429 239.617 47.7686 241.706 51.1152 243.085C54.44 244.454 57.8675 245.161 60.6764 245.688C62.1199 245.96 63.3399 246.173 64.4086 246.408C65.4955 246.648 66.1968 246.864 66.6184 247.07L67.7157 244.824L68.8131 242.578C67.8275 242.096 66.6365 241.779 65.4845 241.525C64.3145 241.267 62.9491 241.028 61.5997 240.774C58.8225 240.253 55.833 239.621 53.0198 238.462C50.2284 237.312 47.709 235.681 45.8157 233.219C43.935 230.773 42.5322 227.327 42.2637 222.3L39.7673 222.433ZM91.0982 131.889C89.3122 133.638 89.3126 133.639 89.3131 133.639C89.3133 133.639 89.3138 133.64 89.3142 133.64C89.3151 133.641 89.3161 133.642 89.3172 133.643C89.3195 133.646 89.3225 133.649 89.326 133.652C89.3332 133.66 89.3429 133.669 89.355 133.682C89.3793 133.706 89.4136 133.74 89.4573 133.784C89.5449 133.87 89.6709 133.994 89.8323 134.149C90.1551 134.458 90.6208 134.894 91.2067 135.414C92.3757 136.45 94.0378 137.833 96.0096 139.215C99.8342 141.895 105.301 144.914 110.754 144.798L110.701 142.299L110.648 139.799C106.887 139.879 102.552 137.694 98.8789 135.12C97.1018 133.875 95.5909 132.618 94.524 131.672C93.992 131.201 93.5742 130.809 93.2928 130.54C93.1522 130.405 93.046 130.301 92.9769 130.232C92.9423 130.198 92.9171 130.173 92.9015 130.157C92.8937 130.149 92.8884 130.144 92.8855 130.141C92.884 130.139 92.8832 130.138 92.883 130.138C92.8828 130.138 92.8829 130.138 92.8831 130.138C92.8832 130.139 92.8835 130.139 92.8835 130.139C92.8838 130.139 92.8842 130.14 91.0982 131.889ZM131.57 128.943L131.975 126.476C132.139 126.503 132.16 126.543 132.003 126.455C131.862 126.376 131.651 126.235 131.366 126.007C130.794 125.55 130.073 124.863 129.216 123.949L127.392 125.659L125.569 127.37C126.502 128.365 127.408 129.244 128.245 129.913C128.989 130.508 130.019 131.222 131.166 131.41L131.57 128.943ZM127.392 125.659L129.216 123.949C125.144 119.608 118.739 111.54 113.294 104.471C110.585 100.955 108.135 97.7142 106.362 95.3525C105.475 94.1719 104.758 93.2114 104.264 92.5464C104.016 92.214 103.824 91.9555 103.694 91.7803C103.629 91.6927 103.58 91.626 103.547 91.5813C103.53 91.5589 103.518 91.542 103.509 91.5308C103.505 91.5252 103.502 91.521 103.5 91.5183C103.499 91.5169 103.498 91.5159 103.498 91.5152C103.498 91.5149 103.498 91.5147 103.497 91.5145C103.497 91.5144 103.497 91.5143 101.487 93.0003C99.4763 94.4862 99.4764 94.4863 99.4766 94.4866C99.4767 94.4868 99.477 94.4871 99.4773 94.4875C99.4778 94.4883 99.4787 94.4894 99.4798 94.4909C99.482 94.4939 99.4853 94.4984 99.4896 94.5042C99.4983 94.5159 99.5112 94.5333 99.5281 94.5562C99.562 94.602 99.6122 94.6698 99.678 94.7585C99.8096 94.9359 100.003 95.1968 100.253 95.5317C100.751 96.2015 101.472 97.1676 102.363 98.3545C104.145 100.728 106.608 103.986 109.333 107.523C114.757 114.563 121.305 122.824 125.569 127.37L127.392 125.659ZM110.701 142.299L110.754 144.798C113.801 144.733 116.51 143.335 118.741 141.581C120.984 139.819 122.937 137.548 124.521 135.38C126.114 133.199 127.394 131.039 128.273 129.432C128.715 128.625 129.059 127.951 129.294 127.474C129.412 127.236 129.503 127.046 129.566 126.914C129.597 126.847 129.622 126.795 129.639 126.758C129.647 126.74 129.654 126.725 129.659 126.715C129.661 126.709 129.663 126.705 129.665 126.701C129.666 126.7 129.666 126.698 129.667 126.697C129.667 126.697 129.667 126.696 129.668 126.696C129.668 126.695 129.668 126.694 127.392 125.659C125.117 124.625 125.117 124.624 125.117 124.624C125.117 124.624 125.117 124.623 125.117 124.623C125.117 124.623 125.117 124.623 125.117 124.623C125.117 124.624 125.116 124.626 125.115 124.628C125.113 124.633 125.108 124.642 125.103 124.655C125.091 124.68 125.072 124.721 125.046 124.775C124.995 124.883 124.917 125.047 124.812 125.258C124.603 125.682 124.291 126.294 123.887 127.032C123.076 128.514 121.911 130.476 120.483 132.431C119.046 134.398 117.402 136.275 115.651 137.65C113.889 139.035 112.208 139.766 110.648 139.799L110.701 142.299ZM163.206 93.0003L163.599 90.5314C163.047 90.4435 162.608 90.5606 162.395 90.6321C162.162 90.7104 161.985 90.8072 161.884 90.8677C161.684 90.9877 161.535 91.1128 161.463 91.1758C161.305 91.3132 161.165 91.4615 161.067 91.5694C160.855 91.801 160.602 92.1066 160.329 92.446C159.774 93.1365 159.019 94.1202 158.123 95.3004C156.312 97.6848 153.902 100.906 151.199 104.437C145.769 111.531 139.392 119.561 134.928 123.858L136.661 125.659L138.395 127.461C143.181 122.854 149.785 114.509 155.169 107.476C157.874 103.943 160.329 100.663 162.105 98.3239C163.002 97.1423 163.72 96.2084 164.227 95.5776C164.485 95.2564 164.659 95.0504 164.761 94.9386C164.819 94.8747 164.807 94.8932 164.748 94.9453C164.724 94.9656 164.617 95.0591 164.45 95.1589C164.366 95.2093 164.205 95.2989 163.984 95.3728C163.784 95.44 163.356 95.5556 162.813 95.4692L163.206 93.0003ZM136.661 125.659L134.928 123.858C133.845 124.9 132.955 125.644 132.276 126.093C131.937 126.317 131.718 126.423 131.607 126.464C131.474 126.514 131.637 126.421 131.975 126.476L131.57 128.943L131.166 131.41C132.017 131.55 132.79 131.359 133.356 131.148C133.944 130.929 134.511 130.609 135.035 130.263C136.081 129.571 137.223 128.589 138.395 127.461L136.661 125.659ZM179.51 134.246L180.383 131.904C180.206 131.838 179.68 131.499 178.881 130.41L176.865 131.889L174.85 133.368C175.818 134.688 177.064 136.002 178.636 136.589L179.51 134.246ZM176.865 131.889L178.881 130.41C177.451 128.461 175.913 125.189 174.386 121.162C172.88 117.192 171.459 112.69 170.21 108.422C168.962 104.158 167.899 100.169 167.099 97.2083C166.702 95.7397 166.364 94.4998 166.104 93.6216C165.975 93.1901 165.851 92.7942 165.737 92.4863C165.684 92.3436 165.604 92.14 165.5 91.9399C165.452 91.8481 165.35 91.6611 165.189 91.4607C165.133 91.391 164.607 90.6918 163.599 90.5314L163.206 93.0003L162.813 95.4692C161.826 95.3119 161.322 94.6304 161.292 94.5925C161.156 94.4239 161.083 94.2829 161.066 94.2508C161.024 94.1701 161.018 94.1409 161.049 94.2244C161.102 94.3691 161.188 94.6332 161.31 95.0446C161.55 95.8523 161.872 97.0297 162.272 98.5121C163.067 101.454 164.146 105.501 165.412 109.827C166.676 114.149 168.139 118.791 169.711 122.935C171.262 127.024 172.994 130.839 174.85 133.368L176.865 131.889ZM136.661 125.659L134.509 126.931C139.975 136.181 145.246 142.764 152.486 144.252C159.73 145.74 167.857 141.92 178.383 133.875L176.865 131.889L175.347 129.903C164.797 137.965 158.329 140.348 153.492 139.354C148.653 138.36 144.36 133.775 138.814 124.388L136.661 125.659ZM55.4883 156.244C54.1369 158.347 54.1363 158.347 54.1357 158.346C54.1356 158.346 54.135 158.346 54.1347 158.346C54.1342 158.345 54.1338 158.345 54.1336 158.345C54.1332 158.345 54.1336 158.345 54.1347 158.346C54.1368 158.347 54.1418 158.35 54.1495 158.355C54.165 158.366 54.1914 158.383 54.2282 158.408C54.3018 158.457 54.4164 158.536 54.5661 158.642C54.8659 158.855 55.3048 159.179 55.8366 159.604C56.9037 160.458 58.3248 161.709 59.7399 163.288C62.6133 166.496 65.2157 170.781 65.2157 175.688H67.7157H70.2157C70.2157 169.007 66.7045 163.57 63.4642 159.952C61.8223 158.119 60.1866 156.682 58.9611 155.701C58.3465 155.209 57.8302 154.828 57.4612 154.566C57.2766 154.435 57.1285 154.333 57.023 154.262C56.9702 154.226 56.928 154.198 56.8972 154.178C56.8818 154.168 56.8693 154.16 56.8596 154.153C56.8548 154.15 56.8507 154.148 56.8474 154.146C56.8457 154.144 56.8443 154.143 56.843 154.143C56.8423 154.142 56.8415 154.142 56.8412 154.141C56.8404 154.141 56.8396 154.141 55.4883 156.244ZM67.7157 175.688H65.2157C65.2157 180.538 62.6662 184.299 59.8747 186.967C58.4906 188.289 57.0983 189.291 56.0514 189.961C55.5303 190.294 55.1009 190.542 54.8096 190.702C54.664 190.782 54.5535 190.84 54.4836 190.876C54.4487 190.894 54.4241 190.906 54.4104 190.913C54.4035 190.916 54.3994 190.918 54.3981 190.919C54.3975 190.919 54.3976 190.919 54.3984 190.919C54.3988 190.918 54.3994 190.918 54.4001 190.918C54.4005 190.918 54.4012 190.917 54.4014 190.917C54.4022 190.917 54.403 190.916 55.4883 193.169C56.5736 195.421 56.5745 195.42 56.5754 195.42C56.5758 195.42 56.5768 195.419 56.5776 195.419C56.5791 195.418 56.5808 195.417 56.5826 195.416C56.5864 195.415 56.5909 195.412 56.5962 195.41C56.6066 195.405 56.6201 195.398 56.6364 195.39C56.6689 195.374 56.7129 195.352 56.7676 195.324C56.8769 195.267 57.029 195.187 57.2178 195.084C57.5951 194.876 58.1211 194.573 58.7463 194.173C59.992 193.376 61.6565 192.18 63.3294 190.581C66.6516 187.406 70.2157 182.426 70.2157 175.688H67.7157ZM213.281 190.615C213.536 188.128 213.537 188.128 213.538 188.129C213.538 188.129 213.539 188.129 213.539 188.129C213.54 188.129 213.541 188.129 213.541 188.129C213.542 188.129 213.542 188.129 213.541 188.129C213.54 188.129 213.535 188.128 213.526 188.127C213.509 188.125 213.478 188.121 213.435 188.116C213.347 188.104 213.209 188.085 213.028 188.055C212.665 187.995 212.132 187.894 211.486 187.734C210.184 187.412 208.478 186.862 206.799 185.958C203.49 184.178 200.448 181.161 200.448 175.688H197.948H195.448C195.448 183.571 200.073 188.017 204.43 190.362C206.583 191.52 208.711 192.198 210.284 192.588C211.075 192.784 211.74 192.91 212.215 192.988C212.453 193.028 212.645 193.055 212.782 193.073C212.851 193.082 212.906 193.089 212.947 193.094C212.968 193.096 212.984 193.098 212.998 193.099C213.004 193.1 213.01 193.101 213.014 193.101C213.017 193.101 213.019 193.102 213.021 193.102C213.022 193.102 213.023 193.102 213.023 193.102C213.025 193.102 213.026 193.102 213.281 190.615ZM197.948 175.688H200.448C200.448 170.059 203.664 165.835 207.214 162.879C208.972 161.415 210.742 160.325 212.077 159.602C212.741 159.241 213.29 158.976 213.665 158.803C213.853 158.717 213.996 158.655 214.089 158.615C214.135 158.596 214.168 158.582 214.187 158.574C214.197 158.57 214.203 158.567 214.206 158.566C214.207 158.566 214.208 158.566 214.207 158.566C214.207 158.566 214.207 158.566 214.206 158.566C214.206 158.566 214.205 158.567 214.205 158.567C214.204 158.567 214.203 158.567 213.281 156.244C212.358 153.92 212.357 153.921 212.356 153.921C212.356 153.921 212.355 153.922 212.354 153.922C212.352 153.923 212.35 153.923 212.348 153.924C212.344 153.926 212.339 153.928 212.333 153.93C212.321 153.935 212.305 153.942 212.286 153.949C212.247 153.965 212.195 153.987 212.128 154.016C211.996 154.072 211.81 154.153 211.578 154.26C211.115 154.472 210.466 154.787 209.693 155.206C208.153 156.041 206.09 157.309 204.015 159.036C199.898 162.464 195.448 167.961 195.448 175.688H197.948Z" fill="#B842D2"/>
<path d="M157.963 218.412C157.963 218.412 155.634 236.38 166.114 238.147C176.595 239.915 174.848 208.719 174.848 208.719L157.963 218.412Z" fill="#B842D2"/>
<path d="M179.118 246.593C200.468 235.201 186.881 201.812 186.881 201.812L174.848 208.719C174.848 208.719 176.595 239.915 166.114 238.147C155.634 236.38 157.963 218.412 157.963 218.412L140.689 228.327C140.689 228.327 157.768 257.985 179.118 246.593Z" fill="#F5EFF8"/>
<path d="M157.963 218.412L140.689 228.327C140.689 228.327 157.768 257.985 179.118 246.593C200.468 235.201 186.881 201.812 186.881 201.812L174.848 208.719M157.963 218.412C157.963 218.412 155.634 236.38 166.114 238.147C176.595 239.915 174.848 208.719 174.848 208.719M157.963 218.412L174.848 208.719" stroke="#B842D2" stroke-width="5" stroke-linecap="round"/>
<path fill-rule="evenodd" clip-rule="evenodd" d="M87.5054 246.789C66.1559 235.398 79.742 202.008 79.742 202.008L91.7753 208.915L100.218 213.762C100.218 213.762 100.218 237.558 108.661 237.951C117.104 238.344 117.298 223.566 117.298 223.566L125.935 228.523C125.935 228.523 108.855 258.181 87.5054 246.789Z" fill="#F5EFF8"/>
<path d="M100.218 213.762L108.661 218.608L117.298 223.566C117.298 223.566 117.104 238.344 108.661 237.951C100.218 237.558 100.218 213.762 100.218 213.762Z" fill="#B842D2"/>
<path d="M100.218 213.762L108.661 218.608L117.298 223.566M100.218 213.762L91.7753 208.915L79.742 202.008C79.742 202.008 66.1559 235.398 87.5054 246.789C108.855 258.181 125.935 228.523 125.935 228.523L117.298 223.566M100.218 213.762C100.218 213.762 100.218 237.558 108.661 237.951C117.104 238.344 117.298 223.566 117.298 223.566" stroke="#B842D2" stroke-width="5" stroke-linecap="round"/>
<path d="M58.1045 145.441C58.1045 145.441 57.444 147.798 55.2973 147.994C53.1506 148.191 51.9947 144.459 51.9947 144.459" stroke="#161616" stroke-width="5" stroke-linecap="round"/>
<path d="M57.1292 136.689C57.1292 136.689 56.3134 138.78 53.6621 138.954C51.0109 139.128 49.5833 135.818 49.5833 135.818" stroke="#161616" stroke-width="5" stroke-linecap="round"/>
<path d="M208.223 145.443C208.223 145.443 208.834 147.8 210.821 147.996C212.809 148.192 213.879 144.461 213.879 144.461" stroke="#161616" stroke-width="5" stroke-linecap="round"/>
<path d="M209.977 136.689C209.977 136.689 210.523 138.78 212.297 138.954C214.071 139.128 215.027 135.818 215.027 135.818" stroke="#161616" stroke-width="5" stroke-linecap="round"/>
<ellipse cx="147.577" cy="204.561" rx="6.98712" ry="7.07071" fill="#B842D2"/>
<path d="M169.591 189.99L150.314 207.661L147.172 199.224L169.591 189.99Z" fill="#B842D2" stroke="#B842D2" stroke-width="5" stroke-linecap="round"/>
<ellipse cx="6.98716" cy="7.07067" rx="6.98716" ry="7.07067" transform="matrix(-0.999749 0.0224157 0.0218891 0.99976 128.534 200.55)" fill="#B842D2"/>
<path d="M99.3842 193.704L118.546 210.755L122.188 202.332L99.3842 193.704Z" fill="#B842D2" stroke="#B842D2" stroke-width="5" stroke-linecap="round"/>
</svg>
