<svg width="262" height="395" viewBox="0 0 262 395" fill="none" xmlns="http://www.w3.org/2000/svg">
<rect width="262" height="395" rx="20.1398" fill="#FADAA5"/>
<path d="M129.207 285.999C82.5115 285.808 68.2999 255.474 62.4123 252.803C56.5246 250.132 34.3952 252.23 33.1771 231.053C31.9589 209.876 48.6068 212.356 47.3886 209.876C46.1705 207.396 48.8698 204.958 49.6219 202.627C49.6219 202.627 33.1771 200.146 33.1771 186.813C33.1771 173.48 49.6219 169.113 49.6219 169.113C49.6219 169.113 30.9997 163.937 33.1771 150.077C35.3544 136.218 54.0997 142.563 54.0997 142.563C54.0997 142.563 44.6819 123.193 62.4123 119.52C80.1427 115.846 88.2167 128.537 88.2167 128.537C88.2167 128.537 82.7081 109 102.432 109C122.156 109 126.243 128.537 126.243 128.537C126.243 128.537 126.243 109 146.144 109C166.046 109 167.29 128.537 167.29 128.537C167.29 128.537 178.307 113.342 195.365 119.52C212.424 125.698 198.64 142.563 198.64 142.563C198.64 142.563 214.679 137.387 219.146 150.077C223.612 162.768 209.225 169.113 209.225 169.113C209.225 169.113 228.282 173.121 228.282 186.813C228.282 200.506 214.679 200.146 214.679 200.146C219.052 203.761 218.74 207.587 219.146 209.876C219.552 212.166 229.297 211.212 228.282 231.053C227.266 250.895 202.701 250.513 198.64 252.803C194.58 255.092 175.902 286.19 129.207 285.999Z" fill="#FFD38A" stroke="#CFA45C" stroke-width="5" stroke-linecap="round"/>
<path d="M164.173 205.674C164.173 205.674 160.668 229.643 172.781 229.643C184.895 229.643 183.907 205.699 183.907 205.699L164.173 205.674Z" fill="#CFA45C"/>
<path d="M166.289 243.686C192.78 244.511 198.253 206.806 197.597 205.699C196.941 204.593 183.907 205.699 183.907 205.699C183.907 205.699 184.895 229.643 172.781 229.643C160.668 229.643 164.173 205.674 164.173 205.674C164.173 205.674 142.624 204.522 139.285 205.674C135.945 206.826 139.798 242.861 166.289 243.686Z" fill="#F5EFF8"/>
<path d="M164.173 205.674C164.173 205.674 142.624 204.522 139.285 205.674C135.945 206.826 139.798 242.861 166.289 243.686C192.78 244.511 198.253 206.806 197.597 205.699C196.941 204.593 183.907 205.699 183.907 205.699M164.173 205.674C164.173 205.674 160.668 229.643 172.781 229.643C184.895 229.643 183.907 205.699 183.907 205.699M164.173 205.674L183.907 205.699" stroke="#CFA45C" stroke-width="5" stroke-linecap="round"/>
<path d="M111.548 205.701C111.548 205.701 112.954 229.349 101.594 229.349C90.2331 229.349 92.0485 205.675 92.0485 205.675L111.548 205.701Z" fill="#CFA45C"/>
<path d="M95.4457 243.688C68.9549 244.513 63.4813 206.807 64.1375 205.701C64.7936 204.594 92.0485 205.675 92.0485 205.675C92.0485 205.675 90.2331 229.349 101.594 229.349C112.954 229.349 111.548 205.701 111.548 205.701C111.548 205.701 119.11 204.523 122.45 205.675C125.79 206.828 121.936 242.863 95.4457 243.688Z" fill="#F5EFF8"/>
<path d="M111.548 205.701C111.548 205.701 119.11 204.523 122.45 205.675C125.79 206.828 121.936 242.863 95.4457 243.688C68.9549 244.513 63.4813 206.807 64.1375 205.701C64.7936 204.594 92.0485 205.675 92.0485 205.675M111.548 205.701C111.548 205.701 112.954 229.349 101.594 229.349C90.2331 229.349 92.0485 205.675 92.0485 205.675M111.548 205.701L92.0485 205.675" stroke="#CFA45C" stroke-width="5" stroke-linecap="round"/>
<circle cx="149.093" cy="177.236" r="8.40262" transform="rotate(33.4294 149.093 177.236)" fill="#CFA45C"/>
<path d="M180.723 177.368C181.119 178.993 149.674 183.445 149.674 183.445L151.87 171.346C151.87 171.346 180.326 175.743 180.723 177.368Z" fill="#CFA45C" stroke="#CFA45C" stroke-width="5" stroke-linecap="round"/>
<circle cx="8.40262" cy="8.40262" r="8.40262" transform="matrix(-0.825789 0.563979 0.563979 0.825789 114.589 168.503)" fill="#CFA45C"/>
<path d="M80.7632 180.811C81.3064 181.646 109.995 186.042 109.995 186.042L109.376 174.873C109.376 174.873 80.22 179.976 80.7632 180.811Z" fill="#CFA45C" stroke="#CFA45C" stroke-width="5" stroke-linecap="round"/>
</svg>
