<svg width="1360" height="1377" viewBox="0 0 1360 1377" fill="none" xmlns="http://www.w3.org/2000/svg">
<rect y="96.4099" width="1360" height="1280.59" rx="48" fill="#222222"/>
<path d="M118.882 76.3869C114.5 96 96 99 96 99L354 101.602L325.397 0H141.765C141.765 0 123.265 56.7737 118.882 76.3869Z" fill="#222222"/>
<path d="M191.378 64.0001L183.892 52.6381L181.08 55.4121V64.0001H175.874V38.7681H181.08V49.0281L190.732 38.7681H197.572L187.616 48.7241L197.8 64.0001H191.378Z" fill="white"/>
<path d="M210.056 44.4301H210.018L206.788 54.4621H213.21L210.056 44.4301ZM216.326 64.0001L214.73 58.7941H205.42L203.634 64.0001H198.048L207.054 38.7681H213.172L222.064 64.0001H216.326Z" fill="white"/>
<path d="M233.524 50.5481C235.044 50.5481 236.133 50.2061 236.792 49.5221C237.476 48.8127 237.818 47.9007 237.818 46.7861C237.818 45.7221 237.476 44.8481 236.792 44.1641C236.133 43.4801 235.044 43.1381 233.524 43.1381H228.508V50.5481H233.524ZM223.226 64.0001V38.7681H234.36C235.601 38.7681 236.716 38.9834 237.704 39.4141C238.692 39.8194 239.54 40.4021 240.25 41.1621C240.959 41.8967 241.504 42.7581 241.884 43.7461C242.264 44.7341 242.454 45.7981 242.454 46.9381C242.454 48.0781 242.264 49.1421 241.884 50.1301C241.504 51.0927 240.959 51.9287 240.25 52.6381C239.54 53.3221 238.692 53.8667 237.704 54.2721C236.716 54.6521 235.601 54.8421 234.36 54.8421H228.508V64.0001H223.226Z" fill="white"/>
<path d="M250.402 64.0001V43.1761H242.802V38.7681H263.322V43.1761H255.684V64.0001H250.402Z" fill="white"/>
<path d="M284.857 64.0001V38.7681H290.139V64.0001H284.857ZM269.809 52.1821V59.7441H275.319C276.535 59.7441 277.498 59.4021 278.207 58.7181C278.942 58.0087 279.309 57.0841 279.309 55.9441C279.309 54.8294 278.955 53.9301 278.245 53.2461C277.561 52.5367 276.586 52.1821 275.319 52.1821H269.809ZM275.661 48.0781C278.195 48.0781 280.183 48.7621 281.627 50.1301C283.097 51.4981 283.831 53.4614 283.831 56.0201C283.831 58.5787 283.097 60.5547 281.627 61.9481C280.183 63.3161 278.195 64.0001 275.661 64.0001H264.679V38.7681H269.809V48.0781H275.661Z" fill="white"/>
</svg>
