<svg width="262" height="395" viewBox="0 0 262 395" fill="none" xmlns="http://www.w3.org/2000/svg">
<rect width="262" height="395" rx="20.1398" fill="#CE94FF"/>
<path d="M68.6113 233.432L62.019 242.529C57.9671 231.578 56.5187 225.584 56.9541 215.432C47.5738 216.72 36.0666 213.766 35.1683 212.333C33.9747 210.43 39.1704 194.53 49.486 188.767C52.1372 187.286 55.7503 186.11 58.4285 185.462C59.2357 171.167 62.548 165.158 72.669 157.407C70.8926 138.204 84.5766 117.227 93.0536 99C95.3839 112.373 105.528 132.186 107.86 132.321C110.193 132.455 122.217 129.801 131.492 130.023C138.936 130.201 148.02 132.129 150.405 132.321C152.79 132.512 167.122 115.355 167.699 100.723C176.557 118.061 190.088 138.705 190.315 157.407C201.399 168.176 203.256 174.506 204.36 185.941C207.038 186.589 210.222 187.286 212.873 188.767C223.188 194.53 228.384 210.43 227.19 212.333C226.292 213.766 215.2 216.432 205.819 215.144L201.472 242.529L194.402 233.432C193.525 243.849 192.557 249.695 182.101 262.636L175.952 252.774C161.197 262.869 147.212 270.009 131.492 270.009C115.772 270.009 97.324 263.095 82.7705 252.774L78.3476 262.636C70.3586 251.56 67.33 245.238 68.6113 233.432Z" fill="#A743FB"/>
<path d="M62.019 242.529L59.6743 243.396C59.9945 244.261 60.7651 244.88 61.6791 245.005C62.5931 245.131 63.5019 244.743 64.0433 243.996L62.019 242.529ZM68.6113 233.432L71.0967 233.702C71.219 232.575 70.5677 231.507 69.5098 231.099C68.4519 230.692 67.2523 231.047 66.587 231.965L68.6113 233.432ZM78.3476 262.636L76.32 264.099C76.8427 264.823 77.7124 265.214 78.6013 265.123C79.4902 265.033 80.2631 264.474 80.6287 263.659L78.3476 262.636ZM82.7705 252.774L84.2167 250.735C83.6065 250.302 82.8346 250.165 82.1129 250.362C81.3912 250.559 80.7955 251.068 80.4894 251.751L82.7705 252.774ZM201.472 242.529L199.498 244.063C200.109 244.849 201.129 245.198 202.094 244.95C203.059 244.702 203.785 243.905 203.941 242.921L201.472 242.529ZM194.402 233.432L196.376 231.898C195.745 231.085 194.679 230.743 193.692 231.036C192.704 231.328 191.998 232.197 191.911 233.223L194.402 233.432ZM182.101 262.636L179.979 263.959C180.407 264.645 181.141 265.082 181.948 265.131C182.755 265.181 183.537 264.836 184.045 264.207L182.101 262.636ZM175.952 252.774L178.074 251.451C177.713 250.873 177.132 250.467 176.465 250.327C175.798 250.187 175.103 250.326 174.54 250.711L175.952 252.774ZM72.669 157.407L74.189 159.392C74.8714 158.869 75.2375 158.033 75.1584 157.177L72.669 157.407ZM93.0536 99L95.5165 98.5708C95.3289 97.4946 94.4642 96.6647 93.3812 96.5216C92.2981 96.3784 91.2475 96.9551 90.7868 97.9457L93.0536 99ZM107.86 132.321L108.004 129.825V129.825L107.86 132.321ZM190.315 157.407L187.815 157.438C187.823 158.103 188.096 158.737 188.573 159.2L190.315 157.407ZM167.699 100.723L169.925 99.5861C169.408 98.5736 168.273 98.0376 167.162 98.2818C166.052 98.526 165.246 99.4888 165.201 100.625L167.699 100.723ZM131.492 130.023L131.432 132.522V132.522L131.492 130.023ZM35.1683 212.333L33.0501 213.661L33.0501 213.661L35.1683 212.333ZM49.486 188.767L50.7054 190.949L50.7054 190.949L49.486 188.767ZM56.9541 215.432L59.4518 215.539C59.4835 214.798 59.1852 214.082 58.6372 213.583C58.0892 213.084 57.3482 212.854 56.614 212.955L56.9541 215.432ZM58.4285 185.462L59.0165 187.892C60.0874 187.633 60.8624 186.703 60.9245 185.603L58.4285 185.462ZM227.19 212.333L225.072 211.005L225.072 211.005L227.19 212.333ZM212.873 188.767L211.653 190.949L211.653 190.949L212.873 188.767ZM205.819 215.144L206.159 212.668C204.812 212.482 203.563 213.409 203.35 214.752L205.819 215.144ZM204.36 185.941L201.872 186.181C201.974 187.241 202.737 188.12 203.772 188.371L204.36 185.941ZM62.019 242.529L64.0433 243.996L70.6356 234.899L68.6113 233.432L66.587 231.965L59.9947 241.062L62.019 242.529ZM68.6113 233.432L66.1259 233.163C65.4538 239.355 65.8997 244.281 67.6503 249.153C69.3727 253.946 72.3081 258.536 76.32 264.099L78.3476 262.636L80.3752 261.174C76.3982 255.66 73.8247 251.55 72.3558 247.462C70.9152 243.453 70.4874 239.315 71.0967 233.702L68.6113 233.432ZM78.3476 262.636L80.6287 263.659L85.0516 253.797L82.7705 252.774L80.4894 251.751L76.0665 261.613L78.3476 262.636ZM201.472 242.529L203.446 240.995L196.376 231.898L194.402 233.432L192.429 234.967L199.498 244.063L201.472 242.529ZM194.402 233.432L191.911 233.223C191.474 238.416 191.03 242.175 189.506 246.202C187.979 250.235 185.302 254.696 180.156 261.065L182.101 262.636L184.045 264.207C189.355 257.635 192.391 252.703 194.182 247.973C195.975 243.237 196.454 238.865 196.894 233.642L194.402 233.432ZM182.101 262.636L184.222 261.313L178.074 251.451L175.952 252.774L173.831 254.096L179.979 263.959L182.101 262.636ZM72.669 157.407L75.1584 157.177C74.3287 148.208 77.1035 138.634 81.3136 128.824C83.4091 123.941 85.8276 119.07 88.2725 114.245C90.7054 109.443 93.1781 104.66 95.3204 100.054L93.0536 99L90.7868 97.9457C88.6905 102.453 86.2739 107.127 83.8124 111.985C81.3629 116.82 78.8819 121.811 76.7189 126.852C72.4118 136.888 69.2329 147.403 70.1796 157.638L72.669 157.407ZM93.0536 99L90.5907 99.4292C91.8104 106.429 95.0316 114.955 98.1932 121.688C99.7807 125.068 101.389 128.073 102.776 130.272C103.464 131.363 104.138 132.321 104.764 133.04C105.073 133.395 105.426 133.758 105.813 134.055C106.132 134.299 106.805 134.764 107.717 134.817L107.86 132.321L108.004 129.825C108.348 129.845 108.589 129.944 108.696 129.995C108.756 130.024 108.798 130.049 108.821 130.064C108.834 130.072 108.843 130.078 108.848 130.082C108.854 130.086 108.857 130.088 108.857 130.088C108.857 130.088 108.855 130.087 108.851 130.083C108.846 130.079 108.84 130.074 108.832 130.067C108.815 130.052 108.792 130.031 108.763 130.002C108.704 129.944 108.629 129.864 108.536 129.758C108.151 129.316 107.632 128.599 107.005 127.605C105.761 125.633 104.25 122.823 102.719 119.562C99.6429 113.012 96.627 104.944 95.5165 98.5708L93.0536 99ZM190.315 157.407L192.815 157.377C192.695 147.483 189.07 137.254 184.508 127.495C179.986 117.82 174.237 108.026 169.925 99.5861L167.699 100.723L165.473 101.861C170.018 110.758 175.465 119.955 179.979 129.612C184.454 139.185 187.708 148.629 187.815 157.438L190.315 157.407ZM167.699 100.723L165.201 100.625C164.939 107.275 161.495 114.766 157.632 120.72C155.724 123.663 153.779 126.128 152.203 127.817C151.41 128.668 150.755 129.273 150.282 129.639C150.041 129.824 149.904 129.904 149.863 129.925C149.748 129.982 150.058 129.785 150.605 129.829L150.405 132.321L150.205 134.813C151.049 134.881 151.751 134.572 152.109 134.392C152.539 134.176 152.955 133.892 153.336 133.597C154.105 133.004 154.966 132.186 155.86 131.227C157.661 129.296 159.782 126.593 161.827 123.441C165.871 117.207 169.882 108.803 170.197 100.822L167.699 100.723ZM131.492 270.009V267.509C116.411 267.509 98.4583 260.834 84.2167 250.735L82.7705 252.774L81.3243 254.813C96.1897 265.355 115.133 272.509 131.492 272.509V270.009ZM131.492 270.009V272.509C147.996 272.509 162.508 265.001 177.364 254.837L175.952 252.774L174.54 250.711C159.885 260.737 146.428 267.509 131.492 267.509V270.009ZM131.492 130.023L131.552 127.524C126.698 127.407 121.202 128.042 116.729 128.663C114.545 128.966 112.389 129.299 110.882 129.512C110.09 129.624 109.429 129.711 108.907 129.765C108.646 129.792 108.436 129.809 108.271 129.819C108.19 129.823 108.126 129.825 108.078 129.826C108.054 129.826 108.036 129.826 108.023 129.826C108.01 129.825 108.004 129.825 108.004 129.825L107.86 132.321L107.717 134.817C108.607 134.868 110.089 134.674 111.583 134.463C113.276 134.223 115.144 133.931 117.417 133.615C121.858 132.998 127.012 132.416 131.432 132.522L131.492 130.023ZM131.492 130.023L131.432 132.522C134.992 132.607 138.998 133.114 142.472 133.639C145.784 134.139 148.901 134.708 150.205 134.813L150.405 132.321L150.605 129.829C149.523 129.742 146.906 129.252 143.219 128.695C139.695 128.163 135.436 127.617 131.552 127.524L131.492 130.023ZM35.1683 212.333L37.2864 211.005C37.4986 211.344 37.51 211.598 37.5034 211.539C37.5015 211.522 37.4939 211.418 37.5104 211.201C37.5433 210.771 37.6529 210.126 37.8709 209.287C38.3033 207.624 39.099 205.438 40.2522 203.106C42.5904 198.377 46.1813 193.477 50.7054 190.949L49.486 188.767L48.2666 186.584C42.4751 189.82 38.3103 195.752 35.7702 200.89C34.4842 203.49 33.5601 205.997 33.0317 208.03C32.7691 209.04 32.5881 209.994 32.525 210.82C32.4935 211.232 32.4866 211.67 32.5347 212.097C32.5781 212.484 32.6888 213.085 33.0501 213.661L35.1683 212.333ZM56.9541 215.432L56.614 212.955C52.2689 213.551 47.3276 213.17 43.3275 212.443C41.3368 212.081 39.6444 211.646 38.4348 211.235C37.8246 211.029 37.3903 210.846 37.1206 210.707C36.9852 210.638 36.9347 210.601 36.9397 210.605C36.9442 210.608 36.9811 210.635 37.0355 210.689C37.0871 210.74 37.1851 210.844 37.2864 211.005L35.1683 212.333L33.0501 213.661C33.3461 214.133 33.7274 214.449 33.9761 214.632C34.2529 214.836 34.551 215.008 34.8346 215.154C35.4027 215.446 36.0881 215.719 36.8295 215.971C38.3234 216.477 40.2624 216.968 42.4334 217.363C46.7565 218.148 52.259 218.6 57.2942 217.908L56.9541 215.432ZM49.486 188.767L50.7054 190.949C53.0783 189.624 56.4475 188.513 59.0165 187.892L58.4285 185.462L57.8406 183.032C55.0532 183.706 51.1961 184.948 48.2666 186.584L49.486 188.767ZM227.19 212.333L229.309 213.661C229.67 213.085 229.781 212.484 229.824 212.097C229.872 211.67 229.865 211.232 229.834 210.82C229.771 209.994 229.59 209.04 229.327 208.03C228.799 205.997 227.875 203.49 226.589 200.89C224.048 195.752 219.884 189.82 214.092 186.584L212.873 188.767L211.653 190.949C216.177 193.477 219.768 198.377 222.107 203.106C223.26 205.438 224.055 207.624 224.488 209.287C224.706 210.126 224.815 210.771 224.848 211.201C224.865 211.418 224.857 211.522 224.855 211.539C224.849 211.598 224.86 211.344 225.072 211.005L227.19 212.333ZM205.819 215.144L205.479 217.621C210.492 218.309 215.876 217.937 220.102 217.224C222.221 216.867 224.111 216.413 225.572 215.933C226.296 215.695 226.971 215.433 227.533 215.146C227.814 215.003 228.111 214.832 228.389 214.628C228.641 214.442 229.016 214.128 229.309 213.661L227.19 212.333L225.072 211.005C225.171 210.848 225.267 210.745 225.32 210.692C225.376 210.637 225.415 210.608 225.422 210.603C225.434 210.594 225.391 210.626 225.265 210.691C225.012 210.819 224.599 210.99 224.011 211.183C222.846 211.566 221.209 211.967 219.27 212.294C215.379 212.95 210.527 213.267 206.159 212.668L205.819 215.144ZM212.873 188.767L214.092 186.584C211.076 184.899 207.505 184.129 204.948 183.511L204.36 185.941L203.772 188.371C206.572 189.048 209.368 189.672 211.653 190.949L212.873 188.767ZM190.315 157.407L188.573 159.2C193.998 164.471 196.996 168.495 198.805 172.462C200.616 176.43 201.326 180.532 201.872 186.181L204.36 185.941L206.848 185.7C206.29 179.914 205.52 175.134 203.355 170.387C201.188 165.637 197.716 161.112 192.057 155.614L190.315 157.407ZM205.819 215.144L203.35 214.752L199.003 242.137L201.472 242.529L203.941 242.921L208.288 215.536L205.819 215.144ZM62.019 242.529L64.3636 241.661C60.3771 230.887 59.0357 225.241 59.4518 215.539L56.9541 215.432L54.4564 215.324C54.0017 225.927 55.557 232.269 59.6743 243.396L62.019 242.529ZM58.4285 185.462L60.9245 185.603C61.3199 178.601 62.3177 173.93 64.2784 170.126C66.2302 166.338 69.2613 163.166 74.189 159.392L72.669 157.407L71.149 155.422C65.9557 159.4 62.2701 163.107 59.8337 167.835C57.4062 172.546 56.3443 178.027 55.9325 185.321L58.4285 185.462Z" fill="#8518E2"/>
<path d="M156.931 195.895C156.931 195.895 153.926 216.448 163.911 216.504C173.895 216.56 173.196 196.008 173.196 196.008L156.931 195.895Z" fill="#8518E2"/>
<path d="M158.492 228.525C180.323 229.355 185.016 197.024 184.48 196.071C183.945 195.119 173.196 196.008 173.196 196.008C173.196 196.008 173.895 216.56 163.911 216.504C153.926 216.448 156.931 195.895 156.931 195.895C156.931 195.895 139.175 194.806 136.417 195.78C133.659 196.753 136.661 227.694 158.492 228.525Z" fill="#F5EFF8"/>
<path d="M156.931 195.895C156.931 195.895 139.175 194.806 136.417 195.78C133.659 196.753 136.661 227.694 158.492 228.525C180.323 229.355 185.016 197.024 184.48 196.071C183.945 195.119 173.196 196.008 173.196 196.008M156.931 195.895C156.931 195.895 153.926 216.448 163.911 216.504C173.895 216.56 173.196 196.008 173.196 196.008M156.931 195.895L173.196 196.008" stroke="#8518E2" stroke-width="5" stroke-linecap="round"/>
<path d="M113.555 195.675C113.555 195.675 114.6 215.976 105.236 215.923C95.872 215.871 97.4824 195.563 97.4824 195.563L113.555 195.675Z" fill="#8518E2"/>
<path d="M100.099 228.199C78.2605 228.784 73.9307 196.402 74.4768 195.456C75.023 194.509 97.4824 195.563 97.4824 195.563C97.4824 195.563 95.872 215.871 105.236 215.923C114.6 215.976 113.555 195.675 113.555 195.675C113.555 195.675 119.793 194.7 122.541 195.704C125.288 196.708 121.938 227.614 100.099 228.199Z" fill="#F5EFF8"/>
<path d="M113.555 195.675C113.555 195.675 119.793 194.7 122.541 195.704C125.288 196.708 121.938 227.614 100.099 228.199C78.2605 228.784 73.9307 196.402 74.4768 195.456C75.023 194.509 97.4824 195.563 97.4824 195.563M113.555 195.675C113.555 195.675 114.6 215.976 105.236 215.923C95.872 215.871 97.4824 195.563 97.4824 195.563M113.555 195.675L97.4824 195.563" stroke="#8518E2" stroke-width="5" stroke-linecap="round"/>
<path d="M141.807 174.573C144.162 175.269 145.632 177.822 144.99 180.334C144.348 182.845 141.871 184.232 139.517 183.536C137.162 182.841 135.691 180.288 136.333 177.776C136.975 175.265 139.452 173.878 141.807 174.573Z" fill="#8518E2" stroke="#8518E2" stroke-width="5"/>
<path d="M165.487 171.088C166.23 172.313 142.769 183.973 142.769 183.973L141.274 173.54C141.274 173.54 164.745 169.863 165.487 171.088Z" fill="#8518E2" stroke="#8518E2" stroke-width="5" stroke-linecap="round"/>
<path d="M115.304 174.163C112.974 174.938 111.588 177.539 112.313 180.028C113.039 182.516 115.563 183.815 117.893 183.039C120.223 182.263 121.609 179.662 120.883 177.174C120.157 174.686 117.633 173.387 115.304 174.163Z" fill="#8518E2" stroke="#8518E2" stroke-width="5"/>
<path d="M91.5128 171.498C91.7316 172.314 113.242 182.835 113.242 182.835L115.557 173.52C115.557 173.52 91.2941 170.681 91.5128 171.498Z" fill="#8518E2" stroke="#8518E2" stroke-width="5" stroke-linecap="round"/>
</svg>
