<svg width="262" height="395" viewBox="0 0 262 395" fill="none" xmlns="http://www.w3.org/2000/svg">
<rect width="262" height="395" rx="20.1398" fill="#93BEFF"/>
<path d="M32.464 219.445C29.011 245.945 45.6627 272.659 54.9102 284.09C64.1576 295.521 83.4102 300.213 123.586 301.523C163.761 302.833 198.529 294.321 205.749 284.09C212.968 273.859 233.026 246.236 229.99 219.445C226.891 192.098 190.485 161.085 190.485 161.085C190.485 161.085 202.157 117.181 205.749 94.1955C209.34 71.2104 196.909 56.8969 178.364 55.1392C159.481 53.3494 148.286 69.0411 144.246 89.7063C140.206 110.371 141.103 146.271 141.103 146.271H121.8C121.8 146.271 126.289 107.753 116.862 89.7063C107.434 71.6593 95.881 60.9028 79.601 66.3622C63.142 71.8817 62.0928 94.1955 64.3376 108.112C66.5823 122.029 72.4128 140.862 73.765 161.085C73.765 161.085 36.0716 191.758 32.464 219.445Z" fill="#81B1F8" stroke="#377FEC" stroke-width="5"/>
<path d="M175.672 212.648L166.223 208.789L156.557 204.841C156.557 204.841 149.559 228.378 158.761 229.978C167.963 231.578 175.672 212.648 175.672 212.648Z" fill="#377FEC"/>
<path d="M157.046 244.353C180.237 254.666 201.999 223.951 195.476 220.997C188.954 218.042 185.121 216.507 185.121 216.507L175.672 212.648C175.672 212.648 167.963 231.578 158.761 229.978C149.559 228.378 156.557 204.841 156.557 204.841C156.557 204.841 154.17 203.359 146.891 200.893C139.613 198.427 133.856 234.04 157.046 244.353Z" fill="#F5EFF8"/>
<path d="M175.672 212.648L166.223 208.789L156.557 204.841M175.672 212.648L185.121 216.507C185.121 216.507 188.954 218.042 195.476 220.997C201.999 223.951 180.237 254.666 157.046 244.353C133.856 234.04 139.613 198.427 146.891 200.893C154.17 203.359 156.557 204.841 156.557 204.841M175.672 212.648C175.672 212.648 167.963 231.578 158.761 229.978C149.559 228.378 156.557 204.841 156.557 204.841" stroke="#377FEC" stroke-width="5" stroke-linecap="round"/>
<path d="M156.976 181.56C158.331 183.874 157.554 186.839 155.252 188.185C152.951 189.532 149.983 188.757 148.627 186.443C147.272 184.129 148.049 181.164 150.351 179.818C152.652 178.471 155.62 179.246 156.976 181.56Z" fill="#377FEC" stroke="#377FEC" stroke-width="5"/>
<path d="M177.545 196.341C175.852 199.639 151.97 188.633 151.97 188.633L155.883 181.001C155.883 181.001 179.239 193.042 177.545 196.341Z" fill="#377FEC" stroke="#377FEC" stroke-width="5" stroke-linecap="round"/>
<path d="M86.779 212.648L96.2279 208.789L105.894 204.841C105.894 204.841 112.892 228.378 103.69 229.978C94.4884 231.578 86.779 212.648 86.779 212.648Z" fill="#377FEC"/>
<path d="M105.405 244.353C82.2147 254.666 60.4524 223.951 66.9751 220.997C73.4978 218.042 77.3301 216.507 77.3301 216.507L86.779 212.648C86.779 212.648 94.4884 231.578 103.69 229.978C112.892 228.378 105.894 204.841 105.894 204.841C105.894 204.841 108.282 203.359 115.56 200.893C122.839 198.427 128.596 234.04 105.405 244.353Z" fill="#F5EFF8"/>
<path d="M86.779 212.648L96.2279 208.789L105.894 204.841M86.779 212.648L77.3301 216.507C77.3301 216.507 73.4978 218.042 66.9751 220.997C60.4524 223.951 82.2147 254.666 105.405 244.353C128.596 234.04 122.839 198.427 115.56 200.893C108.282 203.359 105.894 204.841 105.894 204.841M86.779 212.648C86.779 212.648 94.4884 231.578 103.69 229.978C112.892 228.378 105.894 204.841 105.894 204.841" stroke="#377FEC" stroke-width="5" stroke-linecap="round"/>
<path d="M105.579 181.56C104.223 183.874 105.001 186.839 107.302 188.185C109.604 189.532 112.572 188.757 113.927 186.443C115.283 184.129 114.505 181.164 112.204 179.818C109.902 178.471 106.934 179.246 105.579 181.56Z" fill="#377FEC" stroke="#377FEC" stroke-width="5"/>
<path d="M85.0054 196.342C86.5919 200.484 112.045 188.048 112.045 188.048L107.349 180.024C107.349 180.024 83.4189 192.201 85.0054 196.342Z" fill="#377FEC" stroke="#377FEC" stroke-width="5" stroke-linecap="round"/>
</svg>
