<svg width="493" height="355" viewBox="0 0 493 355" fill="none" xmlns="http://www.w3.org/2000/svg">
<path d="M158.943 154.294C152.762 153.09 146.362 153.745 140.554 156.178C134.746 158.611 129.79 162.712 126.312 167.961C122.834 173.211 120.991 179.375 121.016 185.672C121.041 191.969 122.933 198.117 126.452 203.339C129.971 208.561 134.96 212.623 140.787 215.009C146.614 217.396 153.019 218.001 159.19 216.748C167.466 215.068 174.735 210.169 179.398 203.129C184.062 196.089 185.738 187.486 184.057 179.21C182.804 173.039 179.749 167.378 175.279 162.943C170.809 158.508 165.124 155.498 158.943 154.294ZM341.708 117.187C335.527 115.982 329.127 116.638 323.319 119.071C317.511 121.504 312.555 125.604 309.077 130.854C305.599 136.104 303.756 142.267 303.781 148.565C303.806 154.862 305.698 161.01 309.217 166.232C312.736 171.454 317.725 175.515 323.552 177.902C329.379 180.289 335.784 180.894 341.956 179.641C350.231 177.961 357.5 173.061 362.163 166.022C366.827 158.982 368.503 150.378 366.823 142.103C365.57 135.931 362.514 130.271 358.044 125.836C353.574 121.401 347.889 118.391 341.708 117.187ZM99.7285 159.136C99.6043 158.531 99.6011 157.907 99.7186 157.3C99.836 156.694 100.072 156.117 100.413 155.602C100.754 155.087 101.194 154.645 101.706 154.3C102.219 153.955 102.795 153.715 103.4 153.593L368.696 99.7293C369.304 99.6058 369.931 99.6044 370.54 99.7247C371.148 99.845 371.727 100.084 372.243 100.429C372.758 100.775 373.199 101.22 373.541 101.737C373.884 102.254 374.121 102.834 374.238 103.443L388.74 174.872C388.864 175.476 388.868 176.1 388.751 176.707C388.634 177.313 388.399 177.89 388.059 178.406C387.719 178.921 387.281 179.366 386.77 179.712C386.259 180.058 385.684 180.3 385.079 180.424L119.785 234.287C119.179 234.41 118.555 234.413 117.948 234.295C117.341 234.176 116.764 233.938 116.249 233.596C115.733 233.254 115.291 232.814 114.946 232.3C114.601 231.787 114.361 231.211 114.239 230.604L99.7285 159.136Z" fill="#F2B6FF" stroke="#222222"/>
<path d="M433.752 1.52562L433.982 1.48492C435.132 1.31257 436.309 1.57218 437.283 2.21763C438.257 2.86313 438.955 3.84573 439.245 4.97229L439.297 5.19871L491.089 260.285C491.337 261.508 491.09 262.78 490.402 263.822C489.713 264.863 488.639 265.59 487.416 265.841L58.8634 352.851C57.6395 353.097 56.3681 352.847 55.3282 352.156C54.2884 351.466 53.5648 350.391 53.3164 349.168L1.52529 94.0811C1.28001 92.859 1.52908 91.5897 2.21749 90.5506C2.86299 89.5762 3.84534 88.8781 4.97197 88.5882L5.19857 88.5363L433.752 1.52562ZM173.21 293.288C171.091 292.875 168.897 293.101 166.905 293.935C164.914 294.769 163.215 296.174 162.023 297.974C160.83 299.774 160.199 301.887 160.207 304.046C160.216 306.205 160.864 308.313 162.071 310.104C163.277 311.894 164.988 313.286 166.986 314.104C168.859 314.871 170.905 315.102 172.897 314.774L173.295 314.701C174.7 314.417 176.036 313.859 177.225 313.058C178.415 312.258 179.436 311.23 180.228 310.034C181.02 308.839 181.568 307.498 181.841 306.091C182.115 304.683 182.107 303.236 181.821 301.831L181.733 301.436C181.259 299.474 180.249 297.679 178.812 296.254C177.279 294.733 175.33 293.701 173.21 293.288ZM367.069 253.927C364.95 253.515 362.755 253.741 360.764 254.576C358.772 255.411 357.072 256.818 355.881 258.619C354.689 260.419 354.059 262.534 354.069 264.693C354.079 266.853 354.729 268.961 355.937 270.75C357.145 272.54 358.857 273.931 360.856 274.748C362.856 275.564 365.052 275.77 367.168 275.338C370.003 274.759 372.492 273.079 374.088 270.666C375.685 268.254 376.258 265.306 375.683 262.47C375.253 260.354 374.205 258.413 372.672 256.892C371.139 255.372 369.189 254.34 367.069 253.927ZM206.443 297.342L222.73 294.035L219.423 277.749L203.137 281.056L206.443 297.342ZM313.588 275.588L329.874 272.281L326.567 255.995L310.282 259.302L313.588 275.588ZM45.8908 105.82C43.0566 106.396 40.5667 108.073 38.9694 110.484C37.3722 112.895 36.7978 115.842 37.3732 118.676L66.3777 261.532C66.9532 264.367 68.6314 266.856 71.0425 268.453C73.4535 270.05 76.4004 270.624 79.2346 270.049L436.367 197.539C439.201 196.963 441.691 195.286 443.288 192.875C444.886 190.464 445.46 187.517 444.884 184.683L415.88 41.8269C415.304 38.9926 413.626 36.5029 411.215 34.9057C408.804 33.3086 405.857 32.735 403.023 33.3105L45.8908 105.82Z" fill="#E46EFF" stroke="#222222"/>
<path d="M397.898 217.47L398.382 217.385C400.808 217.019 403.291 217.564 405.346 218.926C407.272 220.202 408.684 222.104 409.355 224.296C408.714 223.443 407.952 222.687 407.092 222.055L406.651 221.748C405.455 220.956 404.114 220.408 402.706 220.135C401.298 219.862 399.85 219.869 398.445 220.155L122.974 276.085C120.137 276.661 117.645 278.341 116.046 280.754C115.346 281.811 114.842 282.97 114.545 284.178C114.3 281.883 114.862 279.563 116.151 277.626C117.513 275.58 119.582 274.116 121.952 273.509L122.43 273.399L397.898 217.47Z" fill="#B9B9B9" stroke="#222222"/>
<path d="M123.174 277.065L398.644 221.135C399.921 220.875 401.236 220.869 402.516 221.117C403.795 221.365 405.013 221.862 406.099 222.581C407.186 223.3 408.121 224.227 408.849 225.307C409.578 226.388 410.086 227.601 410.345 228.878L410.355 228.927L410.375 228.973L429.444 274.358L430.705 277.355L115.588 341.334L115.581 338.083L115.439 288.855L115.439 288.805L115.429 288.756C114.906 286.179 115.428 283.499 116.88 281.307C118.332 279.114 120.596 277.589 123.174 277.065ZM170.442 293.221C167.653 293.385 165.034 294.617 163.13 296.662C161.226 298.707 160.183 301.408 160.219 304.202C160.228 304.863 160.297 305.523 160.425 306.173C160.968 308.914 162.547 311.34 164.833 312.947C167.119 314.554 169.936 315.217 172.699 314.799C175.462 314.382 177.958 312.916 179.668 310.706C181.377 308.496 182.169 305.711 181.878 302.932C181.587 300.153 180.237 297.593 178.107 295.785C175.977 293.976 173.231 293.058 170.442 293.221ZM364.288 253.74C361.485 253.921 358.86 255.177 356.958 257.246C355.057 259.314 354.026 262.035 354.081 264.844C354.093 265.505 354.166 266.165 354.298 266.813C354.859 269.565 356.46 271.996 358.767 273.598C361.074 275.201 363.911 275.853 366.687 275.417C369.462 274.982 371.962 273.494 373.668 271.262C375.374 269.029 376.153 266.225 375.844 263.433C375.535 260.64 374.162 258.075 372.009 256.269C369.857 254.464 367.092 253.558 364.288 253.74ZM206.455 297.339L222.73 294.035L219.424 277.749L203.148 281.053L206.455 297.339ZM313.588 275.588L329.864 272.283L326.557 255.997L310.282 259.302L313.588 275.588Z" fill="#F1B1FF" stroke="#222222"/>
<path d="M403.123 33.8001L45.9898 106.31C43.2854 106.859 40.91 108.46 39.386 110.761C37.8619 113.061 37.3142 115.873 37.8633 118.577L66.8677 261.433C67.4168 264.137 69.0177 266.512 71.3182 268.036C73.6188 269.56 76.4305 270.108 79.1348 269.559L436.268 197.049C438.972 196.5 441.348 194.899 442.872 192.599C444.396 190.298 444.943 187.486 444.394 184.782L415.39 41.9266C414.841 39.2223 413.24 36.8468 410.939 35.3228C408.639 33.7988 405.827 33.251 403.123 33.8001ZM389.23 174.771C389.367 175.441 389.371 176.132 389.242 176.804C389.112 177.475 388.851 178.115 388.474 178.686C388.097 179.257 387.61 179.747 387.043 180.13C386.476 180.513 385.839 180.78 385.169 180.916L119.885 234.777C119.215 234.912 118.525 234.913 117.855 234.781C117.185 234.649 116.547 234.386 115.978 234.007C115.409 233.629 114.921 233.142 114.54 232.575C114.16 232.007 113.895 231.371 113.76 230.701L99.2591 159.279C99.1216 158.609 99.1177 157.919 99.2476 157.248C99.3776 156.576 99.6389 155.938 100.016 155.368C100.394 154.798 100.88 154.308 101.448 153.927C102.015 153.545 102.652 153.28 103.322 153.145L368.606 99.2834C369.276 99.146 369.966 99.1421 370.637 99.2721C371.308 99.4021 371.947 99.6633 372.517 100.041C373.087 100.418 373.577 100.905 373.958 101.472C374.34 102.039 374.605 102.676 374.74 103.347L389.23 174.771Z" fill="#F1B1FF" stroke="#222222" stroke-miterlimit="10"/>
<path d="M158.943 154.294C152.762 153.09 146.362 153.745 140.554 156.178C134.746 158.611 129.79 162.712 126.312 167.961C122.834 173.211 120.991 179.375 121.016 185.672C121.041 191.969 122.933 198.117 126.452 203.339C129.971 208.561 134.96 212.623 140.787 215.009C146.614 217.396 153.019 218.001 159.19 216.748C167.466 215.068 174.735 210.169 179.398 203.129C184.062 196.089 185.738 187.486 184.057 179.21C182.804 173.039 179.749 167.378 175.279 162.943C170.809 158.508 165.124 155.498 158.943 154.294ZM341.708 117.187C335.527 115.982 329.127 116.638 323.319 119.071C317.511 121.504 312.555 125.604 309.077 130.854C305.599 136.104 303.756 142.267 303.781 148.565C303.806 154.862 305.698 161.01 309.217 166.232C312.736 171.454 317.725 175.515 323.552 177.902C329.379 180.289 335.784 180.894 341.956 179.641C350.231 177.961 357.5 173.061 362.163 166.022C366.827 158.982 368.503 150.378 366.823 142.103C365.57 135.931 362.514 130.271 358.044 125.836C353.574 121.401 347.889 118.391 341.708 117.187ZM99.7285 159.136C99.6043 158.531 99.6011 157.907 99.7186 157.3C99.836 156.694 100.072 156.117 100.413 155.602C100.754 155.087 101.194 154.645 101.706 154.3C102.219 153.955 102.795 153.715 103.4 153.593L368.696 99.7293C369.304 99.6058 369.931 99.6044 370.54 99.7247C371.148 99.845 371.727 100.084 372.243 100.429C372.758 100.775 373.199 101.22 373.541 101.737C373.884 102.254 374.121 102.834 374.238 103.443L388.74 174.872C388.864 175.476 388.868 176.1 388.751 176.707C388.634 177.313 388.399 177.89 388.059 178.406C387.719 178.921 387.281 179.366 386.77 179.712C386.259 180.058 385.684 180.3 385.079 180.424L119.785 234.287C119.179 234.41 118.555 234.413 117.948 234.295C117.341 234.176 116.764 233.938 116.249 233.596C115.733 233.254 115.291 232.814 114.946 232.3C114.601 231.787 114.361 231.211 114.239 230.604L99.7285 159.136Z" fill="#E46EFF" stroke="#222222"/>
<path d="M368.597 99.2393L103.302 153.103C102.632 153.238 101.995 153.503 101.427 153.885C100.86 154.266 100.374 154.756 99.9962 155.326C99.6186 155.896 99.3574 156.534 99.2274 157.206C99.0975 157.877 99.1013 158.567 99.2388 159.237L113.749 230.703C113.884 231.374 114.149 232.012 114.531 232.579C114.912 233.147 115.402 233.635 115.972 234.013C116.542 234.392 117.181 234.654 117.852 234.785C118.523 234.916 119.214 234.914 119.885 234.778L385.18 180.914C385.849 180.776 386.485 180.508 387.05 180.125C387.616 179.742 388.101 179.252 388.477 178.681C388.853 178.111 389.113 177.472 389.242 176.801C389.371 176.13 389.367 175.441 389.23 174.771L374.728 103.349C374.599 102.675 374.338 102.033 373.959 101.461C373.58 100.888 373.091 100.397 372.521 100.014C371.95 99.6323 371.31 99.3669 370.636 99.2338C369.963 99.1008 369.27 99.1026 368.597 99.2393V99.2393ZM159.091 216.258C153.016 217.491 146.712 216.896 140.977 214.546C135.241 212.197 130.33 208.2 126.866 203.06C123.402 197.92 121.54 191.868 121.516 185.67C121.491 179.471 123.305 173.405 126.729 168.238C130.152 163.07 135.03 159.034 140.747 156.639C146.464 154.245 152.763 153.599 158.847 154.784C164.931 155.97 170.527 158.932 174.927 163.298C179.327 167.663 182.334 173.235 183.568 179.31C185.221 187.455 183.572 195.924 178.981 202.853C174.391 209.782 167.236 214.604 159.091 216.258ZM341.856 179.151C335.781 180.384 329.478 179.788 323.742 177.439C318.006 175.09 313.096 171.092 309.632 165.952C306.168 160.812 304.306 154.76 304.281 148.562C304.257 142.364 306.07 136.298 309.494 131.13C312.917 125.963 317.795 121.927 323.512 119.532C329.229 117.137 335.528 116.492 341.612 117.677C347.696 118.862 353.292 121.825 357.692 126.19C362.093 130.556 365.099 136.128 366.333 142.202C367.986 150.348 366.337 158.817 361.746 165.746C357.156 172.675 350.001 177.497 341.856 179.151Z" stroke="#222222" stroke-miterlimit="10"/>
<path d="M329.484 118.215C337.499 116.588 345.833 118.211 352.651 122.728C359.47 127.245 364.215 134.286 365.843 142.301C367.057 148.279 366.471 154.482 364.159 160.127C361.847 165.771 357.913 170.603 352.855 174.012C347.797 177.42 341.842 179.253 335.743 179.277C329.643 179.301 323.673 177.516 318.588 174.147C313.503 170.779 309.532 165.978 307.176 160.352C304.819 154.726 304.184 148.528 305.35 142.542C306.516 136.555 309.432 131.048 313.727 126.718C318.023 122.388 323.506 119.429 329.484 118.215ZM334.41 122.948C331.885 122.942 329.382 123.417 327.038 124.347L326.571 124.539C322.585 126.023 319.035 128.487 316.252 131.704L316.245 131.71L316.239 131.717L315.695 132.394C314.666 133.668 313.759 135.037 312.987 136.481L312.985 136.485L312.595 137.236L312.594 137.237L312.589 137.247C310.705 141.065 309.813 145.297 309.994 149.551C310.003 152.241 310.543 154.903 311.584 157.384C313.08 161.368 315.547 164.915 318.761 167.705L318.769 167.712L318.779 167.719L319.453 168.253L319.453 168.252C320.718 169.268 322.082 170.155 323.523 170.9L323.523 170.901L324.316 171.329L324.328 171.336L324.341 171.343C325.191 171.741 326.031 172.112 326.912 172.44L326.917 172.442C330.027 173.562 333.327 174.06 336.629 173.91L336.629 173.911C339.323 173.918 341.99 173.375 344.468 172.319C347.556 171.166 350.392 169.427 352.819 167.197C353.56 166.583 354.196 165.835 354.788 165.156L354.795 165.148L354.801 165.139L355.358 164.443C356.398 163.192 357.31 161.84 358.081 160.407L358.081 160.406L358.483 159.654L358.488 159.647L358.491 159.639C360.376 155.82 361.264 151.587 361.075 147.333C361.062 145.995 360.93 144.66 360.68 143.345L360.678 143.334L360.674 143.323C360.403 142.181 360.044 141.061 359.6 139.975L359.404 139.512C357.921 135.524 355.452 131.975 352.229 129.197L352.23 129.197L352.222 129.191L351.568 128.652L351.565 128.649L351.082 128.269C349.946 127.396 348.74 126.617 347.476 125.941L346.727 125.53L346.707 125.52L345.985 125.18C342.359 123.537 338.394 122.771 334.41 122.948L334.41 122.948Z" fill="#F2B6FF" stroke="#222222"/>
<path d="M327.043 125.455C329.396 124.451 331.93 123.937 334.488 123.943L334.512 123.942C338.596 123.758 342.661 124.604 346.332 126.405L347.081 126.816L347.085 126.818C348.474 127.561 349.79 128.433 351.016 129.422L351.039 129.44L351.752 129.95C354.846 132.621 357.214 136.032 358.635 139.865L358.643 139.887C359.647 142.241 360.161 144.774 360.155 147.332L360.156 147.356C360.34 151.447 359.486 155.519 357.674 159.192L357.281 159.928C356.541 161.302 355.666 162.599 354.669 163.799L354.668 163.799L354.663 163.807L354.119 164.489C353.501 165.177 352.892 165.823 352.237 166.443C349.896 168.597 347.159 170.276 344.178 171.386L344.168 171.39L344.157 171.395C341.804 172.399 339.271 172.913 336.712 172.906L336.7 172.906L336.687 172.907C333.508 173.054 330.33 172.575 327.336 171.496L327.323 171.492L327.309 171.488L327.001 171.388C326.488 171.211 325.984 170.982 325.472 170.736L324.853 170.436L324.079 170.017L324.07 170.012C322.684 169.296 321.373 168.443 320.156 167.466L320.154 167.463L319.494 166.942C316.402 164.258 314.03 160.844 312.594 157.011L312.591 157.002L312.587 156.993L312.407 156.548C311.535 154.317 311.082 151.941 311.074 149.543L311.074 149.533L311.073 149.523C310.896 145.434 311.751 141.365 313.56 137.694L313.95 136.948C314.692 135.559 315.563 134.243 316.553 133.018L316.554 133.016L317.093 132.346C319.771 129.254 323.186 126.887 327.021 125.463L327.043 125.455ZM339.937 126.222C335.543 125.366 330.993 125.832 326.864 127.562C322.735 129.291 319.211 132.206 316.738 135.938C314.266 139.671 312.956 144.053 312.973 148.53C312.991 153.007 314.336 157.378 316.838 161.091C319.34 164.803 322.887 167.69 327.029 169.387C331.172 171.084 335.726 171.514 340.113 170.624L340.125 170.621C346.005 169.424 351.17 165.94 354.483 160.936C357.796 155.932 358.986 149.818 357.792 143.937C356.902 139.549 354.73 135.524 351.552 132.371C348.374 129.218 344.331 127.078 339.937 126.222Z" fill="#FCF6FF" stroke="#222222"/>
<path d="M342.053 169.094C340.657 169.529 339.217 169.819 337.754 169.964L339.466 167.38L342.053 169.094ZM354.629 158.77C354.037 159.86 353.35 160.891 352.584 161.86L352.062 159.291L354.629 158.77ZM324.702 164.846L325.222 167.407C324.694 167.118 324.176 166.809 323.671 166.475C323.146 166.127 322.64 165.754 322.15 165.364L324.702 164.846ZM316.62 152.24L314.938 154.778C314.518 153.408 314.234 152.003 314.092 150.583L316.62 152.24ZM356.276 142.003C356.493 142.7 356.677 143.411 356.823 144.133C356.963 144.822 357.065 145.515 357.137 146.21L354.596 144.527L356.276 142.003ZM345.98 129.445C346.521 129.74 347.051 130.058 347.569 130.401C348.074 130.735 348.562 131.091 349.034 131.464L346.494 131.98L345.98 129.445ZM319.125 137.49L316.68 137.986C317.248 136.957 317.898 135.973 318.628 135.046L319.125 137.49ZM331.315 127.234C332.013 127.093 332.713 126.986 333.415 126.914L331.74 129.443L329.219 127.774C329.907 127.561 330.605 127.379 331.315 127.234Z" fill="#FCF6FF" stroke="#222222"/>
<path d="M146.718 155.323C154.734 153.695 163.068 155.319 169.886 159.835C176.705 164.352 181.45 171.393 183.078 179.409C184.291 185.386 183.705 191.59 181.394 197.234C179.082 202.878 175.148 207.711 170.09 211.119C165.032 214.528 159.077 216.36 152.978 216.384C146.878 216.408 140.908 214.623 135.823 211.255C130.738 207.886 126.767 203.085 124.41 197.459C122.054 191.834 121.419 185.636 122.585 179.649C123.751 173.662 126.667 168.155 130.962 163.825C135.258 159.495 140.741 156.536 146.718 155.323ZM151.634 160.058C149.108 160.051 146.606 160.527 144.262 161.457L143.795 161.649C139.808 163.133 136.259 165.597 133.475 168.814L133.46 168.83L132.93 169.501C131.901 170.776 130.995 172.144 130.222 173.588L130.22 173.593L129.83 174.344L129.829 174.344L129.824 174.353C127.936 178.176 127.046 182.417 127.24 186.677C127.237 189.355 127.775 192.005 128.823 194.47L128.823 194.471C130.309 198.467 132.78 202.024 136.007 204.811L136.014 204.816L136.02 204.821L136.684 205.357L136.685 205.358C137.951 206.374 139.316 207.262 140.758 208.007L140.758 208.008L141.551 208.436L141.563 208.444L141.576 208.45C142.426 208.849 143.266 209.219 144.147 209.548L144.152 209.549C147.262 210.67 150.562 211.168 153.864 211.018L153.864 211.018C156.558 211.025 159.225 210.483 161.703 209.426C164.801 208.273 167.645 206.528 170.074 204.286L170.077 204.284C170.76 203.644 171.41 202.97 172.023 202.262L172.031 202.255L172.036 202.247L172.593 201.551C173.633 200.3 174.545 198.947 175.316 197.514L175.315 197.514L175.728 196.763L175.738 196.743C177.614 192.916 178.502 188.68 178.32 184.421C178.296 183.09 178.161 181.762 177.914 180.453L177.913 180.442L177.909 180.431C177.641 179.289 177.286 178.169 176.845 177.083L176.651 176.619C175.159 172.633 172.688 169.086 169.465 166.305L169.457 166.298L168.803 165.759L168.799 165.756L168.317 165.377C167.344 164.628 166.319 163.949 165.251 163.345L164.712 163.048L163.947 162.638L163.939 162.634L163.932 162.63L163.21 162.288C159.584 160.644 155.617 159.879 151.633 160.058L151.634 160.058Z" fill="#F2B6FF" stroke="#222222"/>
<path d="M159.307 206.195C157.929 206.625 156.509 206.915 155.066 207.064L156.729 204.487L159.307 206.195ZM142.012 201.985L142.534 204.556C141.979 204.255 141.435 203.932 140.906 203.582C140.398 203.245 139.907 202.886 139.432 202.509L142.012 201.985ZM171.864 195.878C171.279 196.954 170.602 197.974 169.847 198.932L169.331 196.392L171.864 195.878ZM133.92 189.379L132.2 191.975C131.763 190.571 131.469 189.13 131.325 187.673L133.92 189.379ZM173.517 179.129C173.731 179.82 173.913 180.524 174.058 181.24C174.197 181.922 174.298 182.609 174.37 183.297L171.853 181.63L173.517 179.129ZM163.253 166.572C163.78 166.862 164.298 167.173 164.804 167.508C165.309 167.843 165.797 168.199 166.269 168.572L163.762 169.081L163.253 166.572ZM136.392 174.591L133.915 175.094C134.49 174.052 135.148 173.055 135.89 172.118L136.392 174.591ZM148.55 164.342C149.255 164.199 149.963 164.091 150.672 164.019L148.997 166.546L146.474 164.875C147.155 164.665 147.847 164.485 148.55 164.342Z" fill="#D746F8" stroke="#222222"/>
<path d="M144.267 162.565C146.62 161.561 149.153 161.047 151.711 161.053L151.724 161.052L151.736 161.052C155.822 160.865 159.89 161.713 163.561 163.518L164.319 163.925L164.32 163.926C165.709 164.668 167.026 165.54 168.251 166.53L168.262 166.539L168.274 166.547L168.986 167.057C172.079 169.731 174.451 173.14 175.88 176.971L175.884 176.979L175.886 176.985C176.309 178.022 176.65 179.089 176.908 180.178L177.014 180.646C177.25 181.9 177.379 183.171 177.401 184.447L177.401 184.46C177.575 188.551 176.722 192.619 174.92 196.295L174.517 197.033L174.515 197.036C173.776 198.41 172.9 199.707 171.903 200.906L171.898 200.915L171.344 201.607C170.756 202.285 170.132 202.933 169.477 203.547C167.137 205.705 164.398 207.385 161.414 208.493L161.403 208.497L161.392 208.502C159.039 209.506 156.505 210.02 153.947 210.014L153.935 210.013L153.922 210.014C150.743 210.162 147.565 209.682 144.571 208.603L144.558 208.599L144.544 208.596L144.236 208.496C143.723 208.319 143.219 208.09 142.707 207.844L142.088 207.543L141.314 207.124L141.305 207.119C139.919 206.403 138.607 205.55 137.391 204.573L136.741 204.049C133.642 201.372 131.268 197.956 129.84 194.118L129.832 194.096L129.649 193.652C128.766 191.426 128.314 189.049 128.32 186.651L128.319 186.627C128.133 182.539 128.985 178.471 130.795 174.801L131.186 174.05C131.928 172.663 132.8 171.349 133.788 170.125L133.791 170.121L134.311 169.463C136.99 166.367 140.406 163.997 144.244 162.573L144.256 162.569L144.267 162.565ZM157.172 163.329C152.778 162.473 148.228 162.94 144.099 164.669C139.97 166.399 136.446 169.314 133.973 173.046C131.501 176.778 130.19 181.161 130.208 185.638C130.226 190.114 131.571 194.486 134.073 198.198C136.575 201.91 140.121 204.797 144.264 206.494C148.407 208.191 152.961 208.622 157.348 207.731L157.36 207.729C163.239 206.529 168.402 203.044 171.714 198.041C175.026 193.038 176.218 186.925 175.027 181.044C174.136 176.657 171.964 172.632 168.786 169.478C165.608 166.325 161.566 164.185 157.172 163.329Z" fill="#FCF6FF" stroke="#222222"/>
<path d="M203.445 149.218L274.868 134.717C277.443 134.194 280.121 134.714 282.313 136.165C284.505 137.615 286.031 139.876 286.557 142.451L292.772 173.063C293.295 175.641 292.773 178.321 291.321 180.513C289.869 182.705 287.605 184.231 285.027 184.754L213.605 199.255C211.027 199.779 208.348 199.257 206.155 197.804C203.963 196.352 202.437 194.088 201.914 191.511L195.692 160.866C195.182 158.294 195.711 155.624 197.164 153.441C198.617 151.258 200.876 149.74 203.445 149.218Z" fill="#E997FB" stroke="#222222"/>
<path d="M203.445 149.218L274.868 134.717C277.443 134.194 280.121 134.714 282.313 136.165C284.505 137.615 286.031 139.876 286.557 142.451L292.772 173.063C293.295 175.641 292.773 178.321 291.321 180.513C289.869 182.705 287.605 184.231 285.027 184.754L213.605 199.255C211.027 199.779 208.348 199.257 206.155 197.804C203.963 196.352 202.437 194.088 201.914 191.511L195.692 160.866C195.182 158.294 195.711 155.624 197.164 153.441C198.617 151.258 200.876 149.74 203.445 149.218Z" fill="#222222" stroke="#222222"/>
<path d="M203.445 149.218L274.868 134.717C277.438 134.195 280.11 134.712 282.299 136.155C284.352 137.509 285.823 139.573 286.438 141.942L286.55 142.419L287.724 148.199C286.967 147.163 286.027 146.257 284.937 145.535C282.675 144.037 279.943 143.437 277.272 143.84L276.739 143.934L205.317 158.435C202.481 159.014 199.99 160.694 198.392 163.106C197.67 164.197 197.159 165.397 196.866 166.646L195.699 160.898L195.613 160.414C195.248 157.989 195.793 155.508 197.155 153.455C198.607 151.265 200.87 149.741 203.445 149.218Z" fill="#B264C4" stroke="#222222"/>
<path d="M203.445 149.218L274.868 134.717C277.438 134.195 280.11 134.712 282.299 136.155C284.352 137.509 285.823 139.573 286.438 141.942L286.55 142.419L287.724 148.199C286.967 147.163 286.027 146.257 284.937 145.535C282.675 144.037 279.943 143.437 277.272 143.84L276.739 143.934L205.317 158.435C202.481 159.014 199.99 160.694 198.392 163.106C197.67 164.197 197.159 165.397 196.866 166.646L195.699 160.898L195.613 160.414C195.248 157.989 195.793 155.508 197.155 153.455C198.607 151.265 200.87 149.741 203.445 149.218Z" fill="#222222" stroke="#222222"/>
<path d="M61.273 332.46C62.4172 331.978 63.6786 331.844 64.8982 332.076C66.1178 332.309 67.242 332.896 68.1289 333.765C68.9603 334.58 69.5485 335.608 69.8308 336.734L69.8837 336.96C70.2147 338.611 69.8787 340.326 68.9488 341.73C68.0183 343.134 66.5687 344.112 64.9183 344.451C63.7005 344.687 62.4399 344.559 61.2948 344.081C60.1489 343.603 59.1694 342.797 58.4798 341.765C57.7903 340.732 57.4213 339.519 57.419 338.277C57.4167 337.036 57.7813 335.821 58.467 334.786C59.1526 333.751 60.129 332.942 61.273 332.46ZM474.848 248.494C475.993 248.007 477.257 247.87 478.479 248.1C479.702 248.331 480.828 248.918 481.718 249.788C482.607 250.657 483.219 251.77 483.476 252.987C483.809 254.629 483.48 256.336 482.56 257.737C481.64 259.139 480.203 260.12 478.563 260.467C477.345 260.713 476.081 260.595 474.931 260.125C473.779 259.655 472.792 258.854 472.095 257.824C471.398 256.794 471.021 255.581 471.012 254.337C471.004 253.093 471.363 251.874 472.046 250.835C472.729 249.795 473.704 248.98 474.848 248.494ZM262.659 264.394C263.822 263.903 265.106 263.77 266.346 264.009C267.585 264.249 268.726 264.852 269.622 265.742C270.518 266.631 271.129 267.767 271.378 269.004C271.709 270.648 271.379 272.356 270.459 273.757C269.539 275.158 268.104 276.141 266.464 276.49C265.229 276.754 263.944 276.644 262.772 276.176C261.599 275.707 260.592 274.9 259.879 273.858C259.166 272.816 258.78 271.586 258.768 270.323C258.756 269.061 259.119 267.823 259.811 266.767C260.504 265.712 261.496 264.885 262.659 264.394ZM12.8275 94.2141C13.9894 93.7266 15.2703 93.5943 16.5072 93.8347C17.7439 94.0751 18.8815 94.6774 19.7761 95.5646C20.6707 96.4517 21.2823 97.5845 21.5331 98.8191L21.5336 98.822C21.7046 99.6431 21.7119 100.49 21.5553 101.314C21.3986 102.138 21.0806 102.923 20.6203 103.624C20.16 104.325 19.5659 104.929 18.8723 105.4C18.3174 105.777 17.7066 106.061 17.0643 106.247L17.0599 106.225L16.5691 106.326C15.3347 106.579 14.053 106.46 12.8863 105.984C11.7198 105.508 10.7209 104.697 10.0155 103.653C9.31008 102.609 8.92964 101.379 8.9233 100.119C8.91701 98.8589 9.28444 97.6251 9.97936 96.5741C10.6743 95.5231 11.6657 94.7016 12.8275 94.2141ZM426.403 10.2484C427.565 9.75658 428.847 9.62207 430.087 9.86022C431.326 10.0985 432.468 10.6993 433.365 11.5872C434.262 12.4749 434.874 13.6093 435.126 14.8459L435.126 14.8498C435.473 16.4992 435.151 18.2185 434.232 19.6312C433.405 20.902 432.155 21.8291 430.713 22.259L430.708 22.237L430.214 22.3422C428.98 22.6056 427.694 22.4958 426.522 22.0276L426.304 21.9363C425.225 21.4581 424.299 20.6883 423.631 19.7119C422.917 18.6704 422.529 17.4405 422.517 16.1783C422.504 14.9162 422.867 13.6783 423.558 12.6226C424.25 11.567 425.24 10.7404 426.403 10.2484Z" fill="#222222" stroke="#222222"/>
<mask id="path-19-inside-1_110_2690" fill="white">
<path d="M427.738 10.124C428.932 9.88172 430.17 9.99884 431.297 10.4606C432.424 10.9225 433.388 11.7082 434.068 12.7183C434.748 13.7284 435.113 14.9176 435.117 16.1353C435.121 17.353 434.764 18.5446 434.091 19.5592C433.417 20.5737 432.458 21.3657 431.334 21.8348C430.21 22.304 428.973 22.4293 427.778 22.1948C426.583 21.9603 425.484 21.3766 424.621 20.5176C423.758 19.6585 423.169 18.5627 422.929 17.3689C422.769 16.5774 422.766 15.7619 422.92 14.9692C423.075 14.1765 423.385 13.4221 423.831 12.7492C424.278 12.0762 424.853 11.498 425.523 11.0475C426.194 10.5971 426.947 10.2833 427.738 10.124ZM14.0898 94.1086C15.2832 93.864 16.5223 93.9791 17.6503 94.4392C18.7782 94.8994 19.7443 95.6839 20.426 96.6935C21.1077 97.7031 21.4745 98.8923 21.4799 100.111C21.4853 101.329 21.129 102.521 20.4563 103.537C19.7835 104.552 18.8244 105.345 17.7006 105.815C16.5767 106.286 15.3387 106.412 14.1431 106.178C12.9476 105.944 11.8484 105.36 10.9848 104.501C10.1212 103.642 9.53196 102.546 9.29176 101.351C8.9707 99.7548 9.29536 98.0963 10.1947 96.7388C11.0939 95.3813 12.4946 94.4355 14.0898 94.1086ZM263.989 264.272C265.182 264.03 266.42 264.147 267.546 264.608C268.673 265.07 269.637 265.855 270.317 266.864C270.997 267.874 271.363 269.062 271.368 270.279C271.373 271.497 271.017 272.688 270.344 273.703C269.672 274.717 268.714 275.51 267.591 275.98C266.468 276.451 265.232 276.577 264.037 276.345C262.842 276.112 261.743 275.53 260.879 274.673C260.015 273.815 259.424 272.721 259.182 271.528C258.86 269.929 259.186 268.267 260.087 266.907C260.988 265.547 262.391 264.6 263.989 264.272ZM476.088 248.261C477.282 248.018 478.52 248.136 479.647 248.597C480.773 249.059 481.738 249.845 482.418 250.855C483.098 251.865 483.463 253.054 483.467 254.272C483.471 255.49 483.114 256.681 482.44 257.696C481.767 258.71 480.808 259.502 479.684 259.972C478.56 260.441 477.323 260.566 476.128 260.332C474.933 260.097 473.834 259.513 472.971 258.654C472.108 257.795 471.519 256.7 471.279 255.506C471.118 254.714 471.115 253.899 471.27 253.106C471.425 252.313 471.734 251.559 472.181 250.886C472.628 250.213 473.203 249.635 473.873 249.184C474.544 248.734 475.296 248.42 476.088 248.261ZM62.4395 332.245C63.6329 332.001 64.8721 332.116 66 332.576C67.128 333.036 68.094 333.821 68.7758 334.83C69.4575 335.84 69.8243 337.029 69.8297 338.247C69.8351 339.465 69.4788 340.658 68.806 341.673C68.1332 342.689 67.1742 343.482 66.0503 343.952C64.9265 344.422 63.6884 344.548 62.4929 344.314C61.2974 344.08 60.1982 343.497 59.3346 342.638C58.4709 341.778 57.8817 340.682 57.6415 339.488C57.3205 337.892 57.6451 336.233 58.5444 334.875C59.4437 333.518 60.8443 332.572 62.4395 332.245ZM427.466 8.77997C425.997 9.07591 424.649 9.8011 423.592 10.8637C422.535 11.9262 421.818 13.2784 421.53 14.7489C421.243 16.2195 421.398 17.7423 421.976 19.1246C422.555 20.5069 423.53 21.6865 424.779 22.514C426.029 23.3415 427.495 23.7798 428.994 23.7733C430.492 23.7668 431.955 23.3159 433.197 22.4776C434.439 21.6392 435.404 20.4512 435.971 19.0639C436.537 17.6766 436.679 16.1525 436.379 14.6845C435.98 12.7196 434.816 10.9936 433.145 9.88632C431.473 8.779 429.43 8.38102 427.466 8.77997ZM13.8169 92.7645C12.3489 93.0626 11.0023 93.7894 9.94751 94.8529C8.89271 95.9165 8.17709 97.2691 7.89123 98.7395C7.60537 100.21 7.76209 101.732 8.34158 103.113C8.92107 104.495 9.89729 105.673 11.1467 106.499C12.3961 107.326 13.8625 107.763 15.3604 107.756C16.8584 107.748 18.3205 107.297 19.5617 106.458C20.803 105.62 21.7676 104.432 22.3335 103.045C22.8994 101.658 23.0412 100.134 22.741 98.6668C22.5433 97.6929 22.1555 96.7676 21.5998 95.9437C21.0442 95.1199 20.3315 94.4137 19.5027 93.8655C18.6738 93.3173 17.745 92.9378 16.7694 92.7489C15.7938 92.56 14.7904 92.5653 13.8169 92.7645ZM263.716 262.928C262.248 263.226 260.902 263.953 259.848 265.016C258.793 266.079 258.077 267.431 257.791 268.9C257.505 270.37 257.661 271.892 258.239 273.273C258.818 274.654 259.793 275.833 261.041 276.66C262.289 277.487 263.755 277.925 265.252 277.919C266.75 277.913 268.212 277.464 269.454 276.627C270.696 275.79 271.661 274.604 272.229 273.218C272.796 271.832 272.94 270.309 272.642 268.842C272.243 266.874 271.078 265.145 269.404 264.036C267.73 262.927 265.684 262.529 263.716 262.928ZM475.797 246.828C474.328 247.124 472.98 247.849 471.924 248.912C470.867 249.974 470.15 251.326 469.862 252.797C469.574 254.267 469.73 255.79 470.308 257.173C470.886 258.555 471.862 259.734 473.111 260.562C474.36 261.389 475.827 261.828 477.325 261.821C478.824 261.815 480.287 261.364 481.529 260.525C482.771 259.687 483.736 258.499 484.302 257.112C484.869 255.725 485.011 254.2 484.71 252.732C484.309 250.769 483.145 249.045 481.474 247.938C479.803 246.831 477.762 246.432 475.797 246.828ZM62.1486 330.812C60.6806 331.11 59.334 331.837 58.2792 332.901C57.2244 333.964 56.5088 335.317 56.2229 336.787C55.9371 338.258 56.0938 339.78 56.6733 341.161C57.2528 342.543 58.229 343.721 59.4784 344.547C60.7278 345.374 62.1942 345.811 63.6922 345.804C65.1901 345.796 66.6522 345.345 67.8934 344.506C69.1347 343.668 70.0993 342.48 70.6652 341.093C71.2312 339.706 71.373 338.182 71.0727 336.715C70.875 335.741 70.4872 334.815 69.9315 333.992C69.3759 333.168 68.6633 332.462 67.8344 331.913C67.0055 331.365 66.0767 330.986 65.1011 330.797C64.1255 330.608 63.1222 330.613 62.1486 330.812Z"/>
</mask>
<path d="M427.738 10.124C428.932 9.88172 430.17 9.99884 431.297 10.4606C432.424 10.9225 433.388 11.7082 434.068 12.7183C434.748 13.7284 435.113 14.9176 435.117 16.1353C435.121 17.353 434.764 18.5446 434.091 19.5592C433.417 20.5737 432.458 21.3657 431.334 21.8348C430.21 22.304 428.973 22.4293 427.778 22.1948C426.583 21.9603 425.484 21.3766 424.621 20.5176C423.758 19.6585 423.169 18.5627 422.929 17.3689C422.769 16.5774 422.766 15.7619 422.92 14.9692C423.075 14.1765 423.385 13.4221 423.831 12.7492C424.278 12.0762 424.853 11.498 425.523 11.0475C426.194 10.5971 426.947 10.2833 427.738 10.124ZM14.0898 94.1086C15.2832 93.864 16.5223 93.9791 17.6503 94.4392C18.7782 94.8994 19.7443 95.6839 20.426 96.6935C21.1077 97.7031 21.4745 98.8923 21.4799 100.111C21.4853 101.329 21.129 102.521 20.4563 103.537C19.7835 104.552 18.8244 105.345 17.7006 105.815C16.5767 106.286 15.3387 106.412 14.1431 106.178C12.9476 105.944 11.8484 105.36 10.9848 104.501C10.1212 103.642 9.53196 102.546 9.29176 101.351C8.9707 99.7548 9.29536 98.0963 10.1947 96.7388C11.0939 95.3813 12.4946 94.4355 14.0898 94.1086ZM263.989 264.272C265.182 264.03 266.42 264.147 267.546 264.608C268.673 265.07 269.637 265.855 270.317 266.864C270.997 267.874 271.363 269.062 271.368 270.279C271.373 271.497 271.017 272.688 270.344 273.703C269.672 274.717 268.714 275.51 267.591 275.98C266.468 276.451 265.232 276.577 264.037 276.345C262.842 276.112 261.743 275.53 260.879 274.673C260.015 273.815 259.424 272.721 259.182 271.528C258.86 269.929 259.186 268.267 260.087 266.907C260.988 265.547 262.391 264.6 263.989 264.272ZM476.088 248.261C477.282 248.018 478.52 248.136 479.647 248.597C480.773 249.059 481.738 249.845 482.418 250.855C483.098 251.865 483.463 253.054 483.467 254.272C483.471 255.49 483.114 256.681 482.44 257.696C481.767 258.71 480.808 259.502 479.684 259.972C478.56 260.441 477.323 260.566 476.128 260.332C474.933 260.097 473.834 259.513 472.971 258.654C472.108 257.795 471.519 256.7 471.279 255.506C471.118 254.714 471.115 253.899 471.27 253.106C471.425 252.313 471.734 251.559 472.181 250.886C472.628 250.213 473.203 249.635 473.873 249.184C474.544 248.734 475.296 248.42 476.088 248.261ZM62.4395 332.245C63.6329 332.001 64.8721 332.116 66 332.576C67.128 333.036 68.094 333.821 68.7758 334.83C69.4575 335.84 69.8243 337.029 69.8297 338.247C69.8351 339.465 69.4788 340.658 68.806 341.673C68.1332 342.689 67.1742 343.482 66.0503 343.952C64.9265 344.422 63.6884 344.548 62.4929 344.314C61.2974 344.08 60.1982 343.497 59.3346 342.638C58.4709 341.778 57.8817 340.682 57.6415 339.488C57.3205 337.892 57.6451 336.233 58.5444 334.875C59.4437 333.518 60.8443 332.572 62.4395 332.245ZM427.466 8.77997C425.997 9.07591 424.649 9.8011 423.592 10.8637C422.535 11.9262 421.818 13.2784 421.53 14.7489C421.243 16.2195 421.398 17.7423 421.976 19.1246C422.555 20.5069 423.53 21.6865 424.779 22.514C426.029 23.3415 427.495 23.7798 428.994 23.7733C430.492 23.7668 431.955 23.3159 433.197 22.4776C434.439 21.6392 435.404 20.4512 435.971 19.0639C436.537 17.6766 436.679 16.1525 436.379 14.6845C435.98 12.7196 434.816 10.9936 433.145 9.88632C431.473 8.779 429.43 8.38102 427.466 8.77997ZM13.8169 92.7645C12.3489 93.0626 11.0023 93.7894 9.94751 94.8529C8.89271 95.9165 8.17709 97.2691 7.89123 98.7395C7.60537 100.21 7.76209 101.732 8.34158 103.113C8.92107 104.495 9.89729 105.673 11.1467 106.499C12.3961 107.326 13.8625 107.763 15.3604 107.756C16.8584 107.748 18.3205 107.297 19.5617 106.458C20.803 105.62 21.7676 104.432 22.3335 103.045C22.8994 101.658 23.0412 100.134 22.741 98.6668C22.5433 97.6929 22.1555 96.7676 21.5998 95.9437C21.0442 95.1199 20.3315 94.4137 19.5027 93.8655C18.6738 93.3173 17.745 92.9378 16.7694 92.7489C15.7938 92.56 14.7904 92.5653 13.8169 92.7645ZM263.716 262.928C262.248 263.226 260.902 263.953 259.848 265.016C258.793 266.079 258.077 267.431 257.791 268.9C257.505 270.37 257.661 271.892 258.239 273.273C258.818 274.654 259.793 275.833 261.041 276.66C262.289 277.487 263.755 277.925 265.252 277.919C266.75 277.913 268.212 277.464 269.454 276.627C270.696 275.79 271.661 274.604 272.229 273.218C272.796 271.832 272.94 270.309 272.642 268.842C272.243 266.874 271.078 265.145 269.404 264.036C267.73 262.927 265.684 262.529 263.716 262.928ZM475.797 246.828C474.328 247.124 472.98 247.849 471.924 248.912C470.867 249.974 470.15 251.326 469.862 252.797C469.574 254.267 469.73 255.79 470.308 257.173C470.886 258.555 471.862 259.734 473.111 260.562C474.36 261.389 475.827 261.828 477.325 261.821C478.824 261.815 480.287 261.364 481.529 260.525C482.771 259.687 483.736 258.499 484.302 257.112C484.869 255.725 485.011 254.2 484.71 252.732C484.309 250.769 483.145 249.045 481.474 247.938C479.803 246.831 477.762 246.432 475.797 246.828ZM62.1486 330.812C60.6806 331.11 59.334 331.837 58.2792 332.901C57.2244 333.964 56.5088 335.317 56.2229 336.787C55.9371 338.258 56.0938 339.78 56.6733 341.161C57.2528 342.543 58.229 343.721 59.4784 344.547C60.7278 345.374 62.1942 345.811 63.6922 345.804C65.1901 345.796 66.6522 345.345 67.8934 344.506C69.1347 343.668 70.0993 342.48 70.6652 341.093C71.2312 339.706 71.373 338.182 71.0727 336.715C70.875 335.741 70.4872 334.815 69.9315 333.992C69.3759 333.168 68.6633 332.462 67.8344 331.913C67.0055 331.365 66.0767 330.986 65.1011 330.797C64.1255 330.608 63.1222 330.613 62.1486 330.812Z" fill="#F1B1FF" stroke="#222222" stroke-width="2" mask="url(#path-19-inside-1_110_2690)"/>
<path d="M89.5719 113.67L90.3366 117.435L79.3077 119.675L83.0363 138.034L78.5048 138.955L74.0116 116.83L89.5719 113.67ZM101.608 116.395L101.575 116.402L100.529 125.773L106.16 124.63L101.608 116.395ZM110.591 132.438L108.264 128.158L100.101 129.815L99.4622 134.698L94.5642 135.693L97.9677 111.965L103.332 110.876L115.622 131.416L110.591 132.438ZM132.248 120.13C132.26 121.446 132.104 122.668 131.778 123.799C131.453 124.929 130.953 125.944 130.28 126.844C129.63 127.739 128.812 128.495 127.827 129.111C126.842 129.728 125.705 130.167 124.417 130.428C122.973 130.722 121.568 130.752 120.203 130.521C118.86 130.285 117.633 129.771 116.524 128.978C115.415 128.186 114.449 127.133 113.627 125.819C112.823 124.479 112.227 122.854 111.839 120.944C111.46 119.078 111.353 117.353 111.517 115.77C111.699 114.161 112.131 112.755 112.812 111.552C113.488 110.328 114.403 109.309 115.556 108.497C116.732 107.68 118.108 107.111 119.686 106.791C121.063 106.511 122.35 106.47 123.546 106.666C124.76 106.836 125.841 107.206 126.79 107.777C127.756 108.321 128.572 109.034 129.237 109.917C129.924 110.795 130.436 111.778 130.772 112.866L126.141 113.807C125.573 112.604 124.775 111.748 123.746 111.24C122.713 110.71 121.642 110.557 120.531 110.783C118.598 111.175 117.319 112.164 116.692 113.748C116.061 115.31 115.992 117.302 116.483 119.723C116.984 122.189 117.818 124.02 118.987 125.217C120.173 126.387 121.665 126.789 123.465 126.424C124.842 126.144 125.867 125.554 126.54 124.654C127.231 123.728 127.589 122.533 127.616 121.07L132.248 120.13ZM139.95 126.476L136.242 108.216L129.578 109.57L128.793 105.705L146.786 102.051L147.571 105.916L140.873 107.276L144.582 125.535L139.95 126.476ZM161.04 118.862C161.862 118.695 162.61 118.393 163.285 117.955C163.955 117.495 164.495 116.911 164.907 116.203C165.336 115.468 165.609 114.592 165.726 113.574C165.843 112.555 165.768 111.391 165.502 110.08C164.97 107.459 164.055 105.575 162.758 104.427C161.461 103.28 159.835 102.905 157.88 103.302C155.926 103.699 154.564 104.681 153.795 106.248C153.026 107.815 152.908 109.909 153.44 112.53C153.972 115.151 154.885 116.966 156.177 117.976C157.487 118.959 159.108 119.254 161.04 118.862ZM161.846 122.827C158.425 123.522 155.59 123.057 153.34 121.432C151.112 119.803 149.617 117.111 148.855 113.357C148.476 111.491 148.369 109.767 148.533 108.184C148.697 106.601 149.131 105.206 149.834 103.999C150.533 102.77 151.483 101.756 152.686 100.956C153.883 100.135 155.338 99.5505 157.048 99.2032C158.736 98.8603 160.292 98.8335 161.715 99.1226C163.156 99.3851 164.427 99.9481 165.528 100.812C166.628 101.675 167.565 102.815 168.338 104.231C169.107 105.624 169.683 107.265 170.067 109.153C170.843 112.974 170.516 116.035 169.087 118.338C167.68 120.636 165.266 122.132 161.846 122.827ZM186.911 116.939L184.894 107.009L176.264 108.762L178.281 118.691L173.649 119.632L169.156 97.5074L173.787 96.5668L175.479 104.897L184.109 103.144L182.417 94.8142L187.082 93.8669L191.575 115.991L186.911 116.939ZM201.342 114.008L196.849 91.8833L201.247 90.9901L204.177 105.418L209.91 89.2307L214.742 88.2495L219.235 110.374L214.87 111.26L211.811 96.1998L205.674 113.128L201.342 114.008ZM241.697 105.812L239.91 97.0157C239.2 97.5068 238.344 97.9583 237.34 98.3703C236.355 98.7555 235.295 99.0631 234.162 99.2932C233.118 99.5052 232.143 99.5993 231.236 99.5753C230.347 99.5246 229.548 99.2936 228.84 98.8822C228.132 98.4709 227.519 97.8437 227.001 97.0007C226.478 96.1354 226.07 94.9808 225.777 93.537L224.309 86.3066L228.873 85.3795L230.322 92.5099C230.606 93.9094 231.128 94.7746 231.89 95.1058C232.673 95.4324 233.675 95.4717 234.897 95.2236C235.697 95.0611 236.472 94.8344 237.222 94.5432C237.99 94.2253 238.643 93.8499 239.179 93.4172L237.203 83.6878L241.702 82.7742L246.195 104.899L241.697 105.812ZM263.849 93.7153C264.395 96.4031 264.028 98.5823 262.748 100.253C261.486 101.897 259.433 103.008 256.59 103.585C253.991 104.113 251.846 103.913 250.154 102.984C248.484 102.051 247.351 100.177 246.756 97.36L250.855 96.5277C251.175 97.9893 251.782 98.9877 252.677 99.5229C253.568 100.036 254.657 100.162 255.946 99.8999C257.278 99.6292 258.252 99.0729 258.868 98.2309C259.501 97.3622 259.662 96.1615 259.351 94.6288L258.572 90.797C258.251 91.8337 257.607 92.7047 256.64 93.4099C255.673 94.1152 254.512 94.6054 253.157 94.8805C252.113 95.0926 251.137 95.1288 250.23 94.9893C249.323 94.8497 248.501 94.5076 247.766 93.963C247.031 93.4184 246.393 92.6691 245.853 91.7149C245.312 90.7608 244.897 89.5729 244.609 88.1513L243.445 82.4203L248.009 81.4932L249.167 87.1909C249.478 88.7236 250.081 89.7576 250.976 90.2928C251.893 90.8235 252.919 90.9738 254.051 90.7437C255.362 90.4776 256.327 89.8768 256.947 88.9415C257.588 88.0016 257.774 86.8653 257.503 85.5325L256.339 79.8015L260.838 78.8879L263.849 93.7153ZM266.868 106.563L264.926 97.0005L266.359 96.7095C266.981 96.5832 267.503 96.3616 267.924 96.0448C268.345 95.7279 268.653 95.1913 268.846 94.435C269.04 93.6788 269.11 92.6584 269.057 91.3738C269.004 90.0893 268.824 88.4028 268.515 86.3144L267.229 77.5899L281.557 74.6801L285.251 92.8727L287.95 92.3246L289.892 101.887L286.56 102.564L285.417 96.933L269.057 100.256L270.2 105.887L266.868 106.563ZM271.792 80.5836L272.547 85.4956C272.914 87.8728 273.1 89.8704 273.105 91.4885C273.11 93.1066 272.971 94.4184 272.69 95.4238L280.72 93.793L277.79 79.3655L271.792 80.5836ZM298.517 90.9419C299.339 90.775 300.087 90.4727 300.762 90.035C301.431 89.5752 301.972 88.9912 302.383 88.2832C302.812 87.5485 303.085 86.6719 303.202 85.6536C303.319 84.6353 303.245 83.4708 302.979 82.1602C302.446 79.5391 301.532 77.6548 300.235 76.5073C298.938 75.3598 297.312 74.9845 295.357 75.3815C293.402 75.7785 292.04 76.7605 291.272 78.3276C290.503 79.8946 290.385 81.9887 290.917 84.6099C291.449 87.231 292.361 89.0464 293.654 90.0561C294.963 91.0391 296.585 91.3344 298.517 90.9419ZM299.322 94.9069C295.902 95.6017 293.066 95.1367 290.817 93.5119C288.589 91.8826 287.094 89.191 286.332 85.437C285.953 83.571 285.845 81.8466 286.01 80.2636C286.174 78.6805 286.608 77.2856 287.311 76.0789C288.01 74.8499 288.96 73.8358 290.162 73.0365C291.36 72.215 292.814 71.6306 294.525 71.2832C296.213 70.9403 297.769 70.9135 299.192 71.2027C300.633 71.4651 301.904 72.0281 303.004 72.8917C304.105 73.7552 305.042 74.8949 305.815 76.3107C306.584 77.7042 307.16 79.3451 307.543 81.2332C308.319 85.0539 307.993 88.1154 306.564 90.4179C305.157 92.7159 302.743 94.2122 299.322 94.9069ZM320.69 85.8489C321.757 85.6324 322.529 85.1633 323.007 84.4418C323.485 83.7202 323.631 82.9041 323.446 81.9933C323.248 81.0159 322.803 80.366 322.113 80.0436C321.446 79.7166 320.59 79.6591 319.546 79.8711L313.615 81.0757L314.826 87.0399L320.69 85.8489ZM311.876 72.5125L312.85 77.3105L318.681 76.1263C320.547 75.7474 321.318 74.7582 320.993 73.1589C320.821 72.3148 320.453 71.7535 319.888 71.4751C319.344 71.1923 318.529 71.1613 317.44 71.3824L311.876 72.5125ZM311.126 91.7118L306.633 69.5874L317.528 67.3747C319.705 66.9326 321.471 67.1407 322.825 67.9991C324.174 68.8352 325.038 70.1863 325.417 72.0522C325.611 73.0074 325.529 73.9144 325.172 74.7734C324.81 75.6102 324.272 76.2631 323.557 76.732C324.06 76.8149 324.54 76.9602 324.999 77.1678C325.475 77.3486 325.903 77.6318 326.282 78.0175C326.678 78.3764 327.026 78.8376 327.326 79.4013C327.621 79.9428 327.85 80.6133 328.012 81.413C328.423 83.4344 328.072 85.1824 326.961 86.6571C325.845 88.1096 323.887 89.1201 321.089 89.6885L311.126 91.7118ZM330.359 87.8058L325.866 65.6815L330.264 64.7882L333.194 79.2157L338.927 63.0289L343.758 62.0477L348.252 84.172L343.887 85.0585L340.828 69.9979L334.69 86.9261L330.359 87.8058ZM376.015 84.3969L374.871 78.7659L349.915 83.8343L345.421 61.7099L349.953 60.7896L353.648 78.9822L359.645 77.7642L355.95 59.5716L360.482 58.6513L364.177 76.8439L370.174 75.6258L366.48 57.4332L370.978 56.5197L374.672 74.7123L377.405 74.1574L379.347 83.7202L376.015 84.3969ZM379.295 77.8674L374.802 55.7431L391.062 52.4409L391.847 56.306L380.085 58.6947L381.046 63.4261L391.875 61.2268L392.666 65.1253L381.837 67.3245L382.995 73.0222L395.29 70.5252L396.088 74.4569L379.295 77.8674Z" fill="#222222"/>
</svg>
