<svg width="493" height="355" viewBox="0 0 493 355" fill="none" xmlns="http://www.w3.org/2000/svg">
<path d="M158.943 154.294C152.762 153.09 146.362 153.745 140.554 156.178C134.746 158.611 129.79 162.712 126.312 167.961C122.834 173.211 120.991 179.375 121.016 185.672C121.041 191.969 122.933 198.117 126.452 203.339C129.971 208.561 134.96 212.623 140.787 215.009C146.614 217.396 153.019 218.001 159.191 216.748C167.466 215.068 174.735 210.169 179.398 203.129C184.062 196.089 185.738 187.486 184.058 179.21C182.805 173.039 179.749 167.378 175.279 162.943C170.809 158.508 165.124 155.498 158.943 154.294ZM341.709 117.187C335.528 115.982 329.128 116.638 323.319 119.071C317.511 121.504 312.555 125.604 309.077 130.854C305.6 136.104 303.757 142.267 303.781 148.565C303.807 154.862 305.698 161.01 309.217 166.232C312.736 171.454 317.725 175.515 323.552 177.902C329.38 180.289 335.784 180.894 341.956 179.641C350.231 177.961 357.5 173.061 362.164 166.022C366.827 158.982 368.503 150.378 366.823 142.103C365.57 135.931 362.515 130.271 358.044 125.836C353.574 121.401 347.889 118.391 341.709 117.187ZM99.7287 159.136C99.6045 158.531 99.6013 157.907 99.7187 157.3C99.8362 156.694 100.072 156.117 100.413 155.602C100.754 155.087 101.194 154.645 101.706 154.3C102.219 153.955 102.795 153.715 103.4 153.593L368.697 99.7293C369.304 99.6058 369.931 99.6044 370.54 99.7247C371.149 99.845 371.727 100.084 372.243 100.429C372.758 100.775 373.199 101.22 373.542 101.737C373.884 102.254 374.121 102.834 374.238 103.443L388.74 174.872C388.864 175.476 388.868 176.1 388.751 176.707C388.634 177.313 388.399 177.89 388.06 178.406C387.72 178.921 387.282 179.366 386.77 179.712C386.259 180.058 385.684 180.3 385.079 180.424L119.785 234.287C119.179 234.41 118.555 234.413 117.948 234.295C117.341 234.176 116.764 233.938 116.249 233.596C115.734 233.254 115.291 232.814 114.946 232.3C114.601 231.787 114.361 231.211 114.239 230.604L99.7287 159.136Z" fill="#DDB6FF" stroke="#222222"/>
<path d="M433.752 1.52562L433.982 1.48492C435.132 1.31257 436.309 1.57218 437.283 2.21763C438.257 2.86313 438.955 3.84573 439.245 4.97229L439.297 5.19871L491.089 260.285C491.337 261.508 491.09 262.78 490.402 263.822C489.713 264.863 488.639 265.59 487.416 265.841L58.8634 352.851C57.6395 353.097 56.3681 352.847 55.3282 352.156C54.2884 351.466 53.5648 350.391 53.3164 349.168L1.52529 94.0811C1.28001 92.859 1.52908 91.5897 2.21749 90.5506C2.86299 89.5762 3.84534 88.8781 4.97197 88.5882L5.19857 88.5363L433.752 1.52562ZM173.21 293.288C171.091 292.875 168.897 293.101 166.905 293.935C164.914 294.769 163.215 296.174 162.023 297.974C160.83 299.774 160.199 301.887 160.207 304.046C160.216 306.205 160.864 308.313 162.071 310.104C163.277 311.894 164.988 313.286 166.986 314.104C168.859 314.871 170.905 315.102 172.897 314.774L173.295 314.701C174.7 314.417 176.036 313.859 177.225 313.058C178.415 312.258 179.436 311.23 180.228 310.034C181.02 308.839 181.568 307.498 181.841 306.091C182.115 304.683 182.107 303.236 181.821 301.831L181.733 301.436C181.259 299.474 180.249 297.679 178.812 296.254C177.279 294.733 175.33 293.701 173.21 293.288ZM367.069 253.927C364.95 253.515 362.755 253.741 360.764 254.576C358.772 255.411 357.072 256.818 355.881 258.619C354.689 260.419 354.059 262.534 354.069 264.693C354.079 266.853 354.729 268.961 355.937 270.75C357.145 272.54 358.857 273.931 360.856 274.748C362.856 275.564 365.052 275.77 367.168 275.338C370.003 274.759 372.492 273.079 374.088 270.666C375.685 268.254 376.258 265.306 375.683 262.47C375.253 260.354 374.205 258.413 372.672 256.892C371.139 255.372 369.189 254.34 367.069 253.927ZM206.443 297.342L222.73 294.035L219.423 277.749L203.137 281.056L206.443 297.342ZM313.588 275.588L329.874 272.281L326.567 255.995L310.282 259.302L313.588 275.588ZM45.8908 105.82C43.0566 106.396 40.5667 108.073 38.9694 110.484C37.3722 112.895 36.7978 115.842 37.3732 118.676L66.3777 261.532C66.9532 264.367 68.6314 266.856 71.0425 268.453C73.4535 270.05 76.4004 270.624 79.2346 270.049L436.367 197.539C439.201 196.963 441.691 195.286 443.288 192.875C444.886 190.464 445.46 187.517 444.884 184.683L415.88 41.8269C415.304 38.9926 413.626 36.5029 411.215 34.9057C408.804 33.3086 405.857 32.735 403.023 33.3105L45.8908 105.82Z" fill="#BC6EFF" stroke="#222222"/>
<path d="M397.899 217.47L398.383 217.385C400.808 217.019 403.291 217.564 405.346 218.926C407.273 220.202 408.684 222.104 409.355 224.296C408.714 223.443 407.952 222.687 407.092 222.055L406.651 221.748C405.455 220.956 404.114 220.408 402.706 220.135C401.298 219.862 399.85 219.869 398.445 220.155L122.974 276.085C120.137 276.661 117.645 278.341 116.046 280.754C115.346 281.811 114.842 282.97 114.545 284.178C114.3 281.883 114.862 279.563 116.151 277.626C117.513 275.58 119.582 274.116 121.952 273.509L122.43 273.399L397.899 217.47Z" fill="#B9B9B9" stroke="#222222"/>
<path d="M123.173 277.065L398.644 221.135C399.92 220.875 401.236 220.869 402.515 221.117C403.794 221.365 405.012 221.862 406.099 222.581C407.186 223.3 408.12 224.227 408.849 225.307C409.577 226.388 410.086 227.601 410.345 228.878L410.355 228.927L410.374 228.973L429.443 274.358L430.704 277.355L115.588 341.334L115.581 338.083L115.439 288.855L115.439 288.805L115.429 288.756C114.906 286.179 115.427 283.499 116.88 281.307C118.332 279.114 120.596 277.589 123.173 277.065ZM170.442 293.221C167.652 293.385 165.033 294.617 163.129 296.662C161.225 298.707 160.183 301.408 160.219 304.202C160.228 304.863 160.296 305.523 160.425 306.173C160.968 308.914 162.546 311.34 164.832 312.947C167.119 314.554 169.936 315.217 172.699 314.799C175.462 314.382 177.958 312.916 179.668 310.706C181.377 308.496 182.169 305.711 181.878 302.932C181.587 300.153 180.237 297.593 178.107 295.785C175.977 293.976 173.231 293.058 170.442 293.221ZM364.288 253.74C361.485 253.921 358.859 255.177 356.958 257.246C355.057 259.314 354.026 262.035 354.08 264.844C354.093 265.505 354.166 266.165 354.298 266.813C354.859 269.565 356.46 271.996 358.767 273.598C361.074 275.201 363.911 275.853 366.686 275.417C369.462 274.982 371.962 273.494 373.668 271.262C375.374 269.029 376.153 266.225 375.844 263.433C375.535 260.64 374.162 258.075 372.009 256.269C369.857 254.464 367.091 253.558 364.288 253.74ZM206.455 297.339L222.73 294.035L219.423 277.749L203.148 281.053L206.455 297.339ZM313.588 275.588L329.864 272.283L326.557 255.997L310.282 259.302L313.588 275.588Z" fill="#DBB1FF" stroke="#222222"/>
<path d="M403.123 33.8001L45.9898 106.31C43.2855 106.859 40.91 108.46 39.386 110.761C37.862 113.061 37.3142 115.873 37.8633 118.577L66.8678 261.433C67.4168 264.137 69.0178 266.512 71.3183 268.036C73.6188 269.56 76.4305 270.108 79.1349 269.559L436.268 197.049C438.972 196.5 441.348 194.899 442.872 192.599C444.396 190.298 444.943 187.486 444.394 184.782L415.39 41.9266C414.841 39.2223 413.24 36.8468 410.939 35.3228C408.639 33.7988 405.827 33.251 403.123 33.8001ZM389.23 174.771C389.367 175.441 389.371 176.132 389.242 176.804C389.112 177.475 388.851 178.115 388.474 178.686C388.097 179.257 387.611 179.747 387.043 180.13C386.476 180.513 385.839 180.78 385.169 180.916L119.885 234.777C119.215 234.912 118.525 234.913 117.855 234.781C117.185 234.649 116.547 234.386 115.978 234.007C115.409 233.629 114.921 233.142 114.54 232.575C114.16 232.007 113.895 231.371 113.76 230.701L99.2591 159.279C99.1216 158.609 99.1177 157.919 99.2477 157.248C99.3777 156.576 99.639 155.938 100.016 155.368C100.394 154.798 100.88 154.308 101.448 153.927C102.015 153.545 102.652 153.28 103.322 153.145L368.606 99.2834C369.276 99.146 369.966 99.1421 370.637 99.2721C371.308 99.4021 371.947 99.6633 372.517 100.041C373.087 100.418 373.577 100.905 373.958 101.472C374.34 102.039 374.605 102.676 374.74 103.347L389.23 174.771Z" fill="#DBB1FF" stroke="#222222" stroke-miterlimit="10"/>
<path d="M158.943 154.294C152.762 153.09 146.362 153.745 140.554 156.178C134.746 158.611 129.79 162.712 126.312 167.961C122.834 173.211 120.991 179.375 121.016 185.672C121.041 191.969 122.933 198.117 126.452 203.339C129.971 208.561 134.96 212.623 140.787 215.009C146.614 217.396 153.019 218.001 159.191 216.748C167.466 215.068 174.735 210.169 179.398 203.129C184.062 196.089 185.738 187.486 184.058 179.21C182.805 173.039 179.749 167.378 175.279 162.943C170.809 158.508 165.124 155.498 158.943 154.294ZM341.709 117.187C335.528 115.982 329.128 116.638 323.319 119.071C317.511 121.504 312.555 125.604 309.077 130.854C305.6 136.104 303.757 142.267 303.781 148.565C303.807 154.862 305.698 161.01 309.217 166.232C312.736 171.454 317.725 175.515 323.552 177.902C329.38 180.289 335.784 180.894 341.956 179.641C350.231 177.961 357.5 173.061 362.164 166.022C366.827 158.982 368.503 150.378 366.823 142.103C365.57 135.931 362.515 130.271 358.044 125.836C353.574 121.401 347.889 118.391 341.709 117.187ZM99.7287 159.136C99.6045 158.531 99.6013 157.907 99.7187 157.3C99.8362 156.694 100.072 156.117 100.413 155.602C100.754 155.087 101.194 154.645 101.706 154.3C102.219 153.955 102.795 153.715 103.4 153.593L368.697 99.7293C369.304 99.6058 369.931 99.6044 370.54 99.7247C371.149 99.845 371.727 100.084 372.243 100.429C372.758 100.775 373.199 101.22 373.542 101.737C373.884 102.254 374.121 102.834 374.238 103.443L388.74 174.872C388.864 175.476 388.868 176.1 388.751 176.707C388.634 177.313 388.399 177.89 388.06 178.406C387.72 178.921 387.282 179.366 386.77 179.712C386.259 180.058 385.684 180.3 385.079 180.424L119.785 234.287C119.179 234.41 118.555 234.413 117.948 234.295C117.341 234.176 116.764 233.938 116.249 233.596C115.734 233.254 115.291 232.814 114.946 232.3C114.601 231.787 114.361 231.211 114.239 230.604L99.7287 159.136Z" fill="#BC6EFF" stroke="#222222"/>
<path d="M368.597 99.2393L103.302 153.103C102.632 153.238 101.995 153.503 101.428 153.885C100.86 154.266 100.374 154.756 99.9963 155.326C99.6188 155.896 99.3576 156.534 99.2276 157.206C99.0976 157.877 99.1014 158.567 99.2389 159.237L113.749 230.703C113.884 231.374 114.149 232.012 114.531 232.579C114.912 233.147 115.402 233.635 115.972 234.013C116.542 234.392 117.181 234.654 117.852 234.785C118.524 234.916 119.214 234.914 119.885 234.778L385.18 180.914C385.849 180.776 386.485 180.508 387.05 180.125C387.616 179.742 388.101 179.252 388.477 178.681C388.853 178.111 389.113 177.472 389.242 176.801C389.371 176.13 389.367 175.441 389.23 174.771L374.729 103.349C374.599 102.675 374.338 102.033 373.959 101.461C373.58 100.888 373.091 100.397 372.521 100.014C371.95 99.6323 371.31 99.3669 370.637 99.2338C369.963 99.1008 369.27 99.1026 368.597 99.2393V99.2393ZM159.091 216.258C153.016 217.491 146.713 216.896 140.977 214.546C135.241 212.197 130.331 208.2 126.867 203.06C123.403 197.92 121.541 191.868 121.516 185.67C121.491 179.471 123.306 173.405 126.729 168.238C130.152 163.07 135.03 159.034 140.747 156.639C146.464 154.245 152.763 153.599 158.847 154.784C164.931 155.97 170.527 158.932 174.927 163.298C179.328 167.663 182.334 173.235 183.568 179.31C185.221 187.455 183.572 195.924 178.981 202.853C174.391 209.782 167.236 214.604 159.091 216.258ZM341.856 179.151C335.782 180.384 329.478 179.788 323.742 177.439C318.006 175.09 313.096 171.092 309.632 165.952C306.168 160.812 304.306 154.76 304.281 148.562C304.257 142.364 306.071 136.298 309.494 131.13C312.917 125.963 317.796 121.927 323.513 119.532C329.23 117.137 335.528 116.492 341.612 117.677C347.696 118.862 353.292 121.825 357.692 126.19C362.093 130.556 365.1 136.128 366.333 142.202C367.987 150.348 366.337 158.817 361.747 165.746C357.156 172.675 350.001 177.497 341.856 179.151Z" stroke="#222222" stroke-miterlimit="10"/>
<path d="M329.484 118.215C337.499 116.588 345.833 118.211 352.651 122.728C359.47 127.245 364.216 134.286 365.843 142.301C367.057 148.279 366.471 154.482 364.159 160.127C361.847 165.771 357.913 170.603 352.855 174.012C347.797 177.42 341.842 179.253 335.743 179.277C329.643 179.301 323.673 177.516 318.588 174.147C313.504 170.779 309.532 165.978 307.176 160.352C304.819 154.726 304.184 148.528 305.35 142.542C306.516 136.555 309.432 131.048 313.728 126.718C318.023 122.388 323.506 119.429 329.484 118.215ZM334.411 122.948C331.885 122.942 329.383 123.417 327.038 124.347L326.571 124.539C322.585 126.023 319.036 128.487 316.252 131.704L316.245 131.71L316.239 131.717L315.695 132.394C314.666 133.668 313.759 135.037 312.987 136.481L312.985 136.485L312.595 137.236L312.594 137.237L312.589 137.247C310.705 141.065 309.813 145.297 309.994 149.551C310.003 152.241 310.543 154.903 311.584 157.384C313.081 161.368 315.547 164.915 318.761 167.705L318.769 167.712L318.779 167.719L319.453 168.253L319.453 168.252C320.718 169.268 322.082 170.155 323.523 170.9L323.523 170.901L324.316 171.329L324.328 171.336L324.341 171.343C325.191 171.741 326.031 172.112 326.912 172.44L326.917 172.442C330.027 173.562 333.327 174.06 336.629 173.91L336.629 173.911C339.323 173.918 341.99 173.375 344.468 172.319C347.556 171.166 350.392 169.427 352.819 167.197C353.56 166.583 354.196 165.835 354.788 165.156L354.795 165.148L354.801 165.139L355.358 164.443C356.398 163.192 357.311 161.84 358.081 160.407L358.081 160.406L358.483 159.654L358.488 159.647L358.491 159.639C360.376 155.82 361.264 151.587 361.075 147.333C361.062 145.995 360.93 144.66 360.68 143.345L360.678 143.334L360.674 143.323C360.403 142.181 360.044 141.061 359.6 139.975L359.404 139.512C357.921 135.524 355.452 131.975 352.229 129.197L352.23 129.197L352.222 129.191L351.568 128.652L351.565 128.649L351.082 128.269C349.947 127.396 348.74 126.617 347.476 125.941L346.727 125.53L346.707 125.52L345.985 125.18C342.359 123.537 338.394 122.771 334.41 122.948L334.411 122.948Z" fill="#DDB6FF" stroke="#222222"/>
<path d="M327.043 125.455C329.397 124.451 331.93 123.937 334.488 123.943L334.512 123.942C338.596 123.758 342.662 124.604 346.332 126.405L347.081 126.816L347.086 126.818C348.474 127.561 349.791 128.433 351.016 129.422L351.04 129.44L351.752 129.95C354.846 132.621 357.214 136.032 358.635 139.865L358.644 139.887C359.647 142.241 360.161 144.774 360.155 147.332L360.156 147.356C360.341 151.447 359.486 155.519 357.674 159.192L357.281 159.928C356.542 161.302 355.667 162.599 354.67 163.799L354.669 163.799L354.663 163.807L354.119 164.489C353.501 165.177 352.893 165.823 352.237 166.443C349.896 168.597 347.159 170.276 344.178 171.386L344.168 171.39L344.157 171.395C341.804 172.399 339.271 172.913 336.712 172.906L336.7 172.906L336.688 172.907C333.508 173.054 330.331 172.575 327.336 171.496L327.323 171.492L327.31 171.488L327.001 171.388C326.488 171.211 325.984 170.982 325.472 170.736L324.853 170.436L324.079 170.017L324.07 170.012C322.684 169.296 321.373 168.443 320.156 167.466L320.154 167.463L319.494 166.942C316.403 164.258 314.03 160.844 312.594 157.011L312.591 157.002L312.587 156.993L312.407 156.548C311.535 154.317 311.082 151.941 311.074 149.543L311.074 149.533L311.073 149.523C310.896 145.434 311.751 141.365 313.561 137.694L313.95 136.948C314.693 135.559 315.564 134.243 316.553 133.018L316.554 133.016L317.093 132.346C319.771 129.254 323.186 126.887 327.021 125.463L327.043 125.455ZM339.937 126.222C335.543 125.366 330.994 125.832 326.864 127.562C322.735 129.291 319.211 132.206 316.739 135.938C314.266 139.671 312.956 144.053 312.974 148.53C312.991 153.007 314.336 157.378 316.838 161.091C319.34 164.803 322.887 167.69 327.029 169.387C331.172 171.084 335.726 171.514 340.113 170.624L340.125 170.621C346.006 169.424 351.17 165.94 354.483 160.936C357.796 155.932 358.987 149.818 357.793 143.937C356.902 139.549 354.73 135.524 351.552 132.371C348.374 129.218 344.332 127.078 339.937 126.222Z" fill="#FCF6FF" stroke="#222222"/>
<path d="M342.053 169.094C340.657 169.529 339.217 169.819 337.754 169.964L339.466 167.38L342.053 169.094ZM354.629 158.77C354.037 159.86 353.35 160.891 352.584 161.86L352.062 159.291L354.629 158.77ZM324.702 164.846L325.222 167.407C324.694 167.118 324.176 166.809 323.671 166.475C323.146 166.127 322.64 165.754 322.15 165.364L324.702 164.846ZM316.62 152.24L314.938 154.778C314.518 153.408 314.234 152.003 314.092 150.583L316.62 152.24ZM356.276 142.003C356.493 142.7 356.676 143.411 356.823 144.133C356.963 144.822 357.065 145.515 357.137 146.21L354.596 144.527L356.276 142.003ZM345.98 129.445C346.521 129.74 347.051 130.058 347.569 130.401C348.074 130.735 348.562 131.091 349.034 131.464L346.494 131.98L345.98 129.445ZM319.125 137.49L316.68 137.986C317.248 136.957 317.898 135.973 318.628 135.046L319.125 137.49ZM331.315 127.234C332.012 127.093 332.713 126.986 333.415 126.914L331.74 129.443L329.219 127.774C329.907 127.561 330.605 127.379 331.315 127.234Z" fill="#FCF6FF" stroke="#222222"/>
<path d="M146.718 155.323C154.734 153.695 163.068 155.319 169.886 159.835C176.705 164.352 181.45 171.393 183.078 179.409C184.291 185.386 183.705 191.59 181.394 197.234C179.082 202.878 175.148 207.711 170.089 211.119C165.032 214.528 159.077 216.36 152.978 216.384C146.878 216.408 140.908 214.623 135.823 211.255C130.738 207.886 126.767 203.085 124.41 197.459C122.054 191.834 121.419 185.636 122.585 179.649C123.751 173.662 126.666 168.155 130.962 163.825C135.258 159.495 140.741 156.536 146.718 155.323ZM151.634 160.058C149.108 160.051 146.606 160.527 144.262 161.457L143.795 161.649C139.808 163.133 136.259 165.597 133.475 168.814L133.46 168.83L132.93 169.501C131.901 170.776 130.995 172.144 130.222 173.588L130.22 173.593L129.829 174.344L129.828 174.344L129.824 174.353C127.936 178.176 127.046 182.417 127.24 186.677C127.237 189.355 127.775 192.005 128.823 194.47L128.823 194.471C130.309 198.467 132.78 202.024 136.007 204.811L136.014 204.816L136.02 204.821L136.684 205.357L136.685 205.358C137.951 206.374 139.316 207.262 140.758 208.007L140.758 208.008L141.55 208.436L141.563 208.444L141.576 208.45C142.426 208.849 143.266 209.219 144.147 209.548L144.152 209.549C147.262 210.67 150.562 211.168 153.864 211.018L153.864 211.018C156.558 211.025 159.225 210.483 161.703 209.426C164.801 208.273 167.645 206.528 170.074 204.286L170.077 204.284C170.76 203.644 171.41 202.97 172.023 202.262L172.031 202.255L172.036 202.247L172.593 201.551C173.633 200.3 174.545 198.947 175.316 197.514L175.315 197.514L175.728 196.763L175.737 196.743C177.614 192.916 178.501 188.68 178.32 184.421C178.296 183.09 178.161 181.762 177.914 180.453L177.913 180.442L177.909 180.431C177.641 179.289 177.286 178.169 176.845 177.083L176.651 176.619C175.159 172.633 172.688 169.086 169.465 166.305L169.456 166.298L168.803 165.759L168.799 165.756L168.317 165.377C167.344 164.628 166.319 163.949 165.25 163.345L164.712 163.048L163.947 162.638L163.939 162.634L163.932 162.63L163.209 162.288C159.584 160.644 155.617 159.879 151.633 160.058L151.634 160.058Z" fill="#DDB6FF" stroke="#222222"/>
<path d="M159.306 206.195C157.929 206.625 156.509 206.915 155.066 207.064L156.729 204.487L159.306 206.195ZM142.012 201.985L142.534 204.556C141.979 204.255 141.435 203.932 140.906 203.582C140.398 203.245 139.907 202.886 139.432 202.509L142.012 201.985ZM171.864 195.878C171.279 196.954 170.601 197.974 169.846 198.932L169.331 196.392L171.864 195.878ZM133.92 189.379L132.2 191.975C131.763 190.571 131.469 189.13 131.325 187.673L133.92 189.379ZM173.517 179.129C173.731 179.82 173.913 180.524 174.058 181.24C174.196 181.922 174.298 182.609 174.37 183.297L171.853 181.63L173.517 179.129ZM163.252 166.572C163.78 166.862 164.298 167.173 164.804 167.508C165.309 167.843 165.797 168.199 166.269 168.572L163.762 169.081L163.252 166.572ZM136.392 174.591L133.915 175.094C134.49 174.052 135.148 173.055 135.89 172.118L136.392 174.591ZM148.55 164.342C149.254 164.199 149.962 164.091 150.672 164.019L148.997 166.546L146.474 164.875C147.155 164.665 147.847 164.485 148.55 164.342Z" fill="#A646F8" stroke="#222222"/>
<path d="M144.267 162.565C146.62 161.561 149.153 161.047 151.711 161.053L151.724 161.052L151.736 161.052C155.823 160.865 159.89 161.713 163.561 163.518L164.319 163.925L164.32 163.926C165.709 164.668 167.026 165.54 168.251 166.53L168.262 166.539L168.274 166.547L168.986 167.057C172.079 169.731 174.451 173.14 175.881 176.971L175.884 176.979L175.886 176.985C176.309 178.022 176.65 179.089 176.908 180.178L177.014 180.646C177.25 181.9 177.379 183.171 177.401 184.447L177.401 184.46C177.576 188.551 176.722 192.619 174.92 196.295L174.517 197.033L174.516 197.036C173.776 198.41 172.901 199.707 171.903 200.906L171.898 200.915L171.344 201.607C170.756 202.285 170.133 202.933 169.477 203.547C167.137 205.705 164.398 207.385 161.414 208.493L161.403 208.497L161.392 208.502C159.039 209.506 156.506 210.02 153.947 210.014L153.935 210.013L153.922 210.014C150.743 210.162 147.565 209.682 144.571 208.603L144.558 208.599L144.544 208.596L144.236 208.496C143.723 208.319 143.219 208.09 142.707 207.844L142.088 207.543L141.314 207.124L141.305 207.119C139.919 206.403 138.608 205.55 137.391 204.573L136.741 204.049C133.642 201.372 131.268 197.956 129.84 194.118L129.832 194.096L129.649 193.652C128.766 191.426 128.314 189.049 128.32 186.651L128.32 186.627C128.133 182.539 128.985 178.471 130.795 174.801L131.186 174.05C131.928 172.663 132.8 171.349 133.788 170.125L133.791 170.121L134.311 169.463C136.99 166.367 140.407 163.997 144.244 162.573L144.256 162.569L144.267 162.565ZM157.172 163.329C152.778 162.473 148.228 162.94 144.099 164.669C139.97 166.399 136.446 169.314 133.973 173.046C131.501 176.778 130.191 181.161 130.208 185.638C130.226 190.114 131.571 194.486 134.073 198.198C136.575 201.91 140.121 204.797 144.264 206.494C148.407 208.191 152.961 208.622 157.348 207.731L157.36 207.729C163.239 206.529 168.402 203.044 171.714 198.041C175.027 193.038 176.218 186.925 175.027 181.044C174.137 176.657 171.964 172.632 168.786 169.478C165.608 166.325 161.566 164.185 157.172 163.329Z" fill="#FCF6FF" stroke="#222222"/>
<path d="M203.445 149.218L274.868 134.717C277.443 134.194 280.121 134.714 282.313 136.165C284.504 137.615 286.031 139.876 286.557 142.451L292.772 173.063C293.295 175.641 292.773 178.321 291.321 180.513C289.869 182.705 287.605 184.231 285.027 184.754L213.605 199.255C211.027 199.779 208.348 199.257 206.155 197.804C203.963 196.352 202.437 194.088 201.914 191.511L195.692 160.866C195.182 158.294 195.711 155.624 197.164 153.441C198.617 151.258 200.876 149.74 203.445 149.218Z" fill="#D897FB" stroke="#222222"/>
<path d="M203.445 149.218L274.868 134.717C277.443 134.194 280.121 134.714 282.313 136.165C284.504 137.615 286.031 139.876 286.557 142.451L292.772 173.063C293.295 175.641 292.773 178.321 291.321 180.513C289.869 182.705 287.605 184.231 285.027 184.754L213.605 199.255C211.027 199.779 208.348 199.257 206.155 197.804C203.963 196.352 202.437 194.088 201.914 191.511L195.692 160.866C195.182 158.294 195.711 155.624 197.164 153.441C198.617 151.258 200.876 149.74 203.445 149.218Z" fill="#222222" stroke="#222222"/>
<path d="M203.445 149.218L274.868 134.717C277.438 134.195 280.11 134.712 282.299 136.155C284.352 137.509 285.823 139.573 286.438 141.942L286.55 142.419L287.724 148.199C286.967 147.163 286.027 146.257 284.937 145.535C282.675 144.037 279.943 143.437 277.272 143.84L276.739 143.934L205.317 158.435C202.481 159.014 199.99 160.694 198.392 163.106C197.67 164.197 197.159 165.397 196.866 166.646L195.699 160.898L195.613 160.414C195.248 157.989 195.793 155.508 197.155 153.455C198.607 151.265 200.87 149.741 203.445 149.218Z" fill="#C464B3" stroke="#222222"/>
<path d="M203.445 149.218L274.868 134.717C277.438 134.195 280.11 134.712 282.299 136.155C284.352 137.509 285.823 139.573 286.438 141.942L286.55 142.419L287.724 148.199C286.967 147.163 286.027 146.257 284.937 145.535C282.675 144.037 279.943 143.437 277.272 143.84L276.739 143.934L205.317 158.435C202.481 159.014 199.99 160.694 198.392 163.106C197.67 164.197 197.159 165.397 196.866 166.646L195.699 160.898L195.613 160.414C195.248 157.989 195.793 155.508 197.155 153.455C198.607 151.265 200.87 149.741 203.445 149.218Z" fill="#222222" stroke="#222222"/>
<path d="M61.2731 332.46C62.4172 331.978 63.6786 331.844 64.8982 332.076C66.1179 332.309 67.242 332.896 68.1289 333.765C68.9604 334.58 69.5485 335.608 69.8308 336.734L69.8838 336.96C70.2148 338.611 69.8788 340.326 68.9489 341.73C68.0184 343.134 66.5688 344.112 64.9184 344.451C63.7005 344.687 62.4399 344.559 61.2949 344.081C60.149 343.603 59.1694 342.797 58.4799 341.765C57.7904 340.732 57.4214 339.519 57.419 338.277C57.4168 337.036 57.7814 335.821 58.467 334.786C59.1527 333.751 60.129 332.942 61.2731 332.46ZM474.848 248.494C475.993 248.007 477.257 247.87 478.479 248.1C479.702 248.331 480.828 248.918 481.718 249.788C482.607 250.657 483.219 251.77 483.476 252.987C483.809 254.629 483.48 256.336 482.56 257.737C481.64 259.139 480.203 260.12 478.563 260.467C477.345 260.713 476.081 260.595 474.931 260.125C473.779 259.655 472.792 258.854 472.095 257.824C471.398 256.794 471.021 255.581 471.012 254.337C471.004 253.093 471.363 251.874 472.046 250.835C472.729 249.795 473.704 248.98 474.848 248.494ZM262.659 264.394C263.822 263.903 265.106 263.77 266.346 264.009C267.585 264.249 268.726 264.852 269.622 265.742C270.518 266.631 271.129 267.767 271.379 269.004C271.709 270.648 271.379 272.356 270.459 273.757C269.539 275.158 268.104 276.141 266.464 276.49C265.229 276.754 263.944 276.644 262.772 276.176C261.6 275.707 260.592 274.9 259.879 273.858C259.166 272.816 258.78 271.586 258.768 270.323C258.756 269.061 259.119 267.823 259.811 266.767C260.504 265.712 261.496 264.885 262.659 264.394ZM12.8275 94.2141C13.9894 93.7266 15.2704 93.5943 16.5073 93.8347C17.744 94.0751 18.8816 94.6774 19.7762 95.5646C20.6708 96.4517 21.2823 97.5845 21.5331 98.8191L21.5337 98.822C21.7046 99.6431 21.712 100.49 21.5553 101.314C21.3987 102.138 21.0807 102.923 20.6204 103.624C20.1601 104.325 19.566 104.929 18.8724 105.4C18.3174 105.777 17.7067 106.061 17.0644 106.247L17.0599 106.225L16.5691 106.326C15.3348 106.579 14.053 106.46 12.8864 105.984C11.7199 105.508 10.721 104.697 10.0156 103.653C9.31014 102.609 8.9297 101.379 8.92337 100.119C8.91708 98.8589 9.2845 97.6251 9.97942 96.5741C10.6744 95.5231 11.6657 94.7016 12.8275 94.2141ZM426.403 10.2484C427.565 9.75658 428.847 9.62207 430.087 9.86022C431.326 10.0985 432.468 10.6993 433.365 11.5872C434.262 12.4749 434.874 13.6093 435.126 14.8459L435.127 14.8498C435.473 16.4992 435.151 18.2185 434.232 19.6312C433.405 20.902 432.155 21.8291 430.713 22.259L430.708 22.237L430.214 22.3422C428.98 22.6056 427.695 22.4958 426.522 22.0276L426.305 21.9363C425.225 21.4581 424.299 20.6883 423.631 19.7119C422.918 18.6704 422.53 17.4405 422.517 16.1783C422.504 14.9162 422.867 13.6783 423.559 12.6226C424.25 11.567 425.241 10.7404 426.403 10.2484Z" fill="#222222" stroke="#222222"/>
<mask id="path-19-inside-1_110_2483" fill="white">
<path d="M427.738 10.124C428.932 9.88172 430.17 9.99884 431.297 10.4606C432.424 10.9225 433.388 11.7082 434.068 12.7183C434.748 13.7284 435.113 14.9176 435.117 16.1353C435.121 17.353 434.764 18.5446 434.091 19.5592C433.417 20.5737 432.458 21.3657 431.334 21.8348C430.21 22.304 428.973 22.4293 427.778 22.1948C426.583 21.9603 425.484 21.3766 424.621 20.5176C423.758 19.6585 423.169 18.5627 422.929 17.3689C422.769 16.5774 422.766 15.7619 422.92 14.9692C423.075 14.1765 423.385 13.4221 423.831 12.7492C424.278 12.0762 424.853 11.498 425.523 11.0475C426.194 10.5971 426.947 10.2833 427.738 10.124ZM14.0898 94.1086C15.2832 93.864 16.5223 93.9791 17.6503 94.4392C18.7782 94.8994 19.7443 95.6839 20.426 96.6935C21.1077 97.7031 21.4745 98.8923 21.4799 100.111C21.4853 101.329 21.129 102.521 20.4563 103.537C19.7835 104.552 18.8244 105.345 17.7006 105.815C16.5767 106.286 15.3387 106.412 14.1431 106.178C12.9476 105.944 11.8484 105.36 10.9848 104.501C10.1212 103.642 9.53196 102.546 9.29176 101.351C8.9707 99.7548 9.29536 98.0963 10.1947 96.7388C11.0939 95.3813 12.4946 94.4355 14.0898 94.1086ZM263.989 264.272C265.182 264.03 266.42 264.147 267.546 264.608C268.673 265.07 269.637 265.855 270.317 266.864C270.997 267.874 271.363 269.062 271.368 270.279C271.373 271.497 271.017 272.688 270.344 273.703C269.672 274.717 268.714 275.51 267.591 275.98C266.468 276.451 265.232 276.577 264.037 276.345C262.842 276.112 261.743 275.53 260.879 274.673C260.015 273.815 259.424 272.721 259.182 271.528C258.86 269.929 259.186 268.267 260.087 266.907C260.988 265.547 262.391 264.6 263.989 264.272ZM476.088 248.261C477.282 248.018 478.52 248.136 479.647 248.597C480.773 249.059 481.738 249.845 482.418 250.855C483.098 251.865 483.463 253.054 483.467 254.272C483.471 255.49 483.114 256.681 482.44 257.696C481.767 258.71 480.808 259.502 479.684 259.972C478.56 260.441 477.323 260.566 476.128 260.332C474.933 260.097 473.834 259.513 472.971 258.654C472.108 257.795 471.519 256.7 471.279 255.506C471.118 254.714 471.115 253.899 471.27 253.106C471.425 252.313 471.734 251.559 472.181 250.886C472.628 250.213 473.203 249.635 473.873 249.184C474.544 248.734 475.296 248.42 476.088 248.261ZM62.4395 332.245C63.6329 332.001 64.8721 332.116 66 332.576C67.128 333.036 68.094 333.821 68.7758 334.83C69.4575 335.84 69.8243 337.029 69.8297 338.247C69.8351 339.465 69.4788 340.658 68.806 341.673C68.1332 342.689 67.1742 343.482 66.0503 343.952C64.9265 344.422 63.6884 344.548 62.4929 344.314C61.2974 344.08 60.1982 343.497 59.3346 342.638C58.4709 341.778 57.8817 340.682 57.6415 339.488C57.3205 337.892 57.6451 336.233 58.5444 334.875C59.4437 333.518 60.8443 332.572 62.4395 332.245ZM427.466 8.77997C425.997 9.07591 424.649 9.8011 423.592 10.8637C422.535 11.9262 421.818 13.2784 421.53 14.7489C421.243 16.2195 421.398 17.7423 421.976 19.1246C422.555 20.5069 423.53 21.6865 424.779 22.514C426.029 23.3415 427.495 23.7798 428.994 23.7733C430.492 23.7668 431.955 23.3159 433.197 22.4776C434.439 21.6392 435.404 20.4512 435.971 19.0639C436.537 17.6766 436.679 16.1525 436.379 14.6845C435.98 12.7196 434.816 10.9936 433.145 9.88632C431.473 8.779 429.43 8.38102 427.466 8.77997ZM13.8169 92.7645C12.3489 93.0626 11.0023 93.7894 9.94751 94.8529C8.89271 95.9165 8.17709 97.2691 7.89123 98.7395C7.60537 100.21 7.76209 101.732 8.34158 103.113C8.92107 104.495 9.89729 105.673 11.1467 106.499C12.3961 107.326 13.8625 107.763 15.3604 107.756C16.8584 107.748 18.3205 107.297 19.5617 106.458C20.803 105.62 21.7676 104.432 22.3335 103.045C22.8994 101.658 23.0412 100.134 22.741 98.6668C22.5433 97.6929 22.1555 96.7676 21.5998 95.9437C21.0442 95.1199 20.3315 94.4137 19.5027 93.8655C18.6738 93.3173 17.745 92.9378 16.7694 92.7489C15.7938 92.56 14.7904 92.5653 13.8169 92.7645ZM263.716 262.928C262.248 263.226 260.902 263.953 259.848 265.016C258.793 266.079 258.077 267.431 257.791 268.9C257.505 270.37 257.661 271.892 258.239 273.273C258.818 274.654 259.793 275.833 261.041 276.66C262.289 277.487 263.755 277.925 265.252 277.919C266.75 277.913 268.212 277.464 269.454 276.627C270.696 275.79 271.661 274.604 272.229 273.218C272.796 271.832 272.94 270.309 272.642 268.842C272.243 266.874 271.078 265.145 269.404 264.036C267.73 262.927 265.684 262.529 263.716 262.928ZM475.797 246.828C474.328 247.124 472.98 247.849 471.924 248.912C470.867 249.974 470.15 251.326 469.862 252.797C469.574 254.267 469.73 255.79 470.308 257.173C470.886 258.555 471.862 259.734 473.111 260.562C474.36 261.389 475.827 261.828 477.325 261.821C478.824 261.815 480.287 261.364 481.529 260.525C482.771 259.687 483.736 258.499 484.302 257.112C484.869 255.725 485.011 254.2 484.71 252.732C484.309 250.769 483.145 249.045 481.474 247.938C479.803 246.831 477.762 246.432 475.797 246.828ZM62.1486 330.812C60.6806 331.11 59.334 331.837 58.2792 332.901C57.2244 333.964 56.5088 335.317 56.2229 336.787C55.9371 338.258 56.0938 339.78 56.6733 341.161C57.2528 342.543 58.229 343.721 59.4784 344.547C60.7278 345.374 62.1942 345.811 63.6922 345.804C65.1901 345.796 66.6522 345.345 67.8934 344.506C69.1347 343.668 70.0993 342.48 70.6652 341.093C71.2312 339.706 71.373 338.182 71.0727 336.715C70.875 335.741 70.4872 334.815 69.9315 333.992C69.3759 333.168 68.6633 332.462 67.8344 331.913C67.0055 331.365 66.0767 330.986 65.1011 330.797C64.1255 330.608 63.1222 330.613 62.1486 330.812Z"/>
</mask>
<path d="M427.738 10.124C428.932 9.88172 430.17 9.99884 431.297 10.4606C432.424 10.9225 433.388 11.7082 434.068 12.7183C434.748 13.7284 435.113 14.9176 435.117 16.1353C435.121 17.353 434.764 18.5446 434.091 19.5592C433.417 20.5737 432.458 21.3657 431.334 21.8348C430.21 22.304 428.973 22.4293 427.778 22.1948C426.583 21.9603 425.484 21.3766 424.621 20.5176C423.758 19.6585 423.169 18.5627 422.929 17.3689C422.769 16.5774 422.766 15.7619 422.92 14.9692C423.075 14.1765 423.385 13.4221 423.831 12.7492C424.278 12.0762 424.853 11.498 425.523 11.0475C426.194 10.5971 426.947 10.2833 427.738 10.124ZM14.0898 94.1086C15.2832 93.864 16.5223 93.9791 17.6503 94.4392C18.7782 94.8994 19.7443 95.6839 20.426 96.6935C21.1077 97.7031 21.4745 98.8923 21.4799 100.111C21.4853 101.329 21.129 102.521 20.4563 103.537C19.7835 104.552 18.8244 105.345 17.7006 105.815C16.5767 106.286 15.3387 106.412 14.1431 106.178C12.9476 105.944 11.8484 105.36 10.9848 104.501C10.1212 103.642 9.53196 102.546 9.29176 101.351C8.9707 99.7548 9.29536 98.0963 10.1947 96.7388C11.0939 95.3813 12.4946 94.4355 14.0898 94.1086ZM263.989 264.272C265.182 264.03 266.42 264.147 267.546 264.608C268.673 265.07 269.637 265.855 270.317 266.864C270.997 267.874 271.363 269.062 271.368 270.279C271.373 271.497 271.017 272.688 270.344 273.703C269.672 274.717 268.714 275.51 267.591 275.98C266.468 276.451 265.232 276.577 264.037 276.345C262.842 276.112 261.743 275.53 260.879 274.673C260.015 273.815 259.424 272.721 259.182 271.528C258.86 269.929 259.186 268.267 260.087 266.907C260.988 265.547 262.391 264.6 263.989 264.272ZM476.088 248.261C477.282 248.018 478.52 248.136 479.647 248.597C480.773 249.059 481.738 249.845 482.418 250.855C483.098 251.865 483.463 253.054 483.467 254.272C483.471 255.49 483.114 256.681 482.44 257.696C481.767 258.71 480.808 259.502 479.684 259.972C478.56 260.441 477.323 260.566 476.128 260.332C474.933 260.097 473.834 259.513 472.971 258.654C472.108 257.795 471.519 256.7 471.279 255.506C471.118 254.714 471.115 253.899 471.27 253.106C471.425 252.313 471.734 251.559 472.181 250.886C472.628 250.213 473.203 249.635 473.873 249.184C474.544 248.734 475.296 248.42 476.088 248.261ZM62.4395 332.245C63.6329 332.001 64.8721 332.116 66 332.576C67.128 333.036 68.094 333.821 68.7758 334.83C69.4575 335.84 69.8243 337.029 69.8297 338.247C69.8351 339.465 69.4788 340.658 68.806 341.673C68.1332 342.689 67.1742 343.482 66.0503 343.952C64.9265 344.422 63.6884 344.548 62.4929 344.314C61.2974 344.08 60.1982 343.497 59.3346 342.638C58.4709 341.778 57.8817 340.682 57.6415 339.488C57.3205 337.892 57.6451 336.233 58.5444 334.875C59.4437 333.518 60.8443 332.572 62.4395 332.245ZM427.466 8.77997C425.997 9.07591 424.649 9.8011 423.592 10.8637C422.535 11.9262 421.818 13.2784 421.53 14.7489C421.243 16.2195 421.398 17.7423 421.976 19.1246C422.555 20.5069 423.53 21.6865 424.779 22.514C426.029 23.3415 427.495 23.7798 428.994 23.7733C430.492 23.7668 431.955 23.3159 433.197 22.4776C434.439 21.6392 435.404 20.4512 435.971 19.0639C436.537 17.6766 436.679 16.1525 436.379 14.6845C435.98 12.7196 434.816 10.9936 433.145 9.88632C431.473 8.779 429.43 8.38102 427.466 8.77997ZM13.8169 92.7645C12.3489 93.0626 11.0023 93.7894 9.94751 94.8529C8.89271 95.9165 8.17709 97.2691 7.89123 98.7395C7.60537 100.21 7.76209 101.732 8.34158 103.113C8.92107 104.495 9.89729 105.673 11.1467 106.499C12.3961 107.326 13.8625 107.763 15.3604 107.756C16.8584 107.748 18.3205 107.297 19.5617 106.458C20.803 105.62 21.7676 104.432 22.3335 103.045C22.8994 101.658 23.0412 100.134 22.741 98.6668C22.5433 97.6929 22.1555 96.7676 21.5998 95.9437C21.0442 95.1199 20.3315 94.4137 19.5027 93.8655C18.6738 93.3173 17.745 92.9378 16.7694 92.7489C15.7938 92.56 14.7904 92.5653 13.8169 92.7645ZM263.716 262.928C262.248 263.226 260.902 263.953 259.848 265.016C258.793 266.079 258.077 267.431 257.791 268.9C257.505 270.37 257.661 271.892 258.239 273.273C258.818 274.654 259.793 275.833 261.041 276.66C262.289 277.487 263.755 277.925 265.252 277.919C266.75 277.913 268.212 277.464 269.454 276.627C270.696 275.79 271.661 274.604 272.229 273.218C272.796 271.832 272.94 270.309 272.642 268.842C272.243 266.874 271.078 265.145 269.404 264.036C267.73 262.927 265.684 262.529 263.716 262.928ZM475.797 246.828C474.328 247.124 472.98 247.849 471.924 248.912C470.867 249.974 470.15 251.326 469.862 252.797C469.574 254.267 469.73 255.79 470.308 257.173C470.886 258.555 471.862 259.734 473.111 260.562C474.36 261.389 475.827 261.828 477.325 261.821C478.824 261.815 480.287 261.364 481.529 260.525C482.771 259.687 483.736 258.499 484.302 257.112C484.869 255.725 485.011 254.2 484.71 252.732C484.309 250.769 483.145 249.045 481.474 247.938C479.803 246.831 477.762 246.432 475.797 246.828ZM62.1486 330.812C60.6806 331.11 59.334 331.837 58.2792 332.901C57.2244 333.964 56.5088 335.317 56.2229 336.787C55.9371 338.258 56.0938 339.78 56.6733 341.161C57.2528 342.543 58.229 343.721 59.4784 344.547C60.7278 345.374 62.1942 345.811 63.6922 345.804C65.1901 345.796 66.6522 345.345 67.8934 344.506C69.1347 343.668 70.0993 342.48 70.6652 341.093C71.2312 339.706 71.373 338.182 71.0727 336.715C70.875 335.741 70.4872 334.815 69.9315 333.992C69.3759 333.168 68.6633 332.462 67.8344 331.913C67.0055 331.365 66.0767 330.986 65.1011 330.797C64.1255 330.608 63.1222 330.613 62.1486 330.812Z" fill="#DBB1FF" stroke="#222222" stroke-width="2" mask="url(#path-19-inside-1_110_2483)"/>
<path d="M135.966 129.915L132.237 111.556L123.441 113.342L127.17 131.702L122.638 132.622L118.145 110.497L136.038 106.864L140.531 128.988L135.966 129.915ZM142.094 128.671L137.601 106.546L153.861 103.244L154.646 107.109L142.884 109.498L143.845 114.229L154.674 112.03L155.465 115.928L144.637 118.128L145.794 123.825L158.089 121.328L158.887 125.26L142.094 128.671ZM173.089 122.376L171.072 112.447L162.443 114.199L164.459 124.128L159.828 125.069L155.334 102.945L159.966 102.004L161.658 110.334L170.287 108.581L168.596 100.251L173.261 99.3041L177.754 121.428L173.089 122.376ZM179.483 121.077L174.99 98.9528L179.388 98.0596L182.319 112.487L188.052 96.3002L192.883 95.319L197.376 117.443L193.011 118.33L189.953 103.269L183.815 120.197L179.483 121.077ZM198.939 117.126L194.446 95.0015L210.706 91.6993L211.491 95.5644L199.729 97.9531L200.69 102.685L211.519 100.485L212.311 104.384L201.482 106.583L202.639 112.281L214.934 109.784L215.733 113.715L198.939 117.126ZM240.721 101.042C241.267 103.73 240.9 105.91 239.62 107.58C238.358 109.224 236.306 110.335 233.462 110.913C230.863 111.44 228.718 111.24 227.026 110.312C225.356 109.379 224.224 107.504 223.629 104.687L227.727 103.855C228.047 105.316 228.654 106.315 229.549 106.85C230.44 107.363 231.53 107.489 232.818 107.227C234.151 106.956 235.125 106.4 235.74 105.558C236.373 104.689 236.534 103.489 236.223 101.956L235.445 98.1242C235.123 99.1609 234.479 100.032 233.512 100.737C232.545 101.442 231.384 101.933 230.029 102.208C228.985 102.42 228.009 102.456 227.102 102.316C226.195 102.177 225.374 101.835 224.639 101.29C223.904 100.746 223.266 99.9963 222.725 99.0422C222.184 98.088 221.77 96.9001 221.481 95.4785L220.317 89.7475L224.882 88.8204L226.039 94.5181C226.35 96.0508 226.953 97.0848 227.848 97.62C228.766 98.1507 229.791 98.301 230.924 98.071C232.234 97.8048 233.199 97.204 233.819 96.2687C234.461 95.3288 234.646 94.1925 234.376 92.8597L233.212 87.1287L237.71 86.2152L240.721 101.042ZM250.51 94.3708C251.843 94.1001 252.737 93.6063 253.193 92.8892C253.666 92.1454 253.803 91.2849 253.605 90.3075C253.415 89.3745 252.96 88.6691 252.238 88.1911C251.539 87.7087 250.523 87.6028 249.19 87.8734L244.792 88.7667L246.112 95.264L250.51 94.3708ZM243.876 108L239.382 85.8755L249.145 83.8928C250.233 83.6717 251.249 83.6621 252.192 83.8638C253.131 84.0432 253.979 84.403 254.736 84.9431C255.489 85.4609 256.12 86.1192 256.629 86.9179C257.138 87.7165 257.494 88.6156 257.697 89.6152C257.9 90.6148 257.923 91.5816 257.766 92.5156C257.604 93.4273 257.275 94.2574 256.78 95.0057C256.279 95.7317 255.632 96.3604 254.838 96.8918C254.039 97.4009 253.096 97.766 252.007 97.9871L246.876 99.0292L248.507 107.059L243.876 108ZM279.624 92.8296C279.636 94.1454 279.48 95.3683 279.154 96.4984C278.829 97.6284 278.329 98.6434 277.656 99.5434C277.006 100.439 276.188 101.195 275.203 101.811C274.218 102.428 273.081 102.867 271.793 103.128C270.349 103.421 268.944 103.452 267.579 103.221C266.236 102.985 265.009 102.47 263.9 101.678C262.791 100.886 261.825 99.8327 261.003 98.5193C260.199 97.1792 259.603 95.554 259.215 93.6436C258.836 91.7777 258.729 90.0533 258.893 88.4702C259.075 86.8605 259.507 85.4545 260.188 84.2522C260.864 83.0278 261.779 82.0093 262.932 81.1968C264.108 80.3798 265.484 79.8112 267.062 79.4909C268.439 79.2112 269.726 79.1696 270.922 79.3661C272.136 79.5358 273.217 79.906 274.166 80.4767C275.132 81.0206 275.948 81.7339 276.613 82.6165C277.3 83.4946 277.812 84.4778 278.148 85.5659L273.517 86.5065C272.949 85.3035 272.151 84.4479 271.122 83.9397C270.089 83.4093 269.018 83.2569 267.907 83.4825C265.974 83.875 264.695 84.8634 264.068 86.4478C263.437 88.01 263.368 90.0017 263.859 92.4229C264.36 94.8886 265.194 96.7198 266.363 97.9166C267.549 99.0866 269.041 99.489 270.841 99.1235C272.218 98.8438 273.243 98.254 273.916 97.3541C274.607 96.4274 274.965 95.2328 274.992 93.7702L279.624 92.8296ZM298.12 89.3855C298.666 92.0733 298.299 94.2526 297.019 95.9234C295.757 97.5674 293.704 98.6782 290.861 99.2556C288.262 99.7834 286.116 99.5831 284.424 98.6546C282.755 97.7216 281.622 95.8468 281.027 93.0302L285.125 92.1979C285.445 93.6595 286.053 94.6579 286.948 95.1931C287.839 95.7061 288.928 95.8318 290.216 95.5701C291.549 95.2995 292.523 94.7431 293.139 93.9011C293.772 93.0324 293.933 91.8317 293.622 90.299L292.843 86.4672C292.522 87.5039 291.878 88.3749 290.911 89.0801C289.944 89.7854 288.783 90.2756 287.428 90.5508C286.384 90.7628 285.408 90.799 284.501 90.6595C283.594 90.5199 282.772 90.1778 282.037 89.6332C281.302 89.0886 280.664 88.3393 280.124 87.3851C279.583 86.431 279.168 85.2431 278.879 83.8215L277.715 78.0905L282.28 77.1634L283.437 82.8611C283.749 84.3938 284.352 85.4278 285.247 85.963C286.164 86.4937 287.189 86.644 288.322 86.414C289.633 86.1478 290.598 85.547 291.217 84.6117C291.859 83.6718 292.045 82.5355 291.774 81.2027L290.61 75.4717L295.108 74.5582L298.12 89.3855ZM315.156 93.5235L311.428 75.1643L305.463 76.3756L306.185 81.2944C306.62 84.2359 306.841 86.6313 306.846 88.4805C306.852 90.3298 306.629 91.7974 306.179 92.8834C305.751 93.9649 305.08 94.7603 304.166 95.2698C303.274 95.7748 302.128 96.1694 300.729 96.4536L299.896 96.6228L299.097 92.691L299.63 92.5828C300.386 92.4294 300.998 92.2008 301.469 91.8972C301.939 91.5935 302.273 91.0746 302.471 90.3406C302.691 89.602 302.761 88.5816 302.682 87.2793C302.625 85.9726 302.448 84.2505 302.153 82.1132L300.9 73.3819L315.228 70.4721L319.721 92.5965L315.156 93.5235ZM339.111 88.6586L334.618 66.5343L339.249 65.5937L343.742 87.718L339.111 88.6586ZM323.812 80.9758L325.158 87.6065L329.99 86.6253C331.056 86.4088 331.839 85.9374 332.339 85.2114C332.857 84.4586 333.015 83.5824 332.812 82.5828C332.613 81.6054 332.142 80.88 331.398 80.4066C330.672 79.9064 329.754 79.7691 328.643 79.9947L323.812 80.9758ZM328.212 76.3352C330.433 75.8841 332.299 76.1297 333.809 77.0721C335.341 78.0099 336.335 79.6006 336.79 81.8442C337.246 84.0877 336.953 85.9512 335.913 87.4345C334.891 88.8912 333.269 89.8451 331.047 90.2962L321.418 92.2518L316.925 70.1275L321.423 69.214L323.081 77.3773L328.212 76.3352Z" fill="#222222"/>
</svg>
