<svg width="493" height="355" viewBox="0 0 493 355" fill="none" xmlns="http://www.w3.org/2000/svg">
<path d="M158.943 154.294C152.762 153.09 146.362 153.745 140.554 156.178C134.746 158.611 129.79 162.712 126.312 167.961C122.834 173.211 120.991 179.375 121.016 185.672C121.041 191.969 122.933 198.117 126.452 203.339C129.971 208.561 134.96 212.623 140.787 215.009C146.614 217.396 153.019 218.001 159.19 216.748C167.466 215.068 174.735 210.169 179.398 203.129C184.062 196.089 185.738 187.486 184.057 179.21C182.804 173.039 179.749 167.378 175.279 162.943C170.809 158.508 165.124 155.498 158.943 154.294ZM341.708 117.187C335.527 115.982 329.127 116.638 323.319 119.071C317.511 121.504 312.555 125.604 309.077 130.854C305.599 136.104 303.756 142.267 303.781 148.565C303.806 154.862 305.698 161.01 309.217 166.232C312.736 171.454 317.725 175.515 323.552 177.902C329.379 180.289 335.784 180.894 341.956 179.641C350.231 177.961 357.5 173.061 362.163 166.022C366.827 158.982 368.503 150.378 366.823 142.103C365.57 135.931 362.514 130.271 358.044 125.836C353.574 121.401 347.889 118.391 341.708 117.187ZM99.7285 159.136C99.6043 158.531 99.6011 157.907 99.7186 157.3C99.836 156.694 100.072 156.117 100.413 155.602C100.754 155.087 101.194 154.645 101.706 154.3C102.219 153.955 102.795 153.715 103.4 153.593L368.696 99.7293C369.304 99.6058 369.931 99.6044 370.54 99.7247C371.148 99.845 371.727 100.084 372.243 100.429C372.758 100.775 373.199 101.22 373.541 101.737C373.884 102.254 374.121 102.834 374.238 103.443L388.74 174.872C388.864 175.476 388.868 176.1 388.751 176.707C388.634 177.313 388.399 177.89 388.059 178.406C387.719 178.921 387.281 179.366 386.77 179.712C386.259 180.058 385.684 180.3 385.079 180.424L119.785 234.287C119.179 234.41 118.555 234.413 117.948 234.295C117.341 234.176 116.764 233.938 116.249 233.596C115.733 233.254 115.291 232.814 114.946 232.3C114.601 231.787 114.361 231.211 114.239 230.604L99.7285 159.136Z" fill="#B6BEFF" stroke="#222222"/>
<path d="M433.752 1.52562L433.982 1.48492C435.132 1.31257 436.309 1.57218 437.283 2.21763C438.257 2.86313 438.955 3.84573 439.245 4.97229L439.297 5.19871L491.089 260.285C491.337 261.508 491.09 262.78 490.402 263.822C489.713 264.863 488.639 265.59 487.416 265.841L58.8634 352.851C57.6395 353.097 56.3681 352.847 55.3282 352.156C54.2884 351.466 53.5648 350.391 53.3164 349.168L1.52529 94.0811C1.28001 92.859 1.52908 91.5897 2.21749 90.5506C2.86299 89.5762 3.84534 88.8781 4.97197 88.5882L5.19857 88.5363L433.752 1.52562ZM173.21 293.288C171.091 292.875 168.897 293.101 166.905 293.935C164.914 294.769 163.215 296.174 162.023 297.974C160.83 299.774 160.199 301.887 160.207 304.046C160.216 306.205 160.864 308.313 162.071 310.104C163.277 311.894 164.988 313.286 166.986 314.104C168.859 314.871 170.905 315.102 172.897 314.774L173.295 314.701C174.7 314.417 176.036 313.859 177.225 313.058C178.415 312.258 179.436 311.23 180.228 310.034C181.02 308.839 181.568 307.498 181.841 306.091C182.115 304.683 182.107 303.236 181.821 301.831L181.733 301.436C181.259 299.474 180.249 297.679 178.812 296.254C177.279 294.733 175.33 293.701 173.21 293.288ZM367.069 253.927C364.95 253.515 362.755 253.741 360.764 254.576C358.772 255.411 357.072 256.818 355.881 258.619C354.689 260.419 354.059 262.534 354.069 264.693C354.079 266.853 354.729 268.961 355.937 270.75C357.145 272.54 358.857 273.931 360.856 274.748C362.856 275.564 365.052 275.77 367.168 275.338C370.003 274.759 372.492 273.079 374.088 270.666C375.685 268.254 376.258 265.306 375.683 262.47C375.253 260.354 374.205 258.413 372.672 256.892C371.139 255.372 369.189 254.34 367.069 253.927ZM206.443 297.342L222.73 294.035L219.423 277.749L203.137 281.056L206.443 297.342ZM313.588 275.588L329.874 272.281L326.567 255.995L310.282 259.302L313.588 275.588ZM45.8908 105.82C43.0566 106.396 40.5667 108.073 38.9694 110.484C37.3722 112.895 36.7978 115.842 37.3732 118.676L66.3777 261.532C66.9532 264.367 68.6314 266.856 71.0425 268.453C73.4535 270.05 76.4004 270.624 79.2346 270.049L436.367 197.539C439.201 196.963 441.691 195.286 443.288 192.875C444.886 190.464 445.46 187.517 444.884 184.683L415.88 41.8269C415.304 38.9926 413.626 36.5029 411.215 34.9057C408.804 33.3086 405.857 32.735 403.023 33.3105L45.8908 105.82Z" fill="#6E7FFF" stroke="#222222"/>
<path d="M397.898 217.47L398.382 217.385C400.808 217.019 403.291 217.564 405.346 218.926C407.272 220.202 408.684 222.104 409.355 224.296C408.714 223.443 407.952 222.687 407.092 222.055L406.651 221.748C405.455 220.956 404.114 220.408 402.706 220.135C401.298 219.862 399.85 219.869 398.445 220.155L122.974 276.085C120.137 276.661 117.645 278.341 116.046 280.754C115.346 281.811 114.842 282.97 114.545 284.178C114.3 281.883 114.862 279.563 116.151 277.626C117.513 275.58 119.582 274.116 121.952 273.509L122.43 273.399L397.898 217.47Z" fill="#B9B9B9" stroke="#222222"/>
<path d="M123.174 277.065L398.644 221.135C399.921 220.875 401.236 220.869 402.516 221.117C403.795 221.365 405.013 221.862 406.099 222.581C407.186 223.3 408.121 224.227 408.849 225.307C409.578 226.388 410.086 227.601 410.345 228.878L410.355 228.927L410.375 228.973L429.444 274.358L430.705 277.355L115.588 341.334L115.581 338.083L115.439 288.855L115.439 288.805L115.429 288.756C114.906 286.179 115.428 283.499 116.88 281.307C118.332 279.114 120.596 277.589 123.174 277.065ZM170.442 293.221C167.653 293.385 165.034 294.617 163.13 296.662C161.226 298.707 160.183 301.408 160.219 304.202C160.228 304.863 160.297 305.523 160.425 306.173C160.968 308.914 162.547 311.34 164.833 312.947C167.119 314.554 169.936 315.217 172.699 314.799C175.462 314.382 177.958 312.916 179.668 310.706C181.377 308.496 182.169 305.711 181.878 302.932C181.587 300.153 180.237 297.593 178.107 295.785C175.977 293.976 173.231 293.058 170.442 293.221ZM364.288 253.74C361.485 253.921 358.86 255.177 356.958 257.246C355.057 259.314 354.026 262.035 354.081 264.844C354.093 265.505 354.166 266.165 354.298 266.813C354.859 269.565 356.46 271.996 358.767 273.598C361.074 275.201 363.911 275.853 366.687 275.417C369.462 274.982 371.962 273.494 373.668 271.262C375.374 269.029 376.153 266.225 375.844 263.433C375.535 260.64 374.162 258.075 372.009 256.269C369.857 254.464 367.092 253.558 364.288 253.74ZM206.455 297.339L222.73 294.035L219.424 277.749L203.148 281.053L206.455 297.339ZM313.588 275.588L329.864 272.283L326.557 255.997L310.282 259.302L313.588 275.588Z" fill="#B1BAFF" stroke="#222222"/>
<path d="M403.123 33.8001L45.9898 106.31C43.2854 106.859 40.91 108.46 39.386 110.761C37.8619 113.061 37.3142 115.873 37.8633 118.577L66.8677 261.433C67.4168 264.137 69.0177 266.512 71.3182 268.036C73.6188 269.56 76.4305 270.108 79.1348 269.559L436.268 197.049C438.972 196.5 441.348 194.899 442.872 192.599C444.396 190.298 444.943 187.486 444.394 184.782L415.39 41.9266C414.841 39.2223 413.24 36.8468 410.939 35.3228C408.639 33.7988 405.827 33.251 403.123 33.8001ZM389.23 174.771C389.367 175.441 389.371 176.132 389.242 176.804C389.112 177.475 388.851 178.115 388.474 178.686C388.097 179.257 387.61 179.747 387.043 180.13C386.476 180.513 385.839 180.78 385.169 180.916L119.885 234.777C119.215 234.912 118.525 234.913 117.855 234.781C117.185 234.649 116.547 234.386 115.978 234.007C115.409 233.629 114.921 233.142 114.54 232.575C114.16 232.007 113.895 231.371 113.76 230.701L99.2591 159.279C99.1216 158.609 99.1177 157.919 99.2476 157.248C99.3776 156.576 99.6389 155.938 100.016 155.368C100.394 154.798 100.88 154.308 101.448 153.927C102.015 153.545 102.652 153.28 103.322 153.145L368.606 99.2834C369.276 99.146 369.966 99.1421 370.637 99.2721C371.308 99.4021 371.947 99.6633 372.517 100.041C373.087 100.418 373.577 100.905 373.958 101.472C374.34 102.039 374.605 102.676 374.74 103.347L389.23 174.771Z" fill="#B1BAFF" stroke="#222222" stroke-miterlimit="10"/>
<path d="M158.943 154.294C152.762 153.09 146.362 153.745 140.554 156.178C134.746 158.611 129.79 162.712 126.312 167.961C122.834 173.211 120.991 179.375 121.016 185.672C121.041 191.969 122.933 198.117 126.452 203.339C129.971 208.561 134.96 212.623 140.787 215.009C146.614 217.396 153.019 218.001 159.19 216.748C167.466 215.068 174.735 210.169 179.398 203.129C184.062 196.089 185.738 187.486 184.057 179.21C182.804 173.039 179.749 167.378 175.279 162.943C170.809 158.508 165.124 155.498 158.943 154.294ZM341.708 117.187C335.527 115.982 329.127 116.638 323.319 119.071C317.511 121.504 312.555 125.604 309.077 130.854C305.599 136.104 303.756 142.267 303.781 148.565C303.806 154.862 305.698 161.01 309.217 166.232C312.736 171.454 317.725 175.515 323.552 177.902C329.379 180.289 335.784 180.894 341.956 179.641C350.231 177.961 357.5 173.061 362.163 166.022C366.827 158.982 368.503 150.378 366.823 142.103C365.57 135.931 362.514 130.271 358.044 125.836C353.574 121.401 347.889 118.391 341.708 117.187ZM99.7285 159.136C99.6043 158.531 99.6011 157.907 99.7186 157.3C99.836 156.694 100.072 156.117 100.413 155.602C100.754 155.087 101.194 154.645 101.706 154.3C102.219 153.955 102.795 153.715 103.4 153.593L368.696 99.7293C369.304 99.6058 369.931 99.6044 370.54 99.7247C371.148 99.845 371.727 100.084 372.243 100.429C372.758 100.775 373.199 101.22 373.541 101.737C373.884 102.254 374.121 102.834 374.238 103.443L388.74 174.872C388.864 175.476 388.868 176.1 388.751 176.707C388.634 177.313 388.399 177.89 388.059 178.406C387.719 178.921 387.281 179.366 386.77 179.712C386.259 180.058 385.684 180.3 385.079 180.424L119.785 234.287C119.179 234.41 118.555 234.413 117.948 234.295C117.341 234.176 116.764 233.938 116.249 233.596C115.733 233.254 115.291 232.814 114.946 232.3C114.601 231.787 114.361 231.211 114.239 230.604L99.7285 159.136Z" fill="#6E7FFF" stroke="#222222"/>
<path d="M368.597 99.2393L103.302 153.103C102.632 153.238 101.995 153.503 101.427 153.885C100.86 154.266 100.374 154.756 99.9962 155.326C99.6186 155.896 99.3574 156.534 99.2274 157.206C99.0975 157.877 99.1013 158.567 99.2388 159.237L113.749 230.703C113.884 231.374 114.149 232.012 114.531 232.579C114.912 233.147 115.402 233.635 115.972 234.013C116.542 234.392 117.181 234.654 117.852 234.785C118.523 234.916 119.214 234.914 119.885 234.778L385.18 180.914C385.849 180.776 386.485 180.508 387.05 180.125C387.616 179.742 388.101 179.252 388.477 178.681C388.853 178.111 389.113 177.472 389.242 176.801C389.371 176.13 389.367 175.441 389.23 174.771L374.728 103.349C374.599 102.675 374.338 102.033 373.959 101.461C373.58 100.888 373.091 100.397 372.521 100.014C371.95 99.6323 371.31 99.3669 370.636 99.2338C369.963 99.1008 369.27 99.1026 368.597 99.2393V99.2393ZM159.091 216.258C153.016 217.491 146.712 216.896 140.977 214.546C135.241 212.197 130.33 208.2 126.866 203.06C123.402 197.92 121.54 191.868 121.516 185.67C121.491 179.471 123.305 173.405 126.729 168.238C130.152 163.07 135.03 159.034 140.747 156.639C146.464 154.245 152.763 153.599 158.847 154.784C164.931 155.97 170.527 158.932 174.927 163.298C179.327 167.663 182.334 173.235 183.568 179.31C185.221 187.455 183.572 195.924 178.981 202.853C174.391 209.782 167.236 214.604 159.091 216.258ZM341.856 179.151C335.781 180.384 329.478 179.788 323.742 177.439C318.006 175.09 313.096 171.092 309.632 165.952C306.168 160.812 304.306 154.76 304.281 148.562C304.257 142.364 306.07 136.298 309.494 131.13C312.917 125.963 317.795 121.927 323.512 119.532C329.229 117.137 335.528 116.492 341.612 117.677C347.696 118.862 353.292 121.825 357.692 126.19C362.093 130.556 365.099 136.128 366.333 142.202C367.986 150.348 366.337 158.817 361.746 165.746C357.156 172.675 350.001 177.497 341.856 179.151Z" stroke="#222222" stroke-miterlimit="10"/>
<path d="M329.484 118.215C337.499 116.588 345.833 118.211 352.651 122.728C359.47 127.245 364.215 134.286 365.843 142.301C367.057 148.279 366.471 154.482 364.159 160.127C361.847 165.771 357.913 170.603 352.855 174.012C347.797 177.42 341.842 179.253 335.743 179.277C329.643 179.301 323.673 177.516 318.588 174.147C313.503 170.779 309.532 165.978 307.176 160.352C304.819 154.726 304.184 148.528 305.35 142.542C306.516 136.555 309.432 131.048 313.727 126.718C318.023 122.388 323.506 119.429 329.484 118.215ZM334.41 122.948C331.885 122.942 329.382 123.417 327.038 124.347L326.571 124.539C322.585 126.023 319.035 128.487 316.252 131.704L316.245 131.71L316.239 131.717L315.695 132.394C314.666 133.668 313.759 135.037 312.987 136.481L312.985 136.485L312.595 137.236L312.594 137.237L312.589 137.247C310.705 141.065 309.813 145.297 309.994 149.551C310.003 152.241 310.543 154.903 311.584 157.384C313.08 161.368 315.547 164.915 318.761 167.705L318.769 167.712L318.779 167.719L319.453 168.253L319.453 168.252C320.718 169.268 322.082 170.155 323.523 170.9L323.523 170.901L324.316 171.329L324.328 171.336L324.341 171.343C325.191 171.741 326.031 172.112 326.912 172.44L326.917 172.442C330.027 173.562 333.327 174.06 336.629 173.91L336.629 173.911C339.323 173.918 341.99 173.375 344.468 172.319C347.556 171.166 350.392 169.427 352.819 167.197C353.56 166.583 354.196 165.835 354.788 165.156L354.795 165.148L354.801 165.139L355.358 164.443C356.398 163.192 357.31 161.84 358.081 160.407L358.081 160.406L358.483 159.654L358.488 159.647L358.491 159.639C360.376 155.82 361.264 151.587 361.075 147.333C361.062 145.995 360.93 144.66 360.68 143.345L360.678 143.334L360.674 143.323C360.403 142.181 360.044 141.061 359.6 139.975L359.404 139.512C357.921 135.524 355.452 131.975 352.229 129.197L352.23 129.197L352.222 129.191L351.568 128.652L351.565 128.649L351.082 128.269C349.946 127.396 348.74 126.617 347.476 125.941L346.727 125.53L346.707 125.52L345.985 125.18C342.359 123.537 338.394 122.771 334.41 122.948L334.41 122.948Z" fill="#B6BEFF" stroke="#222222"/>
<path d="M327.043 125.455C329.396 124.451 331.93 123.937 334.488 123.943L334.512 123.942C338.596 123.758 342.661 124.604 346.332 126.405L347.081 126.816L347.085 126.818C348.474 127.561 349.79 128.433 351.016 129.422L351.039 129.44L351.752 129.95C354.846 132.621 357.214 136.032 358.635 139.865L358.643 139.887C359.647 142.241 360.161 144.774 360.155 147.332L360.156 147.356C360.34 151.447 359.486 155.519 357.674 159.192L357.281 159.928C356.541 161.302 355.666 162.599 354.669 163.799L354.668 163.799L354.663 163.807L354.119 164.489C353.501 165.177 352.892 165.823 352.237 166.443C349.896 168.597 347.159 170.276 344.178 171.386L344.168 171.39L344.157 171.395C341.804 172.399 339.271 172.913 336.712 172.906L336.7 172.906L336.687 172.907C333.508 173.054 330.33 172.575 327.336 171.496L327.323 171.492L327.309 171.488L327.001 171.388C326.488 171.211 325.984 170.982 325.472 170.736L324.853 170.436L324.079 170.017L324.07 170.012C322.684 169.296 321.373 168.443 320.156 167.466L320.154 167.463L319.494 166.942C316.402 164.258 314.03 160.844 312.594 157.011L312.591 157.002L312.587 156.993L312.407 156.548C311.535 154.317 311.082 151.941 311.074 149.543L311.074 149.533L311.073 149.523C310.896 145.434 311.751 141.365 313.56 137.694L313.95 136.948C314.692 135.559 315.563 134.243 316.553 133.018L316.554 133.016L317.093 132.346C319.771 129.254 323.186 126.887 327.021 125.463L327.043 125.455ZM339.937 126.222C335.543 125.366 330.993 125.832 326.864 127.562C322.735 129.291 319.211 132.206 316.738 135.938C314.266 139.671 312.956 144.053 312.973 148.53C312.991 153.007 314.336 157.378 316.838 161.091C319.34 164.803 322.887 167.69 327.029 169.387C331.172 171.084 335.726 171.514 340.113 170.624L340.125 170.621C346.005 169.424 351.17 165.94 354.483 160.936C357.796 155.932 358.986 149.818 357.792 143.937C356.902 139.549 354.73 135.524 351.552 132.371C348.374 129.218 344.331 127.078 339.937 126.222Z" fill="#FCF6FF" stroke="#222222"/>
<path d="M342.053 169.094C340.657 169.529 339.217 169.819 337.754 169.964L339.466 167.38L342.053 169.094ZM354.629 158.77C354.037 159.86 353.35 160.891 352.584 161.86L352.062 159.291L354.629 158.77ZM324.702 164.846L325.222 167.407C324.694 167.118 324.176 166.809 323.671 166.475C323.146 166.127 322.64 165.754 322.15 165.364L324.702 164.846ZM316.62 152.24L314.938 154.778C314.518 153.408 314.234 152.003 314.092 150.583L316.62 152.24ZM356.276 142.003C356.493 142.7 356.677 143.411 356.823 144.133C356.963 144.822 357.065 145.515 357.137 146.21L354.596 144.527L356.276 142.003ZM345.98 129.445C346.521 129.74 347.051 130.058 347.569 130.401C348.074 130.735 348.562 131.091 349.034 131.464L346.494 131.98L345.98 129.445ZM319.125 137.49L316.68 137.986C317.248 136.957 317.898 135.973 318.628 135.046L319.125 137.49ZM331.315 127.234C332.013 127.093 332.713 126.986 333.415 126.914L331.74 129.443L329.219 127.774C329.907 127.561 330.605 127.379 331.315 127.234Z" fill="#FCF6FF" stroke="#222222"/>
<path d="M146.718 155.323C154.734 153.695 163.068 155.319 169.886 159.835C176.705 164.352 181.45 171.393 183.078 179.409C184.291 185.386 183.705 191.59 181.394 197.234C179.082 202.878 175.148 207.711 170.09 211.119C165.032 214.528 159.077 216.36 152.978 216.384C146.878 216.408 140.908 214.623 135.823 211.255C130.738 207.886 126.767 203.085 124.41 197.459C122.054 191.834 121.419 185.636 122.585 179.649C123.751 173.662 126.667 168.155 130.962 163.825C135.258 159.495 140.741 156.536 146.718 155.323ZM151.634 160.058C149.108 160.051 146.606 160.527 144.262 161.457L143.795 161.649C139.808 163.133 136.259 165.597 133.475 168.814L133.46 168.83L132.93 169.501C131.901 170.776 130.995 172.144 130.222 173.588L130.22 173.593L129.83 174.344L129.829 174.344L129.824 174.353C127.936 178.176 127.046 182.417 127.24 186.677C127.237 189.355 127.775 192.005 128.823 194.47L128.823 194.471C130.309 198.467 132.78 202.024 136.007 204.811L136.014 204.816L136.02 204.821L136.684 205.357L136.685 205.358C137.951 206.374 139.316 207.262 140.758 208.007L140.758 208.008L141.551 208.436L141.563 208.444L141.576 208.45C142.426 208.849 143.266 209.219 144.147 209.548L144.152 209.549C147.262 210.67 150.562 211.168 153.864 211.018L153.864 211.018C156.558 211.025 159.225 210.483 161.703 209.426C164.801 208.273 167.645 206.528 170.074 204.286L170.077 204.284C170.76 203.644 171.41 202.97 172.023 202.262L172.031 202.255L172.036 202.247L172.593 201.551C173.633 200.3 174.545 198.947 175.316 197.514L175.315 197.514L175.728 196.763L175.738 196.743C177.614 192.916 178.502 188.68 178.32 184.421C178.296 183.09 178.161 181.762 177.914 180.453L177.913 180.442L177.909 180.431C177.641 179.289 177.286 178.169 176.845 177.083L176.651 176.619C175.159 172.633 172.688 169.086 169.465 166.305L169.457 166.298L168.803 165.759L168.799 165.756L168.317 165.377C167.344 164.628 166.319 163.949 165.251 163.345L164.712 163.048L163.947 162.638L163.939 162.634L163.932 162.63L163.21 162.288C159.584 160.644 155.617 159.879 151.633 160.058L151.634 160.058Z" fill="#B6BEFF" stroke="#222222"/>
<path d="M159.307 206.195C157.929 206.625 156.509 206.915 155.066 207.064L156.729 204.487L159.307 206.195ZM142.012 201.985L142.534 204.556C141.979 204.255 141.435 203.932 140.906 203.582C140.398 203.245 139.907 202.886 139.432 202.509L142.012 201.985ZM171.864 195.878C171.279 196.954 170.602 197.974 169.847 198.932L169.331 196.392L171.864 195.878ZM133.92 189.379L132.2 191.975C131.763 190.571 131.469 189.13 131.325 187.673L133.92 189.379ZM173.517 179.129C173.731 179.82 173.913 180.524 174.058 181.24C174.197 181.922 174.298 182.609 174.37 183.297L171.853 181.63L173.517 179.129ZM163.253 166.572C163.78 166.862 164.298 167.173 164.804 167.508C165.309 167.843 165.797 168.199 166.269 168.572L163.762 169.081L163.253 166.572ZM136.392 174.591L133.915 175.094C134.49 174.052 135.148 173.055 135.89 172.118L136.392 174.591ZM148.55 164.342C149.255 164.199 149.963 164.091 150.672 164.019L148.997 166.546L146.474 164.875C147.155 164.665 147.847 164.485 148.55 164.342Z" fill="#465BF8" stroke="#222222"/>
<path d="M144.267 162.565C146.62 161.561 149.153 161.047 151.711 161.053L151.724 161.052L151.736 161.052C155.822 160.865 159.89 161.713 163.561 163.518L164.319 163.925L164.32 163.926C165.709 164.668 167.026 165.54 168.251 166.53L168.262 166.539L168.274 166.547L168.986 167.057C172.079 169.731 174.451 173.14 175.88 176.971L175.884 176.979L175.886 176.985C176.309 178.022 176.65 179.089 176.908 180.178L177.014 180.646C177.25 181.9 177.379 183.171 177.401 184.447L177.401 184.46C177.575 188.551 176.722 192.619 174.92 196.295L174.517 197.033L174.515 197.036C173.776 198.41 172.9 199.707 171.903 200.906L171.898 200.915L171.344 201.607C170.756 202.285 170.132 202.933 169.477 203.547C167.137 205.705 164.398 207.385 161.414 208.493L161.403 208.497L161.392 208.502C159.039 209.506 156.505 210.02 153.947 210.014L153.935 210.013L153.922 210.014C150.743 210.162 147.565 209.682 144.571 208.603L144.558 208.599L144.544 208.596L144.236 208.496C143.723 208.319 143.219 208.09 142.707 207.844L142.088 207.543L141.314 207.124L141.305 207.119C139.919 206.403 138.607 205.55 137.391 204.573L136.741 204.049C133.642 201.372 131.268 197.956 129.84 194.118L129.832 194.096L129.649 193.652C128.766 191.426 128.314 189.049 128.32 186.651L128.319 186.627C128.133 182.539 128.985 178.471 130.795 174.801L131.186 174.05C131.928 172.663 132.8 171.349 133.788 170.125L133.791 170.121L134.311 169.463C136.99 166.367 140.406 163.997 144.244 162.573L144.256 162.569L144.267 162.565ZM157.172 163.329C152.778 162.473 148.228 162.94 144.099 164.669C139.97 166.399 136.446 169.314 133.973 173.046C131.501 176.778 130.19 181.161 130.208 185.638C130.226 190.114 131.571 194.486 134.073 198.198C136.575 201.91 140.121 204.797 144.264 206.494C148.407 208.191 152.961 208.622 157.348 207.731L157.36 207.729C163.239 206.529 168.402 203.044 171.714 198.041C175.026 193.038 176.218 186.925 175.027 181.044C174.136 176.657 171.964 172.632 168.786 169.478C165.608 166.325 161.566 164.185 157.172 163.329Z" fill="#FCF6FF" stroke="#222222"/>
<path d="M203.445 149.218L274.868 134.717C277.443 134.194 280.121 134.714 282.313 136.165C284.505 137.615 286.031 139.876 286.557 142.451L292.772 173.063C293.295 175.641 292.773 178.321 291.321 180.513C289.869 182.705 287.605 184.231 285.027 184.754L213.605 199.255C211.027 199.779 208.348 199.257 206.155 197.804C203.963 196.352 202.437 194.088 201.914 191.511L195.692 160.866C195.182 158.294 195.711 155.624 197.164 153.441C198.617 151.258 200.876 149.74 203.445 149.218Z" fill="#97A3FB" stroke="#222222"/>
<path d="M203.445 149.218L274.868 134.717C277.443 134.194 280.121 134.714 282.313 136.165C284.505 137.615 286.031 139.876 286.557 142.451L292.772 173.063C293.295 175.641 292.773 178.321 291.321 180.513C289.869 182.705 287.605 184.231 285.027 184.754L213.605 199.255C211.027 199.779 208.348 199.257 206.155 197.804C203.963 196.352 202.437 194.088 201.914 191.511L195.692 160.866C195.182 158.294 195.711 155.624 197.164 153.441C198.617 151.258 200.876 149.74 203.445 149.218Z" fill="#222222" stroke="#222222"/>
<path d="M203.445 149.218L274.868 134.717C277.438 134.195 280.11 134.712 282.299 136.155C284.352 137.509 285.823 139.573 286.438 141.942L286.55 142.419L287.724 148.199C286.967 147.163 286.027 146.257 284.937 145.535C282.675 144.037 279.943 143.437 277.272 143.84L276.739 143.934L205.317 158.435C202.481 159.014 199.99 160.694 198.392 163.106C197.67 164.197 197.159 165.397 196.866 166.646L195.699 160.898L195.613 160.414C195.248 157.989 195.793 155.508 197.155 153.455C198.607 151.265 200.87 149.741 203.445 149.218Z" fill="#646FC4" stroke="#222222"/>
<path d="M203.445 149.218L274.868 134.717C277.438 134.195 280.11 134.712 282.299 136.155C284.352 137.509 285.823 139.573 286.438 141.942L286.55 142.419L287.724 148.199C286.967 147.163 286.027 146.257 284.937 145.535C282.675 144.037 279.943 143.437 277.272 143.84L276.739 143.934L205.317 158.435C202.481 159.014 199.99 160.694 198.392 163.106C197.67 164.197 197.159 165.397 196.866 166.646L195.699 160.898L195.613 160.414C195.248 157.989 195.793 155.508 197.155 153.455C198.607 151.265 200.87 149.741 203.445 149.218Z" fill="#222222" stroke="#222222"/>
<path d="M61.273 332.46C62.4172 331.978 63.6786 331.844 64.8982 332.076C66.1178 332.309 67.242 332.896 68.1289 333.765C68.9603 334.58 69.5485 335.608 69.8308 336.734L69.8837 336.96C70.2147 338.611 69.8787 340.326 68.9488 341.73C68.0183 343.134 66.5687 344.112 64.9183 344.451C63.7005 344.687 62.4399 344.559 61.2948 344.081C60.1489 343.603 59.1694 342.797 58.4798 341.765C57.7903 340.732 57.4213 339.519 57.419 338.277C57.4167 337.036 57.7813 335.821 58.467 334.786C59.1526 333.751 60.129 332.942 61.273 332.46ZM474.848 248.494C475.993 248.007 477.257 247.87 478.479 248.1C479.702 248.331 480.828 248.918 481.718 249.788C482.607 250.657 483.219 251.77 483.476 252.987C483.809 254.629 483.48 256.336 482.56 257.737C481.64 259.139 480.203 260.12 478.563 260.467C477.345 260.713 476.081 260.595 474.931 260.125C473.779 259.655 472.792 258.854 472.095 257.824C471.398 256.794 471.021 255.581 471.012 254.337C471.004 253.093 471.363 251.874 472.046 250.835C472.729 249.795 473.704 248.98 474.848 248.494ZM262.659 264.394C263.822 263.903 265.106 263.77 266.346 264.009C267.585 264.249 268.726 264.852 269.622 265.742C270.518 266.631 271.129 267.767 271.378 269.004C271.709 270.648 271.379 272.356 270.459 273.757C269.539 275.158 268.104 276.141 266.464 276.49C265.229 276.754 263.944 276.644 262.772 276.176C261.599 275.707 260.592 274.9 259.879 273.858C259.166 272.816 258.78 271.586 258.768 270.323C258.756 269.061 259.119 267.823 259.811 266.767C260.504 265.712 261.496 264.885 262.659 264.394ZM12.8275 94.2141C13.9894 93.7266 15.2703 93.5943 16.5072 93.8347C17.7439 94.0751 18.8815 94.6774 19.7761 95.5646C20.6707 96.4517 21.2823 97.5845 21.5331 98.8191L21.5336 98.822C21.7046 99.6431 21.7119 100.49 21.5553 101.314C21.3986 102.138 21.0806 102.923 20.6203 103.624C20.16 104.325 19.5659 104.929 18.8723 105.4C18.3174 105.777 17.7066 106.061 17.0643 106.247L17.0599 106.225L16.5691 106.326C15.3347 106.579 14.053 106.46 12.8863 105.984C11.7198 105.508 10.7209 104.697 10.0155 103.653C9.31008 102.609 8.92964 101.379 8.9233 100.119C8.91701 98.8589 9.28444 97.6251 9.97936 96.5741C10.6743 95.5231 11.6657 94.7016 12.8275 94.2141ZM426.403 10.2484C427.565 9.75658 428.847 9.62207 430.087 9.86022C431.326 10.0985 432.468 10.6993 433.365 11.5872C434.262 12.4749 434.874 13.6093 435.126 14.8459L435.126 14.8498C435.473 16.4992 435.151 18.2185 434.232 19.6312C433.405 20.902 432.155 21.8291 430.713 22.259L430.708 22.237L430.214 22.3422C428.98 22.6056 427.694 22.4958 426.522 22.0276L426.304 21.9363C425.225 21.4581 424.299 20.6883 423.631 19.7119C422.917 18.6704 422.529 17.4405 422.517 16.1783C422.504 14.9162 422.867 13.6783 423.558 12.6226C424.25 11.567 425.24 10.7404 426.403 10.2484Z" fill="#222222" stroke="#222222"/>
<mask id="path-19-inside-1_110_2659" fill="white">
<path d="M427.738 10.124C428.932 9.88172 430.17 9.99884 431.297 10.4606C432.424 10.9225 433.388 11.7082 434.068 12.7183C434.748 13.7284 435.113 14.9176 435.117 16.1353C435.121 17.353 434.764 18.5446 434.091 19.5592C433.417 20.5737 432.458 21.3657 431.334 21.8348C430.21 22.304 428.973 22.4293 427.778 22.1948C426.583 21.9603 425.484 21.3766 424.621 20.5176C423.758 19.6585 423.169 18.5627 422.929 17.3689C422.769 16.5774 422.766 15.7619 422.92 14.9692C423.075 14.1765 423.385 13.4221 423.831 12.7492C424.278 12.0762 424.853 11.498 425.523 11.0475C426.194 10.5971 426.947 10.2833 427.738 10.124ZM14.0898 94.1086C15.2832 93.864 16.5223 93.9791 17.6503 94.4392C18.7782 94.8994 19.7443 95.6839 20.426 96.6935C21.1077 97.7031 21.4745 98.8923 21.4799 100.111C21.4853 101.329 21.129 102.521 20.4563 103.537C19.7835 104.552 18.8244 105.345 17.7006 105.815C16.5767 106.286 15.3387 106.412 14.1431 106.178C12.9476 105.944 11.8484 105.36 10.9848 104.501C10.1212 103.642 9.53196 102.546 9.29176 101.351C8.9707 99.7548 9.29536 98.0963 10.1947 96.7388C11.0939 95.3813 12.4946 94.4355 14.0898 94.1086ZM263.989 264.272C265.182 264.03 266.42 264.147 267.546 264.608C268.673 265.07 269.637 265.855 270.317 266.864C270.997 267.874 271.363 269.062 271.368 270.279C271.373 271.497 271.017 272.688 270.344 273.703C269.672 274.717 268.714 275.51 267.591 275.98C266.468 276.451 265.232 276.577 264.037 276.345C262.842 276.112 261.743 275.53 260.879 274.673C260.015 273.815 259.424 272.721 259.182 271.528C258.86 269.929 259.186 268.267 260.087 266.907C260.988 265.547 262.391 264.6 263.989 264.272ZM476.088 248.261C477.282 248.018 478.52 248.136 479.647 248.597C480.773 249.059 481.738 249.845 482.418 250.855C483.098 251.865 483.463 253.054 483.467 254.272C483.471 255.49 483.114 256.681 482.44 257.696C481.767 258.71 480.808 259.502 479.684 259.972C478.56 260.441 477.323 260.566 476.128 260.332C474.933 260.097 473.834 259.513 472.971 258.654C472.108 257.795 471.519 256.7 471.279 255.506C471.118 254.714 471.115 253.899 471.27 253.106C471.425 252.313 471.734 251.559 472.181 250.886C472.628 250.213 473.203 249.635 473.873 249.184C474.544 248.734 475.296 248.42 476.088 248.261ZM62.4395 332.245C63.6329 332.001 64.8721 332.116 66 332.576C67.128 333.036 68.094 333.821 68.7758 334.83C69.4575 335.84 69.8243 337.029 69.8297 338.247C69.8351 339.465 69.4788 340.658 68.806 341.673C68.1332 342.689 67.1742 343.482 66.0503 343.952C64.9265 344.422 63.6884 344.548 62.4929 344.314C61.2974 344.08 60.1982 343.497 59.3346 342.638C58.4709 341.778 57.8817 340.682 57.6415 339.488C57.3205 337.892 57.6451 336.233 58.5444 334.875C59.4437 333.518 60.8443 332.572 62.4395 332.245ZM427.466 8.77997C425.997 9.07591 424.649 9.8011 423.592 10.8637C422.535 11.9262 421.818 13.2784 421.53 14.7489C421.243 16.2195 421.398 17.7423 421.976 19.1246C422.555 20.5069 423.53 21.6865 424.779 22.514C426.029 23.3415 427.495 23.7798 428.994 23.7733C430.492 23.7668 431.955 23.3159 433.197 22.4776C434.439 21.6392 435.404 20.4512 435.971 19.0639C436.537 17.6766 436.679 16.1525 436.379 14.6845C435.98 12.7196 434.816 10.9936 433.145 9.88632C431.473 8.779 429.43 8.38102 427.466 8.77997ZM13.8169 92.7645C12.3489 93.0626 11.0023 93.7894 9.94751 94.8529C8.89271 95.9165 8.17709 97.2691 7.89123 98.7395C7.60537 100.21 7.76209 101.732 8.34158 103.113C8.92107 104.495 9.89729 105.673 11.1467 106.499C12.3961 107.326 13.8625 107.763 15.3604 107.756C16.8584 107.748 18.3205 107.297 19.5617 106.458C20.803 105.62 21.7676 104.432 22.3335 103.045C22.8994 101.658 23.0412 100.134 22.741 98.6668C22.5433 97.6929 22.1555 96.7676 21.5998 95.9437C21.0442 95.1199 20.3315 94.4137 19.5027 93.8655C18.6738 93.3173 17.745 92.9378 16.7694 92.7489C15.7938 92.56 14.7904 92.5653 13.8169 92.7645ZM263.716 262.928C262.248 263.226 260.902 263.953 259.848 265.016C258.793 266.079 258.077 267.431 257.791 268.9C257.505 270.37 257.661 271.892 258.239 273.273C258.818 274.654 259.793 275.833 261.041 276.66C262.289 277.487 263.755 277.925 265.252 277.919C266.75 277.913 268.212 277.464 269.454 276.627C270.696 275.79 271.661 274.604 272.229 273.218C272.796 271.832 272.94 270.309 272.642 268.842C272.243 266.874 271.078 265.145 269.404 264.036C267.73 262.927 265.684 262.529 263.716 262.928ZM475.797 246.828C474.328 247.124 472.98 247.849 471.924 248.912C470.867 249.974 470.15 251.326 469.862 252.797C469.574 254.267 469.73 255.79 470.308 257.173C470.886 258.555 471.862 259.734 473.111 260.562C474.36 261.389 475.827 261.828 477.325 261.821C478.824 261.815 480.287 261.364 481.529 260.525C482.771 259.687 483.736 258.499 484.302 257.112C484.869 255.725 485.011 254.2 484.71 252.732C484.309 250.769 483.145 249.045 481.474 247.938C479.803 246.831 477.762 246.432 475.797 246.828ZM62.1486 330.812C60.6806 331.11 59.334 331.837 58.2792 332.901C57.2244 333.964 56.5088 335.317 56.2229 336.787C55.9371 338.258 56.0938 339.78 56.6733 341.161C57.2528 342.543 58.229 343.721 59.4784 344.547C60.7278 345.374 62.1942 345.811 63.6922 345.804C65.1901 345.796 66.6522 345.345 67.8934 344.506C69.1347 343.668 70.0993 342.48 70.6652 341.093C71.2312 339.706 71.373 338.182 71.0727 336.715C70.875 335.741 70.4872 334.815 69.9315 333.992C69.3759 333.168 68.6633 332.462 67.8344 331.913C67.0055 331.365 66.0767 330.986 65.1011 330.797C64.1255 330.608 63.1222 330.613 62.1486 330.812Z"/>
</mask>
<path d="M427.738 10.124C428.932 9.88172 430.17 9.99884 431.297 10.4606C432.424 10.9225 433.388 11.7082 434.068 12.7183C434.748 13.7284 435.113 14.9176 435.117 16.1353C435.121 17.353 434.764 18.5446 434.091 19.5592C433.417 20.5737 432.458 21.3657 431.334 21.8348C430.21 22.304 428.973 22.4293 427.778 22.1948C426.583 21.9603 425.484 21.3766 424.621 20.5176C423.758 19.6585 423.169 18.5627 422.929 17.3689C422.769 16.5774 422.766 15.7619 422.92 14.9692C423.075 14.1765 423.385 13.4221 423.831 12.7492C424.278 12.0762 424.853 11.498 425.523 11.0475C426.194 10.5971 426.947 10.2833 427.738 10.124ZM14.0898 94.1086C15.2832 93.864 16.5223 93.9791 17.6503 94.4392C18.7782 94.8994 19.7443 95.6839 20.426 96.6935C21.1077 97.7031 21.4745 98.8923 21.4799 100.111C21.4853 101.329 21.129 102.521 20.4563 103.537C19.7835 104.552 18.8244 105.345 17.7006 105.815C16.5767 106.286 15.3387 106.412 14.1431 106.178C12.9476 105.944 11.8484 105.36 10.9848 104.501C10.1212 103.642 9.53196 102.546 9.29176 101.351C8.9707 99.7548 9.29536 98.0963 10.1947 96.7388C11.0939 95.3813 12.4946 94.4355 14.0898 94.1086ZM263.989 264.272C265.182 264.03 266.42 264.147 267.546 264.608C268.673 265.07 269.637 265.855 270.317 266.864C270.997 267.874 271.363 269.062 271.368 270.279C271.373 271.497 271.017 272.688 270.344 273.703C269.672 274.717 268.714 275.51 267.591 275.98C266.468 276.451 265.232 276.577 264.037 276.345C262.842 276.112 261.743 275.53 260.879 274.673C260.015 273.815 259.424 272.721 259.182 271.528C258.86 269.929 259.186 268.267 260.087 266.907C260.988 265.547 262.391 264.6 263.989 264.272ZM476.088 248.261C477.282 248.018 478.52 248.136 479.647 248.597C480.773 249.059 481.738 249.845 482.418 250.855C483.098 251.865 483.463 253.054 483.467 254.272C483.471 255.49 483.114 256.681 482.44 257.696C481.767 258.71 480.808 259.502 479.684 259.972C478.56 260.441 477.323 260.566 476.128 260.332C474.933 260.097 473.834 259.513 472.971 258.654C472.108 257.795 471.519 256.7 471.279 255.506C471.118 254.714 471.115 253.899 471.27 253.106C471.425 252.313 471.734 251.559 472.181 250.886C472.628 250.213 473.203 249.635 473.873 249.184C474.544 248.734 475.296 248.42 476.088 248.261ZM62.4395 332.245C63.6329 332.001 64.8721 332.116 66 332.576C67.128 333.036 68.094 333.821 68.7758 334.83C69.4575 335.84 69.8243 337.029 69.8297 338.247C69.8351 339.465 69.4788 340.658 68.806 341.673C68.1332 342.689 67.1742 343.482 66.0503 343.952C64.9265 344.422 63.6884 344.548 62.4929 344.314C61.2974 344.08 60.1982 343.497 59.3346 342.638C58.4709 341.778 57.8817 340.682 57.6415 339.488C57.3205 337.892 57.6451 336.233 58.5444 334.875C59.4437 333.518 60.8443 332.572 62.4395 332.245ZM427.466 8.77997C425.997 9.07591 424.649 9.8011 423.592 10.8637C422.535 11.9262 421.818 13.2784 421.53 14.7489C421.243 16.2195 421.398 17.7423 421.976 19.1246C422.555 20.5069 423.53 21.6865 424.779 22.514C426.029 23.3415 427.495 23.7798 428.994 23.7733C430.492 23.7668 431.955 23.3159 433.197 22.4776C434.439 21.6392 435.404 20.4512 435.971 19.0639C436.537 17.6766 436.679 16.1525 436.379 14.6845C435.98 12.7196 434.816 10.9936 433.145 9.88632C431.473 8.779 429.43 8.38102 427.466 8.77997ZM13.8169 92.7645C12.3489 93.0626 11.0023 93.7894 9.94751 94.8529C8.89271 95.9165 8.17709 97.2691 7.89123 98.7395C7.60537 100.21 7.76209 101.732 8.34158 103.113C8.92107 104.495 9.89729 105.673 11.1467 106.499C12.3961 107.326 13.8625 107.763 15.3604 107.756C16.8584 107.748 18.3205 107.297 19.5617 106.458C20.803 105.62 21.7676 104.432 22.3335 103.045C22.8994 101.658 23.0412 100.134 22.741 98.6668C22.5433 97.6929 22.1555 96.7676 21.5998 95.9437C21.0442 95.1199 20.3315 94.4137 19.5027 93.8655C18.6738 93.3173 17.745 92.9378 16.7694 92.7489C15.7938 92.56 14.7904 92.5653 13.8169 92.7645ZM263.716 262.928C262.248 263.226 260.902 263.953 259.848 265.016C258.793 266.079 258.077 267.431 257.791 268.9C257.505 270.37 257.661 271.892 258.239 273.273C258.818 274.654 259.793 275.833 261.041 276.66C262.289 277.487 263.755 277.925 265.252 277.919C266.75 277.913 268.212 277.464 269.454 276.627C270.696 275.79 271.661 274.604 272.229 273.218C272.796 271.832 272.94 270.309 272.642 268.842C272.243 266.874 271.078 265.145 269.404 264.036C267.73 262.927 265.684 262.529 263.716 262.928ZM475.797 246.828C474.328 247.124 472.98 247.849 471.924 248.912C470.867 249.974 470.15 251.326 469.862 252.797C469.574 254.267 469.73 255.79 470.308 257.173C470.886 258.555 471.862 259.734 473.111 260.562C474.36 261.389 475.827 261.828 477.325 261.821C478.824 261.815 480.287 261.364 481.529 260.525C482.771 259.687 483.736 258.499 484.302 257.112C484.869 255.725 485.011 254.2 484.71 252.732C484.309 250.769 483.145 249.045 481.474 247.938C479.803 246.831 477.762 246.432 475.797 246.828ZM62.1486 330.812C60.6806 331.11 59.334 331.837 58.2792 332.901C57.2244 333.964 56.5088 335.317 56.2229 336.787C55.9371 338.258 56.0938 339.78 56.6733 341.161C57.2528 342.543 58.229 343.721 59.4784 344.547C60.7278 345.374 62.1942 345.811 63.6922 345.804C65.1901 345.796 66.6522 345.345 67.8934 344.506C69.1347 343.668 70.0993 342.48 70.6652 341.093C71.2312 339.706 71.373 338.182 71.0727 336.715C70.875 335.741 70.4872 334.815 69.9315 333.992C69.3759 333.168 68.6633 332.462 67.8344 331.913C67.0055 331.365 66.0767 330.986 65.1011 330.797C64.1255 330.608 63.1222 330.613 62.1486 330.812Z" fill="#B1BAFF" stroke="#222222" stroke-width="2" mask="url(#path-19-inside-1_110_2659)"/>
<path d="M119.664 132.722L116.586 117.562L115.533 133.561L110.935 134.495L103.771 120.233L106.836 135.327L102.538 136.2L98.0449 114.076L104.842 112.695L112.136 128.11L112.839 111.071L119.503 109.718L123.996 131.842L119.664 132.722ZM132.084 112.332L132.05 112.339L131.004 121.711L136.636 120.567L132.084 112.332ZM141.066 128.376L138.74 124.095L130.576 125.753L129.937 130.636L125.039 131.63L128.443 107.902L133.807 106.813L146.098 127.354L141.066 128.376ZM147.518 127.065L143.81 108.806L137.146 110.159L136.361 106.294L154.354 102.64L155.139 106.505L148.441 107.865L152.149 126.125L147.518 127.065ZM175.948 113.694C176.493 116.381 176.127 118.561 174.847 120.231C173.585 121.876 171.532 122.986 168.689 123.564C166.09 124.092 163.944 123.891 162.252 122.963C160.583 122.03 159.45 120.155 158.855 117.338L162.953 116.506C163.273 117.968 163.881 118.966 164.776 119.501C165.667 120.014 166.756 120.14 168.044 119.878C169.377 119.608 170.351 119.051 170.967 118.209C171.6 117.341 171.761 116.14 171.449 114.607L170.671 110.775C170.35 111.812 169.706 112.683 168.739 113.388C167.772 114.093 166.611 114.584 165.256 114.859C164.212 115.071 163.236 115.107 162.329 114.968C161.421 114.828 160.6 114.486 159.865 113.941C159.13 113.397 158.492 112.647 157.951 111.693C157.411 110.739 156.996 109.551 156.707 108.13L155.543 102.399L160.108 101.472L161.265 107.169C161.577 108.702 162.18 109.736 163.075 110.271C163.992 110.802 165.017 110.952 166.15 110.722C167.461 110.456 168.426 109.855 169.045 108.92C169.687 107.98 169.873 106.844 169.602 105.511L168.438 99.7798L172.936 98.8663L175.948 113.694ZM179.202 120.631L174.709 98.5063L179.24 97.586L182.935 115.779L188.933 114.561L185.238 96.368L189.769 95.4477L193.464 113.64L199.462 112.422L195.767 94.2296L200.265 93.3161L204.758 115.44L179.202 120.631ZM220.029 112.339L211.442 103.71L209.47 106.643L211 114.173L206.435 115.1L201.942 92.9756L206.506 92.0486L208.333 101.045L214.97 90.3298L220.967 89.1117L214.01 99.6145L225.66 111.195L220.029 112.339ZM232.921 91.8534L232.888 91.8601L231.842 101.232L237.473 100.088L232.921 91.8534ZM241.904 107.897L239.578 103.616L231.414 105.274L230.775 110.157L225.877 111.151L229.281 87.4233L234.645 86.3338L246.935 106.875L241.904 107.897ZM267.025 79.7579L267.79 83.523L256.761 85.7628L260.49 104.122L255.958 105.042L251.465 82.918L267.025 79.7579ZM282.397 96.3423C283.219 96.1754 283.967 95.8731 284.641 95.4355C285.311 94.9756 285.852 94.3917 286.263 93.6837C286.692 92.9489 286.965 92.0724 287.082 91.0541C287.199 90.0357 287.124 88.8713 286.858 87.5607C286.326 84.9395 285.411 83.0552 284.114 81.9077C282.817 80.7602 281.191 80.385 279.237 80.782C277.282 81.179 275.92 82.161 275.151 83.728C274.382 85.2951 274.264 87.3891 274.796 90.0103C275.329 92.6315 276.241 94.4469 277.533 95.4566C278.843 96.4396 280.464 96.7348 282.397 96.3423ZM283.202 100.307C279.781 101.002 276.946 100.537 274.696 98.9124C272.469 97.2831 270.974 94.5914 270.211 90.8374C269.832 88.9715 269.725 87.247 269.889 85.664C270.053 84.081 270.487 82.6861 271.19 81.4793C271.889 80.2503 272.84 79.2362 274.042 78.4369C275.24 77.6154 276.694 77.031 278.404 76.6836C280.092 76.3408 281.648 76.3139 283.072 76.6031C284.513 76.8656 285.783 77.4286 286.884 78.2921C287.985 79.1557 288.921 80.2954 289.695 81.7111C290.463 83.1047 291.04 84.7455 291.423 86.6336C292.199 90.4543 291.872 93.5159 290.443 95.8183C289.037 98.1163 286.623 99.6127 283.202 100.307ZM299.019 96.2972L295.311 78.0379L288.647 79.3913L287.862 75.5262L305.855 71.8721L306.639 75.7372L299.942 77.0973L303.65 95.3566L299.019 96.2972ZM311.438 93.7751L306.944 71.6507L323.205 68.3485L323.989 72.2136L312.228 74.6023L313.188 79.3337L324.017 77.1345L324.809 81.0329L313.98 83.2321L315.137 88.9298L327.432 86.4328L328.231 90.3646L311.438 93.7751ZM343.932 87.1758L340.203 68.8166L334.239 70.0279L334.961 74.9467C335.396 77.8882 335.617 80.2836 335.622 82.1328C335.628 83.9821 335.405 85.4497 334.955 86.5357C334.527 87.6172 333.856 88.4126 332.942 88.9221C332.05 89.4271 330.904 89.8217 329.505 90.1059L328.672 90.2751L327.873 86.3433L328.406 86.235C329.161 86.0817 329.774 85.8531 330.244 85.5495C330.715 85.2458 331.049 84.7269 331.247 83.9928C331.467 83.2543 331.537 82.2339 331.458 80.9316C331.4 79.6249 331.224 77.9028 330.929 75.7655L329.676 67.0342L344.004 64.1244L348.497 86.2488L343.932 87.1758ZM352.587 74.6281L353.934 81.2588L358.765 80.2776C359.832 80.061 360.615 79.5897 361.115 78.8637C361.633 78.1109 361.79 77.2347 361.587 76.2351C361.389 75.2577 360.918 74.5323 360.174 74.0588C359.448 73.5587 358.53 73.4214 357.419 73.6469L352.587 74.6281ZM356.988 69.9875C359.209 69.5364 361.075 69.782 362.585 70.7244C364.116 71.6622 365.11 73.2529 365.566 75.4965C366.022 77.74 365.729 79.6035 364.689 81.0868C363.666 82.5435 362.045 83.4974 359.823 83.9485L350.194 85.9041L345.701 63.7798L350.199 62.8662L351.857 71.0296L356.988 69.9875Z" fill="#222222"/>
</svg>
