<svg width="1360" height="958" viewBox="0 0 1360 958" fill="none" xmlns="http://www.w3.org/2000/svg">
<rect y="98" width="1360" height="860" rx="48" fill="#222222"/>
<path d="M118.882 76.3869C114.5 96 96 99 96 99L354 101.602L325.397 0H141.765C141.765 0 123.265 56.7737 118.882 76.3869Z" fill="#222222"/>
<path d="M167.378 65.0001L159.892 53.6381L157.08 56.4121V65.0001H151.874V39.7681H157.08V50.0281L166.732 39.7681H173.572L163.616 49.7241L173.8 65.0001H167.378Z" fill="#F6F6F6"/>
<path d="M186.056 45.4301H186.018L182.788 55.4621H189.21L186.056 45.4301ZM192.326 65.0001L190.73 59.7941H181.42L179.634 65.0001H174.048L183.054 39.7681H189.172L198.064 65.0001H192.326Z" fill="#F6F6F6"/>
<path d="M218.784 56.3361C218.505 57.7801 218.062 59.0848 217.454 60.2501C216.846 61.4155 216.073 62.4161 215.136 63.2521C214.224 64.0881 213.16 64.7341 211.944 65.1901C210.728 65.6461 209.385 65.8741 207.916 65.8741C206.269 65.8741 204.724 65.5955 203.28 65.0381C201.861 64.4808 200.632 63.6448 199.594 62.5301C198.555 61.4155 197.732 60.0475 197.124 58.4261C196.541 56.7795 196.25 54.8668 196.25 52.6881C196.25 50.5601 196.516 48.6475 197.048 46.9501C197.605 45.2275 198.39 43.7835 199.404 42.6181C200.417 41.4275 201.646 40.5155 203.09 39.8821C204.559 39.2488 206.193 38.9321 207.992 38.9321C209.562 38.9321 210.981 39.1728 212.248 39.6541C213.54 40.1101 214.642 40.7561 215.554 41.5921C216.491 42.4028 217.226 43.3655 217.758 44.4801C218.315 45.5948 218.657 46.7855 218.784 48.0521H213.502C213.147 46.6081 212.463 45.4935 211.45 44.7081C210.436 43.8975 209.296 43.4921 208.03 43.4921C205.826 43.4921 204.204 44.2901 203.166 45.8861C202.127 47.4568 201.608 49.6228 201.608 52.3841C201.608 55.1961 202.114 57.3875 203.128 58.9581C204.166 60.5035 205.712 61.2761 207.764 61.2761C209.334 61.2761 210.588 60.8581 211.526 60.0221C212.488 59.1608 213.147 57.9321 213.502 56.3361H218.784Z" fill="#F6F6F6"/>
<path d="M242.088 56.3361C241.81 57.7801 241.366 59.0848 240.758 60.2501C240.15 61.4155 239.378 62.4161 238.44 63.2521C237.528 64.0881 236.464 64.7341 235.248 65.1901C234.032 65.6461 232.69 65.8741 231.22 65.8741C229.574 65.8741 228.028 65.5955 226.584 65.0381C225.166 64.4808 223.937 63.6448 222.898 62.5301C221.86 61.4155 221.036 60.0475 220.428 58.4261C219.846 56.7795 219.554 54.8668 219.554 52.6881C219.554 50.5601 219.82 48.6475 220.352 46.9501C220.91 45.2275 221.695 43.7835 222.708 42.6181C223.722 41.4275 224.95 40.5155 226.394 39.8821C227.864 39.2488 229.498 38.9321 231.296 38.9321C232.867 38.9321 234.286 39.1728 235.552 39.6541C236.844 40.1101 237.946 40.7561 238.858 41.5921C239.796 42.4028 240.53 43.3655 241.062 44.4801C241.62 45.5948 241.962 46.7855 242.088 48.0521H236.806C236.452 46.6081 235.768 45.4935 234.754 44.7081C233.741 43.8975 232.601 43.4921 231.334 43.4921C229.13 43.4921 227.509 44.2901 226.47 45.8861C225.432 47.4568 224.912 49.6228 224.912 52.3841C224.912 55.1961 225.419 57.3875 226.432 58.9581C227.471 60.5035 229.016 61.2761 231.068 61.2761C232.639 61.2761 233.893 60.8581 234.83 60.0221C235.793 59.1608 236.452 57.9321 236.806 56.3361H242.088Z" fill="#F6F6F6"/>
<path d="M243.163 65.0001V39.7681H261.707V44.1761H248.293V49.5721H260.643V54.0181H248.293V60.5161H262.315V65.0001H243.163Z" fill="#F6F6F6"/>
<path d="M270.266 65.0001V44.1761H262.666V39.7681H283.186V44.1761H275.548V65.0001H270.266Z" fill="#F6F6F6"/>
<path d="M304.721 65.0001V39.7681H310.003V65.0001H304.721ZM289.673 53.1821V60.7441H295.183C296.399 60.7441 297.361 60.4021 298.071 59.7181C298.805 59.0088 299.173 58.0841 299.173 56.9441C299.173 55.8295 298.818 54.9301 298.109 54.2461C297.425 53.5368 296.449 53.1821 295.183 53.1821H289.673ZM295.525 49.0781C298.058 49.0781 300.047 49.7621 301.491 51.1301C302.96 52.4981 303.695 54.4615 303.695 57.0201C303.695 59.5788 302.96 61.5548 301.491 62.9481C300.047 64.3161 298.058 65.0001 295.525 65.0001H284.543V39.7681H289.673V49.0781H295.525Z" fill="#F6F6F6"/>
</svg>
