<svg width="1360" height="1365" viewBox="0 0 1360 1365" fill="none" xmlns="http://www.w3.org/2000/svg">
<rect y="98.6572" width="1360" height="1266.34" rx="48" fill="#222222"/>
<path d="M118.882 76.3869C114.5 96 96 99 96 99L354 101.602L325.397 0H141.765C141.765 0 123.265 56.7737 118.882 76.3869Z" fill="#222222"/>
<path d="M191.378 55.6153L183.892 44.2533L181.08 47.0273V55.6153H175.874V30.3833H181.08V40.6433L190.732 30.3833H197.572L187.616 40.3393L197.8 55.6153H191.378Z" fill="#F6F6F6"/>
<path d="M210.056 36.0453H210.018L206.788 46.0773H213.21L210.056 36.0453ZM216.326 55.6153L214.73 50.4093H205.42L203.634 55.6153H198.048L207.054 30.3833H213.172L222.064 55.6153H216.326Z" fill="#F6F6F6"/>
<path d="M238.35 55.6153V44.2913H228.508V55.6153H223.226V30.3833H228.508V39.8833H238.35V30.3833H243.67V55.6153H238.35Z" fill="#F6F6F6"/>
<path d="M257.308 51.3213C258.524 51.3213 259.474 50.9793 260.158 50.2953C260.842 49.6113 261.184 48.75 261.184 47.7113C261.184 46.5966 260.842 45.786 260.158 45.2793C259.5 44.7726 258.575 44.5193 257.384 44.5193H250.62V51.3213H257.308ZM250.62 34.7533V40.2253H257.27C259.398 40.2253 260.462 39.3133 260.462 37.4893C260.462 36.5266 260.184 35.83 259.626 35.3993C259.094 34.9686 258.208 34.7533 256.966 34.7533H250.62ZM245.528 55.6153V30.3833H257.954C260.437 30.3833 262.324 31.004 263.616 32.2453C264.908 33.4613 265.554 35.1333 265.554 37.2613C265.554 38.3506 265.263 39.326 264.68 40.1873C264.098 41.0233 263.363 41.6186 262.476 41.9733C263.008 42.176 263.502 42.442 263.958 42.7713C264.44 43.0753 264.845 43.4806 265.174 43.9873C265.529 44.4686 265.808 45.0513 266.01 45.7353C266.213 46.394 266.314 47.1793 266.314 48.0913C266.314 50.3966 265.542 52.2333 263.996 53.6013C262.451 54.944 260.082 55.6153 256.89 55.6153H245.528Z" fill="#F6F6F6"/>
<path d="M277.446 36.0453H277.408L274.178 46.0773H280.6L277.446 36.0453ZM283.716 55.6153L282.12 50.4093H272.81L271.024 55.6153H265.438L274.444 30.3833H280.562L289.454 55.6153H283.716Z" fill="#F6F6F6"/>
</svg>
