<svg width="804" height="296" viewBox="0 0 804 296" fill="none" xmlns="http://www.w3.org/2000/svg">
<path d="M804 86.7261V296H0V84.8408C0 84.8408 3.28834 67.8726 14.7975 67.8726H49.3252C49.3252 67.8726 63.6325 62.5796 65.7669 52.7898C67.9012 43 85.4969 0 85.4969 0H246.626L271.288 67.8726H785.914C785.914 67.8726 804 70.7701 804 86.7261Z" fill="#FADBA7"/>
<path d="M113.122 25.7548H113.084L109.854 35.7868H116.276L113.122 25.7548ZM119.392 45.3248L117.796 40.1188H108.486L106.7 45.3248H101.114L110.12 20.0928H116.238L125.13 45.3248H119.392Z" fill="#222222"/>
<path d="M138.072 41.0308C139.288 41.0308 140.238 40.6888 140.922 40.0048C141.606 39.3208 141.948 38.4595 141.948 37.4208C141.948 36.3062 141.606 35.4955 140.922 34.9888C140.263 34.4822 139.338 34.2288 138.148 34.2288H131.384V41.0308H138.072ZM131.384 24.4628V29.9348H138.034C140.162 29.9348 141.226 29.0228 141.226 27.1988C141.226 26.2362 140.947 25.5395 140.39 25.1088C139.858 24.6782 138.971 24.4628 137.73 24.4628H131.384ZM126.292 45.3248V20.0928H138.718C141.2 20.0928 143.088 20.7135 144.38 21.9548C145.672 23.1708 146.318 24.8428 146.318 26.9708C146.318 28.0602 146.026 29.0355 145.444 29.8968C144.861 30.7328 144.126 31.3282 143.24 31.6828C143.772 31.8855 144.266 32.1515 144.722 32.4808C145.203 32.7848 145.608 33.1902 145.938 33.6968C146.292 34.1782 146.571 34.7608 146.774 35.4448C146.976 36.1035 147.078 36.8888 147.078 37.8008C147.078 40.1062 146.305 41.9428 144.76 43.3108C143.214 44.6535 140.846 45.3248 137.654 45.3248H126.292Z" fill="#222222"/>
<path d="M154.099 45.3248V24.5008H146.499V20.0928H167.019V24.5008H159.381V45.3248H154.099Z" fill="#222222"/>
<path d="M178.893 41.6768C179.83 41.6768 180.717 41.5122 181.553 41.1828C182.389 40.8282 183.111 40.3088 183.719 39.6248C184.352 38.9155 184.846 38.0162 185.201 36.9268C185.556 35.8375 185.733 34.5455 185.733 33.0508C185.733 30.0615 185.15 27.7942 183.985 26.2488C182.82 24.7035 181.122 23.9308 178.893 23.9308C176.664 23.9308 174.954 24.7035 173.763 26.2488C172.572 27.7942 171.977 30.0615 171.977 33.0508C171.977 36.0402 172.572 38.2315 173.763 39.6248C174.979 40.9928 176.689 41.6768 178.893 41.6768ZM178.893 46.1988C174.992 46.1988 171.99 45.0588 169.887 42.7788C167.81 40.4988 166.771 37.2182 166.771 32.9368C166.771 30.8088 167.037 28.8962 167.569 27.1988C168.101 25.5015 168.886 24.0702 169.925 22.9048C170.964 21.7142 172.23 20.8148 173.725 20.2068C175.22 19.5735 176.942 19.2568 178.893 19.2568C180.818 19.2568 182.528 19.5735 184.023 20.2068C185.543 20.8148 186.81 21.7142 187.823 22.9048C188.836 24.0955 189.609 25.5522 190.141 27.2748C190.673 28.9722 190.939 30.8975 190.939 33.0508C190.939 37.4082 189.9 40.6888 187.823 42.8928C185.771 45.0968 182.794 46.1988 178.893 46.1988Z" fill="#222222"/>
<path d="M202.83 31.8728C204.35 31.8728 205.439 31.5308 206.098 30.8468C206.782 30.1375 207.124 29.2255 207.124 28.1108C207.124 27.0468 206.782 26.1728 206.098 25.4888C205.439 24.8048 204.35 24.4628 202.83 24.4628H197.814V31.8728H202.83ZM192.532 45.3248V20.0928H203.666C204.907 20.0928 206.022 20.3082 207.01 20.7388C207.998 21.1442 208.847 21.7268 209.556 22.4868C210.265 23.2215 210.81 24.0828 211.19 25.0708C211.57 26.0588 211.76 27.1228 211.76 28.2628C211.76 29.4028 211.57 30.4668 211.19 31.4548C210.81 32.4175 210.265 33.2535 209.556 33.9628C208.847 34.6468 207.998 35.1915 207.01 35.5968C206.022 35.9768 204.907 36.1668 203.666 36.1668H197.814V45.3248H192.532Z" fill="#222222"/>
<path d="M71.6158 149.144C71.2345 151.12 70.6278 152.905 69.7958 154.5C68.9638 156.094 67.9065 157.464 66.6238 158.608C65.3758 159.752 63.9198 160.636 62.2558 161.26C60.5918 161.884 58.7545 162.196 56.7438 162.196C54.4905 162.196 52.3758 161.814 50.3998 161.052C48.4585 160.289 46.7771 159.145 45.3558 157.62C43.9345 156.094 42.8078 154.222 41.9758 152.004C41.1785 149.75 40.7798 147.133 40.7798 144.152C40.7798 141.24 41.1438 138.622 41.8718 136.3C42.6345 133.942 43.7091 131.966 45.0958 130.372C46.4825 128.742 48.1638 127.494 50.1398 126.628C52.1505 125.761 54.3865 125.328 56.8478 125.328C58.9971 125.328 60.9385 125.657 62.6718 126.316C64.4398 126.94 65.9478 127.824 67.1958 128.968C68.4785 130.077 69.4838 131.394 70.2118 132.92C70.9745 134.445 71.4425 136.074 71.6158 137.808H64.3878C63.9025 135.832 62.9665 134.306 61.5798 133.232C60.1931 132.122 58.6331 131.568 56.8998 131.568C53.8838 131.568 51.6651 132.66 50.2438 134.844C48.8225 136.993 48.1118 139.957 48.1118 143.736C48.1118 147.584 48.8051 150.582 50.1918 152.732C51.6131 154.846 53.7278 155.904 56.5358 155.904C58.6851 155.904 60.4011 155.332 61.6838 154.188C63.0011 153.009 63.9025 151.328 64.3878 149.144H71.6158Z" fill="#222222"/>
<path d="M94.0424 161V132.348H80.3144V161H73.2424V126.472H101.166V161H94.0424Z" fill="#222222"/>
<path d="M103.762 161V126.472H110.626V148.988L124.146 126.472H131.686V161H124.874V137.496L110.522 161H103.762Z" fill="#222222"/>
<path d="M148.217 142.592C150.297 142.592 151.788 142.124 152.689 141.188C153.625 140.217 154.093 138.969 154.093 137.444C154.093 135.988 153.625 134.792 152.689 133.856C151.788 132.92 150.297 132.452 148.217 132.452H141.353V142.592H148.217ZM134.125 161V126.472H149.361C151.06 126.472 152.585 126.766 153.937 127.356C155.289 127.91 156.451 128.708 157.421 129.748C158.392 130.753 159.137 131.932 159.657 133.284C160.177 134.636 160.437 136.092 160.437 137.652C160.437 139.212 160.177 140.668 159.657 142.02C159.137 143.337 158.392 144.481 157.421 145.452C156.451 146.388 155.289 147.133 153.937 147.688C152.585 148.208 151.06 148.468 149.361 148.468H141.353V161H134.125Z" fill="#222222"/>
<path d="M162.059 161V126.472H168.923V148.988L182.443 126.472H189.983V161H183.171V137.496L168.819 161H162.059Z" fill="#222222"/>
<path d="M191.798 169.788V154.864H194.034C195.005 154.864 195.854 154.69 196.582 154.344C197.31 153.997 197.934 153.286 198.454 152.212C198.974 151.137 199.39 149.629 199.702 147.688C200.014 145.746 200.257 143.164 200.43 139.94L201.158 126.472H223.518V154.864H227.73V169.788H222.53V161H196.998V169.788H191.798ZM207.086 132.348L206.722 139.94C206.549 143.614 206.22 146.665 205.734 149.092C205.249 151.518 204.642 153.442 203.914 154.864H216.446V132.348H207.086Z" fill="#222222"/>
<path d="M243.989 156.008C245.272 156.008 246.485 155.782 247.629 155.332C248.773 154.846 249.761 154.136 250.593 153.2C251.46 152.229 252.136 150.998 252.621 149.508C253.106 148.017 253.349 146.249 253.349 144.204C253.349 140.113 252.552 137.01 250.957 134.896C249.362 132.781 247.04 131.724 243.989 131.724C240.938 131.724 238.598 132.781 236.969 134.896C235.34 137.01 234.525 140.113 234.525 144.204C234.525 148.294 235.34 151.293 236.969 153.2C238.633 155.072 240.973 156.008 243.989 156.008ZM243.989 162.196C238.65 162.196 234.542 160.636 231.665 157.516C228.822 154.396 227.401 149.906 227.401 144.048C227.401 141.136 227.765 138.518 228.493 136.196C229.221 133.873 230.296 131.914 231.717 130.32C233.138 128.69 234.872 127.46 236.917 126.628C238.962 125.761 241.32 125.328 243.989 125.328C246.624 125.328 248.964 125.761 251.009 126.628C253.089 127.46 254.822 128.69 256.209 130.32C257.596 131.949 258.653 133.942 259.381 136.3C260.109 138.622 260.473 141.257 260.473 144.204C260.473 150.166 259.052 154.656 256.209 157.672C253.401 160.688 249.328 162.196 243.989 162.196Z" fill="#222222"/>
<path d="M283.349 161V145.504H269.881V161H262.653V126.472H269.881V139.472H283.349V126.472H290.629V161H283.349Z" fill="#222222"/>
<path d="M309.344 156.008C310.627 156.008 311.84 155.782 312.984 155.332C314.128 154.846 315.116 154.136 315.948 153.2C316.815 152.229 317.491 150.998 317.976 149.508C318.462 148.017 318.704 146.249 318.704 144.204C318.704 140.113 317.907 137.01 316.312 134.896C314.718 132.781 312.395 131.724 309.344 131.724C306.294 131.724 303.954 132.781 302.324 134.896C300.695 137.01 299.88 140.113 299.88 144.204C299.88 148.294 300.695 151.293 302.324 153.2C303.988 155.072 306.328 156.008 309.344 156.008ZM309.344 162.196C304.006 162.196 299.898 160.636 297.02 157.516C294.178 154.396 292.756 149.906 292.756 144.048C292.756 141.136 293.12 138.518 293.848 136.196C294.576 133.873 295.651 131.914 297.072 130.32C298.494 128.69 300.227 127.46 302.272 126.628C304.318 125.761 306.675 125.328 309.344 125.328C311.979 125.328 314.319 125.761 316.364 126.628C318.444 127.46 320.178 128.69 321.564 130.32C322.951 131.949 324.008 133.942 324.736 136.3C325.464 138.622 325.828 141.257 325.828 144.204C325.828 150.166 324.407 154.656 321.564 157.672C318.756 160.688 314.683 162.196 309.344 162.196Z" fill="#222222"/>
<path d="M344.128 155.124C345.792 155.124 347.092 154.656 348.028 153.72C348.964 152.784 349.432 151.605 349.432 150.184C349.432 148.658 348.964 147.549 348.028 146.856C347.127 146.162 345.862 145.816 344.232 145.816H334.976V155.124H344.128ZM334.976 132.452V139.94H344.076C346.988 139.94 348.444 138.692 348.444 136.196C348.444 134.878 348.063 133.925 347.3 133.336C346.572 132.746 345.359 132.452 343.66 132.452H334.976ZM328.008 161V126.472H345.012C348.41 126.472 350.992 127.321 352.76 129.02C354.528 130.684 355.412 132.972 355.412 135.884C355.412 137.374 355.014 138.709 354.216 139.888C353.419 141.032 352.414 141.846 351.2 142.332C351.928 142.609 352.604 142.973 353.228 143.424C353.887 143.84 354.442 144.394 354.892 145.088C355.378 145.746 355.759 146.544 356.036 147.48C356.314 148.381 356.452 149.456 356.452 150.704C356.452 153.858 355.395 156.372 353.28 158.244C351.166 160.081 347.924 161 343.556 161H328.008Z" fill="#222222"/>
<path d="M371.685 134.22H371.633L367.213 147.948H376.001L371.685 134.22ZM380.265 161L378.081 153.876H365.341L362.897 161H355.253L367.577 126.472H375.949L388.117 161H380.265Z" fill="#222222"/>
<path d="M401.626 169.788V154.864H403.862C404.833 154.864 405.682 154.69 406.41 154.344C407.138 153.997 407.762 153.286 408.282 152.212C408.802 151.137 409.218 149.629 409.53 147.688C409.842 145.746 410.085 143.164 410.258 139.94L410.986 126.472H433.346V154.864H437.558V169.788H432.358V161H406.826V169.788H401.626ZM416.914 132.348L416.55 139.94C416.377 143.614 416.048 146.665 415.562 149.092C415.077 151.518 414.47 153.442 413.742 154.864H426.274V132.348H416.914Z" fill="#222222"/>
<path d="M439.477 161V126.472H446.341V148.988L459.861 126.472H467.401V161H460.589V137.496L446.237 161H439.477Z" fill="#222222"/>
<path d="M480.448 168.436C477.744 165.177 475.682 161.554 474.26 157.568C472.839 153.581 472.128 149.508 472.128 145.348C472.128 141.361 472.804 137.478 474.156 133.7C475.508 129.886 477.606 126.368 480.448 123.144H485.388C483.274 126.68 481.679 130.32 480.604 134.064C479.564 137.773 479.044 141.569 479.044 145.452C479.044 149.334 479.564 153.217 480.604 157.1C481.679 160.948 483.274 164.726 485.388 168.436H480.448Z" fill="#222222"/>
<path d="M502.193 134.22H502.141L497.721 147.948H506.509L502.193 134.22ZM510.773 161L508.589 153.876H495.849L493.405 161H485.761L498.085 126.472H506.457L518.625 161H510.773Z" fill="#222222"/>
<path d="M519.435 168.436C521.55 164.726 523.127 160.948 524.167 157.1C525.242 153.217 525.779 149.334 525.779 145.452C525.779 141.569 525.242 137.773 524.167 134.064C523.127 130.32 521.55 126.68 519.435 123.144H524.375C527.218 126.368 529.315 129.886 530.667 133.7C532.019 137.478 532.695 141.361 532.695 145.348C532.695 149.508 531.985 153.581 530.563 157.568C529.142 161.554 527.079 165.177 524.375 168.436H519.435Z" fill="#222222"/>
<path d="M557.872 161V145.504H544.404V161H537.176V126.472H544.404V139.472H557.872V126.472H565.152V161H557.872Z" fill="#222222"/>
<path d="M583.088 134.22H583.036L578.616 147.948H587.404L583.088 134.22ZM591.668 161L589.484 153.876H576.744L574.3 161H566.656L578.98 126.472H587.352L599.52 161H591.668Z" fill="#222222"/>
<path d="M56.3798 196.212C59.8465 196.212 62.5678 197.148 64.5438 199.02C66.5545 200.892 67.5598 203.578 67.5598 207.08C67.5598 210.581 66.5545 213.285 64.5438 215.192C62.5678 217.064 59.8465 218 56.3798 218H41.3518V183.472H61.4758V189.66H48.3718V196.212H56.3798ZM48.3718 201.828V212.176H55.9118C57.5758 212.176 58.8931 211.708 59.8638 210.772C60.8691 209.801 61.3718 208.536 61.3718 206.976C61.3718 205.45 60.8865 204.22 59.9158 203.284C58.9798 202.313 57.6451 201.828 55.9118 201.828H48.3718Z" fill="#222222"/>
<path d="M67.9851 218C67.9851 216.405 68.1065 214.914 68.3491 213.528C68.6265 212.141 69.1291 210.772 69.8571 209.42C70.6198 208.068 71.6771 206.698 73.0291 205.312C74.3811 203.925 76.1665 202.434 78.3851 200.84C79.6331 199.973 80.6558 199.193 81.4531 198.5C82.2851 197.806 82.9438 197.148 83.4291 196.524C83.9145 195.9 84.2611 195.276 84.4691 194.652C84.6771 194.028 84.7811 193.352 84.7811 192.624C84.7811 191.757 84.6598 191.029 84.4171 190.44C84.1745 189.85 83.8278 189.382 83.3771 189.036C82.9611 188.689 82.4585 188.446 81.8691 188.308C81.2798 188.169 80.6558 188.1 79.9971 188.1C78.4371 188.1 77.2065 188.55 76.3051 189.452C75.4038 190.318 74.9531 191.913 74.9531 194.236H68.4531C68.4531 190.492 69.4238 187.58 71.3651 185.5C73.3411 183.385 76.1145 182.328 79.6851 182.328C81.4185 182.328 82.9958 182.536 84.4171 182.952C85.8731 183.368 87.1038 183.992 88.1091 184.824C89.1491 185.656 89.9465 186.713 90.5011 187.996C91.0905 189.244 91.3851 190.717 91.3851 192.416C91.3851 193.733 91.2118 194.929 90.8651 196.004C90.5185 197.078 89.9465 198.136 89.1491 199.176C88.3865 200.216 87.3638 201.273 86.0811 202.348C84.7985 203.422 83.2385 204.618 81.4011 205.936C80.0838 206.906 78.9745 207.964 78.0731 209.108C77.1718 210.217 76.6865 211.222 76.6171 212.124H91.4891V218H67.9851Z" fill="#222222"/>
<path d="M93.405 204.428L94.133 183.472H115.401V189.192H100.165L99.853 198.448C100.754 197.477 101.794 196.836 102.973 196.524C104.186 196.177 105.434 196.004 106.717 196.004C108.104 196.004 109.404 196.246 110.617 196.732C111.865 197.217 112.922 197.928 113.789 198.864C114.69 199.765 115.401 200.892 115.921 202.244C116.441 203.596 116.701 205.138 116.701 206.872C116.701 208.744 116.406 210.442 115.817 211.968C115.228 213.458 114.413 214.741 113.373 215.816C112.333 216.89 111.085 217.722 109.629 218.312C108.173 218.901 106.561 219.196 104.793 219.196C103.233 219.196 101.76 218.936 100.373 218.416C99.021 217.93 97.825 217.254 96.785 216.388C95.745 215.486 94.913 214.429 94.289 213.216C93.6997 211.968 93.3703 210.598 93.301 209.108H100.061C100.2 210.564 100.685 211.69 101.517 212.488C102.349 213.285 103.441 213.684 104.793 213.684C106.665 213.684 107.982 213.094 108.745 211.916C109.542 210.737 109.941 209.16 109.941 207.184C109.941 205.381 109.542 203.977 108.745 202.972C107.982 201.966 106.804 201.464 105.209 201.464C103.996 201.464 103.008 201.724 102.245 202.244C101.482 202.729 100.858 203.457 100.373 204.428H93.405Z" fill="#222222"/>
<path d="M118.013 226.788V211.864H120.249C121.22 211.864 122.069 211.69 122.797 211.344C123.525 210.997 124.149 210.286 124.669 209.212C125.189 208.137 125.605 206.629 125.917 204.688C126.229 202.746 126.472 200.164 126.645 196.94L127.373 183.472H149.733V211.864H153.945V226.788H148.745V218H123.213V226.788H118.013ZM133.301 189.348L132.937 196.94C132.764 200.614 132.435 203.665 131.949 206.092C131.464 208.518 130.857 210.442 130.129 211.864H142.661V189.348H133.301Z" fill="#222222"/>
<path d="M166.212 202.868V196.888H169.436C171.412 196.888 172.937 196.472 174.012 195.64C175.086 194.773 175.624 193.646 175.624 192.26C175.624 190.942 175.104 189.937 174.064 189.244C173.058 188.55 171.446 188.204 169.228 188.204C166.801 188.204 165.033 188.654 163.924 189.556C162.814 190.457 162.26 191.93 162.26 193.976H155.448C155.448 192.312 155.69 190.769 156.176 189.348C156.696 187.926 157.493 186.696 158.568 185.656C159.677 184.616 161.098 183.801 162.832 183.212C164.6 182.622 166.749 182.328 169.28 182.328C171.533 182.328 173.492 182.57 175.156 183.056C176.854 183.506 178.241 184.148 179.316 184.98C180.425 185.812 181.24 186.817 181.76 187.996C182.314 189.14 182.592 190.405 182.592 191.792C182.592 193.733 182.106 195.38 181.135 196.732C180.165 198.049 178.744 198.95 176.872 199.436C178.848 199.817 180.477 200.736 181.76 202.192C183.042 203.648 183.684 205.624 183.684 208.12C183.684 211.552 182.401 214.256 179.836 216.232C177.305 218.208 173.752 219.196 169.176 219.196C166.61 219.196 164.426 218.884 162.624 218.26C160.821 217.636 159.33 216.769 158.152 215.66C157.008 214.55 156.158 213.25 155.604 211.76C155.084 210.234 154.824 208.588 154.824 206.82H161.792C161.93 208.9 162.572 210.494 163.716 211.604C164.86 212.678 166.749 213.216 169.383 213.216C171.671 213.216 173.44 212.782 174.688 211.916C175.936 211.014 176.56 209.61 176.56 207.704C176.56 205.832 175.953 204.566 174.74 203.908C173.561 203.214 171.88 202.868 169.696 202.868H166.212Z" fill="#222222"/>
<path d="M191.143 218V194.132H184.071V189.452C185.562 189.452 186.81 189.33 187.815 189.088C188.82 188.845 189.635 188.481 190.259 187.996C190.918 187.476 191.403 186.852 191.715 186.124C192.062 185.361 192.287 184.477 192.391 183.472H197.903V218H191.143Z" fill="#222222"/>
<path d="M212.094 213.736C212.926 213.736 213.636 213.51 214.226 213.06C214.85 212.574 215.352 211.829 215.734 210.824C216.15 209.784 216.462 208.449 216.67 206.82C216.878 205.156 216.982 203.145 216.982 200.788C216.982 198.396 216.878 196.368 216.67 194.704C216.462 193.04 216.15 191.705 215.734 190.7C215.352 189.66 214.85 188.914 214.226 188.464C213.636 187.978 212.926 187.736 212.094 187.736C211.262 187.736 210.534 187.961 209.91 188.412C209.32 188.862 208.818 189.608 208.402 190.648C207.986 191.653 207.674 192.988 207.466 194.652C207.258 196.281 207.154 198.292 207.154 200.684C207.154 203.076 207.258 205.104 207.466 206.768C207.674 208.432 207.986 209.784 208.402 210.824C208.818 211.864 209.32 212.609 209.91 213.06C210.534 213.51 211.262 213.736 212.094 213.736ZM211.886 219.196C210.014 219.196 208.35 218.832 206.894 218.104C205.438 217.376 204.207 216.266 203.202 214.776C202.196 213.25 201.434 211.326 200.914 209.004C200.394 206.646 200.134 203.838 200.134 200.58C200.134 197.356 200.394 194.6 200.914 192.312C201.434 189.989 202.196 188.1 203.202 186.644C204.207 185.153 205.438 184.061 206.894 183.368C208.35 182.674 210.014 182.328 211.886 182.328C213.758 182.328 215.422 182.674 216.878 183.368C218.368 184.061 219.616 185.136 220.622 186.592C221.662 188.048 222.459 189.92 223.014 192.208C223.568 194.496 223.846 197.252 223.846 200.476C223.846 206.889 222.771 211.621 220.622 214.672C218.507 217.688 215.595 219.196 211.886 219.196Z" fill="#222222"/>
</svg>
