<svg width="804" height="296" viewBox="0 0 804 296" fill="none" xmlns="http://www.w3.org/2000/svg">
<path d="M804 86.7261V296H0V84.8408C0 84.8408 3.28834 67.8726 14.7975 67.8726H49.3252C49.3252 67.8726 62.4785 67.8726 65.7669 52.7898C69.0552 37.707 85.4969 0 85.4969 0H287.5L307.5 67.8726H785.914C785.914 67.8726 804 70.7701 804 86.7261Z" fill="#BE71FF"/>
<path d="M117.378 45.3248L109.892 33.9628L107.08 36.7368V45.3248H101.874V20.0928H107.08V30.3528L116.732 20.0928H123.572L113.616 30.0488L123.8 45.3248H117.378Z" fill="#222222"/>
<path d="M144.349 37.0028C144.349 40.0682 143.463 42.3735 141.689 43.9188C139.941 45.4388 137.446 46.1988 134.203 46.1988C131.239 46.1988 128.934 45.5022 127.287 44.1088C125.666 42.7155 124.843 40.4102 124.817 37.1928H129.491C129.517 38.8648 129.96 40.0935 130.821 40.8788C131.683 41.6388 132.848 42.0188 134.317 42.0188C135.837 42.0188 137.028 41.6262 137.889 40.8408C138.776 40.0302 139.219 38.7508 139.219 37.0028V32.6328C138.637 33.6968 137.737 34.5075 136.521 35.0648C135.305 35.6222 133.925 35.9008 132.379 35.9008C131.189 35.9008 130.112 35.7235 129.149 35.3688C128.187 35.0142 127.363 34.4568 126.679 33.6968C125.995 32.9368 125.463 31.9742 125.083 30.8088C124.703 29.6435 124.513 28.2502 124.513 26.6288V20.0928H129.719V26.5908C129.719 28.3388 130.15 29.6055 131.011 30.3908C131.898 31.1762 132.987 31.5688 134.279 31.5688C135.774 31.5688 136.965 31.1255 137.851 30.2388C138.763 29.3522 139.219 28.1488 139.219 26.6288V20.0928H144.349V37.0028Z" fill="#222222"/>
<path d="M156.555 31.8728C158.075 31.8728 159.164 31.5308 159.823 30.8468C160.507 30.1375 160.849 29.2255 160.849 28.1108C160.849 27.0468 160.507 26.1728 159.823 25.4888C159.164 24.8048 158.075 24.4628 156.555 24.4628H151.539V31.8728H156.555ZM146.257 45.3248V20.0928H157.391C158.632 20.0928 159.747 20.3082 160.735 20.7388C161.723 21.1442 162.572 21.7268 163.281 22.4868C163.99 23.2215 164.535 24.0828 164.915 25.0708C165.295 26.0588 165.485 27.1228 165.485 28.2628C165.485 29.4028 165.295 30.4668 164.915 31.4548C164.535 32.4175 163.99 33.2535 163.281 33.9628C162.572 34.6468 161.723 35.1915 160.735 35.5968C159.747 35.9768 158.632 36.1668 157.391 36.1668H151.539V45.3248H146.257Z" fill="#222222"/>
<path d="M173.462 25.7548H173.424L170.194 35.7868H176.616L173.462 25.7548ZM179.732 45.3248L178.136 40.1188H168.826L167.04 45.3248H161.454L170.46 20.0928H176.578L185.47 45.3248H179.732Z" fill="#222222"/>
<path d="M187.09 45.3248V24.5008H179.49V20.0928H200.01V24.5008H192.372V45.3248H187.09Z" fill="#222222"/>
<path d="M211.883 41.6768C212.821 41.6768 213.707 41.5122 214.543 41.1828C215.379 40.8282 216.101 40.3088 216.709 39.6248C217.343 38.9155 217.837 38.0162 218.191 36.9268C218.546 35.8375 218.723 34.5455 218.723 33.0508C218.723 30.0615 218.141 27.7942 216.975 26.2488C215.81 24.7035 214.113 23.9308 211.883 23.9308C209.654 23.9308 207.944 24.7035 206.753 26.2488C205.563 27.7942 204.967 30.0615 204.967 33.0508C204.967 36.0402 205.563 38.2315 206.753 39.6248C207.969 40.9928 209.679 41.6768 211.883 41.6768ZM211.883 46.1988C207.982 46.1988 204.98 45.0588 202.877 42.7788C200.8 40.4988 199.761 37.2182 199.761 32.9368C199.761 30.8088 200.027 28.8962 200.559 27.1988C201.091 25.5015 201.877 24.0702 202.915 22.9048C203.954 21.7142 205.221 20.8148 206.715 20.2068C208.21 19.5735 209.933 19.2568 211.883 19.2568C213.809 19.2568 215.519 19.5735 217.013 20.2068C218.533 20.8148 219.8 21.7142 220.813 22.9048C221.827 24.0955 222.599 25.5522 223.131 27.2748C223.663 28.9722 223.929 30.8975 223.929 33.0508C223.929 37.4082 222.891 40.6888 220.813 42.8928C218.761 45.0968 215.785 46.1988 211.883 46.1988Z" fill="#222222"/>
<path d="M235.82 31.8728C237.34 31.8728 238.43 31.5308 239.088 30.8468C239.772 30.1375 240.114 29.2255 240.114 28.1108C240.114 27.0468 239.772 26.1728 239.088 25.4888C238.43 24.8048 237.34 24.4628 235.82 24.4628H230.804V31.8728H235.82ZM225.522 45.3248V20.0928H236.656C237.898 20.0928 239.012 20.3082 240 20.7388C240.988 21.1442 241.837 21.7268 242.546 22.4868C243.256 23.2215 243.8 24.0828 244.18 25.0708C244.56 26.0588 244.75 27.1228 244.75 28.2628C244.75 29.4028 244.56 30.4668 244.18 31.4548C243.8 32.4175 243.256 33.2535 242.546 33.9628C241.837 34.6468 240.988 35.1915 240 35.5968C239.012 35.9768 237.898 36.1668 236.656 36.1668H230.804V45.3248H225.522Z" fill="#222222"/>
<path d="M266.113 45.3248V20.0928H271.395V45.3248H266.113ZM251.065 33.5068V41.0688H256.575C257.791 41.0688 258.754 40.7268 259.463 40.0428C260.198 39.3335 260.565 38.4088 260.565 37.2688C260.565 36.1542 260.211 35.2548 259.501 34.5708C258.817 33.8615 257.842 33.5068 256.575 33.5068H251.065ZM256.917 29.4028C259.451 29.4028 261.439 30.0868 262.883 31.4548C264.353 32.8228 265.087 34.7862 265.087 37.3448C265.087 39.9035 264.353 41.8795 262.883 43.2728C261.439 44.6408 259.451 45.3248 256.917 45.3248H245.935V20.0928H251.065V29.4028H256.917Z" fill="#222222"/>
<path d="M54.412 161L44.168 145.452L40.32 149.248V161H33.196V126.472H40.32V140.512L53.528 126.472H62.888L49.264 140.096L63.2 161H54.412Z" fill="#222222"/>
<path d="M79.9708 134.22H79.9188L75.4988 147.948H84.2868L79.9708 134.22ZM88.5508 161L86.3668 153.876H73.6268L71.1828 161H63.5388L75.8628 126.472H84.2348L96.4028 161H88.5508Z" fill="#222222"/>
<path d="M124.721 161V137.34L118.273 161H111.097L104.701 137.444V161H97.9929V126.472H108.601L114.841 151.796L121.081 126.472H131.481V161H124.721Z" fill="#222222"/>
<path d="M134.305 161V126.472H141.169V148.988L154.689 126.472H162.229V161H155.417V137.496L141.065 161H134.305Z" fill="#222222"/>
<path d="M187.705 161V132.348H178.397L177.981 139.94C177.738 144.481 177.339 148.138 176.785 150.912C176.23 153.685 175.45 155.817 174.445 157.308C173.474 158.798 172.226 159.786 170.701 160.272C169.21 160.757 167.373 161 165.189 161H163.889V154.864H164.721C165.899 154.864 166.887 154.708 167.685 154.396C168.482 154.084 169.141 153.408 169.661 152.368C170.215 151.328 170.631 149.82 170.909 147.844C171.221 145.868 171.481 143.233 171.689 139.94L172.469 126.472H194.829V161H187.705Z" fill="#222222"/>
<path d="M212.713 134.22H212.661L208.241 147.948H217.029L212.713 134.22ZM221.293 161L219.109 153.876H206.369L203.925 161H196.281L208.605 126.472H216.977L229.145 161H221.293Z" fill="#222222"/>
<path d="M257.37 142.592C259.45 142.592 260.941 142.124 261.842 141.188C262.778 140.217 263.246 138.969 263.246 137.444C263.246 135.988 262.778 134.792 261.842 133.856C260.941 132.92 259.45 132.452 257.37 132.452H250.506V142.592H257.37ZM243.278 161V126.472H258.514C260.213 126.472 261.738 126.766 263.09 127.356C264.442 127.91 265.603 128.708 266.574 129.748C267.545 130.753 268.29 131.932 268.81 133.284C269.33 134.636 269.59 136.092 269.59 137.652C269.59 139.212 269.33 140.668 268.81 142.02C268.29 143.337 267.545 144.481 266.574 145.452C265.603 146.388 264.442 147.133 263.09 147.688C261.738 148.208 260.213 148.468 258.514 148.468H250.506V161H243.278Z" fill="#222222"/>
<path d="M271.211 161V126.472H278.075V148.988L291.595 126.472H299.135V161H292.323V137.496L277.971 161H271.211Z" fill="#222222"/>
<path d="M322.583 161L315.979 149.144L309.011 161H300.587L311.767 143.372L301.211 126.472H309.739L315.979 137.652L322.271 126.472H330.643L320.139 143.06L331.371 161H322.583Z" fill="#222222"/>
<path d="M341.963 161V132.504H331.563V126.472H359.643V132.504H349.191V161H341.963Z" fill="#222222"/>
<path d="M361.344 161V126.472H386.72V132.504H368.364V139.888H385.264V145.972H368.364V154.864H387.552V161H361.344Z" fill="#222222"/>
<path d="M403.112 142.592C405.192 142.592 406.683 142.124 407.584 141.188C408.52 140.217 408.988 138.969 408.988 137.444C408.988 135.988 408.52 134.792 407.584 133.856C406.683 132.92 405.192 132.452 403.112 132.452H396.248V142.592H403.112ZM389.02 161V126.472H404.256C405.955 126.472 407.48 126.766 408.832 127.356C410.184 127.91 411.346 128.708 412.316 129.748C413.287 130.753 414.032 131.932 414.552 133.284C415.072 134.636 415.332 136.092 415.332 137.652C415.332 139.212 415.072 140.668 414.552 142.02C414.032 143.337 413.287 144.481 412.316 145.452C411.346 146.388 410.184 147.133 408.832 147.688C407.48 148.208 405.955 148.468 404.256 148.468H396.248V161H389.02Z" fill="#222222"/>
<path d="M48.588 191.22H48.536L44.116 204.948H52.904L48.588 191.22ZM57.168 218L54.984 210.876H42.244L39.8 218H32.156L44.48 183.472H52.852L65.02 218H57.168Z" fill="#222222"/>
<path d="M87.3061 218V202.504H73.8381V218H66.6101V183.472H73.8381V196.472H87.3061V183.472H94.5861V218H87.3061Z" fill="#222222"/>
<path d="M117.826 218V202.504H104.358V218H97.1296V183.472H104.358V196.472H117.826V183.472H125.106V218H117.826Z" fill="#222222"/>
<path d="M143.041 191.22H142.989L138.569 204.948H147.357L143.041 191.22ZM151.621 218L149.437 210.876H136.697L134.253 218H126.609L138.933 183.472H147.305L159.473 218H151.621Z" fill="#222222"/>
<path d="M194.822 218L184.578 202.452L180.73 206.248V218H173.606V183.472H180.73V197.512L193.938 183.472H203.298L189.674 197.096L203.61 218H194.822Z" fill="#222222"/>
<path d="M216.794 213.008C218.076 213.008 219.29 212.782 220.434 212.332C221.578 211.846 222.566 211.136 223.398 210.2C224.264 209.229 224.94 207.998 225.426 206.508C225.911 205.017 226.154 203.249 226.154 201.204C226.154 197.113 225.356 194.01 223.762 191.896C222.167 189.781 219.844 188.724 216.794 188.724C213.743 188.724 211.403 189.781 209.774 191.896C208.144 194.01 207.33 197.113 207.33 201.204C207.33 205.294 208.144 208.293 209.774 210.2C211.438 212.072 213.778 213.008 216.794 213.008ZM216.794 219.196C211.455 219.196 207.347 217.636 204.47 214.516C201.627 211.396 200.206 206.906 200.206 201.048C200.206 198.136 200.57 195.518 201.298 193.196C202.026 190.873 203.1 188.914 204.522 187.32C205.943 185.69 207.676 184.46 209.722 183.628C211.767 182.761 214.124 182.328 216.794 182.328C219.428 182.328 221.768 182.761 223.814 183.628C225.894 184.46 227.627 185.69 229.014 187.32C230.4 188.949 231.458 190.942 232.186 193.3C232.914 195.622 233.278 198.257 233.278 201.204C233.278 207.166 231.856 211.656 229.014 214.672C226.206 217.688 222.132 219.196 216.794 219.196Z" fill="#222222"/>
<path d="M262.186 218V194.34L255.738 218H248.562L242.166 194.444V218H235.458V183.472H246.066L252.306 208.796L258.546 183.472H268.946V218H262.186Z" fill="#222222"/>
<path d="M292.83 218L282.586 202.452L278.738 206.248V218H271.614V183.472H278.738V197.512L291.946 183.472H301.306L287.682 197.096L301.618 218H292.83Z" fill="#222222"/>
<path d="M314.802 213.008C316.084 213.008 317.298 212.782 318.442 212.332C319.586 211.846 320.574 211.136 321.406 210.2C322.272 209.229 322.948 207.998 323.434 206.508C323.919 205.017 324.162 203.249 324.162 201.204C324.162 197.113 323.364 194.01 321.77 191.896C320.175 189.781 317.852 188.724 314.802 188.724C311.751 188.724 309.411 189.781 307.782 191.896C306.152 194.01 305.338 197.113 305.338 201.204C305.338 205.294 306.152 208.293 307.782 210.2C309.446 212.072 311.786 213.008 314.802 213.008ZM314.802 219.196C309.463 219.196 305.355 217.636 302.478 214.516C299.635 211.396 298.214 206.906 298.214 201.048C298.214 198.136 298.578 195.518 299.306 193.196C300.034 190.873 301.108 188.914 302.53 187.32C303.951 185.69 305.684 184.46 307.73 183.628C309.775 182.761 312.132 182.328 314.802 182.328C317.436 182.328 319.776 182.761 321.822 183.628C323.902 184.46 325.635 185.69 327.022 187.32C328.408 188.949 329.466 190.942 330.194 193.3C330.922 195.622 331.286 198.257 331.286 201.204C331.286 207.166 329.864 211.656 327.022 214.672C324.214 217.688 320.14 219.196 314.802 219.196Z" fill="#222222"/>
<path d="M349.586 212.124C351.25 212.124 352.55 211.656 353.486 210.72C354.422 209.784 354.89 208.605 354.89 207.184C354.89 205.658 354.422 204.549 353.486 203.856C352.584 203.162 351.319 202.816 349.69 202.816H340.434V212.124H349.586ZM340.434 189.452V196.94H349.534C352.446 196.94 353.902 195.692 353.902 193.196C353.902 191.878 353.52 190.925 352.758 190.336C352.03 189.746 350.816 189.452 349.118 189.452H340.434ZM333.466 218V183.472H350.47C353.867 183.472 356.45 184.321 358.218 186.02C359.986 187.684 360.87 189.972 360.87 192.884C360.87 194.374 360.471 195.709 359.674 196.888C358.876 198.032 357.871 198.846 356.658 199.332C357.386 199.609 358.062 199.973 358.686 200.424C359.344 200.84 359.899 201.394 360.35 202.088C360.835 202.746 361.216 203.544 361.494 204.48C361.771 205.381 361.91 206.456 361.91 207.704C361.91 210.858 360.852 213.372 358.738 215.244C356.623 217.081 353.382 218 349.014 218H333.466Z" fill="#222222"/>
<path d="M377.143 191.22H377.091L372.671 204.948H381.459L377.143 191.22ZM385.723 218L383.539 210.876H370.799L368.355 218H360.711L373.035 183.472H381.407L393.575 218H385.723Z" fill="#222222"/>
</svg>
