<svg width="269" height="194" viewBox="0 0 269 194" fill="none" xmlns="http://www.w3.org/2000/svg">
<path d="M28.3313 35.8048L17.7809 114.902L7.23039 194H247.899L269 37.1341C269 37.1341 269 34.4754 266.196 34.0323C265.168 33.8697 245.277 33.8264 220.5 33.8368C177.732 33.8546 120.408 34.0323 120.408 34.0323H30.9874C28.774 34.0323 28.3313 35.8048 28.3313 35.8048Z" fill="#81B1F8"/>
<path fill-rule="evenodd" clip-rule="evenodd" d="M17.7809 114.902L7.23039 194L0 22.0679C0 22.0679 0.442677 20 2.06583 20H17.7809V114.902Z" fill="#719DDD"/>
<path d="M28.3313 35.8048C28.3313 35.8048 28.774 34.0323 30.9874 34.0323H120.408C120.408 34.0323 177.732 33.8546 220.5 33.8368V0H17.7809V20V114.902L28.3313 35.8048Z" fill="#E3ECFF"/>
<path d="M35.374 172.746V162.988H36.836C37.4707 162.988 38.026 162.875 38.502 162.648C38.978 162.421 39.386 161.957 39.726 161.254C40.066 160.551 40.338 159.565 40.542 158.296C40.746 157.027 40.9047 155.338 41.018 153.23L41.494 144.424H56.114V162.988H58.868V172.746H55.468V167H38.774V172.746H35.374ZM45.37 148.266L45.132 153.23C45.0187 155.633 44.8033 157.627 44.486 159.214C44.1687 160.801 43.772 162.059 43.296 162.988H51.49V148.266H45.37ZM60.0203 167V144.424H76.6123V148.368H64.6103V153.196H75.6603V157.174H64.6103V162.988H77.1563V167H60.0203ZM93.178 167V148.266H87.092L86.82 153.23C86.6613 156.199 86.4007 158.591 86.038 160.404C85.6753 162.217 85.1653 163.611 84.508 164.586C83.8733 165.561 83.0573 166.207 82.06 166.524C81.0853 166.841 79.884 167 78.456 167H77.606V162.988H78.15C78.9207 162.988 79.5667 162.886 80.088 162.682C80.6093 162.478 81.04 162.036 81.38 161.356C81.7427 160.676 82.0147 159.69 82.196 158.398C82.4 157.106 82.57 155.383 82.706 153.23L83.216 144.424H97.836V167H93.178ZM110.04 163.736C110.878 163.736 111.672 163.589 112.42 163.294C113.168 162.977 113.814 162.512 114.358 161.9C114.924 161.265 115.366 160.461 115.684 159.486C116.001 158.511 116.16 157.355 116.16 156.018C116.16 153.343 115.638 151.315 114.596 149.932C113.553 148.549 112.034 147.858 110.04 147.858C108.045 147.858 106.515 148.549 105.45 149.932C104.384 151.315 103.852 153.343 103.852 156.018C103.852 158.693 104.384 160.653 105.45 161.9C106.538 163.124 108.068 163.736 110.04 163.736ZM110.04 167.782C106.549 167.782 103.863 166.762 101.982 164.722C100.123 162.682 99.1936 159.747 99.1936 155.916C99.1936 154.012 99.4316 152.301 99.9076 150.782C100.384 149.263 101.086 147.983 102.016 146.94C102.945 145.875 104.078 145.07 105.416 144.526C106.753 143.959 108.294 143.676 110.04 143.676C111.762 143.676 113.292 143.959 114.63 144.526C115.99 145.07 117.123 145.875 118.03 146.94C118.936 148.005 119.628 149.309 120.104 150.85C120.58 152.369 120.818 154.091 120.818 156.018C120.818 159.917 119.888 162.852 118.03 164.824C116.194 166.796 113.53 167.782 110.04 167.782ZM144.486 167L134.83 151.836V167H130.444V144.424H135.442L144.418 158.942V144.424H148.838V167H144.486ZM156.216 154.624C158.256 154.624 159.276 153.355 159.276 150.816C159.276 148.277 158.256 147.008 156.216 147.008C154.199 147.008 153.19 148.277 153.19 150.816C153.19 153.355 154.199 154.624 156.216 154.624ZM156.216 157.412C154.176 157.412 152.589 156.8 151.456 155.576C150.323 154.352 149.756 152.765 149.756 150.816C149.756 148.799 150.334 147.189 151.49 145.988C152.669 144.764 154.244 144.152 156.216 144.152C158.211 144.152 159.775 144.753 160.908 145.954C162.064 147.133 162.642 148.753 162.642 150.816C162.642 152.788 162.064 154.386 160.908 155.61C159.775 156.811 158.211 157.412 156.216 157.412ZM167.625 167V151.394H163.001V148.334C163.976 148.334 164.792 148.255 165.449 148.096C166.107 147.937 166.639 147.699 167.047 147.382C167.478 147.042 167.795 146.634 167.999 146.158C168.226 145.659 168.373 145.081 168.441 144.424H172.045V167H167.625ZM179.182 153.774C180.134 153.774 180.904 153.695 181.494 153.536C182.106 153.355 182.57 153.128 182.888 152.856C183.228 152.561 183.454 152.233 183.568 151.87C183.704 151.485 183.772 151.088 183.772 150.68C183.772 149.547 183.534 148.685 183.058 148.096C182.604 147.507 181.868 147.212 180.848 147.212C179.986 147.212 179.272 147.541 178.706 148.198C178.139 148.833 177.856 149.739 177.856 150.918H173.742C173.742 149.83 173.912 148.844 174.252 147.96C174.614 147.076 175.113 146.317 175.748 145.682C176.405 145.047 177.176 144.56 178.06 144.22C178.966 143.857 179.952 143.676 181.018 143.676C181.992 143.676 182.899 143.823 183.738 144.118C184.599 144.413 185.347 144.832 185.982 145.376C186.616 145.92 187.115 146.577 187.478 147.348C187.84 148.096 188.022 148.923 188.022 149.83C188.022 150.85 187.795 151.825 187.342 152.754C186.911 153.661 186.254 154.375 185.37 154.896C186.458 155.349 187.285 156.041 187.852 156.97C188.441 157.877 188.736 159.044 188.736 160.472C188.736 161.605 188.543 162.625 188.158 163.532C187.772 164.439 187.228 165.209 186.526 165.844C185.823 166.456 184.984 166.932 184.01 167.272C183.035 167.612 181.958 167.782 180.78 167.782C178.422 167.782 176.598 167.125 175.306 165.81C174.014 164.495 173.368 162.682 173.368 160.37H177.618C177.618 161.685 177.901 162.648 178.468 163.26C179.034 163.849 179.873 164.144 180.984 164.144C181.913 164.144 182.684 163.827 183.296 163.192C183.908 162.535 184.214 161.605 184.214 160.404C184.214 159.089 183.828 158.171 183.058 157.65C182.31 157.129 181.018 156.868 179.182 156.868V153.774Z" fill="#222222"/>
</svg>
