<svg width="269" height="194" viewBox="0 0 269 194" fill="none" xmlns="http://www.w3.org/2000/svg">
<path d="M28.3313 35.8048L17.7809 114.902L7.23039 194H247.899L269 37.1341C269 37.1341 269 34.4754 266.196 34.0323C265.168 33.8697 245.277 33.8264 220.5 33.8368C177.732 33.8546 120.408 34.0323 120.408 34.0323H30.9874C28.774 34.0323 28.3313 35.8048 28.3313 35.8048Z" fill="#FADAA5"/>
<path fill-rule="evenodd" clip-rule="evenodd" d="M17.7809 114.902L7.23039 194L0 22.0679C0 22.0679 0.442677 20 2.06583 20H17.7809V114.902Z" fill="#D6B071"/>
<path d="M28.3313 35.8048C28.3313 35.8048 28.774 34.0323 30.9874 34.0323H120.408C120.408 34.0323 177.732 33.8546 220.5 33.8368V0H17.7809V20V114.902L28.3313 35.8048Z" fill="#FFF7E3"/>
<path d="M35.374 172.746V162.988H36.836C37.4707 162.988 38.026 162.875 38.502 162.648C38.978 162.421 39.386 161.957 39.726 161.254C40.066 160.551 40.338 159.565 40.542 158.296C40.746 157.027 40.9047 155.338 41.018 153.23L41.494 144.424H56.114V162.988H58.868V172.746H55.468V167H38.774V172.746H35.374ZM45.37 148.266L45.132 153.23C45.0187 155.633 44.8033 157.627 44.486 159.214C44.1687 160.801 43.772 162.059 43.296 162.988H51.49V148.266H45.37ZM60.0203 167V144.424H76.6123V148.368H64.6103V153.196H75.6603V157.174H64.6103V162.988H77.1563V167H60.0203ZM93.178 167V148.266H87.092L86.82 153.23C86.6613 156.199 86.4007 158.591 86.038 160.404C85.6753 162.217 85.1653 163.611 84.508 164.586C83.8733 165.561 83.0573 166.207 82.06 166.524C81.0853 166.841 79.884 167 78.456 167H77.606V162.988H78.15C78.9207 162.988 79.5667 162.886 80.088 162.682C80.6093 162.478 81.04 162.036 81.38 161.356C81.7427 160.676 82.0147 159.69 82.196 158.398C82.4 157.106 82.57 155.383 82.706 153.23L83.216 144.424H97.836V167H93.178ZM110.04 163.736C110.878 163.736 111.672 163.589 112.42 163.294C113.168 162.977 113.814 162.512 114.358 161.9C114.924 161.265 115.366 160.461 115.684 159.486C116.001 158.511 116.16 157.355 116.16 156.018C116.16 153.343 115.638 151.315 114.596 149.932C113.553 148.549 112.034 147.858 110.04 147.858C108.045 147.858 106.515 148.549 105.45 149.932C104.384 151.315 103.852 153.343 103.852 156.018C103.852 158.693 104.384 160.653 105.45 161.9C106.538 163.124 108.068 163.736 110.04 163.736ZM110.04 167.782C106.549 167.782 103.863 166.762 101.982 164.722C100.123 162.682 99.1936 159.747 99.1936 155.916C99.1936 154.012 99.4316 152.301 99.9076 150.782C100.384 149.263 101.086 147.983 102.016 146.94C102.945 145.875 104.078 145.07 105.416 144.526C106.753 143.959 108.294 143.676 110.04 143.676C111.762 143.676 113.292 143.959 114.63 144.526C115.99 145.07 117.123 145.875 118.03 146.94C118.936 148.005 119.628 149.309 120.104 150.85C120.58 152.369 120.818 154.091 120.818 156.018C120.818 159.917 119.888 162.852 118.03 164.824C116.194 166.796 113.53 167.782 110.04 167.782ZM144.486 167L134.83 151.836V167H130.444V144.424H135.442L144.418 158.942V144.424H148.838V167H144.486ZM156.216 154.624C158.256 154.624 159.276 153.355 159.276 150.816C159.276 148.277 158.256 147.008 156.216 147.008C154.199 147.008 153.19 148.277 153.19 150.816C153.19 153.355 154.199 154.624 156.216 154.624ZM156.216 157.412C154.176 157.412 152.589 156.8 151.456 155.576C150.323 154.352 149.756 152.765 149.756 150.816C149.756 148.799 150.334 147.189 151.49 145.988C152.669 144.764 154.244 144.152 156.216 144.152C158.211 144.152 159.775 144.753 160.908 145.954C162.064 147.133 162.642 148.753 162.642 150.816C162.642 152.788 162.064 154.386 160.908 155.61C159.775 156.811 158.211 157.412 156.216 157.412ZM171.229 164.212C171.728 164.212 172.17 164.11 172.555 163.906C172.963 163.679 173.303 163.373 173.575 162.988C173.847 162.603 174.051 162.149 174.187 161.628C174.323 161.107 174.391 160.54 174.391 159.928C174.391 158.636 174.097 157.616 173.507 156.868C172.918 156.097 172.136 155.712 171.161 155.712C170.164 155.712 169.348 156.097 168.713 156.868C168.101 157.616 167.795 158.613 167.795 159.86C167.795 161.152 168.09 162.206 168.679 163.022C169.291 163.815 170.141 164.212 171.229 164.212ZM173.949 149.32C173.836 147.915 173.043 147.212 171.569 147.212C170.345 147.212 169.427 147.801 168.815 148.98C168.226 150.136 167.863 151.927 167.727 154.352C168.249 153.74 168.861 153.241 169.563 152.856C170.289 152.448 171.218 152.244 172.351 152.244C173.235 152.244 174.063 152.414 174.833 152.754C175.627 153.094 176.307 153.593 176.873 154.25C177.463 154.885 177.916 155.667 178.233 156.596C178.573 157.503 178.743 158.545 178.743 159.724C178.743 160.88 178.562 161.957 178.199 162.954C177.837 163.929 177.327 164.779 176.669 165.504C176.035 166.207 175.253 166.762 174.323 167.17C173.417 167.578 172.408 167.782 171.297 167.782C168.623 167.782 166.628 166.83 165.313 164.926C164.021 163.022 163.375 160.2 163.375 156.46C163.375 154.193 163.545 152.255 163.885 150.646C164.248 149.037 164.769 147.722 165.449 146.702C166.152 145.659 167.025 144.9 168.067 144.424C169.133 143.925 170.368 143.676 171.773 143.676C173.609 143.676 175.094 144.163 176.227 145.138C177.383 146.09 178.086 147.484 178.335 149.32H173.949Z" fill="#222222"/>
</svg>
