<svg width="804" height="296" viewBox="0 0 804 296" fill="none" xmlns="http://www.w3.org/2000/svg">
<path d="M0 86.7261V296H804V84.8408C804 84.8408 800.712 67.8726 789.202 67.8726H754.675C754.675 67.8726 743.466 63.0796 738.233 52.7898C733 42.5 718.503 0 718.503 0H516.5L496.5 67.8726H18.0859C18.0859 67.8726 0 70.7701 0 86.7261Z" fill="#FADBA7"/>
<path d="M551.824 37.0028C551.824 40.0681 550.937 42.3734 549.164 43.9188C547.416 45.4388 544.92 46.1988 541.678 46.1988C538.714 46.1988 536.408 45.5021 534.762 44.1088C533.14 42.7154 532.317 40.4101 532.292 37.1928H536.966C536.991 38.8648 537.434 40.0934 538.296 40.8788C539.157 41.6388 540.322 42.0188 541.792 42.0188C543.312 42.0188 544.502 41.6261 545.364 40.8408C546.25 40.0301 546.694 38.7508 546.694 37.0028V32.6328C546.111 33.6968 545.212 34.5074 543.996 35.0648C542.78 35.6221 541.399 35.9008 539.854 35.9008C538.663 35.9008 537.586 35.7234 536.624 35.3688C535.661 35.0141 534.838 34.4568 534.154 33.6968C533.47 32.9368 532.938 31.9741 532.558 30.8088C532.178 29.6434 531.988 28.2501 531.988 26.6288V20.0928H537.194V26.5908C537.194 28.3388 537.624 29.6054 538.486 30.3908C539.372 31.1761 540.462 31.5688 541.754 31.5688C543.248 31.5688 544.439 31.1254 545.326 30.2388C546.238 29.3521 546.694 28.1488 546.694 26.6288V20.0928H551.824V37.0028Z" fill="#222222"/>
<path d="M568.855 45.3248V34.0008H559.013V45.3248H553.731V20.0928H559.013V29.5928H568.855V20.0928H574.175V45.3248H568.855Z" fill="#222222"/>
<path d="M576.148 45.3248V20.0928H581.164V36.5468L591.044 20.0928H596.554V45.3248H591.576V28.1488L581.088 45.3248H576.148Z" fill="#222222"/>
<path d="M610.117 41.0308C611.333 41.0308 612.283 40.6888 612.967 40.0048C613.651 39.3208 613.993 38.4594 613.993 37.4208C613.993 36.3061 613.651 35.4954 612.967 34.9888C612.308 34.4821 611.383 34.2288 610.193 34.2288H603.429V41.0308H610.117ZM603.429 24.4628V29.9348H610.079C612.207 29.9348 613.271 29.0228 613.271 27.1988C613.271 26.2361 612.992 25.5394 612.435 25.1088C611.903 24.6781 611.016 24.4628 609.775 24.4628H603.429ZM598.337 45.3248V20.0928H610.763C613.245 20.0928 615.133 20.7134 616.425 21.9548C617.717 23.1708 618.363 24.8428 618.363 26.9708C618.363 28.0601 618.071 29.0354 617.489 29.8968C616.906 30.7328 616.171 31.3281 615.285 31.6828C615.817 31.8854 616.311 32.1514 616.767 32.4808C617.248 32.7848 617.653 33.1901 617.983 33.6968C618.337 34.1781 618.616 34.7608 618.819 35.4448C619.021 36.1034 619.123 36.8888 619.123 37.8008C619.123 40.1061 618.35 41.9428 616.805 43.3108C615.259 44.6534 612.891 45.3248 609.699 45.3248H598.337Z" fill="#222222"/>
<path d="M620.157 45.3248V20.0928H638.701V24.5008H625.287V29.8968H637.637V34.3428H625.287V40.8408H639.309V45.3248H620.157Z" fill="#222222"/>
<path d="M650.68 31.8728C652.2 31.8728 653.289 31.5308 653.948 30.8468C654.632 30.1374 654.974 29.2254 654.974 28.1108C654.974 27.0468 654.632 26.1728 653.948 25.4888C653.289 24.8048 652.2 24.4628 650.68 24.4628H645.664V31.8728H650.68ZM640.382 45.3248V20.0928H651.516C652.757 20.0928 653.872 20.3081 654.86 20.7388C655.848 21.1441 656.696 21.7268 657.406 22.4868C658.115 23.2214 658.66 24.0828 659.04 25.0708C659.42 26.0588 659.61 27.1228 659.61 28.2628C659.61 29.4028 659.42 30.4668 659.04 31.4548C658.66 32.4174 658.115 33.2534 657.406 33.9628C656.696 34.6468 655.848 35.1914 654.86 35.5968C653.872 35.9768 652.757 36.1668 651.516 36.1668H645.664V45.3248H640.382Z" fill="#222222"/>
<path d="M51.3521 161V126.472H58.4241V154.864H67.7841V126.472H74.8561V154.864H84.2161V126.472H91.2361V161H51.3521Z" fill="#222222"/>
<path d="M115.068 161L104.824 145.452L100.976 149.248V161H93.8523V126.472H100.976V140.512L114.184 126.472H123.544L109.92 140.096L123.856 161H115.068Z" fill="#222222"/>
<path d="M137.04 156.008C138.323 156.008 139.536 155.782 140.68 155.332C141.824 154.846 142.812 154.136 143.644 153.2C144.511 152.229 145.187 150.998 145.672 149.508C146.157 148.017 146.4 146.249 146.4 144.204C146.4 140.113 145.603 137.01 144.008 134.896C142.413 132.781 140.091 131.724 137.04 131.724C133.989 131.724 131.649 132.781 130.02 134.896C128.391 137.01 127.576 140.113 127.576 144.204C127.576 148.294 128.391 151.293 130.02 153.2C131.684 155.072 134.024 156.008 137.04 156.008ZM137.04 162.196C131.701 162.196 127.593 160.636 124.716 157.516C121.873 154.396 120.452 149.906 120.452 144.048C120.452 141.136 120.816 138.518 121.544 136.196C122.272 133.873 123.347 131.914 124.768 130.32C126.189 128.69 127.923 127.46 129.968 126.628C132.013 125.761 134.371 125.328 137.04 125.328C139.675 125.328 142.015 125.761 144.06 126.628C146.14 127.46 147.873 128.69 149.26 130.32C150.647 131.949 151.704 133.942 152.432 136.3C153.16 138.622 153.524 141.257 153.524 144.204C153.524 150.166 152.103 154.656 149.26 157.672C146.452 160.688 142.379 162.196 137.04 162.196Z" fill="#222222"/>
<path d="M176.353 161V132.348H167.045L166.629 139.94C166.386 144.481 165.988 148.138 165.433 150.912C164.878 153.685 164.098 155.817 163.093 157.308C162.122 158.798 160.874 159.786 159.349 160.272C157.858 160.757 156.021 161 153.837 161H152.537V154.864H153.369C154.548 154.864 155.536 154.708 156.333 154.396C157.13 154.084 157.789 153.408 158.309 152.368C158.864 151.328 159.28 149.82 159.557 147.844C159.869 145.868 160.129 143.233 160.337 139.94L161.117 126.472H183.477V161H176.353Z" fill="#222222"/>
<path d="M201.361 134.22H201.309L196.889 147.948H205.677L201.361 134.22ZM209.941 161L207.757 153.876H195.017L192.573 161H184.929L197.253 126.472H205.625L217.793 161H209.941Z" fill="#222222"/>
<path d="M231.303 169.788V154.864H233.539C234.509 154.864 235.359 154.69 236.087 154.344C236.815 153.997 237.439 153.286 237.959 152.212C238.479 151.137 238.895 149.629 239.207 147.688C239.519 145.746 239.761 143.164 239.935 139.94L240.663 126.472H263.023V154.864H267.235V169.788H262.035V161H236.503V169.788H231.303ZM246.591 132.348L246.227 139.94C246.053 143.614 245.724 146.665 245.239 149.092C244.753 151.518 244.147 153.442 243.419 154.864H255.951V132.348H246.591Z" fill="#222222"/>
<path d="M269.153 161V126.472H276.017V148.988L289.537 126.472H297.077V161H290.265V137.496L275.913 161H269.153Z" fill="#222222"/>
<path d="M310.02 145.868V139.888H313.244C315.22 139.888 316.746 139.472 317.82 138.64C318.895 137.773 319.432 136.646 319.432 135.26C319.432 133.942 318.912 132.937 317.872 132.244C316.867 131.55 315.255 131.204 313.036 131.204C310.61 131.204 308.842 131.654 307.732 132.556C306.623 133.457 306.068 134.93 306.068 136.976H299.256C299.256 135.312 299.499 133.769 299.984 132.348C300.504 130.926 301.302 129.696 302.376 128.656C303.486 127.616 304.907 126.801 306.64 126.212C308.408 125.622 310.558 125.328 313.088 125.328C315.342 125.328 317.3 125.57 318.964 126.056C320.663 126.506 322.05 127.148 323.124 127.98C324.234 128.812 325.048 129.817 325.568 130.996C326.123 132.14 326.4 133.405 326.4 134.792C326.4 136.733 325.915 138.38 324.944 139.732C323.974 141.049 322.552 141.95 320.68 142.436C322.656 142.817 324.286 143.736 325.568 145.192C326.851 146.648 327.492 148.624 327.492 151.12C327.492 154.552 326.21 157.256 323.644 159.232C321.114 161.208 317.56 162.196 312.984 162.196C310.419 162.196 308.235 161.884 306.432 161.26C304.63 160.636 303.139 159.769 301.96 158.66C300.816 157.55 299.967 156.25 299.412 154.76C298.892 153.234 298.632 151.588 298.632 149.82H305.6C305.739 151.9 306.38 153.494 307.524 154.604C308.668 155.678 310.558 156.216 313.192 156.216C315.48 156.216 317.248 155.782 318.496 154.916C319.744 154.014 320.368 152.61 320.368 150.704C320.368 148.832 319.762 147.566 318.548 146.908C317.37 146.214 315.688 145.868 313.504 145.868H310.02Z" fill="#222222"/>
<path d="M342.686 134.22H342.634L338.214 147.948H347.002L342.686 134.22ZM351.266 161L349.082 153.876H336.342L333.898 161H326.254L338.578 126.472H346.95L359.118 161H351.266Z" fill="#222222"/>
<path d="M383.224 113.264C383.224 114.72 382.981 115.985 382.496 117.06C382.045 118.134 381.421 119.036 380.624 119.764C379.861 120.457 378.96 120.994 377.92 121.376C376.914 121.722 375.874 121.896 374.8 121.896C373.725 121.896 372.668 121.722 371.628 121.376C370.622 120.994 369.721 120.457 368.924 119.764C368.161 119.036 367.537 118.134 367.052 117.06C366.601 115.985 366.376 114.72 366.376 113.264H370.64C370.709 114.72 371.09 115.846 371.784 116.644C372.512 117.406 373.517 117.788 374.8 117.788C376.082 117.788 377.07 117.406 377.764 116.644C378.492 115.846 378.89 114.72 378.96 113.264H383.224ZM360.864 161V126.472H367.728V148.988L381.248 126.472H388.788V161H381.976V137.496L367.624 161H360.864Z" fill="#222222"/>
<path d="M411.923 161V145.504H398.455V161H391.227V126.472H398.455V139.472H411.923V126.472H419.203V161H411.923Z" fill="#222222"/>
<path d="M437.139 134.22H437.087L432.667 147.948H441.455L437.139 134.22ZM445.719 161L443.535 153.876H430.795L428.351 161H420.707L433.031 126.472H441.403L453.571 161H445.719Z" fill="#222222"/>
<path d="M483.824 155.124C485.488 155.124 486.788 154.656 487.724 153.72C488.66 152.784 489.128 151.605 489.128 150.184C489.128 148.658 488.66 147.549 487.724 146.856C486.823 146.162 485.557 145.816 483.928 145.816H474.672V155.124H483.824ZM474.672 132.452V139.94H483.772C486.684 139.94 488.14 138.692 488.14 136.196C488.14 134.878 487.759 133.925 486.996 133.336C486.268 132.746 485.055 132.452 483.356 132.452H474.672ZM467.704 161V126.472H484.708C488.105 126.472 490.688 127.321 492.456 129.02C494.224 130.684 495.108 132.972 495.108 135.884C495.108 137.374 494.709 138.709 493.912 139.888C493.115 141.032 492.109 141.846 490.896 142.332C491.624 142.609 492.3 142.973 492.924 143.424C493.583 143.84 494.137 144.394 494.588 145.088C495.073 145.746 495.455 146.544 495.732 147.48C496.009 148.381 496.148 149.456 496.148 150.704C496.148 153.858 495.091 156.372 492.976 158.244C490.861 160.081 487.62 161 483.252 161H467.704Z" fill="#222222"/>
<path d="M497.719 161V126.472H504.791V154.864H514.151V126.472H521.223V154.864H530.583V126.472H537.603V161H497.719Z" fill="#222222"/>
<path d="M546.511 149.144C546.997 151.328 547.881 153.009 549.163 154.188C550.481 155.332 552.214 155.904 554.363 155.904C556.929 155.904 558.888 155.037 560.24 153.304C561.626 151.57 562.458 149.109 562.736 145.92H551.139V139.992H562.527C562.111 137.322 561.21 135.26 559.823 133.804C558.437 132.313 556.495 131.568 553.999 131.568C552.266 131.568 550.706 132.122 549.319 133.232C547.933 134.306 546.997 135.832 546.511 137.808H539.283C539.457 136.074 539.907 134.445 540.635 132.92C541.398 131.394 542.403 130.077 543.651 128.968C544.934 127.824 546.442 126.94 548.175 126.316C549.943 125.657 551.902 125.328 554.051 125.328C556.513 125.328 558.731 125.761 560.707 126.628C562.718 127.494 564.417 128.742 565.803 130.372C567.19 131.966 568.247 133.942 568.975 136.3C569.738 138.622 570.12 141.24 570.12 144.152C570.12 147.133 569.703 149.75 568.871 152.004C568.074 154.222 566.948 156.094 565.492 157.62C564.07 159.145 562.389 160.289 560.447 161.052C558.506 161.814 556.409 162.196 554.155 162.196C552.145 162.196 550.307 161.884 548.643 161.26C546.979 160.636 545.506 159.752 544.223 158.608C542.975 157.464 541.918 156.094 541.051 154.5C540.219 152.905 539.63 151.12 539.283 149.144H546.511Z" fill="#222222"/>
</svg>
