<svg width="257" height="250" viewBox="0 0 257 250" fill="none" xmlns="http://www.w3.org/2000/svg">
<path fill-rule="evenodd" clip-rule="evenodd" d="M148.806 137.264C153.109 136.151 160.896 137.762 164.762 139.641C167.725 141.08 183.482 152.864 192.858 159.875C195.721 162.016 197.989 163.712 199.116 164.532C203.934 168.041 214.973 166.212 221.04 162.324C227.107 158.436 233.163 148.419 232.21 141.23C231.257 134.041 210.068 66.7124 197.313 54.9881C184.557 43.2637 169.452 29.8156 158.481 34.017C158.481 34.017 151.605 28.6974 147.694 29.5341C143.783 30.3707 126.086 34.9707 124.043 36.7928C121.999 38.6149 120.683 44.5263 120.683 44.5263C118.717 43.9382 117.923 44.2838 116.678 44.8252C116.56 44.8767 116.438 44.9299 116.31 44.9842C116.31 44.9842 118.438 77.7405 119.387 81.8659C120.237 85.5646 115.89 90.1481 113.545 92.621C113.275 92.9062 113.031 93.1634 112.825 93.3879C110.831 95.5585 84.9618 107.447 81.9755 108.207C79.3905 108.866 78.3632 107.876 76.0738 105.671L76.0735 105.671C75.7182 105.329 75.3324 104.957 74.9057 104.558C71.8038 101.656 63.4735 77.0932 64.435 75.6957L64.52 75.6359C65.7711 74.7549 66.3878 73.1298 66.9658 71.6066C67.4755 70.2633 67.9552 68.9993 68.8133 68.3951C68.8133 68.3951 66.3045 65.9438 63.4268 67.97C62.6262 68.5337 61.24 69.4058 59.6247 70.4222C55.4339 73.0589 49.7001 76.6664 48.6455 78.3777C47.1843 80.7486 48.8231 86.6883 48.8231 86.6883C45.9454 88.7145 45.0296 89.3593 43.4468 92.391C42.9927 93.2608 42.6985 93.9233 42.4012 94.5929C41.6623 96.2572 40.9037 97.9657 37.6203 103.012C33.0157 110.088 47.6414 183.38 56.8731 192.601C59.1595 194.884 60.9167 196.894 62.4137 198.606C66.9613 203.806 69.1078 206.26 76.3911 205.315C86.0719 204.058 93.9741 196.386 95.489 191.868C96.9696 187.453 98.6535 164.215 98.729 163.164C98.7314 163.131 98.7344 163.115 98.7427 163.083C98.8895 162.498 100.529 156.348 105.068 154.065C109.836 151.666 144.502 138.377 148.806 137.264Z" fill="#E988FF"/>
<path d="M113.254 45.9232C109.122 46.7237 77.839 62.04 75.0921 63.9741L68.8133 68.3951C67.9552 68.9993 67.4755 70.2633 66.9658 71.6066C66.3878 73.1298 65.7711 74.7549 64.52 75.6359L64.435 75.6957C63.4735 77.0932 71.8038 101.656 74.9057 104.558C75.3324 104.957 75.7182 105.329 76.0735 105.671L76.0738 105.671C78.3632 107.876 79.3905 108.866 81.9755 108.207C84.9618 107.447 110.831 95.5585 112.825 93.3879C113.031 93.1634 113.275 92.9062 113.545 92.621C115.89 90.1481 120.237 85.5646 119.387 81.8659C118.438 77.7405 116.31 44.9842 116.31 44.9842C115.567 45.3003 114.639 45.6548 113.254 45.9232Z" fill="#E988FF"/>
<path d="M158.481 34.017C169.452 29.8155 184.557 43.2637 197.313 54.988C210.068 66.7124 231.257 134.041 232.21 141.23C233.163 148.419 227.107 158.436 221.04 162.324C214.973 166.212 203.934 168.041 199.116 164.532C197.989 163.712 195.721 162.016 192.858 159.875C183.482 152.864 167.725 141.08 164.762 139.641C160.896 137.762 153.109 136.151 148.806 137.264C144.502 138.377 109.836 151.666 105.068 154.065C100.529 156.348 98.8895 162.498 98.7427 163.083M158.481 34.017C147.51 38.2184 123.923 45.495 120.683 44.5262M158.481 34.017C158.481 34.017 151.605 28.6974 147.694 29.5341C143.783 30.3707 126.086 34.9707 124.043 36.7928C121.999 38.6149 120.683 44.5262 120.683 44.5262M120.683 44.5262C118.717 43.9382 117.923 44.2838 116.678 44.8252C116.56 44.8767 116.438 44.9299 116.31 44.9842M75.0921 63.9741C77.839 62.04 109.122 46.7237 113.254 45.9232C114.639 45.6548 115.567 45.3003 116.31 44.9842M75.0921 63.9741C72.3452 65.9082 70.6446 67.1057 68.8133 68.3951M75.0921 63.9741L68.8133 68.3951M68.8133 68.3951C68.8133 68.3951 66.3045 65.9438 63.4268 67.97C62.6262 68.5337 61.24 69.4058 59.6247 70.4222C55.4339 73.0589 49.7001 76.6664 48.6455 78.3777C47.1843 80.7486 48.8231 86.6883 48.8231 86.6883M68.8133 68.3951C67.9552 68.9993 67.4755 70.2633 66.9658 71.6066C66.3878 73.1298 65.7711 74.7549 64.52 75.6359M64.52 75.6359C62.1655 77.2937 51.7008 84.6621 48.8231 86.6883M64.52 75.6359L64.435 75.6957M64.52 75.6359C64.4862 75.6422 64.4579 75.6624 64.435 75.6957M48.8231 86.6883C45.9454 88.7145 45.0296 89.3593 43.4468 92.391C42.9927 93.2608 42.6985 93.9233 42.4012 94.5929C41.6623 96.2572 40.9037 97.9657 37.6203 103.012C33.0157 110.088 47.6414 183.38 56.8731 192.601C59.1595 194.884 60.9167 196.894 62.4137 198.606C66.9613 203.806 69.1078 206.26 76.3911 205.315C86.0719 204.058 93.9741 196.386 95.489 191.868C96.9696 187.453 98.6535 164.215 98.729 163.164M116.31 44.9842C116.31 44.9842 118.438 77.7405 119.387 81.8659C120.237 85.5646 115.89 90.1481 113.545 92.621C113.275 92.9063 113.031 93.1634 112.825 93.3879C110.831 95.5585 84.9618 107.447 81.9755 108.207C79.3905 108.866 78.3632 107.876 76.0738 105.671L76.0735 105.671C75.7182 105.329 75.3324 104.957 74.9057 104.558C71.8038 101.656 63.4735 77.0932 64.435 75.6957M98.7427 163.083C98.7344 163.115 98.7314 163.131 98.729 163.164M98.7427 163.083C98.7419 163.086 98.7411 163.089 98.7404 163.092C98.7345 163.116 98.7308 163.14 98.729 163.164" stroke="#CA4DE6" stroke-width="2" stroke-linecap="round"/>
<path d="M135.821 56.3008C137.263 59.444 138.475 63.3119 139.073 65.3519C139.316 66.1818 138.941 67.0556 138.175 67.4576C136.439 68.3693 133.009 70.1293 128.187 72.4126C120.997 75.8173 127.107 87.5518 132.204 86.455C135.768 85.6881 139.756 84.4358 141.832 83.7517C142.672 83.475 143.593 83.8053 144.039 84.5689C145.28 86.6959 147.713 91.0323 149.046 94.5352C150.888 99.3736 165.684 92.8772 163.81 88.5492C162.461 85.4313 160.875 80.68 160.094 78.2667C159.81 77.3907 160.213 76.4447 161.04 76.0407C163.059 75.0554 166.957 73.1814 171.075 71.356C177.04 68.7121 169.696 54.1137 164.707 56.4762C161.363 58.0596 157.509 59.9164 155.33 60.9688C154.377 61.4294 153.233 61.015 152.781 60.0572C151.729 57.8219 149.8 53.8636 147.901 50.671C145.088 45.9416 133.761 51.8083 135.821 56.3008Z" fill="#CA4DE6" stroke="#CA4DE6" stroke-width="2" stroke-linecap="round"/>
<path d="M73.8266 123.028C81.1208 117.892 91.0817 119.539 96.0859 126.646C101.09 133.754 99.2827 143.687 91.9887 148.823C84.6946 153.958 74.733 152.312 69.7287 145.205C64.7244 138.098 66.5324 128.164 73.8266 123.028Z" fill="#CA4DE6" stroke="#CA4DE6" stroke-width="2"/>
<path d="M122.181 102.787C129.475 97.6513 139.436 99.2981 144.44 106.405C149.444 113.512 147.637 123.445 140.343 128.581C133.048 133.717 123.087 132.071 118.083 124.964C113.078 117.856 114.886 107.923 122.181 102.787Z" fill="#CA4DE6" stroke="#CA4DE6" stroke-width="2"/>
<ellipse cx="57.8424" cy="121.174" rx="3.19961" ry="3.13518" transform="rotate(-35.1498 57.8424 121.174)" fill="#CA4DE6"/>
<ellipse cx="61.5577" cy="110.889" rx="3.19961" ry="3.13518" transform="rotate(-35.1498 61.5577 110.889)" fill="#CA4DE6"/>
<ellipse cx="47.1943" cy="117.169" rx="3.19961" ry="3.13518" transform="rotate(-35.1498 47.1943 117.169)" fill="#CA4DE6"/>
<ellipse cx="51.0732" cy="106.002" rx="3.19961" ry="3.13518" transform="rotate(-35.1498 51.0732 106.002)" fill="#CA4DE6"/>
</svg>
