<svg width="231" height="213" viewBox="0 0 231 213" fill="none" xmlns="http://www.w3.org/2000/svg">
<path fill-rule="evenodd" clip-rule="evenodd" d="M110.141 131.057C106.275 133.513 101.998 140.582 100.683 144.872C99.6754 148.159 97.4083 168.631 96.0594 180.813C95.6476 184.532 95.3213 187.478 95.1427 188.926C94.3787 195.118 85.2326 202.162 78.0451 203.947C70.8575 205.732 59.0843 203.074 54.3672 197.149C49.6501 191.223 14.1108 126.438 14.3076 108.284C14.5045 90.1302 15.0648 68.9476 25.9411 63.672C25.9411 63.672 26.7974 54.6101 30.1792 52.2509C33.5611 49.8917 49.4735 39.8063 52.2784 39.5761C55.0832 39.3459 60.4408 42.6263 60.4408 42.6263C61.3851 40.7102 62.2035 40.3582 63.486 39.8067C63.6078 39.7543 63.7338 39.7001 63.8646 39.6426C63.8646 39.6426 86.9165 64.9614 89.3407 68.6655C91.5142 71.9866 98.0109 72.0091 101.516 72.0212C101.92 72.0226 102.285 72.0239 102.598 72.03C105.629 72.0897 132.761 61.0835 135.435 59.3704C137.749 57.8874 137.731 56.3926 137.691 53.0614C137.685 52.5443 137.678 51.9826 137.679 51.3703C137.689 46.9187 125.146 22.8285 123.422 22.546L123.317 22.5671C121.775 22.878 120.123 22.1693 118.574 21.5051C117.208 20.9194 115.923 20.3682 114.866 20.5815C114.866 20.5815 114.796 16.9057 118.341 16.1907C119.328 15.9918 120.958 15.5722 122.857 15.0833C127.785 13.8147 134.528 12.0792 136.553 12.5182C139.359 13.1263 142.657 18.667 142.657 18.667C146.203 17.952 147.331 17.7245 150.718 18.7187C151.69 19.0039 152.393 19.2604 153.105 19.5196C154.873 20.164 156.688 20.8254 162.782 21.9883C171.33 23.6192 215.961 87.7457 216.369 101.417C216.471 104.802 216.739 107.588 216.968 109.962C217.662 117.173 217.99 120.576 212.151 125.413C204.391 131.842 193.074 132.279 188.621 130.158C184.269 128.085 165.666 112.545 164.825 111.841C164.798 111.819 164.785 111.81 164.754 111.793C164.213 111.481 158.448 108.273 153.54 110.061C148.384 111.94 114.006 128.6 110.141 131.057Z" fill="#C47EFF"/>
<path d="M66.721 38.0054C70.2315 35.4525 103.745 22.824 107.13 22.1415L114.866 20.5815C115.923 20.3682 117.208 20.9194 118.574 21.5051C120.123 22.1693 121.775 22.878 123.317 22.5671L123.422 22.546C125.146 22.8285 137.689 46.9187 137.679 51.3703C137.678 51.9826 137.685 52.5443 137.691 53.0614C137.731 56.3926 137.749 57.8874 135.435 59.3704C132.761 61.0835 105.629 72.0897 102.598 72.03C102.285 72.0239 101.92 72.0226 101.516 72.0212C98.0109 72.0091 91.5142 71.9866 89.3407 68.6655C86.9165 64.9614 63.8646 39.6426 63.8646 39.6426C64.6248 39.3081 65.5438 38.8615 66.721 38.0054Z" fill="#C47EFF"/>
<path d="M25.9411 63.672C15.0648 68.9476 14.5045 90.1302 14.3076 108.284C14.1108 126.438 49.6501 191.223 54.3672 197.149C59.0843 203.074 70.8575 205.732 78.0451 203.947C85.2326 202.162 94.3787 195.118 95.1427 188.926C95.3214 187.478 95.6476 184.532 96.0594 180.813C97.4083 168.631 99.6754 148.159 100.683 144.872C101.998 140.582 106.275 133.513 110.141 131.057C114.006 128.6 148.384 111.94 153.54 110.061C158.448 108.273 164.213 111.481 164.754 111.793M25.9411 63.672C36.8175 58.3965 58.8851 45.7831 60.4408 42.6263M25.9411 63.672C25.9411 63.672 26.7973 54.6101 30.1792 52.2509C33.5611 49.8917 49.4735 39.8063 52.2783 39.5761C55.0832 39.3459 60.4408 42.6263 60.4408 42.6263M60.4408 42.6263C61.3851 40.7102 62.2035 40.3582 63.4859 39.8067C63.6078 39.7543 63.7338 39.7001 63.8646 39.6426M107.13 22.1415C103.745 22.824 70.2315 35.4525 66.721 38.0054C65.5438 38.8615 64.6248 39.3081 63.8646 39.6426M107.13 22.1415C110.514 21.459 112.609 21.0364 114.866 20.5815M107.13 22.1415L114.866 20.5815M114.866 20.5815C114.866 20.5815 114.796 16.9057 118.341 16.1907C119.328 15.9918 120.958 15.5722 122.857 15.0833C127.785 13.8147 134.528 12.0792 136.553 12.5182C139.359 13.1263 142.657 18.667 142.657 18.667M114.866 20.5815C115.923 20.3682 117.208 20.9194 118.574 21.5051C120.123 22.1693 121.775 22.878 123.317 22.5671M123.317 22.5671C126.218 21.9821 139.111 19.382 142.657 18.667M123.317 22.5671L123.422 22.546M123.317 22.5671C123.345 22.5461 123.38 22.5392 123.422 22.546M142.657 18.667C146.203 17.952 147.331 17.7245 150.718 18.7187C151.69 19.0039 152.393 19.2604 153.105 19.5196C154.873 20.164 156.688 20.8254 162.782 21.9883C171.33 23.6192 215.961 87.7457 216.369 101.417C216.471 104.802 216.739 107.588 216.968 109.962C217.662 117.173 217.99 120.576 212.151 125.413C204.391 131.842 193.074 132.279 188.621 130.158C184.269 128.085 165.666 112.545 164.825 111.841M63.8646 39.6426C63.8646 39.6426 86.9165 64.9614 89.3407 68.6655C91.5142 71.9866 98.0109 72.0091 101.516 72.0212C101.92 72.0226 102.285 72.0239 102.598 72.03C105.629 72.0897 132.761 61.0835 135.435 59.3704C137.749 57.8874 137.731 56.3926 137.691 53.0614C137.685 52.5443 137.678 51.9826 137.679 51.3703C137.689 46.9187 125.146 22.8285 123.422 22.546M164.754 111.793C164.785 111.81 164.798 111.819 164.825 111.841M164.754 111.793C164.757 111.794 164.76 111.796 164.763 111.797C164.785 111.81 164.806 111.825 164.825 111.841" stroke="#9433E7" stroke-width="2" stroke-linecap="round"/>
<path d="M58.6036 62.6222C59.9552 66.0176 62.0237 69.7693 63.1249 71.6848C63.559 72.4399 64.4576 72.7733 65.2812 72.4898C67.1796 71.8364 70.9258 70.5069 76.0569 68.4951C83.6731 65.5089 88.1645 78.6326 83.752 81.7028C80.6416 83.867 76.8582 86.0003 74.8961 87.0708C74.1241 87.4921 73.7344 88.3814 73.9789 89.2263C74.6881 91.6773 76.2402 96.7316 77.9455 100.317C80.2749 105.214 64.9841 111.729 63.0597 107.176C61.6625 103.871 59.1907 99.1829 57.9413 96.8626C57.5018 96.0462 56.5323 95.6853 55.6651 96.0132C53.5133 96.8267 49.345 98.4313 45.0566 100.24C38.8736 102.848 33.1047 86.7168 38.3895 84.6448C41.9639 83.2433 46.1132 81.6492 48.4246 80.7642C49.4084 80.3875 49.8913 79.2769 49.5108 78.2945C48.5831 75.8992 46.945 71.5059 45.8753 67.7048C44.3121 62.1498 56.6876 57.8092 58.6036 62.6222Z" fill="#9433E7" stroke="#9433E7" stroke-width="2" stroke-linecap="round"/>
<circle cx="17.5921" cy="17.5921" r="16.5921" transform="matrix(-0.980267 0.197678 0.197678 0.980267 169.321 59.4131)" fill="#9433E7" stroke="#9433E7" stroke-width="2"/>
<circle cx="17.5921" cy="17.5921" r="16.5921" transform="matrix(-0.980267 0.197678 0.197678 0.980267 120.091 81.4175)" fill="#9433E7" stroke="#9433E7" stroke-width="2"/>
<circle cx="3.28824" cy="3.28824" r="3.28824" transform="matrix(-0.980267 0.197678 0.197678 0.980267 164.726 46.5879)" fill="#9433E7"/>
<circle cx="3.28824" cy="3.28824" r="3.28824" transform="matrix(-0.980267 0.197678 0.197678 0.980267 154.4 41.9609)" fill="#9433E7"/>
<circle cx="3.28824" cy="3.28824" r="3.28824" transform="matrix(-0.980267 0.197678 0.197678 0.980267 169.223 35.6172)" fill="#9433E7"/>
<circle cx="3.28824" cy="3.28824" r="3.28824" transform="matrix(-0.980267 0.197678 0.197678 0.980267 158.122 30.4766)" fill="#9433E7"/>
</svg>
