<svg width="108" height="89" viewBox="0 0 108 89" fill="none" xmlns="http://www.w3.org/2000/svg">
<path d="M54.4695 88.9996C32.8695 88.9056 26.2956 73.9627 23.5721 72.647C20.8487 71.3313 10.6121 72.3651 10.0487 61.9332C9.4852 51.5014 17.1861 52.7231 16.6226 51.5014C16.0591 50.2797 17.3077 49.0788 17.6556 47.9301C18.0035 46.7815 0 33.1752 0 33.1752C0 33.1752 16.3405 33.4572 17.6556 30.2618C18.9708 27.0665 14.3687 10.432 14.3687 10.432C14.3687 10.432 26.3625 21.3968 31.7425 19.736C39.7087 17.2769 39.913 0.000128805 39.913 0.000128805C39.913 0.000128805 48.4145 11.3749 52.4479 15.6274C53.3145 16.541 54.0213 17.1259 54.4695 17.1985C54.966 17.279 55.8422 16.6655 56.9329 15.6274C61.4086 11.3672 69.4957 -0.0442035 69.7773 0.000128805C70.0859 0.0487281 73.2069 14.3232 76.3865 18.6081C76.8141 19.1844 77.2429 19.58 77.6659 19.736C81.1502 21.0206 95.5986 10.8093 96.064 10.4411C96.0675 10.4363 96.0704 10.4333 96.0729 10.432C96.0784 10.429 96.0753 10.4322 96.064 10.4411C95.7416 10.8864 91.1673 26.2238 94.0068 30.2618C93.5347 32.0709 107.686 33.1948 107.995 33.1765C107.998 33.1752 107.999 33.1748 108 33.1752C108.001 33.1758 107.999 33.1763 107.995 33.1765C107.671 33.3254 92.0009 44.943 94.0068 46.7084C96.0297 48.4889 95.8851 50.3736 96.0729 51.5014C96.2607 52.6292 100.769 52.1593 100.299 61.9332C99.8294 71.7072 88.4659 71.5193 86.5876 72.647C84.7094 73.7747 76.0694 89.0936 54.4695 88.9996Z" fill="#FDFBF4"/>
</svg>
