<svg width="1440" height="434" viewBox="0 0 1440 434" fill="none" xmlns="http://www.w3.org/2000/svg">
<path d="M0 169.852V441.02L1440 444V32.7785C1440 0 1424.3 0 1424.3 0H1177.85C1177.85 0 1167.51 53.3322 1162.15 86.4161C1156.78 119.5 1150.5 125.5 1139.19 131.114C1127.89 136.728 14.4966 131.114 14.4966 131.114L0 169.852Z" fill="#E988FF"/>
<path d="M83.65 196.45C81.45 196.45 79.3833 196 77.45 195.1C75.55 194.2 73.8667 192.983 72.4 191.45C70.9667 189.883 69.8333 188.066 69 186C68.1667 183.933 67.75 181.716 67.75 179.35C67.75 177.016 68.1667 174.816 69 172.75C69.8333 170.65 70.9667 168.833 72.4 167.3C73.8667 165.766 75.55 164.55 77.45 163.65C79.3833 162.75 81.45 162.3 83.65 162.3C85.85 162.3 87.9167 162.75 89.85 163.65C91.7833 164.55 93.4667 165.766 94.9 167.3C96.3333 168.833 97.4667 170.65 98.3 172.75C99.1333 174.816 99.55 177.016 99.55 179.35C99.55 181.716 99.1333 183.933 98.3 186C97.4667 188.066 96.3333 189.883 94.9 191.45C93.4667 192.983 91.7833 194.2 89.85 195.1C87.9167 196 85.85 196.45 83.65 196.45ZM83.75 193.8C85.5833 193.8 87.3167 193.433 88.95 192.7C90.5833 191.933 92 190.9 93.2 189.6C94.4333 188.3 95.4 186.783 96.1 185.05C96.8333 183.283 97.2 181.4 97.2 179.4C97.2 177.433 96.8333 175.583 96.1 173.85C95.4 172.083 94.4333 170.55 93.2 169.25C92 167.916 90.5833 166.866 88.95 166.1C87.3167 165.333 85.5833 164.95 83.75 164.95C81.8833 164.95 80.1333 165.333 78.5 166.1C76.8667 166.866 75.45 167.916 74.25 169.25C73.05 170.55 72.1 172.083 71.4 173.85C70.7 175.583 70.35 177.433 70.35 179.4C70.35 181.4 70.7 183.283 71.4 185.05C72.1 186.783 73.05 188.3 74.25 189.6C75.45 190.9 76.8667 191.933 78.5 192.7C80.1333 193.433 81.8833 193.8 83.75 193.8ZM86.5 177.55C86.3667 176.916 86.0667 176.433 85.6 176.1C85.1667 175.733 84.6667 175.55 84.1 175.55C83.2667 175.55 82.6 175.9 82.1 176.6C81.6 177.266 81.35 178.133 81.35 179.2C81.35 181.933 82.2333 183.3 84 183.3C84.6 183.3 85.1333 183.116 85.6 182.75C86.0667 182.35 86.3333 181.8 86.4 181.1H90C89.8333 182.6 89.1667 183.816 88 184.75C86.8667 185.683 85.4833 186.15 83.85 186.15C81.85 186.15 80.3167 185.566 79.25 184.4C78.2167 183.2 77.7 181.6 77.7 179.6C77.7 177.4 78.2333 175.7 79.3 174.5C80.3667 173.266 81.9333 172.65 84 172.65C85.7333 172.65 87.15 173.1 88.25 174C89.35 174.866 89.95 176.05 90.05 177.55H86.5Z" fill="#222222"/>
<path d="M105.912 251.408C105.443 253.84 104.696 256.037 103.672 258C102.648 259.962 101.347 261.648 99.768 263.056C98.232 264.464 96.44 265.552 94.392 266.32C92.344 267.088 90.0827 267.472 87.608 267.472C84.8347 267.472 82.232 267.002 79.8 266.064C77.4107 265.125 75.3413 263.717 73.592 261.84C71.8427 259.962 70.456 257.658 69.432 254.928C68.4507 252.154 67.96 248.933 67.96 245.264C67.96 241.68 68.408 238.458 69.304 235.6C70.2427 232.698 71.5653 230.266 73.272 228.304C74.9787 226.298 77.048 224.762 79.48 223.696C81.9547 222.629 84.7067 222.096 87.736 222.096C90.3813 222.096 92.7707 222.501 94.904 223.312C97.08 224.08 98.936 225.168 100.472 226.576C102.051 227.941 103.288 229.562 104.184 231.44C105.123 233.317 105.699 235.322 105.912 237.456H97.016C96.4187 235.024 95.2667 233.146 93.56 231.824C91.8533 230.458 89.9333 229.776 87.8 229.776C84.088 229.776 81.3573 231.12 79.608 233.808C77.8587 236.453 76.984 240.101 76.984 244.752C76.984 249.488 77.8373 253.178 79.544 255.824C81.2933 258.426 83.896 259.728 87.352 259.728C89.9973 259.728 92.1093 259.024 93.688 257.616C95.3093 256.165 96.4187 254.096 97.016 251.408H105.912Z" fill="#222222"/>
<path d="M134.824 266V230.736H123.368L122.856 240.08C122.557 245.669 122.067 250.17 121.384 253.584C120.701 256.997 119.741 259.621 118.504 261.456C117.309 263.29 115.773 264.506 113.896 265.104C112.061 265.701 109.8 266 107.112 266H105.512V258.448H106.536C107.987 258.448 109.203 258.256 110.184 257.872C111.165 257.488 111.976 256.656 112.616 255.376C113.299 254.096 113.811 252.24 114.152 249.808C114.536 247.376 114.856 244.133 115.112 240.08L116.072 223.504H143.592V266H134.824Z" fill="#222222"/>
<path d="M146.659 266V223.504H177.891V230.928H155.299V240.016H176.099V247.504H155.299V258.448H178.915V266H146.659Z" fill="#222222"/>
<path d="M179.954 276.816V258.448H182.706C183.901 258.448 184.946 258.234 185.842 257.808C186.738 257.381 187.506 256.506 188.146 255.184C188.786 253.861 189.298 252.005 189.682 249.616C190.066 247.226 190.365 244.048 190.578 240.08L191.474 223.504H218.994V258.448H224.178V276.816H217.778V266H186.354V276.816H179.954ZM198.77 230.736L198.322 240.08C198.109 244.602 197.703 248.357 197.106 251.344C196.509 254.33 195.762 256.698 194.866 258.448H210.29V230.736H198.77Z" fill="#222222"/>
<path d="M254.712 247.376V240.016H258.68C261.113 240.016 262.99 239.504 264.312 238.48C265.635 237.413 266.296 236.026 266.296 234.32C266.296 232.698 265.656 231.461 264.376 230.608C263.139 229.754 261.155 229.328 258.424 229.328C255.438 229.328 253.262 229.882 251.896 230.992C250.531 232.101 249.848 233.914 249.848 236.432H241.464C241.464 234.384 241.763 232.485 242.36 230.736C243 228.986 243.982 227.472 245.304 226.192C246.67 224.912 248.419 223.909 250.552 223.184C252.728 222.458 255.374 222.096 258.488 222.096C261.262 222.096 263.672 222.394 265.72 222.992C267.811 223.546 269.518 224.336 270.84 225.36C272.206 226.384 273.208 227.621 273.848 229.072C274.531 230.48 274.872 232.037 274.872 233.744C274.872 236.133 274.275 238.16 273.08 239.824C271.886 241.445 270.136 242.554 267.832 243.152C270.264 243.621 272.27 244.752 273.848 246.544C275.427 248.336 276.216 250.768 276.216 253.84C276.216 258.064 274.638 261.392 271.48 263.824C268.366 266.256 263.992 267.472 258.36 267.472C255.203 267.472 252.515 267.088 250.296 266.32C248.078 265.552 246.243 264.485 244.792 263.12C243.384 261.754 242.339 260.154 241.656 258.32C241.016 256.442 240.696 254.416 240.696 252.24H249.272C249.443 254.8 250.232 256.762 251.64 258.128C253.048 259.45 255.374 260.112 258.616 260.112C261.432 260.112 263.608 259.578 265.144 258.512C266.68 257.402 267.448 255.674 267.448 253.328C267.448 251.024 266.702 249.466 265.208 248.656C263.758 247.802 261.688 247.376 259 247.376H254.712Z" fill="#222222"/>
<path d="M294.916 233.04H294.852L289.412 249.936H300.228L294.916 233.04ZM305.476 266L302.788 257.232H287.108L284.1 266H274.692L289.86 223.504H300.164L315.14 266H305.476Z" fill="#222222"/>
<path d="M334.249 266V259.984C328.446 259.514 324.03 258 321.001 255.44C317.972 252.88 316.457 249.338 316.457 244.816C316.457 240.25 317.972 236.624 321.001 233.936C324.073 231.248 328.489 229.648 334.249 229.136V223.504H342.633V229.136C348.35 229.69 352.724 231.312 355.753 234C358.782 236.645 360.297 240.25 360.297 244.816C360.297 249.381 358.782 252.944 355.753 255.504C352.724 258.064 348.35 259.578 342.633 260.048V266H334.249ZM324.713 244.752C324.713 247.781 325.588 250.064 327.337 251.6C329.129 253.093 331.433 254.074 334.249 254.544V234.768C331.305 235.237 328.98 236.282 327.273 237.904C325.566 239.525 324.713 241.808 324.713 244.752ZM352.041 244.816C352.041 241.872 351.188 239.589 349.481 237.968C347.817 236.346 345.534 235.28 342.633 234.768V254.544C343.998 254.33 345.257 253.989 346.409 253.52C347.561 253.008 348.542 252.368 349.353 251.6C350.206 250.832 350.868 249.893 351.337 248.784C351.806 247.632 352.041 246.309 352.041 244.816Z" fill="#222222"/>
<path d="M362.852 266V223.504H371.299V251.216L387.939 223.504H397.219V266H388.835V237.072L371.171 266H362.852Z" fill="#222222"/>
<path d="M426.334 266L413.726 246.864L408.99 251.536V266H400.222V223.504H408.99V240.784L425.246 223.504H436.766L419.998 240.272L437.15 266H426.334Z" fill="#222222"/>
<path d="M470.912 251.408C470.443 253.84 469.696 256.037 468.672 258C467.648 259.962 466.347 261.648 464.768 263.056C463.232 264.464 461.44 265.552 459.392 266.32C457.344 267.088 455.083 267.472 452.608 267.472C449.835 267.472 447.232 267.002 444.8 266.064C442.411 265.125 440.341 263.717 438.592 261.84C436.843 259.962 435.456 257.658 434.432 254.928C433.451 252.154 432.96 248.933 432.96 245.264C432.96 241.68 433.408 238.458 434.304 235.6C435.243 232.698 436.565 230.266 438.272 228.304C439.979 226.298 442.048 224.762 444.48 223.696C446.955 222.629 449.707 222.096 452.736 222.096C455.381 222.096 457.771 222.501 459.904 223.312C462.08 224.08 463.936 225.168 465.472 226.576C467.051 227.941 468.288 229.562 469.184 231.44C470.123 233.317 470.699 235.322 470.912 237.456H462.016C461.419 235.024 460.267 233.146 458.56 231.824C456.853 230.458 454.933 229.776 452.8 229.776C449.088 229.776 446.357 231.12 444.608 233.808C442.859 236.453 441.984 240.101 441.984 244.752C441.984 249.488 442.837 253.178 444.544 255.824C446.293 258.426 448.896 259.728 452.352 259.728C454.997 259.728 457.109 259.024 458.688 257.616C460.309 256.165 461.419 254.096 462.016 251.408H470.912Z" fill="#222222"/>
<path d="M472.914 266V223.504H481.362V251.216L498.002 223.504H507.282V266H498.898V237.072L481.234 266H472.914Z" fill="#222222"/>
<path d="M527.628 243.344C530.188 243.344 532.023 242.768 533.133 241.616C534.285 240.421 534.861 238.885 534.861 237.008C534.861 235.216 534.285 233.744 533.133 232.592C532.023 231.44 530.188 230.864 527.628 230.864H519.18V243.344H527.628ZM510.284 266V223.504H529.036C531.127 223.504 533.004 223.866 534.668 224.592C536.332 225.274 537.762 226.256 538.956 227.536C540.151 228.773 541.069 230.224 541.708 231.888C542.349 233.552 542.668 235.344 542.668 237.264C542.668 239.184 542.349 240.976 541.708 242.64C541.069 244.261 540.151 245.669 538.956 246.864C537.762 248.016 536.332 248.933 534.668 249.616C533.004 250.256 531.127 250.576 529.036 250.576H519.18V266H510.284Z" fill="#222222"/>
<path d="M564.376 259.856C565.955 259.856 567.448 259.578 568.856 259.024C570.264 258.426 571.48 257.552 572.504 256.4C573.571 255.205 574.403 253.69 575 251.856C575.597 250.021 575.896 247.845 575.896 245.328C575.896 240.293 574.915 236.474 572.952 233.872C570.989 231.269 568.131 229.968 564.376 229.968C560.621 229.968 557.741 231.269 555.736 233.872C553.731 236.474 552.728 240.293 552.728 245.328C552.728 250.362 553.731 254.053 555.736 256.4C557.784 258.704 560.664 259.856 564.376 259.856ZM564.376 267.472C557.805 267.472 552.749 265.552 549.208 261.712C545.709 257.872 543.96 252.346 543.96 245.136C543.96 241.552 544.408 238.33 545.304 235.472C546.2 232.613 547.523 230.202 549.272 228.24C551.021 226.234 553.155 224.72 555.672 223.696C558.189 222.629 561.091 222.096 564.376 222.096C567.619 222.096 570.499 222.629 573.016 223.696C575.576 224.72 577.709 226.234 579.416 228.24C581.123 230.245 582.424 232.698 583.32 235.6C584.216 238.458 584.664 241.701 584.664 245.328C584.664 252.666 582.915 258.192 579.416 261.904C575.96 265.616 570.947 267.472 564.376 267.472Z" fill="#222222"/>
<path d="M607.187 258.768C609.235 258.768 610.835 258.192 611.987 257.04C613.139 255.888 613.715 254.437 613.715 252.688C613.715 250.81 613.139 249.445 611.987 248.592C610.878 247.738 609.32 247.312 607.315 247.312H595.923V258.768H607.187ZM595.923 230.864V240.08H607.123C610.707 240.08 612.499 238.544 612.499 235.472C612.499 233.85 612.03 232.677 611.091 231.952C610.195 231.226 608.702 230.864 606.611 230.864H595.923ZM587.347 266V223.504H608.275C612.456 223.504 615.635 224.549 617.811 226.64C619.987 228.688 621.075 231.504 621.075 235.088C621.075 236.922 620.584 238.565 619.603 240.016C618.622 241.424 617.384 242.426 615.891 243.024C616.787 243.365 617.619 243.813 618.387 244.368C619.198 244.88 619.88 245.562 620.435 246.416C621.032 247.226 621.502 248.208 621.843 249.36C622.184 250.469 622.355 251.792 622.355 253.328C622.355 257.21 621.054 260.304 618.451 262.608C615.848 264.869 611.859 266 606.483 266H587.347Z" fill="#222222"/>
<path d="M641.103 233.04H641.04L635.6 249.936H646.415L641.103 233.04ZM651.663 266L648.975 257.232H633.296L630.288 266H620.879L636.048 223.504H646.351L661.327 266H651.663Z" fill="#222222"/>
<path d="M688.757 266V246.928H672.181V266H663.285V223.504H672.181V239.504H688.757V223.504H697.717V266H688.757Z" fill="#222222"/>
<path d="M702.703 266V257.616H711.343V266H702.703ZM704.879 254.224C704.026 249.104 703.386 244.368 702.959 240.016C702.575 235.664 702.383 231.674 702.383 228.048C702.383 227.194 702.383 226.384 702.383 225.616C702.426 224.848 702.532 224.144 702.703 223.504H711.535C711.62 224.229 711.684 224.997 711.727 225.808C711.77 226.576 711.791 227.386 711.791 228.24C711.791 231.781 711.578 235.728 711.151 240.08C710.767 244.389 710.148 249.104 709.295 254.224H704.879Z" fill="#222222"/>
<path d="M94.252 318H91.3L88.528 303.564L81.652 317.604H80.968L74.128 303.564L71.356 318H68.404L72.112 298.56H74.668L81.328 312.168L87.952 298.56H90.508L94.252 318Z" fill="#222222"/>
<path d="M106.56 304.68C108.6 304.68 110.268 305.304 111.564 306.552C112.86 307.776 113.508 309.384 113.508 311.376C113.508 313.32 112.86 314.916 111.564 316.164C110.268 317.388 108.6 318 106.56 318H98.7483V298.56H101.736V304.68H106.56ZM117.036 298.56H120.096V318H117.036V298.56ZM106.164 315.264C107.436 315.264 108.456 314.904 109.224 314.184C109.992 313.464 110.376 312.528 110.376 311.376C110.376 310.2 109.992 309.252 109.224 308.532C108.456 307.788 107.436 307.416 106.164 307.416H101.736V315.264H106.164Z" fill="#222222"/>
<path d="M145.814 307.74C147.59 308.7 148.478 310.284 148.478 312.492C148.478 313.644 148.154 314.676 147.506 315.588C146.882 316.476 145.994 317.172 144.842 317.676C143.714 318.18 142.442 318.432 141.026 318.432C138.962 318.432 137.258 317.904 135.914 316.848C134.594 315.792 133.85 314.376 133.682 312.6H136.454C136.646 313.512 137.15 314.232 137.966 314.76C138.782 315.264 139.802 315.516 141.026 315.516C142.322 315.516 143.39 315.216 144.23 314.616C145.07 314.016 145.49 313.224 145.49 312.24C145.49 311.328 145.13 310.572 144.41 309.972C143.714 309.372 142.826 309.072 141.746 309.072H138.866V306.588H141.746C142.754 306.588 143.558 306.336 144.158 305.832C144.782 305.304 145.094 304.632 145.094 303.816C145.094 302.928 144.722 302.208 143.978 301.656C143.234 301.104 142.25 300.828 141.026 300.828C139.946 300.828 139.046 301.068 138.326 301.548C137.606 302.028 137.15 302.676 136.958 303.492H134.186C134.282 302.436 134.63 301.5 135.23 300.684C135.854 299.868 136.67 299.244 137.678 298.812C138.71 298.356 139.85 298.128 141.098 298.128C143.09 298.128 144.734 298.644 146.03 299.676C147.326 300.708 147.974 302.004 147.974 303.564C147.974 305.436 147.254 306.828 145.814 307.74Z" fill="#222222"/>
<path d="M169.836 298.56H172.284V318H169.728L169.404 315.048C168.492 316.128 167.376 316.968 166.056 317.568C164.76 318.144 163.332 318.432 161.772 318.432C158.916 318.432 156.528 317.472 154.608 315.552C152.688 313.608 151.728 311.184 151.728 308.28C151.728 305.376 152.688 302.964 154.608 301.044C156.528 299.1 158.916 298.128 161.772 298.128C163.356 298.128 164.796 298.428 166.092 299.028C167.412 299.628 168.528 300.468 169.44 301.548L169.836 298.56ZM156.876 313.428C158.244 314.796 159.96 315.48 162.024 315.48C164.088 315.48 165.792 314.796 167.136 313.428C168.48 312.06 169.152 310.344 169.152 308.28C169.152 306.216 168.48 304.5 167.136 303.132C165.792 301.764 164.088 301.08 162.024 301.08C159.96 301.08 158.244 301.776 156.876 303.168C155.532 304.536 154.86 306.24 154.86 308.28C154.86 310.32 155.532 312.036 156.876 313.428Z" fill="#222222"/>
<path d="M178.448 298.56H194.936V318H191.912V301.368H181.508V318H178.448V298.56Z" fill="#222222"/>
<path d="M209.871 318.432C207.951 318.432 206.199 318 204.615 317.136C203.031 316.248 201.795 315.036 200.907 313.5C200.019 311.94 199.575 310.2 199.575 308.28C199.575 305.352 200.547 302.928 202.491 301.008C204.459 299.088 206.919 298.128 209.871 298.128C211.815 298.128 213.567 298.572 215.127 299.46C216.711 300.324 217.947 301.536 218.835 303.096C219.747 304.632 220.203 306.36 220.203 308.28C220.203 311.184 219.219 313.608 217.251 315.552C215.283 317.472 212.823 318.432 209.871 318.432ZM204.723 313.464C206.091 314.808 207.807 315.48 209.871 315.48C211.959 315.48 213.675 314.808 215.019 313.464C216.387 312.096 217.071 310.368 217.071 308.28C217.071 306.192 216.387 304.476 215.019 303.132C213.675 301.764 211.959 301.08 209.871 301.08C207.807 301.08 206.091 301.764 204.723 303.132C203.379 304.476 202.707 306.192 202.707 308.28C202.707 310.368 203.379 312.096 204.723 313.464Z" fill="#222222"/>
<path d="M248.869 318H245.917L243.145 303.564L236.269 317.604H235.585L228.745 303.564L225.973 318H223.021L226.729 298.56H229.285L235.945 312.168L242.569 298.56H245.125L248.869 318Z" fill="#222222"/>
<path d="M266.758 298.56H269.746V318H266.758V309.396H256.354V318H253.366V298.56H256.354V306.516H266.758V298.56Z" fill="#222222"/>
<path d="M290.228 298.56H291.92V318H289.04V304.104L277.7 318H275.936V298.56H278.852V312.348L290.228 298.56Z" fill="#222222"/>
<path d="M301.431 298.56H314.175V318H311.115V301.224H303.987L302.979 311.052C302.715 313.62 302.055 315.444 300.999 316.524C299.943 317.58 298.359 318.108 296.247 318.108H295.707V315.228H296.391C297.495 315.228 298.335 314.916 298.911 314.292C299.487 313.644 299.847 312.624 299.991 311.232L301.431 298.56Z" fill="#222222"/>
<path d="M334.63 298.56H336.322V318H333.442V304.104L322.102 318H320.338V298.56H323.254V312.348L334.63 298.56Z" fill="#222222"/>
<path d="M366.92 298.56V301.332H359.684V318H356.696V301.332H349.46V298.56H366.92Z" fill="#222222"/>
<path d="M388.159 308.352C388.159 308.616 388.135 308.988 388.087 309.468H371.491C371.731 311.268 372.475 312.72 373.723 313.824C374.971 314.904 376.507 315.444 378.331 315.444C379.675 315.444 380.863 315.156 381.895 314.58C382.951 313.98 383.791 313.14 384.415 312.06H387.619C386.803 314.076 385.579 315.648 383.947 316.776C382.315 317.88 380.443 318.432 378.331 318.432C375.523 318.432 373.171 317.46 371.275 315.516C369.379 313.572 368.431 311.16 368.431 308.28C368.431 305.376 369.379 302.964 371.275 301.044C373.171 299.1 375.523 298.128 378.331 298.128C381.235 298.128 383.599 299.112 385.423 301.08C387.247 303.048 388.159 305.472 388.159 308.352ZM378.331 301.044C377.179 301.044 376.123 301.272 375.163 301.728C374.227 302.184 373.447 302.844 372.823 303.708C372.199 304.548 371.779 305.52 371.563 306.624H385.063C384.847 305.496 384.427 304.512 383.803 303.672C383.179 302.808 382.399 302.16 381.463 301.728C380.527 301.272 379.483 301.044 378.331 301.044Z" fill="#222222"/>
<path d="M402.265 299.568C405.025 299.568 407.293 300.444 409.069 302.196C410.845 303.924 411.733 306.144 411.733 308.856C411.733 311.664 410.809 313.968 408.961 315.768C407.113 317.544 404.737 318.432 401.833 318.432C398.785 318.432 396.349 317.472 394.525 315.552C392.725 313.608 391.825 311.016 391.825 307.776C391.825 302.784 392.725 299.052 394.525 296.58C396.325 294.108 399.445 292.332 403.885 291.252L409.645 289.884V292.908L403.957 294.276C401.437 294.852 399.469 295.8 398.053 297.12C396.637 298.44 395.725 300.192 395.317 302.376C397.021 300.504 399.337 299.568 402.265 299.568ZM401.833 315.48C403.753 315.48 405.361 314.856 406.657 313.608C407.953 312.336 408.601 310.764 408.601 308.892C408.601 306.996 407.953 305.412 406.657 304.14C405.361 302.868 403.753 302.232 401.833 302.232C399.889 302.232 398.269 302.868 396.973 304.14C395.677 305.388 395.029 306.96 395.029 308.856C395.029 309.792 395.197 310.668 395.533 311.484C395.893 312.3 396.373 312.996 396.973 313.572C397.573 314.148 398.293 314.616 399.133 314.976C399.973 315.312 400.873 315.48 401.833 315.48Z" fill="#222222"/>
<path d="M421.496 298.56H430.424V318H427.4V310.548H422.54L417.932 318H414.548L419.408 310.116C418.136 309.708 417.128 309.012 416.384 308.028C415.64 307.044 415.268 305.892 415.268 304.572C415.268 302.844 415.856 301.416 417.032 300.288C418.208 299.136 419.696 298.56 421.496 298.56ZM421.748 307.596H427.4V301.512H421.748C420.74 301.512 419.924 301.8 419.3 302.376C418.676 302.928 418.364 303.66 418.364 304.572C418.364 305.46 418.676 306.192 419.3 306.768C419.924 307.32 420.74 307.596 421.748 307.596Z" fill="#222222"/>
<path d="M436.133 322.788V321.06C437.381 320.628 438.005 319.608 438.005 318H435.953V314.22H439.661V317.712C439.661 320.424 438.485 322.116 436.133 322.788Z" fill="#222222"/>
<path d="M83.488 330.56H86.476V350H83.488V341.396H73.084V350H70.096V330.56H73.084V338.516H83.488V330.56Z" fill="#222222"/>
<path d="M101.414 350.432C99.4943 350.432 97.7423 350 96.1583 349.136C94.5743 348.248 93.3383 347.036 92.4503 345.5C91.5623 343.94 91.1183 342.2 91.1183 340.28C91.1183 337.352 92.0903 334.928 94.0343 333.008C96.0023 331.088 98.4623 330.128 101.414 330.128C103.358 330.128 105.11 330.572 106.67 331.46C108.254 332.324 109.49 333.536 110.378 335.096C111.29 336.632 111.746 338.36 111.746 340.28C111.746 343.184 110.762 345.608 108.794 347.552C106.826 349.472 104.366 350.432 101.414 350.432ZM96.2663 345.464C97.6343 346.808 99.3503 347.48 101.414 347.48C103.502 347.48 105.218 346.808 106.562 345.464C107.93 344.096 108.614 342.368 108.614 340.28C108.614 338.192 107.93 336.476 106.562 335.132C105.218 333.764 103.502 333.08 101.414 333.08C99.3503 333.08 97.6343 333.764 96.2663 335.132C94.9223 336.476 94.2503 338.192 94.2503 340.28C94.2503 342.368 94.9223 344.096 96.2663 345.464Z" fill="#222222"/>
<path d="M128.889 339.92C129.873 340.28 130.653 340.88 131.229 341.72C131.829 342.56 132.129 343.508 132.129 344.564C132.129 346.124 131.553 347.42 130.401 348.452C129.273 349.484 127.857 350 126.153 350H116.397V330.56H126.045C127.653 330.56 128.961 331.028 129.969 331.964C130.977 332.876 131.481 334.052 131.481 335.492C131.481 336.14 131.373 336.752 131.157 337.328C130.941 337.904 130.641 338.42 130.257 338.876C129.873 339.308 129.417 339.656 128.889 339.92ZM128.457 336.032C128.457 335.24 128.193 334.616 127.665 334.16C127.137 333.68 126.453 333.44 125.613 333.44H119.385V338.588H125.613C126.477 338.588 127.161 338.36 127.665 337.904C128.193 337.424 128.457 336.8 128.457 336.032ZM125.793 347.12C126.393 347.12 126.933 347 127.413 346.76C127.917 346.496 128.301 346.148 128.565 345.716C128.829 345.284 128.961 344.804 128.961 344.276C128.961 343.724 128.829 343.232 128.565 342.8C128.301 342.344 127.917 341.996 127.413 341.756C126.933 341.516 126.381 341.396 125.757 341.396H119.385V347.12H125.793Z" fill="#222222"/>
<path d="M144.881 336.68C146.921 336.68 148.589 337.304 149.885 338.552C151.181 339.776 151.829 341.384 151.829 343.376C151.829 345.32 151.181 346.916 149.885 348.164C148.589 349.388 146.921 350 144.881 350H137.069V330.56H140.057V336.68H144.881ZM155.357 330.56H158.417V350H155.357V330.56ZM144.485 347.264C145.757 347.264 146.777 346.904 147.545 346.184C148.313 345.464 148.697 344.528 148.697 343.376C148.697 342.2 148.313 341.252 147.545 340.532C146.777 339.788 145.757 339.416 144.485 339.416H140.057V347.264H144.485Z" fill="#222222"/>
<path d="M177.34 324.332V326.636H167.908V324.332H177.34ZM178.888 330.56H180.58V350H177.7V336.104L166.36 350H164.596V330.56H167.512V344.348L178.888 330.56Z" fill="#222222"/>
<path d="M206.317 339.74C208.093 340.7 208.981 342.284 208.981 344.492C208.981 345.644 208.657 346.676 208.009 347.588C207.385 348.476 206.497 349.172 205.345 349.676C204.217 350.18 202.945 350.432 201.529 350.432C199.465 350.432 197.761 349.904 196.417 348.848C195.097 347.792 194.353 346.376 194.185 344.6H196.957C197.149 345.512 197.653 346.232 198.469 346.76C199.285 347.264 200.305 347.516 201.529 347.516C202.825 347.516 203.893 347.216 204.733 346.616C205.573 346.016 205.993 345.224 205.993 344.24C205.993 343.328 205.633 342.572 204.913 341.972C204.217 341.372 203.329 341.072 202.249 341.072H199.369V338.588H202.249C203.257 338.588 204.061 338.336 204.661 337.832C205.285 337.304 205.597 336.632 205.597 335.816C205.597 334.928 205.225 334.208 204.481 333.656C203.737 333.104 202.753 332.828 201.529 332.828C200.449 332.828 199.549 333.068 198.829 333.548C198.109 334.028 197.653 334.676 197.461 335.492H194.689C194.785 334.436 195.133 333.5 195.733 332.684C196.357 331.868 197.173 331.244 198.181 330.812C199.213 330.356 200.353 330.128 201.601 330.128C203.593 330.128 205.237 330.644 206.533 331.676C207.829 332.708 208.477 334.004 208.477 335.564C208.477 337.436 207.757 338.828 206.317 339.74Z" fill="#222222"/>
<path d="M216.951 330.56H229.695V350H226.635V333.224H219.507L218.499 343.052C218.235 345.62 217.575 347.444 216.519 348.524C215.463 349.58 213.879 350.108 211.767 350.108H211.227V347.228H211.911C213.015 347.228 213.855 346.916 214.431 346.292C215.007 345.644 215.367 344.624 215.511 343.232L216.951 330.56Z" fill="#222222"/>
<path d="M244.606 350.432C242.686 350.432 240.934 350 239.35 349.136C237.766 348.248 236.53 347.036 235.642 345.5C234.754 343.94 234.31 342.2 234.31 340.28C234.31 337.352 235.282 334.928 237.226 333.008C239.194 331.088 241.654 330.128 244.606 330.128C246.55 330.128 248.302 330.572 249.862 331.46C251.446 332.324 252.682 333.536 253.57 335.096C254.482 336.632 254.938 338.36 254.938 340.28C254.938 343.184 253.954 345.608 251.986 347.552C250.018 349.472 247.558 350.432 244.606 350.432ZM239.458 345.464C240.826 346.808 242.542 347.48 244.606 347.48C246.694 347.48 248.41 346.808 249.754 345.464C251.122 344.096 251.806 342.368 251.806 340.28C251.806 338.192 251.122 336.476 249.754 335.132C248.41 333.764 246.694 333.08 244.606 333.08C242.542 333.08 240.826 333.764 239.458 335.132C238.114 336.476 237.442 338.192 237.442 340.28C237.442 342.368 238.114 344.096 239.458 345.464Z" fill="#222222"/>
<path d="M275.438 347.12H278.066V355.148H275.258V350H259.598V355.148H256.79V347.12H258.878C259.454 346.592 259.898 345.848 260.21 344.888C260.522 343.904 260.798 342.416 261.038 340.424C261.302 338.408 261.614 335.12 261.974 330.56H275.438V347.12ZM264.71 333.26C264.494 336.476 264.266 338.984 264.026 340.784C263.81 342.56 263.558 343.928 263.27 344.888C262.982 345.824 262.61 346.568 262.154 347.12H272.45V333.26H264.71Z" fill="#222222"/>
<path d="M300.409 340.352C300.409 340.616 300.385 340.988 300.337 341.468H283.741C283.981 343.268 284.725 344.72 285.973 345.824C287.221 346.904 288.757 347.444 290.581 347.444C291.925 347.444 293.113 347.156 294.145 346.58C295.201 345.98 296.041 345.14 296.665 344.06H299.869C299.053 346.076 297.829 347.648 296.197 348.776C294.565 349.88 292.693 350.432 290.581 350.432C287.773 350.432 285.421 349.46 283.525 347.516C281.629 345.572 280.681 343.16 280.681 340.28C280.681 337.376 281.629 334.964 283.525 333.044C285.421 331.1 287.773 330.128 290.581 330.128C293.485 330.128 295.849 331.112 297.673 333.08C299.497 335.048 300.409 337.472 300.409 340.352ZM290.581 333.044C289.429 333.044 288.373 333.272 287.413 333.728C286.477 334.184 285.697 334.844 285.073 335.708C284.449 336.548 284.029 337.52 283.813 338.624H297.313C297.097 337.496 296.677 336.512 296.053 335.672C295.429 334.808 294.649 334.16 293.713 333.728C292.777 333.272 291.733 333.044 290.581 333.044Z" fill="#222222"/>
<path d="M317.719 324.332V326.636H308.287V324.332H317.719ZM319.267 330.56H320.959V350H318.079V336.104L306.739 350H304.975V330.56H307.891V344.348L319.267 330.56Z" fill="#222222"/>
</svg>
