<svg width="640" height="720" viewBox="0 0 640 720" fill="none" xmlns="http://www.w3.org/2000/svg">
<rect width="640" height="720" rx="12" fill="#9AC3FF"/>
<path d="M517.214 151.529C522.818 159.924 536.839 242.332 536.839 242.332C536.839 242.332 494.427 227.232 489.658 222.702C489.658 222.702 467.789 186.984 465.434 181.932C463.078 176.88 454.46 180.259 453.606 184.488C452.751 188.717 443.839 219.966 443.839 219.966C438.907 220.526 383.838 224.087 377.321 225.495C370.803 226.904 363.144 245.243 357.436 245.718C351.727 246.194 332.01 150.355 332.01 150.355C332.01 150.355 395.156 130.388 430.953 124.168C466.75 117.947 511.61 143.135 517.214 151.529Z" fill="#222222"/>
<path fill-rule="evenodd" clip-rule="evenodd" d="M376.02 80.4294C368.699 83.7509 338.302 150.63 332.01 150.355C332.01 150.355 395.156 130.388 430.953 124.168C466.75 117.947 511.61 143.135 517.214 151.529C522.818 159.924 536.839 242.332 536.839 242.332C541.266 242.59 578.672 185.996 581.583 181.581C581.712 181.385 581.612 181.813 581.583 181.581C580.85 175.679 570.406 92.8048 561.164 87.2456C551.58 81.4809 497.921 54.0826 457.126 62.8996L376.02 80.4294ZM482.867 216.267L482.867 216.268C482.994 216.454 483.119 216.639 483.243 216.822C483.119 216.639 482.993 216.453 482.867 216.267Z" fill="#222222"/>
<path d="M465.223 199.672C455.777 202.725 443.838 219.966 443.838 219.966C443.838 219.966 452.749 188.718 453.604 184.489C454.458 180.26 463.077 176.88 465.432 181.932C467.787 186.984 486.345 218.218 489.656 222.702C489.656 222.702 474.67 196.619 465.223 199.672Z" fill="#222222"/>
<path d="M538.541 241.964L519.087 151.955C518.977 151.446 518.689 151.011 518.252 150.73C512.203 146.831 466.047 117.998 432.654 123.8C411.536 127.47 380.899 135.924 359.325 142.24M538.541 241.964L489.656 222.702M538.541 241.964L582.929 181.667C583.269 181.206 583.395 180.62 583.274 180.059L563.203 87.1988C563.077 86.6136 562.715 86.1261 562.179 85.8595C554.626 82.1039 496.894 54.3047 458.828 62.532C421.369 70.6282 384.316 78.6364 378.508 79.8918C377.988 80.0042 377.56 80.3136 377.273 80.7615L332.746 150.196M377.319 225.496L443.838 219.966M377.319 225.496L359.325 142.24M377.319 225.496L356.54 247.429M443.838 219.966C443.838 219.966 455.777 202.725 465.223 199.672C474.67 196.619 489.656 222.702 489.656 222.702M443.838 219.966C443.838 219.966 452.749 188.718 453.604 184.489C454.458 180.26 463.077 176.88 465.432 181.932C467.787 186.984 486.345 218.218 489.656 222.702M359.325 142.24L332.746 150.196M359.325 142.24L357.932 194.834L356.54 247.429M332.746 150.196L356.54 247.429" stroke="#222222"/>
<path d="M552.312 133.836C546.716 135.045 543.161 140.564 544.371 146.163C545.581 151.762 551.098 155.32 556.694 154.11C562.289 152.901 565.845 147.382 564.635 141.783C563.425 136.184 557.908 132.627 552.312 133.836Z" stroke="#222222"/>
<path d="M416.767 167.178C406.772 169.338 400.421 179.196 402.582 189.196C404.743 199.196 414.599 205.551 424.594 203.39C434.589 201.23 440.94 191.373 438.778 181.373C436.617 171.373 426.762 165.018 416.767 167.178Z" stroke="#222222"/>
<path d="M495.354 168.395C485.359 170.555 479.008 180.413 481.169 190.413C483.33 200.413 493.186 206.767 503.181 204.607C513.176 202.447 519.527 192.589 517.365 182.589C515.204 172.589 505.349 166.235 495.354 168.395Z" stroke="#222222"/>
<path d="M125.647 549.364C119.102 559.198 102.665 655.693 102.665 655.693C102.665 655.693 152.142 637.971 157.709 632.662C157.709 632.662 183.249 590.822 186.001 584.905C188.753 578.988 198.8 582.935 199.792 587.886C200.785 592.836 211.145 629.411 211.145 629.411C216.896 630.062 281.114 634.174 288.713 635.816C296.313 637.459 305.226 658.921 311.882 659.472C318.539 660.023 341.632 547.798 341.632 547.798C341.632 547.798 268.012 524.487 226.272 517.241C184.532 509.996 132.191 539.531 125.647 549.364Z" fill="#222222"/>
<path fill-rule="evenodd" clip-rule="evenodd" d="M290.38 465.977C298.914 469.859 334.294 548.127 341.632 547.798C341.632 547.798 268.012 524.487 226.272 517.241C184.532 509.996 132.191 539.531 125.647 549.364C119.102 559.198 102.665 655.693 102.665 655.693C97.5032 655.999 53.9381 589.78 50.5478 584.614C50.3977 584.386 50.5139 584.887 50.5478 584.614C51.4088 577.703 63.6747 480.667 74.4587 474.149C85.6413 467.39 148.247 435.258 195.812 445.538L290.38 465.977ZM165.635 625.121L165.635 625.122C165.487 625.34 165.341 625.557 165.196 625.771C165.341 625.556 165.487 625.34 165.635 625.121Z" fill="#222222"/>
<path d="M186.228 605.674C197.242 609.238 211.147 629.412 211.147 629.412C211.147 629.412 200.787 592.837 199.794 587.886C198.802 582.936 188.755 578.988 186.003 584.906C183.251 590.823 161.577 627.409 157.711 632.662C157.711 632.662 175.214 602.11 186.228 605.674Z" fill="#222222"/>
<path d="M100.682 655.264L123.492 549.726C123.602 549.219 123.903 548.775 124.338 548.493C130.978 544.183 185.165 510.021 224.289 516.813C248.913 521.087 284.633 530.953 309.787 538.326M100.682 655.264L157.711 632.662M100.682 655.264L48.8868 584.593C48.5486 584.131 48.4242 583.547 48.5451 582.988L72.1149 473.936C72.2411 473.352 72.6214 472.856 73.1554 472.588C81.45 468.432 149.234 435.471 193.828 445.11C237.802 454.614 281.295 464.014 287.613 465.379C288.134 465.492 288.558 465.802 288.845 466.252L340.774 547.613M288.715 635.817L211.147 629.412M288.715 635.817L309.787 538.326M288.715 635.817L312.925 661.473M211.147 629.412C211.147 629.412 197.242 609.238 186.228 605.674C175.214 602.11 157.711 632.662 157.711 632.662M211.147 629.412C211.147 629.412 200.787 592.837 199.794 587.886C198.802 582.936 188.755 578.988 186.003 584.906C183.251 590.823 161.577 627.409 157.711 632.662M309.787 538.326L340.774 547.613M309.787 538.326L311.356 599.9L312.925 661.473M340.774 547.613L312.925 661.473" stroke="#222222"/>
<path d="M84.7518 528.603C91.3191 530.022 95.4906 536.524 94.0633 543.128C92.6357 549.732 86.1516 553.93 79.5845 552.511C73.0173 551.091 68.8457 544.59 70.2728 537.986C71.7001 531.382 78.1844 527.183 84.7518 528.603Z" stroke="#222222"/>
<path d="M242.789 567.498C254.486 570.026 261.914 581.604 259.373 593.362C256.831 605.12 245.285 612.598 233.588 610.07C221.892 607.541 214.465 595.963 217.006 584.205C219.548 572.447 231.093 564.97 242.789 567.498Z" stroke="#222222"/>
<path d="M151.14 569.003C162.837 571.531 170.264 583.11 167.723 594.868C165.182 606.626 153.636 614.103 141.939 611.575C130.242 609.047 122.815 597.469 125.357 585.711C127.898 573.953 139.443 566.475 151.14 569.003Z" stroke="#222222"/>
<path fill-rule="evenodd" clip-rule="evenodd" d="M261.354 258.389C261.354 258.389 258.419 235.217 248.226 227.068C238.034 218.919 218.259 213.634 171.489 243.823C124.72 274.012 114.517 301.028 120.177 311.678C123.848 318.585 128.272 322.782 133.219 327.475C135.9 330.018 138.735 332.707 141.687 336.052L157.259 305.568C157.259 305.568 179.402 280.775 192.678 271.301C205.954 261.828 229.371 259.782 229.371 259.782L261.354 258.389Z" fill="#222222"/>
<path d="M261.354 258.389C261.354 258.389 255.465 282.376 243.839 294.631C232.213 306.886 198.425 331.066 186.061 335.58C173.698 340.094 154.143 340.302 141.687 336.052L157.259 305.568C157.259 305.568 188.466 298.43 202.593 290.708C216.72 282.986 229.371 259.782 229.371 259.782L261.354 258.389Z" fill="#222222"/>
<path d="M261.354 258.389C261.354 258.389 255.465 282.376 243.839 294.631C232.213 306.886 198.425 331.066 186.061 335.58C173.698 340.094 154.143 340.302 141.687 336.052M261.354 258.389C261.354 258.389 258.419 235.217 248.226 227.068C238.034 218.919 218.259 213.634 171.489 243.823C124.72 274.012 114.517 301.028 120.177 311.678C123.848 318.585 128.272 322.782 133.219 327.475C135.9 330.018 138.735 332.707 141.687 336.052M261.354 258.389L229.371 259.782M141.687 336.052C147.768 324.147 157.259 305.568 157.259 305.568M141.687 336.052L157.259 305.568M229.371 259.782C229.371 259.782 216.72 282.986 202.593 290.708C188.466 298.43 157.259 305.568 157.259 305.568M229.371 259.782C229.371 259.782 205.954 261.828 192.678 271.301C179.402 280.775 157.259 305.568 157.259 305.568" stroke="#222222" stroke-linecap="round"/>
<path fill-rule="evenodd" clip-rule="evenodd" d="M301.68 418.443C313.139 434.113 279.143 455.409 268.083 437.715C265.522 433.619 262.084 427.984 258.235 421.675C245.456 400.73 228.146 372.359 223.392 368.243C221.816 366.878 218.538 364.282 214.489 361.074C202.649 351.695 184.212 337.09 182.415 332.762C182.212 332.274 181.998 331.776 181.78 331.268C179.398 325.719 176.43 318.804 180.626 307.877C184.086 298.863 199.333 291.176 210.097 285.748C213.58 283.992 216.593 282.472 218.586 281.221C226.738 276.104 241.84 289.519 245.192 295.803C246.743 298.711 248.164 306.284 249.732 314.644C251.553 324.351 253.573 335.118 256.226 340.869C256.73 341.961 257.486 343.476 258.449 345.332C260.941 350.137 264.82 357.228 269.316 365.202C280.095 384.32 294.42 408.513 301.68 418.443Z" fill="#222222"/>
<path d="M279.228 360.785C275.211 365.424 269.316 365.202 269.316 365.202C264.82 357.228 260.941 350.137 258.449 345.332C258.449 345.332 266.299 339.782 270.396 341.3C274.492 342.818 283.245 356.146 279.228 360.785Z" fill="#222222"/>
<path d="M269.316 365.202C280.095 384.32 294.42 408.513 301.68 418.443C313.139 434.113 279.143 455.409 268.083 437.715C265.522 433.619 262.084 427.984 258.235 421.675C245.456 400.73 228.146 372.359 223.392 368.243C221.816 366.878 218.538 364.282 214.489 361.074C202.649 351.695 184.212 337.09 182.415 332.762C182.212 332.274 181.998 331.776 181.78 331.268C179.398 325.719 176.43 318.804 180.626 307.877C184.086 298.863 199.333 291.176 210.097 285.748C213.58 283.992 216.593 282.472 218.586 281.221C226.738 276.104 241.84 289.519 245.192 295.803C246.743 298.711 248.164 306.284 249.732 314.644C251.553 324.351 253.573 335.118 256.226 340.869C256.73 341.961 257.486 343.476 258.449 345.332M269.316 365.202C269.316 365.202 275.211 365.424 279.228 360.785C283.245 356.146 274.492 342.818 270.396 341.3C266.299 339.782 258.449 345.332 258.449 345.332M269.316 365.202C264.82 357.228 260.941 350.137 258.449 345.332" stroke="#222222" stroke-linecap="round"/>
<circle cx="10.7386" cy="10.7386" r="10.2386" transform="matrix(-0.780772 0.624815 0.624815 0.780772 224.019 290.659)" stroke="#222222"/>
<circle cx="5.96717" cy="5.96717" r="5.46717" transform="matrix(-0.780772 0.624815 0.624815 0.780772 197.884 307.264)" stroke="#222222"/>
<circle cx="5.96717" cy="5.96717" r="5.46717" transform="matrix(-0.780772 0.624815 0.624815 0.780772 209.123 322.406)" stroke="#222222"/>
<path fill-rule="evenodd" clip-rule="evenodd" d="M498.806 389.264C503.109 388.151 510.896 389.762 514.762 391.641C517.725 393.08 533.482 404.864 542.858 411.875C545.721 414.016 547.989 415.712 549.116 416.532C553.934 420.041 564.973 418.212 571.04 414.324C577.107 410.436 583.163 400.42 582.21 393.23C581.257 386.041 560.068 318.713 547.313 306.988C534.557 295.264 519.452 281.816 508.481 286.017C508.481 286.017 501.605 280.698 497.694 281.534C493.783 282.371 476.086 286.971 474.043 288.793C471.999 290.615 470.683 296.526 470.683 296.526C468.717 295.938 467.923 296.284 466.678 296.825C466.56 296.877 466.438 296.93 466.31 296.984C466.31 296.984 468.438 329.741 469.387 333.866C470.237 337.565 465.89 342.148 463.545 344.621C463.275 344.906 463.031 345.164 462.825 345.388C460.831 347.559 434.962 359.447 431.976 360.208C429.391 360.866 428.363 359.877 426.074 357.671L426.074 357.671C425.718 357.329 425.332 356.957 424.906 356.558C421.804 353.656 413.474 329.093 414.435 327.696L414.52 327.636C415.771 326.755 416.388 325.13 416.966 323.607C417.476 322.263 417.955 320.999 418.813 320.395C418.813 320.395 416.304 317.944 413.427 319.97C412.626 320.534 411.24 321.406 409.625 322.422C405.434 325.059 399.7 328.667 398.645 330.378C397.184 332.749 398.823 338.688 398.823 338.688C395.945 340.715 395.03 341.359 393.447 344.391C392.993 345.261 392.699 345.923 392.401 346.593C391.662 348.257 390.904 349.966 387.62 355.012C383.016 362.089 397.641 435.38 406.873 444.601C409.159 446.884 410.917 448.894 412.414 450.606C416.961 455.806 419.108 458.26 426.391 457.315C436.072 456.059 443.974 448.386 445.489 443.868C446.97 439.453 448.653 416.215 448.729 415.164C448.731 415.131 448.734 415.116 448.743 415.083C448.89 414.498 450.529 408.348 455.068 406.065C459.836 403.666 494.502 390.377 498.806 389.264Z" fill="#222222"/>
<path d="M463.254 297.923C459.122 298.724 427.839 314.04 425.092 315.974L418.813 320.395C417.955 320.999 417.476 322.263 416.966 323.607C416.388 325.13 415.771 326.755 414.52 327.636L414.435 327.696C413.474 329.093 421.804 353.656 424.906 356.558C425.332 356.957 425.718 357.329 426.074 357.671L426.074 357.671C428.363 359.877 429.391 360.866 431.976 360.208C434.962 359.447 460.831 347.559 462.825 345.388C463.031 345.164 463.275 344.906 463.545 344.621C465.89 342.148 470.237 337.565 469.387 333.866C468.438 329.741 466.31 296.984 466.31 296.984C465.567 297.3 464.639 297.655 463.254 297.923Z" fill="#222222"/>
<path d="M508.481 286.017C519.452 281.816 534.557 295.264 547.313 306.988C560.068 318.713 581.257 386.041 582.21 393.23C583.163 400.42 577.107 410.436 571.04 414.324C564.973 418.212 553.934 420.041 549.116 416.532C547.989 415.712 545.721 414.016 542.858 411.875C533.482 404.864 517.725 393.08 514.762 391.641C510.896 389.762 503.109 388.151 498.806 389.264C494.502 390.377 459.836 403.666 455.068 406.065C450.529 408.348 448.89 414.498 448.743 415.083M508.481 286.017C497.51 290.218 473.923 297.495 470.683 296.526M508.481 286.017C508.481 286.017 501.605 280.698 497.694 281.534C493.783 282.371 476.086 286.971 474.043 288.793C471.999 290.615 470.683 296.526 470.683 296.526M470.683 296.526C468.717 295.938 467.923 296.284 466.678 296.825C466.56 296.877 466.438 296.93 466.31 296.984M425.092 315.974C427.839 314.04 459.122 298.724 463.254 297.923C464.639 297.655 465.567 297.3 466.31 296.984M425.092 315.974C422.345 317.908 420.645 319.106 418.813 320.395M425.092 315.974L418.813 320.395M418.813 320.395C418.813 320.395 416.304 317.944 413.427 319.97C412.626 320.534 411.24 321.406 409.625 322.422C405.434 325.059 399.7 328.667 398.645 330.378C397.184 332.749 398.823 338.688 398.823 338.688M418.813 320.395C417.955 320.999 417.476 322.263 416.966 323.607C416.388 325.13 415.771 326.755 414.52 327.636M414.52 327.636C412.166 329.294 401.701 336.662 398.823 338.688M414.52 327.636L414.435 327.696M414.52 327.636C414.486 327.642 414.458 327.662 414.435 327.696M398.823 338.688C395.945 340.715 395.03 341.359 393.447 344.391C392.993 345.261 392.699 345.923 392.401 346.593C391.662 348.257 390.904 349.966 387.62 355.012C383.016 362.089 397.641 435.38 406.873 444.601C409.159 446.884 410.917 448.894 412.414 450.606C416.961 455.806 419.108 458.26 426.391 457.315C436.072 456.059 443.974 448.386 445.489 443.868C446.97 439.453 448.653 416.215 448.729 415.164M466.31 296.984C466.31 296.984 468.438 329.741 469.387 333.866C470.237 337.565 465.89 342.148 463.545 344.621C463.275 344.906 463.031 345.164 462.825 345.388C460.831 347.559 434.962 359.447 431.976 360.208C429.391 360.866 428.363 359.877 426.074 357.671L426.074 357.671C425.718 357.329 425.332 356.957 424.906 356.558C421.804 353.656 413.474 329.093 414.435 327.696M448.743 415.083C448.734 415.116 448.731 415.131 448.729 415.164M448.743 415.083C448.742 415.086 448.741 415.089 448.74 415.092C448.734 415.116 448.731 415.14 448.729 415.164" stroke="#222222" stroke-linecap="round"/>
<path d="M485.821 308.301C487.263 311.444 488.475 315.312 489.073 317.352C489.316 318.182 488.941 319.056 488.175 319.458C486.439 320.369 483.008 322.129 478.187 324.413C470.997 327.817 477.107 339.552 482.204 338.455C485.768 337.688 489.756 336.436 491.832 335.752C492.672 335.475 493.593 335.805 494.039 336.569C495.28 338.696 497.713 343.032 499.046 346.535C500.888 351.374 515.684 344.877 513.81 340.549C512.461 337.431 510.875 332.68 510.094 330.267C509.81 329.391 510.213 328.445 511.04 328.041C513.059 327.056 516.956 325.182 521.075 323.356C527.039 320.712 519.696 306.114 514.707 308.476C511.363 310.06 507.509 311.916 505.33 312.969C504.377 313.429 503.232 313.015 502.781 312.057C501.729 309.822 499.8 305.864 497.901 302.671C495.088 297.942 483.761 303.808 485.821 308.301Z" stroke="#222222" stroke-linecap="round"/>
<path d="M423.539 374.62C431.051 369.33 441.326 371.018 446.495 378.359C451.663 385.699 449.788 395.942 442.277 401.231C434.765 406.521 424.489 404.833 419.32 397.493C414.151 390.152 416.027 379.909 423.539 374.62Z" stroke="#222222"/>
<path d="M471.893 354.378C479.405 349.089 489.68 350.777 494.849 358.117C500.017 365.458 498.142 375.701 490.631 380.99C483.118 386.28 472.843 384.592 467.674 377.252C462.505 369.911 464.381 359.668 471.893 354.378Z" stroke="#222222"/>
<ellipse cx="407.842" cy="373.175" rx="3.19961" ry="3.13518" transform="rotate(-35.1498 407.842 373.175)" fill="#222222"/>
<ellipse cx="411.558" cy="362.889" rx="3.19961" ry="3.13518" transform="rotate(-35.1498 411.558 362.889)" fill="#222222"/>
<ellipse cx="397.194" cy="369.169" rx="3.19961" ry="3.13518" transform="rotate(-35.1498 397.194 369.169)" fill="#222222"/>
<ellipse cx="401.073" cy="358.002" rx="3.19961" ry="3.13518" transform="rotate(-35.1498 401.073 358.002)" fill="#222222"/>
<path fill-rule="evenodd" clip-rule="evenodd" d="M561.775 549.886C561.775 549.886 575.187 535.233 574.862 524.139C574.538 513.046 567.084 497.314 521.773 483.597C476.461 469.879 453.329 478.129 449.537 487.659C447.077 493.841 446.79 499.018 446.469 504.809C446.295 507.947 446.112 511.264 445.567 515.019L473.903 508.344C473.903 508.344 502.165 509.061 515.613 512.457C529.062 515.853 543.273 529.912 543.273 529.912L561.775 549.886Z" fill="#222222"/>
<path d="M561.775 549.886C561.775 549.886 542.98 559.266 528.636 558.47C514.292 557.675 480.02 549.069 470.289 543.536C460.559 538.002 449.665 525.436 445.567 515.019L473.903 508.344C473.903 508.344 495.703 524.653 508.484 529.565C521.265 534.477 543.273 529.912 543.273 529.912L561.775 549.886Z" fill="#222222"/>
<path d="M561.775 549.886C561.775 549.886 542.98 559.266 528.636 558.47C514.292 557.675 480.02 549.069 470.289 543.536C460.559 538.002 449.665 525.436 445.567 515.019M561.775 549.886C561.775 549.886 575.187 535.233 574.862 524.139C574.538 513.046 567.084 497.314 521.773 483.597C476.461 469.879 453.329 478.129 449.537 487.659C447.077 493.841 446.79 499.018 446.469 504.809C446.295 507.947 446.112 511.264 445.567 515.019M561.775 549.886L543.273 529.912M445.567 515.019C456.633 512.412 473.903 508.344 473.903 508.344M445.567 515.019L473.903 508.344M543.273 529.912C543.273 529.912 521.265 534.477 508.484 529.565C495.703 524.653 473.903 508.344 473.903 508.344M543.273 529.912C543.273 529.912 529.062 515.853 515.613 512.457C502.165 509.061 473.903 508.344 473.903 508.344" stroke="#222222" stroke-linecap="round"/>
<path fill-rule="evenodd" clip-rule="evenodd" d="M480.175 664.106C476.318 680.159 443.802 669.831 449.19 652.923C450.437 649.01 452.2 643.679 454.173 637.711C460.723 617.899 469.596 591.064 469.65 585.716C469.668 583.943 469.548 580.389 469.4 575.998C468.967 563.159 468.293 543.167 470.11 539.62C470.315 539.22 470.52 538.808 470.73 538.386C473.018 533.789 475.868 528.059 485.263 524.767C493.012 522.051 506.387 527.708 515.829 531.702C518.885 532.994 521.528 534.112 523.436 534.716C531.24 537.186 530.851 554.361 528.62 559.993C527.588 562.599 523.458 567.687 518.901 573.304C513.608 579.826 507.737 587.061 505.468 591.945C505.037 592.874 504.47 594.197 503.796 595.843C502.052 600.102 499.588 606.52 496.891 613.823C490.425 631.332 482.619 653.934 480.175 664.106Z" fill="#222222"/>
<path d="M505.21 617.82C499.991 617.768 496.891 613.823 496.891 613.823C499.588 606.52 502.052 600.102 503.796 595.843C503.796 595.843 511.715 597.879 512.985 601.371C514.255 604.863 510.428 617.872 505.21 617.82Z" fill="#222222"/>
<path d="M496.891 613.823C490.425 631.332 482.619 653.934 480.175 664.106C476.318 680.159 443.802 669.831 449.19 652.923C450.437 649.01 452.2 643.679 454.173 637.711C460.723 617.899 469.596 591.064 469.65 585.716C469.668 583.943 469.548 580.389 469.4 575.998C468.967 563.159 468.293 543.167 470.11 539.62C470.315 539.22 470.52 538.808 470.73 538.386C473.018 533.789 475.868 528.059 485.263 524.767C493.012 522.051 506.387 527.708 515.829 531.702C518.885 532.994 521.528 534.112 523.436 534.716C531.24 537.186 530.851 554.361 528.62 559.993C527.588 562.599 523.458 567.687 518.901 573.304C513.608 579.826 507.737 587.061 505.468 591.945C505.037 592.874 504.47 594.197 503.796 595.843M496.891 613.823C496.891 613.823 499.991 617.768 505.21 617.82C510.428 617.872 514.255 604.863 512.985 601.371C511.715 597.879 503.796 595.843 503.796 595.843M496.891 613.823C499.588 606.52 502.052 600.102 503.796 595.843" stroke="#222222" stroke-linecap="round"/>
<circle cx="9.13272" cy="9.13272" r="8.63272" transform="matrix(-0.981575 -0.191076 -0.191076 0.981575 520.305 543.432)" stroke="#222222"/>
<circle cx="5.07484" cy="5.07484" r="4.57484" transform="matrix(-0.981575 -0.191076 -0.191076 0.981575 495.157 535.621)" stroke="#222222"/>
<circle cx="5.07484" cy="5.07484" r="4.57484" transform="matrix(-0.981575 -0.191076 -0.191076 0.981575 491.522 551.241)" stroke="#222222"/>
<path fill-rule="evenodd" clip-rule="evenodd" d="M139.141 149.057C135.275 151.513 130.998 158.582 129.683 162.872C128.675 166.159 126.408 186.631 125.059 198.813C124.648 202.532 124.321 205.478 124.143 206.926C123.379 213.118 114.233 220.162 107.045 221.947C99.8575 223.732 88.0842 221.074 83.3672 215.149C78.6501 209.223 43.1107 144.438 43.3076 126.284C43.5045 108.13 44.0647 86.9476 54.9411 81.672C54.9411 81.672 55.7973 72.6101 59.1792 70.2509C62.561 67.8917 78.4735 57.8063 81.2783 57.5761C84.0832 57.3459 89.4408 60.6263 89.4408 60.6263C90.3851 58.7102 91.2035 58.3582 92.4859 57.8067C92.6078 57.7543 92.7338 57.7001 92.8645 57.6426C92.8645 57.6426 115.917 82.9614 118.341 86.6655C120.514 89.9866 127.011 90.0091 130.516 90.0212C130.92 90.0226 131.285 90.0239 131.598 90.03C134.629 90.0897 161.761 79.0835 164.435 77.3704C166.749 75.8874 166.731 74.3926 166.691 71.0614L166.691 71.0609C166.684 70.5439 166.678 69.9826 166.679 69.3703C166.689 64.9187 154.146 40.8285 152.422 40.546L152.317 40.5671C150.775 40.878 149.123 40.1693 147.574 39.5051C146.208 38.9194 144.923 38.3682 143.866 38.5815C143.866 38.5815 143.796 34.9057 147.341 34.1907C148.328 33.9918 149.958 33.5722 151.857 33.0833C156.785 31.8147 163.528 30.0792 165.553 30.5182C168.359 31.1263 171.657 36.667 171.657 36.667C175.203 35.952 176.331 35.7245 179.718 36.7187C180.69 37.0039 181.393 37.2604 182.105 37.5196C183.873 38.164 185.688 38.8254 191.782 39.9883C200.33 41.6192 244.961 105.746 245.369 119.417C245.471 122.802 245.739 125.588 245.968 127.962C246.662 135.173 246.99 138.576 241.151 143.413C233.391 149.842 222.074 150.279 217.621 148.158C213.269 146.085 194.666 130.545 193.825 129.841C193.798 129.819 193.785 129.81 193.754 129.793C193.212 129.481 187.448 126.273 182.54 128.061C177.384 129.94 143.006 146.6 139.141 149.057Z" fill="#222222"/>
<path d="M95.721 56.0054C99.2315 53.4525 132.745 40.824 136.13 40.1415L143.866 38.5815C144.923 38.3682 146.208 38.9194 147.574 39.5051C149.123 40.1693 150.775 40.878 152.317 40.5671L152.422 40.546C154.146 40.8285 166.689 64.9187 166.679 69.3703C166.678 69.9826 166.684 70.5439 166.691 71.0609L166.691 71.0614C166.731 74.3926 166.749 75.8874 164.435 77.3704C161.761 79.0835 134.629 90.0897 131.598 90.03C131.285 90.0239 130.92 90.0226 130.516 90.0212C127.011 90.0091 120.514 89.9866 118.341 86.6655C115.917 82.9614 92.8645 57.6426 92.8645 57.6426C93.6248 57.3081 94.5438 56.8615 95.721 56.0054Z" fill="#222222"/>
<path d="M54.9411 81.672C44.0647 86.9476 43.5045 108.13 43.3076 126.284C43.1107 144.438 78.6501 209.223 83.3672 215.149C88.0842 221.074 99.8575 223.732 107.045 221.947C114.233 220.162 123.379 213.118 124.143 206.926C124.321 205.478 124.648 202.532 125.059 198.813C126.408 186.631 128.675 166.159 129.683 162.872C130.998 158.582 135.275 151.513 139.141 149.057C143.006 146.6 177.384 129.94 182.54 128.061C187.448 126.273 193.212 129.481 193.754 129.793M54.9411 81.672C65.8174 76.3965 87.885 63.7831 89.4408 60.6263M54.9411 81.672C54.9411 81.672 55.7973 72.6101 59.1792 70.2509C62.561 67.8917 78.4735 57.8063 81.2783 57.5761C84.0832 57.3459 89.4408 60.6263 89.4408 60.6263M89.4408 60.6263C90.3851 58.7102 91.2035 58.3582 92.4859 57.8067C92.6078 57.7543 92.7338 57.7001 92.8645 57.6426M136.13 40.1415C132.745 40.824 99.2314 53.4525 95.721 56.0054C94.5438 56.8615 93.6248 57.3081 92.8645 57.6426M136.13 40.1415C139.514 39.459 141.609 39.0365 143.866 38.5815M136.13 40.1415L143.866 38.5815M143.866 38.5815C143.866 38.5815 143.796 34.9057 147.341 34.1907C148.328 33.9918 149.958 33.5722 151.857 33.0833C156.785 31.8147 163.528 30.0792 165.553 30.5182C168.359 31.1263 171.657 36.667 171.657 36.667M143.866 38.5815C144.923 38.3682 146.208 38.9194 147.574 39.5051C149.123 40.1693 150.775 40.878 152.317 40.5671M152.317 40.5671C155.218 39.9821 168.111 37.382 171.657 36.667M152.317 40.5671L152.422 40.546M152.317 40.5671C152.345 40.5461 152.38 40.5392 152.422 40.546M171.657 36.667C175.203 35.952 176.331 35.7245 179.718 36.7187C180.69 37.0039 181.393 37.2604 182.105 37.5196C183.873 38.164 185.688 38.8254 191.782 39.9883C200.33 41.6192 244.961 105.746 245.369 119.417C245.471 122.802 245.739 125.588 245.968 127.962C246.662 135.173 246.99 138.576 241.151 143.413C233.391 149.842 222.074 150.279 217.621 148.158C213.269 146.085 194.666 130.545 193.825 129.841M92.8645 57.6426C92.8645 57.6426 115.917 82.9614 118.341 86.6655C120.514 89.9866 127.011 90.0091 130.516 90.0212C130.92 90.0226 131.285 90.0239 131.598 90.03C134.629 90.0897 161.761 79.0835 164.435 77.3704C166.749 75.8874 166.731 74.3926 166.691 71.0614L166.691 71.0609C166.684 70.5439 166.678 69.9826 166.679 69.3703C166.689 64.9187 154.146 40.8285 152.422 40.546M193.754 129.793C193.785 129.81 193.798 129.819 193.825 129.841M193.754 129.793C193.757 129.794 193.76 129.796 193.763 129.797C193.785 129.81 193.805 129.825 193.825 129.841" stroke="#222222" stroke-linecap="round"/>
<path d="M87.6036 80.6222C88.9552 84.0176 91.0237 87.7693 92.1249 89.6848C92.559 90.4399 93.4576 90.7733 94.2812 90.4898C96.1796 89.8364 99.9258 88.5069 105.057 86.4951C112.673 83.5089 117.165 96.6326 112.752 99.7028C109.642 101.867 105.858 104 103.896 105.071C103.124 105.492 102.734 106.381 102.979 107.226C103.688 109.677 105.24 114.732 106.945 118.317C109.275 123.214 93.9841 129.729 92.0597 125.176C90.6625 121.871 88.1907 117.183 86.9413 114.863C86.5017 114.046 85.5323 113.685 84.665 114.013C82.5133 114.827 78.345 116.431 74.0566 118.24C67.8736 120.848 62.1047 104.717 67.3895 102.645C70.9639 101.243 75.1132 99.6492 77.4245 98.7642C78.4084 98.3875 78.8913 97.2769 78.5108 96.2945C77.5831 93.8992 75.945 89.5059 74.8753 85.7048C73.312 80.1498 85.6876 75.8092 87.6036 80.6222Z" stroke="#222222" stroke-linecap="round"/>
<circle cx="17.5921" cy="17.5921" r="17.0921" transform="matrix(-0.980267 0.197678 0.197678 0.980267 198.321 77.4131)" stroke="#222222"/>
<circle cx="17.5921" cy="17.5921" r="17.0921" transform="matrix(-0.980267 0.197678 0.197678 0.980267 149.091 99.4175)" stroke="#222222"/>
<circle cx="3.28824" cy="3.28824" r="3.28824" transform="matrix(-0.980267 0.197678 0.197678 0.980267 193.726 64.5879)" fill="#222222"/>
<circle cx="3.28824" cy="3.28824" r="3.28824" transform="matrix(-0.980267 0.197678 0.197678 0.980267 183.4 59.9609)" fill="#222222"/>
<circle cx="3.28824" cy="3.28824" r="3.28824" transform="matrix(-0.980267 0.197678 0.197678 0.980267 198.223 53.6172)" fill="#222222"/>
<circle cx="3.28824" cy="3.28824" r="3.28824" transform="matrix(-0.980267 0.197678 0.197678 0.980267 187.122 48.4766)" fill="#222222"/>
</svg>
