<svg width="1360" height="1304" viewBox="0 0 1360 1304" fill="none" xmlns="http://www.w3.org/2000/svg">
<rect y="95" width="1360" height="1209" rx="48" fill="#222222"/>
<path d="M118.882 76.3869C114.5 96 96 99 96 99L354 101.602L325.397 0H141.765C141.765 0 123.265 56.7737 118.882 76.3869Z" fill="#222222"/>
<path d="M202.188 65V44.062H192.156V65H186.988V39.768H207.394V65H202.188ZM220.425 45.43H220.387L217.157 55.462H223.579L220.425 45.43ZM226.695 65L225.099 59.794H215.789L214.003 65H208.417L217.423 39.768H223.541L232.433 65H226.695ZM241.271 53.942V49.572H243.627C245.071 49.572 246.185 49.268 246.971 48.66C247.756 48.0267 248.149 47.2033 248.149 46.19C248.149 45.2273 247.769 44.4927 247.009 43.986C246.274 43.4793 245.096 43.226 243.475 43.226C241.701 43.226 240.409 43.5553 239.599 44.214C238.788 44.8727 238.383 45.9493 238.383 47.444H233.405C233.405 46.228 233.582 45.1007 233.937 44.062C234.317 43.0233 234.899 42.124 235.685 41.364C236.495 40.604 237.534 40.0087 238.801 39.578C240.093 39.1473 241.663 38.932 243.513 38.932C245.159 38.932 246.591 39.1093 247.807 39.464C249.048 39.7933 250.061 40.262 250.847 40.87C251.657 41.478 252.253 42.2127 252.633 43.074C253.038 43.91 253.241 44.8347 253.241 45.848C253.241 47.2667 252.886 48.47 252.177 49.458C251.467 50.4207 250.429 51.0793 249.061 51.434C250.505 51.7127 251.695 52.384 252.633 53.448C253.57 54.512 254.039 55.956 254.039 57.78C254.039 60.288 253.101 62.264 251.227 63.708C249.377 65.152 246.781 65.874 243.437 65.874C241.562 65.874 239.966 65.646 238.649 65.19C237.331 64.734 236.242 64.1007 235.381 63.29C234.545 62.4793 233.924 61.5293 233.519 60.44C233.139 59.3253 232.949 58.122 232.949 56.83H238.041C238.142 58.35 238.611 59.5153 239.447 60.326C240.283 61.1113 241.663 61.504 243.589 61.504C245.261 61.504 246.553 61.1873 247.465 60.554C248.377 59.8953 248.833 58.8693 248.833 57.476C248.833 56.108 248.389 55.1833 247.503 54.702C246.641 54.1953 245.413 53.942 243.817 53.942H241.271ZM271.878 65V44.062H265.076L264.772 49.61C264.595 52.9287 264.303 55.6013 263.898 57.628C263.493 59.6547 262.923 61.2127 262.188 62.302C261.479 63.3913 260.567 64.1133 259.452 64.468C258.363 64.8227 257.02 65 255.424 65H254.474V60.516H255.082C255.943 60.516 256.665 60.402 257.248 60.174C257.831 59.946 258.312 59.452 258.692 58.692C259.097 57.932 259.401 56.83 259.604 55.386C259.832 53.942 260.022 52.0167 260.174 49.61L260.744 39.768H277.084V65H271.878Z" fill="white"/>
</svg>
