<svg width="323" height="281" viewBox="0 0 323 281" fill="none" xmlns="http://www.w3.org/2000/svg">
<path d="M91.549 129.364C85.0049 139.198 68.5679 235.693 68.5679 235.693C68.5679 235.693 118.045 217.971 123.611 212.662C123.611 212.662 149.152 170.822 151.904 164.905C154.655 158.988 164.703 162.935 165.695 167.886C166.687 172.836 177.047 209.411 177.047 209.411C182.799 210.062 247.017 214.174 254.616 215.816C262.215 217.459 271.128 238.921 277.785 239.472C284.441 240.023 307.535 127.798 307.535 127.798C307.535 127.798 233.915 104.487 192.175 97.2413C150.435 89.9959 98.0932 119.531 91.549 129.364Z" fill="#FADBA7"/>
<path fill-rule="evenodd" clip-rule="evenodd" d="M256.283 45.9774C264.817 49.8586 300.197 128.127 307.535 127.798C307.535 127.798 233.915 104.487 192.175 97.2413C150.435 89.9959 98.0932 119.531 91.549 129.364C85.0049 139.198 68.5679 235.693 68.5679 235.693C63.4056 235.999 19.8404 169.78 16.4502 164.614C16.3001 164.386 16.4163 164.887 16.4502 164.614C17.3111 157.703 29.5771 60.6671 40.3611 54.149C51.5437 47.39 114.149 15.2576 161.715 25.5381L256.283 45.9774ZM131.538 205.121L131.537 205.122C131.389 205.34 131.243 205.557 131.098 205.771C131.243 205.556 131.39 205.34 131.538 205.121Z" fill="#FADBA7"/>
<path d="M152.13 185.674C163.144 189.239 177.049 209.412 177.049 209.412C177.049 209.412 166.689 172.837 165.697 167.886C164.705 162.936 154.658 158.988 151.906 164.906C149.154 170.823 127.479 207.409 123.613 212.662C123.613 212.662 141.117 182.11 152.13 185.674Z" fill="#FADBA7"/>
<path d="M66.5841 235.264L89.3944 129.726C89.504 129.219 89.8056 128.775 90.2407 128.493C96.8806 124.183 151.068 90.0215 190.191 96.8127C214.815 101.087 250.535 110.953 275.689 118.326M66.5841 235.264L123.613 212.662M66.5841 235.264L14.7892 164.593C14.451 164.131 14.3266 163.547 14.4475 162.988L38.0173 53.9358C38.1435 53.3521 38.5238 52.8556 39.0578 52.5881C47.3524 48.4325 115.137 15.4713 159.731 25.1095C203.705 34.6137 247.198 44.014 253.515 45.3794C254.036 45.4921 254.46 45.8019 254.747 46.2516L306.677 127.613M254.618 215.817L177.049 209.412M254.618 215.817L275.689 118.326M254.618 215.817L278.827 241.473M177.049 209.412C177.049 209.412 163.144 189.239 152.13 185.674C141.117 182.11 123.613 212.662 123.613 212.662M177.049 209.412C177.049 209.412 166.689 172.837 165.697 167.886C164.705 162.936 154.658 158.988 151.906 164.906C149.154 170.823 127.479 207.409 123.613 212.662M275.689 118.326L306.677 127.613M275.689 118.326L277.258 179.9L278.827 241.473M306.677 127.613L278.827 241.473" stroke="#E2AE58" stroke-width="2"/>
<path d="M50.5485 109.092C56.8438 110.452 60.8465 116.686 59.477 123.023C58.1072 129.359 51.8876 133.383 45.5925 132.022C39.2974 130.661 35.2946 124.428 36.6639 118.092C38.0334 111.755 44.2533 107.731 50.5485 109.092Z" fill="#E2AE58" stroke="#E2AE58" stroke-width="2"/>
<path d="M208.586 147.987C220.011 150.456 227.27 161.766 224.786 173.257C222.303 184.747 211.021 192.05 199.596 189.581C188.172 187.111 180.914 175.801 183.397 164.311C185.881 152.821 197.162 145.518 208.586 147.987Z" fill="#E2AE58" stroke="#E2AE58" stroke-width="2"/>
<path d="M116.937 149.492C128.362 151.961 135.62 163.272 133.137 174.762C130.653 186.252 119.372 193.555 107.947 191.086C96.5222 188.617 89.2643 177.307 91.7478 165.816C94.2313 154.326 105.512 147.023 116.937 149.492Z" fill="#E2AE58" stroke="#E2AE58" stroke-width="2"/>
</svg>
