<svg width="277" height="240" viewBox="0 0 277 240" fill="none" xmlns="http://www.w3.org/2000/svg">
<path d="M197.9 110.529C203.504 118.924 217.526 201.332 217.526 201.332C217.526 201.332 175.113 186.232 170.344 181.702C170.344 181.702 148.475 145.984 146.12 140.932C143.765 135.88 135.147 139.259 134.292 143.488C133.438 147.717 124.526 178.966 124.526 178.966C119.594 179.526 64.5246 183.087 58.0071 184.495C51.4896 185.904 43.8307 204.243 38.1222 204.718C32.4137 205.194 12.6964 109.355 12.6964 109.355C12.6964 109.355 75.8423 89.3879 111.639 83.1677C147.436 76.9474 192.296 102.135 197.9 110.529Z" fill="#FADBA7"/>
<path fill-rule="evenodd" clip-rule="evenodd" d="M56.7065 39.4294C49.3858 42.7509 18.9884 109.63 12.6964 109.355C12.6964 109.355 75.8423 89.3879 111.639 83.1677C147.436 76.9474 192.296 102.135 197.9 110.529C203.504 118.924 217.526 201.332 217.526 201.332C221.952 201.59 259.359 144.996 262.27 140.581C262.399 140.385 262.299 140.813 262.27 140.581C261.537 134.679 251.093 51.8048 241.85 46.2456C232.267 40.4809 178.607 13.0826 137.813 21.8996L56.7065 39.4294Z" fill="#FADBA7"/>
<path d="M145.91 158.672C136.463 161.725 124.524 178.966 124.524 178.966C124.524 178.966 133.436 147.718 134.29 143.489C135.145 139.26 143.763 135.88 146.118 140.932C148.474 145.984 167.032 177.218 170.342 181.702C170.342 181.702 155.356 155.619 145.91 158.672Z" fill="#FADBA7"/>
<path d="M219.227 200.964L199.773 110.955C199.663 110.446 199.376 110.011 198.939 109.73C192.89 105.831 146.734 76.9975 113.341 82.8001C92.2222 86.4697 61.5854 94.9239 40.0109 101.24M219.227 200.964L170.342 181.702M219.227 200.964L263.616 140.667C263.956 140.206 264.081 139.62 263.96 139.059L243.89 46.1988C243.763 45.6136 243.401 45.1261 242.865 44.8595C235.312 41.1039 177.58 13.3047 139.514 21.532C102.055 29.6282 65.0028 37.6364 59.1944 38.8918C58.6744 39.0042 58.2463 39.3136 57.9591 39.7615L13.4322 109.196M58.0053 184.496L124.524 178.966M58.0053 184.496L40.0109 101.24M58.0053 184.496L37.2266 206.429M124.524 178.966C124.524 178.966 136.463 161.725 145.91 158.672C155.356 155.619 170.342 181.702 170.342 181.702M124.524 178.966C124.524 178.966 133.436 147.718 134.29 143.489C135.145 139.26 143.763 135.88 146.118 140.932C148.474 145.984 167.032 177.218 170.342 181.702M40.0109 101.24L13.4322 109.196M40.0109 101.24L38.6188 153.834L37.2266 206.429M13.4322 109.196L37.2266 206.429" stroke="#E2AE58" stroke-width="2"/>
<path d="M233.104 93.3252C227.779 94.4763 224.394 99.7288 225.546 105.058C226.698 110.387 231.949 113.773 237.275 112.622C242.6 111.471 245.985 106.218 244.833 100.889C243.681 95.5603 238.43 92.1743 233.104 93.3252Z" fill="#E2AE58" stroke="#E2AE58" stroke-width="2"/>
<path d="M97.5593 126.666C87.8343 128.768 81.6541 138.36 83.7571 148.09C85.8601 157.821 95.4498 164.004 105.175 161.902C114.9 159.8 121.079 150.208 118.976 140.478C116.873 130.748 107.284 124.565 97.5593 126.666Z" fill="#E2AE58" stroke="#E2AE58" stroke-width="2"/>
<path d="M176.146 127.883C166.422 129.985 160.241 139.576 162.344 149.306C164.447 159.037 174.037 165.22 183.762 163.118C193.487 161.016 199.666 151.425 197.563 141.694C195.46 131.964 185.871 125.781 176.146 127.883Z" fill="#E2AE58" stroke="#E2AE58" stroke-width="2"/>
</svg>
