<svg width="175" height="223" viewBox="0 0 175 223" fill="none" xmlns="http://www.w3.org/2000/svg">
<path fill-rule="evenodd" clip-rule="evenodd" d="M143.941 99.8705C143.941 99.8705 160.517 88.9253 162.905 78.0869C165.292 67.2485 161.895 50.1755 121.289 25.8346C80.6834 1.49378 56.2379 3.86058 50.2389 12.1802C46.348 17.5761 44.8085 22.528 43.0867 28.0663C42.1538 31.0671 41.1674 34.2401 39.7244 37.7491L68.833 38.1764C68.833 38.1764 96.0693 45.7558 108.285 52.3254C120.502 58.8949 130.861 75.9922 130.861 75.9922L143.941 99.8705Z" fill="#EFA7FF"/>
<path d="M143.941 99.8705C143.941 99.8705 123.427 104.39 109.708 100.125C95.9901 95.8594 64.8462 79.1652 56.7567 71.4283C48.6673 63.6913 41.1618 48.8501 39.7244 37.7491L68.833 38.1764C68.833 38.1764 86.0041 59.3046 97.2037 67.1814C108.403 75.0583 130.861 75.9922 130.861 75.9922L143.941 99.8705Z" fill="#EFA7FF"/>
<path d="M143.941 99.8705C143.941 99.8705 123.427 104.39 109.708 100.125C95.9901 95.8594 64.8462 79.1652 56.7567 71.4283C48.6673 63.6913 41.1618 48.8501 39.7244 37.7491M143.941 99.8705C143.941 99.8705 160.517 88.9253 162.905 78.0869C165.292 67.2485 161.895 50.1755 121.289 25.8346C80.6834 1.49378 56.2379 3.86058 50.2389 12.1802C46.348 17.5761 44.8085 22.528 43.0867 28.0663C42.1538 31.0671 41.1674 34.2401 39.7244 37.7491M143.941 99.8705L130.861 75.9922M39.7244 37.7491C51.092 37.9159 68.833 38.1764 68.833 38.1764M39.7244 37.7491L68.833 38.1764M130.861 75.9922C130.861 75.9922 108.403 75.0583 97.2037 67.1814C86.0041 59.3046 68.833 38.1764 68.833 38.1764M130.861 75.9922C130.861 75.9922 120.502 58.8949 108.285 52.3254C96.0693 45.7558 68.833 38.1764 68.833 38.1764" stroke="#E367FF" stroke-width="2" stroke-linecap="round"/>
<path fill-rule="evenodd" clip-rule="evenodd" d="M36.977 190.775C29.3259 205.405 0.305292 187.469 9.64921 172.382C11.8122 168.89 14.8199 164.149 18.1872 158.842C29.3662 141.222 44.5083 117.356 45.8626 112.183C46.3116 110.467 47.0611 106.991 47.987 102.696C50.6942 90.1384 54.9099 70.5839 57.5368 67.5868C57.833 67.2489 58.1323 66.8991 58.4385 66.5413C61.7769 62.6394 65.9374 57.7767 75.8511 56.8718C84.028 56.1254 95.6222 64.8697 103.807 71.0429C106.456 73.0405 108.748 74.769 110.451 75.8194C117.418 80.1157 112.857 96.6788 109.322 101.597C107.687 103.873 102.442 107.803 96.6533 112.14C89.931 117.177 82.475 122.763 79.0847 126.948C78.4405 127.744 77.5686 128.889 76.5141 130.321C73.7846 134.028 69.8318 139.651 65.4372 146.078C54.901 161.485 41.8248 181.505 36.977 190.775Z" fill="#EFA7FF"/>
<path d="M72.5317 151.981C67.4831 150.659 65.4372 146.078 65.4372 146.078C69.8318 139.651 73.7846 134.028 76.5141 130.321C76.5141 130.321 83.6984 134.225 84.0795 137.921C84.4605 141.617 77.5804 153.303 72.5317 151.981Z" fill="#EFA7FF"/>
<path d="M65.4372 146.078C54.901 161.485 41.8248 181.505 36.977 190.775C29.3259 205.405 0.305294 187.469 9.64921 172.382C11.8122 168.89 14.8199 164.149 18.1872 158.842C29.3662 141.222 44.5083 117.356 45.8626 112.183C46.3117 110.467 47.0611 106.991 47.987 102.696C50.6942 90.1384 54.9099 70.5839 57.5368 67.5868C57.833 67.2489 58.1323 66.8991 58.4385 66.5413C61.7769 62.6394 65.9374 57.7767 75.8511 56.8718C84.028 56.1254 95.6222 64.8697 103.807 71.0429C106.456 73.0405 108.748 74.769 110.451 75.8194C117.418 80.1157 112.857 96.6788 109.322 101.597C107.687 103.873 102.442 107.803 96.6533 112.14C89.931 117.177 82.475 122.763 79.0847 126.948C78.4405 127.744 77.5686 128.889 76.5141 130.321M65.4372 146.078C65.4372 146.078 67.4831 150.659 72.5317 151.981C77.5804 153.303 84.4605 141.617 84.0795 137.921C83.6984 134.225 76.5141 130.321 76.5141 130.321M65.4372 146.078C69.8318 139.651 73.7846 134.028 76.5141 130.321" stroke="#E367FF" stroke-width="2" stroke-linecap="round"/>
<circle cx="9.13272" cy="9.13272" r="8.13272" transform="matrix(-0.905473 -0.424405 -0.424405 0.905473 105.291 83.5103)" fill="#E367FF" stroke="#E367FF" stroke-width="2"/>
<circle cx="5.07484" cy="5.07484" r="4.07484" transform="matrix(-0.905473 -0.424405 -0.424405 0.905473 82.8035 69.8096)" fill="#E367FF" stroke="#E367FF" stroke-width="2"/>
<circle cx="5.07484" cy="5.07484" r="4.07484" transform="matrix(-0.905473 -0.424405 -0.424405 0.905473 75.4735 84.0738)" fill="#E367FF" stroke="#E367FF" stroke-width="2"/>
</svg>
