<svg width="274" height="266" viewBox="0 0 274 266" fill="none" xmlns="http://www.w3.org/2000/svg">
<path fill-rule="evenodd" clip-rule="evenodd" d="M154.354 67.3886C154.354 67.3886 151.419 44.217 141.226 36.0681C131.034 27.9193 111.259 22.6342 64.4893 52.823C17.7195 83.0117 7.51735 110.028 13.177 120.678C16.8478 127.585 21.2716 131.782 26.2193 136.475C28.9001 139.018 31.7347 141.707 34.6866 145.052L50.2585 114.568C50.2585 114.568 72.4024 89.7748 85.6783 80.3012C98.9542 70.8276 122.371 68.7816 122.371 68.7816L154.354 67.3886Z" fill="#A646F8"/>
<path d="M154.354 67.3886C154.354 67.3886 148.465 91.3757 136.839 103.631C125.213 115.886 91.4249 140.066 79.0613 144.58C66.6976 149.094 47.1433 149.302 34.6866 145.052L50.2585 114.568C50.2585 114.568 81.4658 107.43 95.5927 99.7083C109.72 91.986 122.371 68.7816 122.371 68.7816L154.354 67.3886Z" fill="#A646F8"/>
<path d="M154.354 67.3886C154.354 67.3886 148.465 91.3757 136.839 103.631C125.213 115.886 91.4249 140.066 79.0613 144.58C66.6976 149.094 47.1433 149.302 34.6866 145.052M154.354 67.3886C154.354 67.3886 151.419 44.217 141.226 36.0681C131.034 27.9193 111.259 22.6342 64.4893 52.823C17.7195 83.0117 7.51736 110.028 13.177 120.678C16.8478 127.585 21.2716 131.782 26.2193 136.475C28.9001 139.018 31.7347 141.707 34.6866 145.052M154.354 67.3886L122.371 68.7816M34.6866 145.052C40.7678 133.147 50.2585 114.568 50.2585 114.568M34.6866 145.052L50.2585 114.568M122.371 68.7816C122.371 68.7816 109.72 91.986 95.5927 99.7083C81.4658 107.43 50.2585 114.568 50.2585 114.568M122.371 68.7816C122.371 68.7816 98.9542 70.8276 85.6783 80.3012C72.4024 89.7748 50.2585 114.568 50.2585 114.568" stroke="#5A1E8D" stroke-width="2" stroke-linecap="round"/>
<path fill-rule="evenodd" clip-rule="evenodd" d="M194.68 227.443C206.139 243.113 172.143 264.409 161.083 246.715C158.522 242.619 155.084 236.984 151.235 230.675C138.456 209.73 121.146 181.359 116.392 177.243C114.816 175.878 111.538 173.282 107.489 170.074C95.6488 160.695 77.2115 146.09 75.4146 141.762C75.212 141.274 74.9985 140.776 74.78 140.268C72.3984 134.719 69.4302 127.804 73.6256 116.877C77.0859 107.863 92.3329 100.176 103.097 94.7483C106.58 92.992 109.594 91.4725 111.586 90.2213C119.738 85.1038 134.84 98.5189 138.192 104.803C139.743 107.711 141.164 115.284 142.732 123.644C144.553 133.351 146.573 144.118 149.226 149.869C149.73 150.961 150.486 152.476 151.449 154.332C153.941 159.137 157.82 166.228 162.316 174.202C173.095 193.32 187.42 217.513 194.68 227.443Z" fill="#A646F8"/>
<path d="M172.228 169.785C168.211 174.424 162.316 174.202 162.316 174.202C157.82 166.228 153.941 159.137 151.449 154.332C151.449 154.332 159.299 148.782 163.396 150.3C167.492 151.818 176.245 165.146 172.228 169.785Z" fill="#A646F8"/>
<path d="M162.316 174.202C173.095 193.32 187.42 217.513 194.68 227.443C206.139 243.113 172.143 264.409 161.083 246.715C158.522 242.619 155.084 236.984 151.235 230.675C138.456 209.73 121.146 181.359 116.392 177.243C114.816 175.878 111.538 173.282 107.489 170.074C95.6488 160.695 77.2115 146.09 75.4146 141.762C75.212 141.274 74.9985 140.776 74.78 140.268C72.3984 134.719 69.4302 127.804 73.6256 116.877C77.0859 107.863 92.3329 100.176 103.097 94.7483C106.58 92.992 109.594 91.4725 111.586 90.2213C119.738 85.1038 134.84 98.5189 138.192 104.803C139.743 107.711 141.164 115.284 142.732 123.644C144.553 133.351 146.573 144.118 149.226 149.869C149.73 150.961 150.486 152.476 151.449 154.332M162.316 174.202C162.316 174.202 168.211 174.424 172.228 169.785C176.245 165.146 167.492 151.818 163.396 150.3C159.299 148.782 151.449 154.332 151.449 154.332M162.316 174.202C157.82 166.228 153.941 159.137 151.449 154.332" stroke="#5A1E8D" stroke-width="2" stroke-linecap="round"/>
<circle cx="10.7386" cy="10.7386" r="9.73856" transform="matrix(-0.780772 0.624815 0.624815 0.780772 117.019 99.6592)" fill="#5A1E8D" stroke="#5A1E8D" stroke-width="2"/>
<circle cx="5.96717" cy="5.96717" r="4.96717" transform="matrix(-0.780772 0.624815 0.624815 0.780772 90.8842 116.264)" fill="#5A1E8D" stroke="#5A1E8D" stroke-width="2"/>
<circle cx="5.96717" cy="5.96717" r="4.96717" transform="matrix(-0.780772 0.624815 0.624815 0.780772 102.123 131.406)" fill="#5A1E8D" stroke="#5A1E8D" stroke-width="2"/>
</svg>
